<svg xmlns="http://www.w3.org/2000/svg" viewBox="0 0 103.68 104.04"><defs><style>.cls-1{opacity:0.5;}.cls-2{fill:#807c66;}</style></defs><title>Recurso 1icon</title><g id="Capa_2" data-name="Capa 2"><g id="Capa_1-2" data-name="Capa 1"><g id="KvZJaU" class="cls-1"><path class="cls-2" d="M98.75,1c-1.49,3.33-3,6.64-4.42,10a4.38,4.38,0,0,0,.13,2.06,19.71,19.71,0,0,1-.68,8.63,5.46,5.46,0,0,1-6.53,4,2.41,2.41,0,0,1-1.18-.65,5.45,5.45,0,0,1-.77-7.51,21.89,21.89,0,0,1,6.09-6,6.81,6.81,0,0,0,1.88-2c1.57-2.56,3-5.19,4.56-7.77a3.93,3.93,0,0,1,.91-.8Z"/><path class="cls-2" d="M82.5,70.17c-2.6,4-5.36,7.85-9.76,10a8.29,8.29,0,0,1-5.64.58A4.41,4.41,0,0,1,63.62,77a4.12,4.12,0,0,1,2.63-4A15,15,0,0,1,74,71.75C76.94,72,79.86,72,82.5,70.17Z"/><path class="cls-2" d="M87.67,58.44a30.52,30.52,0,0,1-7.39,9.41A9.54,9.54,0,0,1,73.47,70a4.5,4.5,0,0,1-4.22-3.35c-.43-1.75.43-3.45,2.36-4.51a16.34,16.34,0,0,1,8.05-1.63C82.51,60.51,85.3,60.4,87.67,58.44Z"/><path class="cls-2" d="M53.44,56.86c.2,3.1,2,5.25,3.86,7.38A16.14,16.14,0,0,1,61.15,71c.51,2.11-.13,4-1.62,4.83A4.45,4.45,0,0,1,54.1,75a9.1,9.1,0,0,1-2.84-5.81A28,28,0,0,1,53.44,56.86Z"/><path class="cls-2" d="M65.33,34.76c-.06,2.9,1.33,5.13,2.92,7.34a36.77,36.77,0,0,1,2.82,4.84,8.7,8.7,0,0,1,.76,2.68c.32,2.26-.46,4-2,4.65a4.49,4.49,0,0,1-5.42-1.46,9.11,9.11,0,0,1-2.2-5.65C62.07,42.75,63.48,38.72,65.33,34.76Z"/><path class="cls-2" d="M59.51,45.45c0,2.87,1.46,5,3,7.27a33.61,33.61,0,0,1,3.65,6.59c1,2.49.11,4.79-1.7,5.63-2.16,1-4.52.16-6.08-2.1a9.83,9.83,0,0,1-1.77-6.1A30.49,30.49,0,0,1,59.51,45.45Z"/><path class="cls-2" d="M92.67,47C90.61,51.4,88,55.28,83.84,57.94A8.08,8.08,0,0,1,78,59.09a4.44,4.44,0,0,1-3.69-3.44,3.81,3.81,0,0,1,2.35-4.24,32.72,32.72,0,0,1,5.89-1.74A14.57,14.57,0,0,1,86,49.44,9.89,9.89,0,0,0,92.69,47Z"/><path class="cls-2" d="M97.88,36.18c0,.3.05.66-.09.89a30.88,30.88,0,0,1-7.26,8.69,9.21,9.21,0,0,1-7.25,1.94,4.42,4.42,0,0,1-3.72-3.55A4,4,0,0,1,81.84,40a15.14,15.14,0,0,1,7-1.65A31.27,31.27,0,0,0,94.2,38a16.21,16.21,0,0,0,3.68-1.83Z"/><path class="cls-2" d="M103.15,24.68a28.67,28.67,0,0,1-7.24,10,8.64,8.64,0,0,1-7.48,2,4.08,4.08,0,0,1-3.34-3.42A3.76,3.76,0,0,1,87,29.32a15.22,15.22,0,0,1,8.18-2.23C98.05,27,100.83,26.7,103.15,24.68Z"/><path class="cls-2" d="M76.62,12.51A11.68,11.68,0,0,0,79,19.35a52.39,52.39,0,0,1,3.26,5.88,7.37,7.37,0,0,1,.59,2.58c.18,2-.64,3.62-2.07,4.27a4.15,4.15,0,0,1-5.1-1.19,12.13,12.13,0,0,1-2.34-5.13C72.78,21,74.59,16.71,76.62,12.51Z"/><path class="cls-2" d="M70.51,23.67c.08,2.74,1.39,4.89,3,7a51.93,51.93,0,0,1,3.63,6A6,6,0,0,1,77.68,39a3.83,3.83,0,0,1-1.82,4A4.39,4.39,0,0,1,71,42.5a8.65,8.65,0,0,1-3.13-6.11C67.52,31.93,68.81,27.78,70.51,23.67Z"/><path class="cls-2" d="M3.78,32.17c1.28,1.65,2.62,3.25,3.81,5A9.3,9.3,0,0,0,10.92,40a29.29,29.29,0,0,1,5.84,4.31,4.53,4.53,0,0,1-.12,6.27c-1.39,1.46-5.14.81-6.28-1.29a12.47,12.47,0,0,1-1.84-5.11c-.15-3.88-2-6.94-3.84-10.1-.34-.6-.59-1.25-.88-1.88Z"/><path class="cls-2" d="M2.35,52.57C4.46,53.81,6.69,53.82,9,53.71a25.33,25.33,0,0,1,6.39.55,3.51,3.51,0,0,1,3.06,3.79,4,4,0,0,1-4.09,3.37A8.31,8.31,0,0,1,9.21,60,25.72,25.72,0,0,1,2.35,52.57Z"/><path class="cls-2" d="M40.9,64.56a23.37,23.37,0,0,1,3.74,10.22,7.69,7.69,0,0,1-1.48,5,3.84,3.84,0,0,1-4.45,1.58,3.41,3.41,0,0,1-2.06-4A30.31,30.31,0,0,1,39,71.09C40,69,41.19,67.05,40.9,64.56Z"/><path class="cls-2" d="M29.16,47a28,28,0,0,1,3.56,9.27,8.29,8.29,0,0,1-1.11,5.95,3.92,3.92,0,0,1-4.67,2,3.46,3.46,0,0,1-2.05-4.29,20.13,20.13,0,0,1,2-5.37c1.34-2.37,2.55-4.69,2.38-7.5Z"/><path class="cls-2" d="M24.82,88.8c2.62,1.36,5.24.56,7.89.28a21.47,21.47,0,0,1,5.45.11,3.45,3.45,0,0,1,3.23,3.34A3.88,3.88,0,0,1,38,96.29a7.91,7.91,0,0,1-5.59-.81A24.82,24.82,0,0,1,24.82,88.8Z"/><path class="cls-2" d="M19.31,79.56c2.35,1.07,4.78.87,7.28.67a22.31,22.31,0,0,1,6.24.5A3.32,3.32,0,0,1,35.59,84a3.81,3.81,0,0,1-3.25,3.56,7.35,7.35,0,0,1-3.2,0c-4.39-1.28-7.38-4.36-9.82-8.06Z"/><path class="cls-2" d="M13.78,70.5c2.45,1.53,5,1.07,7.67.94A20.11,20.11,0,0,1,27,72c2.12.5,3.2,2.05,3,3.69a3.94,3.94,0,0,1-3.9,3.4,7.91,7.91,0,0,1-4.88-1A24.44,24.44,0,0,1,13.78,70.5Z"/><path class="cls-2" d="M34.79,56.17A16.35,16.35,0,0,1,36.08,58c1.41,2.77,2.83,5.59,2.67,8.78a11.52,11.52,0,0,1-1.35,4.48A3.6,3.6,0,0,1,33.15,73a3.17,3.17,0,0,1-2.21-3.66,27.51,27.51,0,0,1,2.11-6.62c1-2.12,1.93-4.16,1.77-6.55Z"/><path class="cls-2" d="M22.82,38.36C25,41.71,27,45.16,27,49.22a10.46,10.46,0,0,1-1.49,4.72,3.42,3.42,0,0,1-4.07,1.45,3.09,3.09,0,0,1-2.22-3.24A18.68,18.68,0,0,1,20,47.88a13.94,13.94,0,0,1,1.32-2.94A10.09,10.09,0,0,0,22.82,38.36Z"/><path class="cls-2" d="M47.38,73.19c.94,2.74,2,5.45,2.77,8.24a7.54,7.54,0,0,1-1,6.61,5.89,5.89,0,0,1-2.64,2.14c-2.56.82-4.68-1.16-4.24-3.94A13.25,13.25,0,0,1,43.67,82c1.54-2.81,3.58-5.39,3.74-8.78Z"/><path class="cls-2" d="M7.93,61.87c2.57,1.54,5.23.83,7.89.69a22,22,0,0,1,5.7.43,3.35,3.35,0,0,1,2.86,3.51A3.94,3.94,0,0,1,20.72,70a8.46,8.46,0,0,1-5.79-1.25A26.17,26.17,0,0,1,7.93,61.87Z"/><path class="cls-2" d="M56.91,78.11l6.51,3.94L55.27,92,52.6,91C54.57,86.83,56.51,82.82,56.91,78.11Z"/><path class="cls-2" d="M42.34,95.25l5.31-2.83,3.79,10.31L49.72,104Z"/><path class="cls-2" d="M103.31,10.11a3.48,3.48,0,0,1-.16.93c-2,4.1-4,8.17-5.91,12.29-.78,1.68-1.87,2.5-3.7,1.91l9.81-15.09Z"/><path class="cls-2" d="M88.06,3.57c-1.38,3.32-2.82,6.61-4.13,10-.83,2.12-1.47,4.32-2.2,6.52-1.78-1.56-1.94-1.82-1-3.69,2.11-4.13,4.33-8.21,6.53-12.29.13-.24.52-.33.79-.49Z"/><path class="cls-2" d="M.64,40.68a2.35,2.35,0,0,1,.52.37Q5.46,46.32,9.75,51.6c.11.14.21.29.32.45-1.38.61-2.41.43-3.2-.93-2-3.51-4.13-7-6.21-10.48Z"/><path class="cls-2" d="M12.82,32.72c2.35,3.53,4.75,7,7,10.64.3.49-.31,1.54-.5,2.34h-.42l-.55-1.17q-2.51-5.26-5-10.53c-.19-.41-.33-.85-.5-1.27Z"/><path class="cls-2" d="M12.25,31.93l.57.79h0l-.55-.82Z"/><path class="cls-2" d="M98.83.2,99,.08,98.87,0,98.8.16Z"/><path class="cls-2" d="M3.67,31.43l.1.74,0,0-.13-.73Z"/><path class="cls-2" d="M98.8.16,98.75,1h0c0-.28.06-.56.09-.84Z"/><path class="cls-2" d="M34.82,56.15,34.68,56l.11.19Z"/><path class="cls-2" d="M88.58,2.2l-.46.56,0,0,.39-.54Z"/><path class="cls-2" d="M103.53,9.39l.15,0V9.33l-.15.06Z"/><path class="cls-2" d="M2.88,30.59l.24.79,0,0-.23-.73Z"/><path class="cls-2" d="M88.12,2.76c0,.27,0,.54-.06.81h0l.09-.77Z"/><path class="cls-2" d="M.67,40.65c0-.23-.06-.47-.1-.7h0l.09.72Z"/><path class="cls-2" d="M103.54,9.39l-.23.72,0,0,.19-.75Z"/><path class="cls-2" d="M19.32,79.54l-.22-.07.07-.12.13.2Z"/><polygon class="cls-2" points="47.41 73.22 47.34 73.25 47.38 73.2 47.41 73.22"/><path class="cls-2" d="M2.94,30.62l-.09,0,.1,0-.07-.08Z"/><path class="cls-2" d="M3.67,31.43l-.5-.09,0,0,.54.06Z"/><path class="cls-2" d="M12.28,31.9l0,0Z"/><path class="cls-2" d="M88.56,2.25l0-.09,0,.1.08-.07Z"/><path class="cls-2" d="M92.69,47v.06l0,0Z"/><path class="cls-2" d="M29.23,47l-.08.06,0-.07Z"/><path class="cls-2" d="M0,39.76l.5.21h0L0,39.72Z"/><path class="cls-2" d="M0,39.72l.09,0,0,0Z"/><path class="cls-2" d="M97.88,36.19l.27.06-.27-.07S97.88,36.19,97.88,36.19Z"/></g></g></g></svg>
