<svg xmlns="http://www.w3.org/2000/svg" viewBox="0 0 150.51 150.51"><defs><style>.cls-1{fill:none;}.cls-2{opacity:0.5;}.cls-3{fill:#807c66;}</style></defs><title>Recurso 1icon</title><g id="Capa_2" data-name="Capa 2"><g id="Capa_1-2" data-name="Capa 1"><rect class="cls-1" width="150.51" height="150.51"/><g class="cls-2"><g id="_1lngpI" data-name="1lngpI"><path class="cls-3" d="M82.61,36.88,81,35.19a6.23,6.23,0,0,1-.16-9c1.54-1.65,3.18-3.22,4.79-4.8a6.32,6.32,0,0,1,4.73-1.74c2.43,0,4.85,0,7.28,0a3.36,3.36,0,0,0,2.72-1.1q4.39-4.51,8.89-8.91a16.56,16.56,0,0,1,27.57,7.13c1.83,6.34.23,12.07-4.27,16.87-2.81,3-5.78,5.85-8.71,8.74a2.6,2.6,0,0,0-.86,2.06c0,2.55,0,5.1,0,7.65a6.93,6.93,0,0,1-2.23,5.29c-1.43,1.36-2.79,2.79-4.2,4.18a6.23,6.23,0,0,1-9.14,0,12.64,12.64,0,0,1-1.11-1.47c-.68.62-1.11,1-1.51,1.38C93.29,73,81.7,84.39,70.37,96a24.94,24.94,0,0,1-15.06,7.87,40.51,40.51,0,0,0-4.83,1,4.43,4.43,0,0,0-1.88,1c-2.11,2-4.11,4.15-6.22,6.16a8.33,8.33,0,0,1-13.86-3.43,8.16,8.16,0,0,1,2.12-8.41c2-2.09,4.09-4.06,6.07-6.14a4.19,4.19,0,0,0,1-1.88c.64-2.84,1.15-5.72,1.78-8.57a18.82,18.82,0,0,1,5.26-9.45Q63,56,81.14,37.81A8.36,8.36,0,0,1,82.61,36.88Zm2.47,2.82c-.17.14-.43.34-.65.56q-18.49,18.49-37,37a14.94,14.94,0,0,0-4.15,8c-.54,2.87-1.16,5.72-1.69,8.58a4.53,4.53,0,0,1-1.38,2.53c-2.18,2.13-4.32,4.29-6.46,6.45a4.53,4.53,0,0,0-1.51,4,4,4,0,0,0,2.85,3.39,4.07,4.07,0,0,0,4.33-1c2.35-2.31,4.64-4.67,7-6.95a4.52,4.52,0,0,1,2-1.13c2.28-.54,4.57-1,6.89-1.36a19.37,19.37,0,0,0,11.46-5.92C78.43,82,90.23,70.29,102,58.54c.36-.36.71-.75.93-1Zm18-18c.57.61,1.05,1.07,1.46,1.57a2,2,0,0,1-.09,2.88,2,2,0,0,1-2.88-.05A16,16,0,0,0,100,24.56,4.05,4.05,0,0,0,98,23.76c-2.55-.09-5.1-.11-7.64,0a4.11,4.11,0,0,0-2.27,1c-1.31,1.12-2.47,2.41-3.69,3.63-1.77,1.77-1.77,2.67,0,4.43L96.11,44.51q6.85,6.85,13.7,13.69c1.77,1.76,2.59,1.75,4.32,0,1.19-1.19,2.35-2.42,3.59-3.57a3.51,3.51,0,0,0,1.15-2.85q-.08-3.64,0-7.28a2.6,2.6,0,0,0-.88-2.05c-2.41-2.36-4.78-4.76-7.16-7.15-1-1.05-1.16-2.27-.32-3.15a2.16,2.16,0,0,1,3.17.17c1.1,1.05,2.19,2.12,3.23,3.22,1.27,1.34,2.49,2.72,3.73,4.09.4-.35.53-.39.61-.47,2.94-2.94,6-5.78,8.77-8.84a13,13,0,0,0,1.07-16.08,12.59,12.59,0,0,0-19.22-1.41c-2.63,2.55-5.18,5.17-7.77,7.76C103.79,20.93,103.5,21.26,103.1,21.68Z"/><path class="cls-3" d="M63.5,72.39c-.64-.49-1.4-.78-1.62-1.31a3.93,3.93,0,0,1,0-2.08c.06-.31.46-.56.72-.82L76.86,54a5.66,5.66,0,0,1,.92-.81,2,2,0,0,1,2.48.33,1.87,1.87,0,0,1,.27,2.38,4,4,0,0,1-.71.85Q72.59,64,65.34,71.18A11.81,11.81,0,0,1,63.5,72.39Z"/><path class="cls-3" d="M55.42,80.42c-1.75,0-2.8-1.8-1.86-3a28.56,28.56,0,0,1,3.71-3.72,1.85,1.85,0,0,1,2.45.36,1.82,1.82,0,0,1,.17,2.47c-1.11,1.25-2.33,2.4-3.56,3.55A2.16,2.16,0,0,1,55.42,80.42Z"/></g><path class="cls-3" d="M35.76,145.6a8,8,0,0,1-6.87-5.17,9.4,9.4,0,0,1-.45-6.27A51.15,51.15,0,0,1,34.08,122a1.78,1.78,0,0,1,3.16-.18c2.57,4.39,5.2,8.78,6.05,13.91a9,9,0,0,1-4.72,9A19.15,19.15,0,0,1,35.76,145.6Zm0-18.4c-1.47,2.94-2.92,5.61-3.53,8.6a5.23,5.23,0,0,0,1.37,4.79,2.76,2.76,0,0,0,4.4-.11,5.13,5.13,0,0,0,1.34-4.1C38.88,133.11,37.26,130.3,35.74,127.19Z"/></g></g></g></svg>
