<svg xmlns="http://www.w3.org/2000/svg" viewBox="0 0 150.51 150.51"><defs><style>.cls-1{fill:none;}.cls-2{opacity:0.5;}.cls-3{fill:#807c66;}</style></defs><title>Recurso 3icon</title><g id="Capa_2" data-name="Capa 2"><g id="Capa_1-2" data-name="Capa 1"><rect class="cls-1" width="150.51" height="150.51"/><g id="tPDAaz" class="cls-2"><path class="cls-3" d="M39.56,20.07c3.74,0,7.47,0,11.21,0A3.36,3.36,0,0,1,54,22q5.09,9.06,10.28,18.07a1.69,1.69,0,0,0,1.23.71q9.48.07,19,0a2,2,0,0,0,1.34-.94Q90.94,31,95.94,22.1a3.52,3.52,0,0,1,3.44-2c7.47.05,14.94,0,22.41,0a3.15,3.15,0,0,1,3,1.69c3.74,6.6,7.47,13.21,11.25,19.78a3.53,3.53,0,0,1,0,3.9c-3.44,6-6.81,12.07-10.23,18.1a1.67,1.67,0,0,0,0,1.9c3.45,6.06,6.83,12.15,10.28,18.21a3.36,3.36,0,0,1,0,3.68q-5.66,9.94-11.21,19.94a3.46,3.46,0,0,1-3.39,1.93c-6.69,0-13.38,0-20.07,0a1.87,1.87,0,0,0-1.93,1.09c-3.31,5.9-6.7,11.76-10,17.66a3.54,3.54,0,0,1-3.45,2q-11.14-.08-22.29,0a3.28,3.28,0,0,1-3.18-1.84c-3.36-6-6.78-11.9-10.14-17.87a1.79,1.79,0,0,0-1.81-1.08c-6.69,0-13.38,0-20.07,0A3.62,3.62,0,0,1,25,107.15q-5.48-9.9-11.09-19.73a3.45,3.45,0,0,1,0-3.79C17.3,77.68,20.61,71.68,24,65.75a2.22,2.22,0,0,0,0-2.56c-3.38-5.91-6.67-11.87-10.06-17.77a3.52,3.52,0,0,1,0-3.9Q19.57,31.77,25.08,22a3.35,3.35,0,0,1,3.28-1.9C32.09,20.11,35.83,20.07,39.56,20.07Zm71,47c-3.08,0-6.15,0-9.23,0a1.57,1.57,0,0,0-1.64.9q-4.61,8.32-9.32,16.59a1.59,1.59,0,0,0,0,1.8c3.16,5.55,6.26,11.13,9.43,16.67a1.8,1.8,0,0,0,1.3.79q9.35.08,18.7,0a1.94,1.94,0,0,0,1.41-.81c3.16-5.51,6.24-11.06,9.39-16.58a1.7,1.7,0,0,0,0-1.92q-4.7-8.28-9.34-16.61a1.41,1.41,0,0,0-1.44-.83C116.72,67.14,113.65,67.12,110.57,67.12Zm-.22-5.33h0c3.16,0,6.32,0,9.48,0a2,2,0,0,0,1.41-.81c3.16-5.51,6.25-11.06,9.39-16.58a1.6,1.6,0,0,0,0-1.8q-4.66-8.1-9.25-16.24a1.72,1.72,0,0,0-1.75-1q-9.17.05-18.34,0a1.63,1.63,0,0,0-1.63,1Q95,34.42,90.36,42.52a1.59,1.59,0,0,0,0,1.8Q95,52.6,99.68,60.92a1.53,1.53,0,0,0,1.56.89C104.27,61.77,107.31,61.79,110.35,61.79Zm-70.82,0c3,0,6.07,0,9.11,0a1.69,1.69,0,0,0,1.74-1q4.55-8.22,9.2-16.38a1.68,1.68,0,0,0,0-1.91c-3.13-5.43-6.2-10.9-9.35-16.33a2,2,0,0,0-1.41-.84c-6.2-.06-12.39,0-18.59-.05a1.56,1.56,0,0,0-1.56.9q-4.62,8.19-9.31,16.35a1.6,1.6,0,0,0,0,1.8c3.14,5.52,6.23,11.08,9.39,16.59a2,2,0,0,0,1.42.81C33.29,61.82,36.41,61.79,39.53,61.79ZM75,124.68c3,0,6.07,0,9.11,0a1.71,1.71,0,0,0,1.75-1q4.54-8.1,9.19-16.13a1.76,1.76,0,0,0,0-2q-4.65-8.17-9.21-16.38a1.62,1.62,0,0,0-1.63-1q-9.17.05-18.34,0a1.71,1.71,0,0,0-1.74,1q-4.55,8.22-9.21,16.38a1.76,1.76,0,0,0,0,2q4.64,8,9.18,16.14a1.71,1.71,0,0,0,1.76,1C68.94,124.65,72,124.68,75,124.68ZM39.57,67.12h0c-3.12,0-6.24,0-9.35,0a1.4,1.4,0,0,0-1.45.81q-4.66,8.38-9.4,16.71a1.6,1.6,0,0,0,0,1.8q4.67,8.23,9.28,16.5a1.62,1.62,0,0,0,1.63,1q9.23-.05,18.46,0A1.52,1.52,0,0,0,50.3,103q4.63-8.31,9.32-16.59a1.6,1.6,0,0,0,0-1.8q-4.73-8.33-9.4-16.69a1.4,1.4,0,0,0-1.44-.82C45.72,67.14,42.64,67.12,39.57,67.12ZM75,82.88h0c3.12,0,6.24,0,9.36,0a1.66,1.66,0,0,0,1.22-.67q4.82-8.42,9.53-16.92a1.87,1.87,0,0,0,0-1.54q-4.67-8.44-9.47-16.81a1.8,1.8,0,0,0-1.31-.77q-9.36-.07-18.72,0a1.81,1.81,0,0,0-1.3.79q-4.76,8.32-9.4,16.7a2,2,0,0,0,0,1.65c3.11,5.63,6.29,11.22,9.42,16.83a1.3,1.3,0,0,0,1.34.78C68.78,82.86,71.9,82.88,75,82.88Z"/><path class="cls-3" d="M36,94.71l-4.49,2.58c-.23-.34-.44-.62-.62-.93-1.74-3-3.44-6-5.22-9a3.17,3.17,0,0,1,0-3.56c2-3.31,3.84-6.66,5.8-10.07L36,76.31l-2.63,4.58c-.71,1.24-1.4,2.5-2.16,3.72a1.53,1.53,0,0,0,0,1.8C32.83,89.12,34.38,91.86,36,94.71Z"/><path class="cls-3" d="M67.05,52.73l4.43,2.55c-1.44,2.51-2.72,5-4.24,7.29a3.07,3.07,0,0,0,0,3.85c1.48,2.3,2.76,4.73,4.21,7.26l-4.54,2.62c-1.5-2.6-3-5.15-4.44-7.7-2.67-4.69-2.62-3.59,0-8.23,1.39-2.46,2.82-4.9,4.24-7.34A2.34,2.34,0,0,1,67.05,52.73Z"/></g></g></g></svg>
