<svg xmlns="http://www.w3.org/2000/svg" viewBox="0 0 166 166"><defs><style>.cls-1{fill:#807c66;opacity:0.75;}.cls-2{fill:#fff;}</style></defs><title>Recurso 5icon</title><g id="Capa_2" data-name="Capa 2"><g id="Capa_1-2" data-name="Capa 1"><circle class="cls-1" cx="83" cy="83" r="83"/><g id="C5I5th"><path class="cls-2" d="M136.88,80.62c-.28,10.75-1.38,19.17-4.73,27.18-3.62,8.64-9.44,15.56-16.74,21.31a61.71,61.71,0,0,1-13.33,8.53,33.09,33.09,0,0,1-13.94,2.68,60.65,60.65,0,0,1-37.22-13c-11.26-8.76-18.45-20.2-21-34.3C28,82.27,29.5,71.72,33.13,61.47A49,49,0,0,1,47.76,39.76a47.35,47.35,0,0,1,21.49-9.92c13.69-2.77,26.83-.58,39.55,4.77,2.5,1.05,4.91,2.33,7.34,3.55a5.14,5.14,0,0,1,1.1,1,3.73,3.73,0,0,0,.61.61c6,3.53,10,8.74,13,14.84A57.64,57.64,0,0,1,136.88,80.62ZM105.37,36.46a2.51,2.51,0,0,0-.37-.24c-10.9-4-22.08-5.93-33.69-4.11-7.74,1.21-14.84,4.08-20.7,9.36C38.75,52.16,32.69,65.62,32.34,81.57,32.12,92,35,101.65,40.26,110.64c3.13,5.37,6.83,10.22,11.9,13.93a2.68,2.68,0,0,0,1.05.58,86.2,86.2,0,0,0,8.73,1.15,29.56,29.56,0,0,0,17.59-4.52c7.62-4.88,11.38-11.79,10.56-21a31.94,31.94,0,0,0-4.18-12.4c-2.49-4.58-5.11-9.09-6.91-14a21.21,21.21,0,0,1,.08-16,44.81,44.81,0,0,1,4.07-7.92C88.47,42.68,95.46,37.35,105.37,36.46ZM60.08,129.35c.15.1.24.18.34.23a57.65,57.65,0,0,0,22.47,7,37.25,37.25,0,0,0,16.2-1.82,57.18,57.18,0,0,0,24.06-17.1c4-4.64,7.25-9.75,8.64-15.73A124.76,124.76,0,0,0,134,87.44a64.55,64.55,0,0,0-.42-17c-1-6.66-3.92-12.54-7.47-18.16A32.55,32.55,0,0,0,117,42.45a14.61,14.61,0,0,0-9.89-2.88A31.36,31.36,0,0,0,84.38,52.62c-4.49,6.12-5.5,12.91-2.47,20,1.83,4.27,4,8.39,6.08,12.56,2.41,4.9,4.51,9.9,5.07,15.4a23.23,23.23,0,0,1-5,17.7c-5.3,6.53-12.44,9.65-20.6,10.68C65.07,129.26,62.6,129.23,60.08,129.35Z"/><path class="cls-2" d="M64.56,112.41c-2.78-.14-5.77-1.1-7.32-4.33a17.18,17.18,0,0,1-1.17-4.85,5.62,5.62,0,0,1,3.34-6.32c1.39-.7,2.72-1.51,4.12-2.17a2.89,2.89,0,0,1,1.47,0c.77.1,1.53.26,2.28.42a21.77,21.77,0,0,1,2.5.59c4.37,1.48,6.24,4.9,5.16,9.39S70.17,112.46,64.56,112.41ZM65.47,98c-2.37.1-4,1.47-5.56,2.92a1.75,1.75,0,0,0-.53,1.19,12.94,12.94,0,0,0,.43,3.81,5.63,5.63,0,0,0,5.07,3.8,7,7,0,0,0,6.87-3.29A4.85,4.85,0,0,0,69.55,99,26,26,0,0,0,65.47,98Z"/><path class="cls-2" d="M105.16,78.19c-2.4,0-4-.49-5-1.86a12.38,12.38,0,0,1-2.91-9.76c.1-.69.41-1.35.56-2,.11-.48.08-1,.17-1.46s.12-1.08.42-1.3c2.79-2,5.81-3.41,9.37-2.52a11.44,11.44,0,0,1,7.92,9.1,6.39,6.39,0,0,1-1.44,5A13.75,13.75,0,0,1,105.16,78.19Zm-5-9.75a9.11,9.11,0,0,0,1.39,4.76,3.63,3.63,0,0,0,3.34,1.87,8.88,8.88,0,0,0,6.82-3.51,4.12,4.12,0,0,0,.45-4.9,10.66,10.66,0,0,0-3.95-4.17,4.5,4.5,0,0,0-2.3-.73,10.55,10.55,0,0,0-3.21.72c-.31.11-.38.83-.59,1.26a1.66,1.66,0,0,1-.35.43A5.53,5.53,0,0,0,100.11,68.44Z"/></g></g></g></svg>
