<svg xmlns="http://www.w3.org/2000/svg" viewBox="0 0 150.51 150.51"><defs><style>.cls-1{fill:none;}.cls-2{opacity:0.5;}.cls-3{fill:#807c66;}</style></defs><title>Recurso 5icon</title><g id="Capa_2" data-name="Capa 2"><g id="Capa_1-2" data-name="Capa 1"><rect class="cls-1" width="150.51" height="150.51"/><g id="IsibWm" class="cls-2"><path class="cls-3" d="M112.46,9.3a2.52,2.52,0,0,0,.42.25c4.6,1.6,6.15,6.28,3.39,10.34q-6.45,9.49-12.95,18.95L92.84,54.19c-.23.34-.44.7-.78,1.26h4.76c2.14,0,4.28.05,6.41,0,3-.08,5.28,1.06,6.57,3.78s.59,5.19-1.29,7.48Q94.75,83.46,81,100.27q-15.47,18.92-30.94,37.83a6.28,6.28,0,0,1-7,2.32,6.1,6.1,0,0,1-4.69-5.49,8.75,8.75,0,0,1,.53-3.62q7.12-21.25,14.34-42.46c.15-.43.28-.87.47-1.47H39.27c-5.12,0-8.18-4.33-6.41-9.12Q44.78,46,56.73,13.76A7.37,7.37,0,0,1,61.65,9.3ZM81.69,60.89c.41-.62.65-1,.91-1.39Q97,38.38,111.44,17.25a2.57,2.57,0,0,0,.51-1.9c-.12-.36-1.14-.59-1.75-.59-15.48,0-31,0-46.43,0a2,2,0,0,0-2.14,1.52Q49.89,48,38.1,79.75c-.63,1.69-.28,2.18,1.51,2.18H61.35c-.15.5-.24.87-.37,1.23l-14.9,44-2,6.07c-.24.72-.46,1.56.47,1.83.42.12,1-.4,1.55-.64.1-.05.17-.19.25-.29l40.92-50q8.48-10.38,16.94-20.77a6.48,6.48,0,0,0,.71-1.78,7,7,0,0,0-1.91-.65c-2.18-.08-4.36,0-6.54,0Z"/></g></g></g></svg>
