<svg xmlns="http://www.w3.org/2000/svg" viewBox="0 0 150.51 150.51"><defs><style>.cls-1{fill:none;}.cls-2{opacity:0.5;}.cls-3{fill:#807c66;}</style></defs><title>Recurso 2icon</title><g id="Capa_2" data-name="Capa 2"><g id="Capa_1-2" data-name="Capa 1"><rect class="cls-1" width="150.51" height="150.51"/><g class="cls-2"><path class="cls-3" d="M31.48,110.13l.47-.59c-.73-.05-1.38-.2-1.64-.9-.07-.18.06-.43.12-.71.27.32.42.65.67.75a1.32,1.32,0,0,0,.94,0,1.75,1.75,0,0,0,.79-.7,10.3,10.3,0,0,0,.7-1.76c.19-.61.32-1.25.5-1.95a23.9,23.9,0,0,0-2.75.68,6.45,6.45,0,0,0-1.33,1,10.12,10.12,0,0,0-2.62,2.81.58.58,0,0,0,0,.47,4.75,4.75,0,0,1,.19,4.06,5.42,5.42,0,0,1-.79,1.11l-.14-.09.55-1.89-.17-.1-1.39,1.08-.18-.16a4.49,4.49,0,0,1,.37-.59c.27-.31.59-.59.86-.91.47-.54.47-1,0-1.67-.58,1-1,2.16-2.23,2.48l-.16-.16c0-.05,0-.13,0-.15a5.42,5.42,0,0,0,1.77-2.57,16.21,16.21,0,0,1,2.77-3.93,4.24,4.24,0,0,0-2.28.76c-.87.65-1.72,1.34-2.6,2a8.73,8.73,0,0,1-1.18.6l1.59-1.77.07-.06-.06.07c-.66.37-1.31.76-2,1.11a2.57,2.57,0,0,1-1,.26,2.52,2.52,0,0,1,1.28-1.44c1.56-.89,3.15-1.73,4.78-2.62-1.69-.13-3.36-.36-4.76,1.12-.08-.69.11-1.12.6-1.29s1.32-.37,2-.54a1.73,1.73,0,0,0,.64-.23l-1.69-1a6.24,6.24,0,0,1,2.41.83,4.26,4.26,0,0,0,3.15.41,16,16,0,0,0,1.8-.56l-5.92-2.72,0-.09a3.37,3.37,0,0,1,1.11,0c1.16.38,2.28.84,3.42,1.27l.41.16a2.81,2.81,0,0,0-1.93-1.76,4.39,4.39,0,0,1-.7-.45l.09-.18a1.31,1.31,0,0,1,.4,0,16,16,0,0,1,1.78.67,1.53,1.53,0,0,1,.61.67c.94,1.83,1.69,2.17,3.82,1.73.56-.12,1.12-.27,1.67-.41l0-.15-4-1.35,0-.18a6.09,6.09,0,0,1,1.19,0,8.52,8.52,0,0,1,1.5.49,7.4,7.4,0,0,0,4.05.59c1.81-.29,3.63-.56,5.45-.84a2.67,2.67,0,0,0,.29-.09A10.87,10.87,0,0,0,41,100c-1.09,0-2.18,0-3.27-.13a1.7,1.7,0,0,1-1.41-.71l3.86.15,3.77.18a4,4,0,0,0-2.59-1.2A3.29,3.29,0,0,1,40.7,98c.23-.07.49-.24.7-.2.71.13,1.4.33,2.15.52l-.13-1,.12-.06a7.88,7.88,0,0,1,.56,1.18A2.56,2.56,0,0,0,46,100.12a5.27,5.27,0,0,0,2.48.11c3-.51,6-1,9.05-1.43l1.67-.25c.08,0,.16-.07.25-.22A10,10,0,0,1,58,98.07a10.71,10.71,0,0,0-5.71.1l-3.09.66a.83.83,0,0,1-.46-.06,24,24,0,0,1,5.14-1.48,26.42,26.42,0,0,0-7.28,0l0-.24a11.28,11.28,0,0,1,1.73-.48,31.78,31.78,0,0,1,7.95.27l.76.08-1.29-1.16.05-.09,1.48.64a11.11,11.11,0,0,0,5.66.85A4.12,4.12,0,0,0,65,96.1a10.87,10.87,0,0,1-3.65-.31v-.14h2.14l.07-.71c.06,0,.11,0,.12,0,.79.71,1.57.68,2.7,0s1.51-1.63,2.24-2.6c-1.58-.1-2.8.71-4.16,1.19.11-.92,1.55-1.69,2.79-2l-.52-.35c.7,0,1.34,0,2,0a.56.56,0,0,0,.61-.41c.18-.43.42-.84.68-1.36a4.06,4.06,0,0,0-.51.1c-1.41.49-2.85.91-4.21,1.5a9.9,9.9,0,0,0-1.8,1.37q-1.06.8-2.13,1.57a1.76,1.76,0,0,1-.49.11L63,91.88l-.09-.12c-.58.14-1.16.26-1.73.43a34.3,34.3,0,0,1-6.84,1.07,11.8,11.8,0,0,0-3.7,1,14.17,14.17,0,0,1-5.47,1.38c-.23,0-.45,0-.68,0l0-.15a6.52,6.52,0,0,1,.95-.42c.72-.2,1.46-.33,2.18-.51s1.52-.43,2.28-.64l0-.19h-.39c-1.47,0-3,0-4.42.13a8.93,8.93,0,0,0-4.39,1.48c-.51.37-1,.78-1.5,1.16a1.54,1.54,0,0,1-.7.26l.87-1.07,0,0,0,0c-.49.17-1,.34-1.47.53a9.08,9.08,0,0,1-1.3.46c.31-.9,1.36-.74,1.83-1.4l-2.56.25-.05-.22a6.37,6.37,0,0,1,1.11-.37c1-.15,2.1-.19,3.13-.37a13,13,0,0,0,1.8-.56l0-.14-.39,0c-1.55,0-3.1,0-4.64-.09a2.33,2.33,0,0,0-2.14,1,13.61,13.61,0,0,1-1,1.33,9.38,9.38,0,0,1-1.11.87l-.12-.14,1.1-1.24c-1.3.47-2.43,1.3-3.75,1.66l-.11-.2,2.69-1.65c-.67,0-1.15-.22-1.69.19a5.13,5.13,0,0,1-1.87.74l1.21-.89,0-.1-1.41.36-.1-.19c.22-.18.42-.45.68-.53a10.14,10.14,0,0,1,1.81-.35,9.84,9.84,0,0,1,1.91,0,1.91,1.91,0,0,0,1.67-.79c-.08,0-.14-.09-.19-.09-1.86,0-3.71,0-5.57.15a5.74,5.74,0,0,0-1.73.61.61.61,0,0,0-.3.41c-.1.66-.15,1.33-.22,2l-.2,1.85h-.21L25.55,96c-1.06,1.63-1.69,3.61-3.82,4.16a4.87,4.87,0,0,0,2.21-2.83l0,0,0,0c-.52.26-1,.54-1.55.76a1.12,1.12,0,0,1-.78-.07,7.86,7.86,0,0,0,4.08-3.8A11.13,11.13,0,0,0,20.77,96c-.3.19-.44.65-.63,1s-.43.83-.64,1.25l-.15,0L19.42,97l-.12-.11c-.41.43-.81.87-1.23,1.29a4.19,4.19,0,0,1-.6.42c0-.24-.08-.54,0-.72a5.94,5.94,0,0,1,1.73-2.21,1.1,1.1,0,0,1,.27-.09l-.15-.19-2,.7L17.2,96a5.17,5.17,0,0,1,1-.77c.69-.31,1.42-.52,2.14-.76.39-.13.8-.22,1.18-.38.72-.3,1.43-.63,2.14-1-.6-.61-1.17-.39-2.68.07l.65-.86a3.46,3.46,0,0,0-2.42,0c-.44.17-.41.47-.27.84a1.81,1.81,0,0,1,0,.61c-.18-.13-.42-.22-.51-.39a1.07,1.07,0,0,1,.9-1.7c.73-.08,1.48-.1,2.24-.14-.11-.43-.63-.88-.12-1.32a1.23,1.23,0,0,1,1.41-.27l-.68.43c-.32.19-.37.43-.11.71a1.7,1.7,0,0,0,1.09.64,18.23,18.23,0,0,1,2.35.48,8.73,8.73,0,0,0,3.14,0c2-.17,3.92-.24,5.89-.35.28,0,.56,0,.85,0l0-.15c-.46-.19-.92-.39-1.39-.56a9,9,0,0,0-2.06-.68,13,13,0,0,0-2.65.12,5.47,5.47,0,0,1-2.37,0l0-.17,3.72-.66a12.05,12.05,0,0,0-4.2-.57,4.31,4.31,0,0,1,2.31-.41,16.06,16.06,0,0,1,2.37.34c.79.18,1.55.47,2.34.71-.21-1.23.23-1.8,1.41-1.76l-.59.46c-.47.37-.52.65-.1,1.09a6.62,6.62,0,0,0,1.09.89,7.35,7.35,0,0,0,5.16,1.28c-.45-.37-1-.75-1.43-1.19a1.19,1.19,0,0,1-.33-1.26.7.7,0,0,1,.8-.57c-.06.14-.16.27-.14.38.06.33.06.78.28,1a6.44,6.44,0,0,0,4.15,1.61c1.86,0,3.71-.1,5.57-.16a1.31,1.31,0,0,0,.25-.06l.06-.17-2.78-1.29c-1-.46-2,.23-3,0l1.13-.64a3.19,3.19,0,0,0-2.65-.18c.12-.16.21-.43.36-.48a3.75,3.75,0,0,1,1.44-.22c.95.13,1.87.4,2.81.61l.49.13-.74-1.71A2,2,0,0,1,47.78,89a1.1,1.1,0,0,0,.78.93c.56.21,1.1.46,1.66.7a6.93,6.93,0,0,0-.63-3.17c.2.18.47.33.59.56a7.47,7.47,0,0,1,.44,1.23,6.43,6.43,0,0,0,.23.89c.56,1.16.82,1.31,2.1,1.18.85-.08,1.69-.21,2.64-.33-1-.72-2.45-.89-2.47-2.62a4.4,4.4,0,0,1,.44.36,4.49,4.49,0,0,0,3,1.52,11,11,0,0,0,5-.53c-1-1.22-2.41-1.21-3.77-1.34a4.69,4.69,0,0,1-1-.13,1.59,1.59,0,0,1,1.61-.46c.57.09,1.14.22,1.71.33.34-.93.4-1,1-.91,0,0,0,.08,0,.1-.61.7-.55.91.35,1.27A5,5,0,0,0,66,88.23c-.48-.25-1.14-.28-1.2-1l1.39.35A5.73,5.73,0,0,0,69,87.19c.35-.09.69-.25,1-.33a.78.78,0,0,0,.67-.6,12.33,12.33,0,0,1,.79-1.94,13.6,13.6,0,0,1,1-1.44c-.2-.67-.46-.9-1.22-.72-.53.13-1,.49-1.62.67l.53-.69v0c.36-.21.72-.45,1.1-.63a.91.91,0,0,0,.3-1.16,32.56,32.56,0,0,1-2.33-2.79A42,42,0,0,1,66.51,73c-.34-.67-.67-.72-1.31-.68-.84.05-1.39.29-1.63,1.16a2.55,2.55,0,0,1-.68,1c-.09.1-.35,0-.54,0a2.46,2.46,0,0,1,.19-.45,7.94,7.94,0,0,0,.72-1.17,3.14,3.14,0,0,0-2.4,1c-.05.06-.11.18-.09.24a1.43,1.43,0,0,1-.06,1.26c0,.07.07.27.16.37a1,1,0,0,1,0,1.27,1.13,1.13,0,0,1-1.14.47,9,9,0,0,0-1.11,0,1.25,1.25,0,0,1-1.31-.48,1.08,1.08,0,0,1,0-1.45c.19-.21.17-.38,0-.62a1.29,1.29,0,0,1,.55-1.89.57.57,0,0,0,.26-.23,1.08,1.08,0,0,1,1-.82c.55,0,.82.4,1,1l.66-.6-1.18-.83v-.15a1.35,1.35,0,0,1,.52,0,5.73,5.73,0,0,0,3.38.14c.67-.15,1.36-.18,2-.26L64.92,68c-.8.14-1.66.28-2.52.45a13.93,13.93,0,0,1-1.54.34,10.31,10.31,0,0,0-2.94,1.11,2.08,2.08,0,0,1-.91.15c-.18-.46.3-.54.56-.7a10.2,10.2,0,0,1,1.16-.57l.76-.38-1.55-.53c-.08.1-.12.21-.2.25-.29.15-.61.4-.89.36a1,1,0,0,1-.63-.63.7.7,0,0,0-.72-.63c-.38,0-.75-.15-1.13-.2a1.12,1.12,0,0,0-.9.25,5.46,5.46,0,0,1-2,.76c-.29.07-.66-.19-1.07-.33a1.7,1.7,0,0,1-1.48.61c-.07,0-.26.32-.26.5a1.68,1.68,0,0,0,.23.58,3.24,3.24,0,0,1,.62-.43,1,1,0,0,1,1.24.27,1.24,1.24,0,0,1,.31,1.45,1.25,1.25,0,0,1-1.19.81,7.78,7.78,0,0,0-.92.1,1.34,1.34,0,0,1-1.31-.3c-.22-.24-.68-.25-1-.37l.06.18c-.71.42-1.43.83-2.13,1.26a.56.56,0,0,0-.24.37,13.5,13.5,0,0,0,.2,5.1A4.76,4.76,0,0,0,45,79a1.13,1.13,0,0,0,2.15-.63.44.44,0,0,0-.32-.29.64.64,0,0,0-.43.24,1.67,1.67,0,0,0-.19.49l-.15,0A1.51,1.51,0,0,1,46,78.3a.87.87,0,0,1,.85-.79.88.88,0,0,1,1,.71A1.59,1.59,0,0,1,47,80a2.09,2.09,0,0,1-2.15-.18A3.77,3.77,0,0,1,43.61,77c0-1.35,0-2.69,0-4,0-.16,0-.32,0-.34-.59-.1-1.09-.2-1.61-.27-.13,0-.28.09-.42.08-.3,0-.7,0-.86-.16A1.25,1.25,0,0,0,39.42,72c-1.32.27-1.74-.46-1.45-1.59-.39.57-1.18.45-1.62,1-.17.23-.79.17-1.21.16s-.94-.16-1.41-.15a3,3,0,0,1-1.88-.94.76.76,0,0,1,.23-1,2.28,2.28,0,0,0,.48-.77c-.86.92-1.76.16-2.61.1-.18,0-.44-.47-.45-.73a1.1,1.1,0,0,1,.44-.71,2,2,0,0,1,.71-.21c.21-1,.26-1,1.24-1.21l.29-1.9a2.23,2.23,0,0,1-3.12-.44,2.94,2.94,0,0,0-2.28,1.56c-.45,1-.91,2.09-.27,3.23.07.12.16.31.26.33.33.06.81.21,1,.05s0-.57-.26-.81a1.51,1.51,0,0,1-.15-.25c.64-.09.79.34.9.77s-.15,1-.55,1.05a1.8,1.8,0,0,1-1.12-.15c-1.28-.81-1.45-1.94-1-3.35a16.41,16.41,0,0,1,1.14-2.32c-.31-.6-.3-.57-.94-.29a3.78,3.78,0,0,0-1.32.74,1,1,0,0,1-1.34-.1c-.13-.12-.24-.27-.38-.43-.3.35-.74.52-.63,1.15a1,1,0,0,1-.82,1.1A1.08,1.08,0,0,1,20,65.53a.63.63,0,0,0-.62-.3,2.25,2.25,0,0,1-1.95-1.89,1.25,1.25,0,0,0,0-.13,4,4,0,0,1-.8-.47,1.31,1.31,0,0,1-.33-1.64c.28-.53.42-.85,1.4-.74.13,0,.28-.1.4-.18.3-.21.6-.43.88-.66.13-.11.33-.25.33-.38a1.39,1.39,0,0,1,1-1.56s.06-.08.16-.22c-.62,0-1.12-.47-1.72.11a1.58,1.58,0,0,1-2.11-.15c-.39.34-.76.72-1.19,1a1.4,1.4,0,0,1-1.85-.1,1.14,1.14,0,0,0-.63-.3c-1.1,0-1.44-.31-1.39-1.53a5.86,5.86,0,0,0-.8.31A6.09,6.09,0,0,0,8.5,58.8,3.69,3.69,0,0,0,8,60.31c-.06.62.25.91.88,1l.56.13a1.29,1.29,0,0,1-1.92-.59,1.92,1.92,0,0,1,0-1.7,8.55,8.55,0,0,1,1.25-1.81c.49-.52,1.14-.89,1.67-1.38a.89.89,0,0,0,.24-.77c-.34-.76.13-1.33.34-2a.62.62,0,0,0,0-.33c-.16-.55-.17-1.05.48-1.34a1,1,0,0,1,.12-1.3.92.92,0,0,1,1.24-.13,4.23,4.23,0,0,1,.56-.46.9.9,0,0,1,1.28.34c.2.4.47.48.94.43-.47-.35-.78-.74-.64-1.29s.53-.6.94-.62c-.18-.31-.35-.63-.54-.93a1,1,0,0,0-.28-.23c-.62-.43-1-1.11-1.75-1.44-.37-.17-.21-1,.17-1.24a3.88,3.88,0,0,1,1-.56,4,4,0,0,1,1.16.07c0-.09-.06-.31-.18-.41a1.2,1.2,0,0,1-.32-1.47,1,1,0,0,1,1.14-.43,1.15,1.15,0,0,1,.64,1.26c0,.07,0,.14-.05.26.47.19.76-.09,1.11-.3a2.23,2.23,0,0,1,1-.36,1,1,0,0,0,.72-.2c.5-.44.89-.39,1.64.12.27-.26.28-.47.08-.83a1.6,1.6,0,0,1-.05-1.13,1,1,0,0,0-.06-.8,19.06,19.06,0,0,1-.93-2.21,3.15,3.15,0,0,1-.09-1.34,1.68,1.68,0,0,1,2-1.49,1.68,1.68,0,0,1,1.65,1.74c-.06.85-.59,1.15-1.43.77a.92.92,0,0,1,.22-.07c.35,0,.66-.1.76-.49a.82.82,0,0,0-.43-.92,1.53,1.53,0,0,0-1.65-.06,1.13,1.13,0,0,0-.45,1.44A14.08,14.08,0,0,0,22,39.06a2.64,2.64,0,0,0,.35.55,7.52,7.52,0,0,0,.7.69c.22.19.46.36.76.6a1.28,1.28,0,0,1,1.13-1.53c.07-.71.19-1.38,1-1.55s1.12.35,1.46.89c1.08-.37,1.06-.36,1.88.53a.71.71,0,0,0,.66.14,1.13,1.13,0,0,1,1.5,0s.12,0,.28-.1a3.37,3.37,0,0,0-.39-.18.64.64,0,0,1-.51-.74c0-.38.19-.7.6-.74s.63-.3.61-.8.22-.82-.3-1.17a1.27,1.27,0,0,1-1.67-.22c-.05,0-.2,0-.3,0a.84.84,0,0,1-1-.68c-.05-.45.32-.81.86-.85h.05c-.16-.41-.32-.83-.51-1.25a1.11,1.11,0,0,0-.28-.32,1.21,1.21,0,0,1-.38-1.47,1.51,1.51,0,0,1,1.31-.73c.29,0,.56-.23.85-.24.51,0,.31-.43.45-.66.34-.54.12-1.08.07-1.65-.48,0-.88-.2-1-.76s.32-.76.74-.92a6.33,6.33,0,0,1-.47-.8c-.15-.38-.36-.38-.68-.22a1.41,1.41,0,0,1-.71.18.79.79,0,0,1-.73-1c.11-.55.54-.79,1.16-.69a5.68,5.68,0,0,0,.85,0c-.18-1.45,0-1.78,1.2-1.89a2.87,2.87,0,0,1,.24-.81.93.93,0,0,1,1.4-.19.85.85,0,0,0,1,0c1-.52,1.64-.06,1.78,1.15l.73.26A1.34,1.34,0,0,1,38.4,21a9.42,9.42,0,0,0,1.73,0l.19-1.18c-.81-.64-1-1.13-.56-1.73s1-.58,1.86-.1c.19-.87.5-1.63,1.75-1.63-.32-.7-.58-1.32-.89-1.92a2.31,2.31,0,0,0-2.13-1.41,1.15,1.15,0,0,0-.7.39c-.07.1.14.42.23.63a1.51,1.51,0,0,0,.19.25c-.47.12-.75,0-.85-.43a1.07,1.07,0,0,1,1.14-1.43,2.87,2.87,0,0,1,2.39,1.31,9.86,9.86,0,0,1,.86,1.69c.09.19.15.4.27.74.16-.23.34-.37.36-.52.1-.85.91-1,1.58-.75.12.05.29.14.37.09a1.8,1.8,0,0,1,1.93.05,13.59,13.59,0,0,1,1.44-1.3,5.21,5.21,0,0,1,1.29-.46L51,12a2.66,2.66,0,0,1-.69-.23A.92.92,0,0,1,50,10.56a.94.94,0,0,1,1.68.85,2.28,2.28,0,0,1-.19.33l-.11.12h0l.1-.13a3,3,0,0,1,2,.6c.36.19.51.12.77-.14a2.36,2.36,0,0,1,1-.66,1.11,1.11,0,0,1,1.35.82A6.22,6.22,0,0,0,57,13a1.42,1.42,0,0,1,2,.15c.27.28.41.1.53-.2a1.32,1.32,0,0,1,1.73-.91,1.14,1.14,0,0,1,.89.87c.38-.26.78-.53,1.17-.82.09-.07.14-.2.22-.29a15.3,15.3,0,0,1,1.41-1.44.72.72,0,0,1,1.06.23,1.74,1.74,0,0,1,.06,1c0,.14-.21.26-.33.4l.1.13c.11-.1.29-.17.33-.29.23-.71.27-.76,1.07-.94,0-.76.22-1.49,1.13-1.59s1.26.7,1.44,1.51l.78-.45a1.76,1.76,0,0,1,2.43.73.75.75,0,0,0,.58.46,2.11,2.11,0,0,1,1,.57c.39.4.56.45.94.07.1-.1.24-.16.35-.25s.34-.25.42-.41A1.37,1.37,0,0,1,78,10.75c.31.12.49.07.62-.19.4-.8.81-1.58,1.16-2.4a1.35,1.35,0,0,0-.37-1.65,1.27,1.27,0,0,0-1.65-.19.61.61,0,0,1-.19,0c-.1-.41.13-.61.45-.73a2,2,0,0,1,2.4,1.27,4,4,0,0,1-.28,2.56c-.16.38-.34.76-.53,1.16a1.31,1.31,0,0,1,.76,1.11c0,.43.41.27.69.18.79-.24,1.53.17,1.5.91a3.55,3.55,0,0,1-.44,1.06,1.48,1.48,0,0,1,2,.37c.48-.94.73-1,1.67-.64a.45.45,0,0,0,.25.05,1.21,1.21,0,0,1,1.62.78c.57.17,1,.31,1.45.44a.52.52,0,0,0,.3,0l1.31-.51a1.31,1.31,0,0,1,1.59.53.65.65,0,0,0,.83.26.92.92,0,0,1,1.18.68c.08.25.19.49.31.78.2-.16.34-.25.45-.36A1.41,1.41,0,0,1,97,16c.42.24.68.23.88-.28a.69.69,0,0,1,1-.35c.28.12.58.19.92.3.12-.8.42-1.32,1.21-1.34.11,0,.25,0,.32,0a1.74,1.74,0,0,0,1.28.2,2.2,2.2,0,0,0,1.06-.25,1.22,1.22,0,0,1,1.49.3c.26.26.56.49.84.73.11.09.27.17.32.29.32.73,1,.82,1.64.83a.91.91,0,0,0,.64-.42c.45-.75.65-.85,1.5-.64a.66.66,0,0,0,.43-.08,30.48,30.48,0,0,1,2.72-1.47,4.38,4.38,0,0,1,3.46,0,1.38,1.38,0,0,1,.7,2.07,1.19,1.19,0,0,1-1.73.28,5.82,5.82,0,0,0,1.19-.54c.38-.28.29-.6-.12-.86a2.64,2.64,0,0,0-1.77-.43,7,7,0,0,0-4.26,2,2.35,2.35,0,0,0-.46,1c0,.1.12.32.25.41.41.31.84.59,1.32.92a2,2,0,0,1,2.42,0c.68-.51,1-.56,1.33-.22s.29.64-.25,1.26l.38.21c.11.07.21.15.33.25a3.11,3.11,0,0,1,.32-.17.73.73,0,0,1,1.09.75,1,1,0,0,0,.28.88,1.3,1.3,0,0,1,.18.33l.6,1.17c1.13-.37,1.85-.11,2.07.64s-.26,1.46-1.28,1.66l-.66,1.39a1,1,0,0,0,.39,1.06,1.37,1.37,0,0,1,.4,2.18,1.55,1.55,0,0,1-1.77.3c-.29.26-.21.45,0,.75a2.92,2.92,0,0,1,.43,1.25c0,.36.13.4.31.36a5.5,5.5,0,0,1,.25-1.35.93.93,0,0,1,1.27-.38,1.13,1.13,0,0,1,.52,1.31,2.21,2.21,0,0,1-.19.39c-.19.31-.16.52.21.68.57.25.61.81.65,1.23.58.05,1.22-.07,1.61.19.82.53,1.35.06,1.85-.36a29.41,29.41,0,0,0,2.43-2.34,2.71,2.71,0,0,0,.52-1.06,1.26,1.26,0,0,0-1.07-1.46,1,1,0,0,0-1.35.89,3.11,3.11,0,0,0,.16.85.44.44,0,0,1-.62-.33,1.57,1.57,0,0,1,1.16-1.9,2,2,0,0,1,2.18.9,1.82,1.82,0,0,1-.14,2.18,11.55,11.55,0,0,1-4.06,3.61.52.52,0,0,0-.26.74c.71-.36,1.45-.68,2.07.05a1.13,1.13,0,0,1,.07,1.34,1.24,1.24,0,0,1-1.45.57l-.22.52,1.27,1h1.27c.64-.76,1-.89,1.58-.55s.63.83.35,1.55l1.08,1.43c1-.17,1.06-.12,1.72.91.16.26.56.36.74.61a1.43,1.43,0,0,0,1.12.58,1.33,1.33,0,0,1,1.22.86c.14.37.5.26.78.06a1.07,1.07,0,0,1,1.17-.2,1.14,1.14,0,0,1-.08,2.17.93.93,0,0,0-.58,1.34c.08.16.12.34.23.64a2.58,2.58,0,0,0,.7-.41c.59-.69,1.11-.85,1.68-.44a1.3,1.3,0,0,1,.18,1.77l-.11.19c.7.15,1.34.37,1.42,1.23s-.5,1.07-1,1.38c.13,1.23,0,1.68-.78,2s-1.4-.16-1.91-.74a1,1,0,0,0,.43,1.17c.25.08.49.22.74.31a.71.71,0,0,0,.39,0,1.29,1.29,0,0,1,1.46.45,1.09,1.09,0,0,1,.09,1.32,1.27,1.27,0,0,1-1.42.67l-.26,0,.08.14-1,.73a.87.87,0,0,0-.29.29,1.46,1.46,0,0,1-1,1c-.1,0-.19.23-.22.36a1.19,1.19,0,0,1-1.8.87.91.91,0,0,1-.38-.61,1.19,1.19,0,0,0-.68-1.07c-.1,0-.16-.19-.18-.21-.42.21-.79.42-1.19.57a.61.61,0,0,1-.53,0c-.46-.45-1-.25-1.49-.21a2.08,2.08,0,0,1-1-.3c-.33-.16-.47-.07-.55.25-.21.84-.68,1.23-1.33,1.11a1.28,1.28,0,0,1-1-1.47,10.24,10.24,0,0,1-1.22-.56,1.08,1.08,0,0,1-.44-1.21c0-.22.25-.51-.11-.57a.68.68,0,0,0-.57.35c-.08.42-.48.91.16,1.3.18.11.17.52.26.79s.09.41.21.5a6.26,6.26,0,0,1,2.6,4.53,18,18,0,0,1,0,2.94,3.9,3.9,0,0,1-1.45,2.83,1,1,0,0,1-1.27,0,.71.71,0,0,1-.35-.8c.27.18.56.5.76.46a1.48,1.48,0,0,0,.87-.62,6.83,6.83,0,0,0,.13-6.54,7.41,7.41,0,0,0-1.79-2.21c-1.31.51-1.6.46-2.41-.4l-1.43.49-.17.75c.65-.57,1.23-.75,1.84-.2a1,1,0,0,1,.32,1.18c-.25.67-.84.78-1.53.74a1.73,1.73,0,0,1-.52,1.92A3.29,3.29,0,0,0,117.73,67a1.72,1.72,0,0,1-2.42.75c-.16-.08-.31-.18-.51-.3l-.21.45a1.06,1.06,0,0,1-1.67.45.94.94,0,0,0-.62-.17,1.25,1.25,0,0,1-1.62-1.39c-.39-.25-.73-.49-1.1-.7a.91.91,0,0,0-.5-.1,1.25,1.25,0,0,1-1.33-.66.57.57,0,0,0-.39-.26c-.86,0-1.14-.37-1-1.29-.16-.09-.33-.18-.49-.29a1,1,0,0,1-.45-1.23c.15-.49-.09-.68-.61-.62a5,5,0,0,1-1-.1c-.14,0-.29,0-.49,0,.5,1.06.47,1.44-.1,2a1,1,0,0,1-1.43,0c-.37-.5-.7-.31-1.06-.08a7.52,7.52,0,0,0-.7.59,13.5,13.5,0,0,1,1.31.38,1.87,1.87,0,0,1,1,2.36,2.19,2.19,0,0,1-2.53.84.66.66,0,0,1-.43-.84,3.65,3.65,0,0,0,.43.21,2,2,0,0,0,.67.17,1.15,1.15,0,0,0,1.12-.94,1.1,1.1,0,0,0-1.09-1c-.43,0-.87,0-1.31,0-.67,0-1,.51-1.3,1a2.6,2.6,0,0,1-1.72,1.24l0,.15A10.71,10.71,0,0,0,98,68.79a11.27,11.27,0,0,0,2.25.3c-.21.63-.67.71-2.86.43.19.33.37.59.49.87a7.52,7.52,0,0,1,.26.8,5.05,5.05,0,0,1,1.07.24.92.92,0,0,1,.49,1.19,1.19,1.19,0,0,1-1.11.73,1,1,0,0,1-1.06-1.28,1.8,1.8,0,0,0-.47-1.65,22.34,22.34,0,0,0-2.08-2,.67.67,0,0,0-.57-.11,33.94,33.94,0,0,1-7.37,1.75c-.63.1-1.26.17-1.9.24-.36,0-.5.19-.56.57A17.85,17.85,0,0,1,84,73.06c-.23.72-.49,1.44-.76,2.23A5.66,5.66,0,0,1,85,75,2.12,2.12,0,0,0,87,74a2.85,2.85,0,0,1,2.82-.82,8.92,8.92,0,0,0-1.41.57,10.58,10.58,0,0,0-1.26,1.05l3.9.61,0-.14L90.9,75a1.25,1.25,0,0,1-.16-1.38,1.08,1.08,0,0,1,1.13-.61,1.34,1.34,0,0,0,1-.31,1.24,1.24,0,0,1,.91-.14,8.39,8.39,0,0,1,1.32.46,1.05,1.05,0,0,1,.54,1.49,1.51,1.51,0,0,0-.16.64.75.75,0,0,1-.93.79,5,5,0,0,0-.78,0c-.3,0-.66.12-.89,0a2.28,2.28,0,0,0-1.44-.09,9.11,9.11,0,0,1-2.34,0,9.89,9.89,0,0,0-3.25.18c-.39.07-.78.17-1.18.25a1.63,1.63,0,0,0-1.43,1.42c-.09.5-.12,1-.18,1.52a2.31,2.31,0,0,0,.44,1.53c.44.72.76,1.52,1.12,2.28l0,.05c.38,1.36.47,1.43,1.91,1.37,0-.68-.12-1.36-.11-2a1.93,1.93,0,0,1,1-1.62,1.49,1.49,0,0,1,1.84.29,1.22,1.22,0,0,1,.14,1.6c-.24.41-.54.48-1,.24.16-.14.41-.24.45-.4a1.06,1.06,0,0,0,0-.81.94.94,0,0,0-.79-.13.8.8,0,0,0-.52.5c-.17,1-.25,2,.71,2.68a2.36,2.36,0,0,0,.66.29c.21.07.47,0,.63.15a7,7,0,0,0,2.76.71,1.69,1.69,0,0,1,.77.25,2.94,2.94,0,0,0,2,.59c2,.14,4,.31,6,.47v-.68l.67.34a5,5,0,0,1,2.85-.58,2.06,2.06,0,0,1,.55.26l0,.14-2.19.36v.18c.33,0,.65.06,1,.07,1.26,0,2.51.09,3.77.06a3.1,3.1,0,0,0,1.17-.37,4.35,4.35,0,0,1,3.47-.43l.33.16-2.94.55v.15l.28,0c2.75,0,5.5.08,8.25.09a1.34,1.34,0,0,0,.67-.25c.41-.27.77-.62,1.2-.85a5.21,5.21,0,0,1,1.07-.33l.09.19-.41.58,4.31-.84-1,.69,9.27.36v.21l-11.82.09v.2l.5,0a65.45,65.45,0,0,1,10,1,2.29,2.29,0,0,0,1.53-.16,5,5,0,0,1,1.52-.37,2.92,2.92,0,0,1,.82.12v.14l-1.84.38v.11l2.12.87a1.87,1.87,0,0,1,.4.18,2.16,2.16,0,0,1,.3.33c-.15.07-.3.21-.44.2-2.2-.15-4.39-.32-6.59-.48-1.3-.09-2.6-.15-3.9-.23l0,.22c1.43.44,2.84,1,4.3,1.28s2.94.33,4.41.48l0,.19c-.32.06-.64.14-1,.16a10.91,10.91,0,0,1-1.15,0c-.36,0-.72,0-1.15-.08.41,1.39,1.6,1.09,2.54,1.3a1.16,1.16,0,0,1-1.34.31,3.53,3.53,0,0,1-1.9-1.4c-.11-.15-.29-.33-.44-.34-2.38-.16-4.45-1.31-6.68-2a3.23,3.23,0,0,0-.91-.15c-1.69,0-3.39,0-5.08.07l-.37,0c3.28,2.13,6.91,2.8,10.55,3.44l0,.28a8.1,8.1,0,0,1-1.24,0c-1.56-.24-3.12-.53-4.68-.79a2.75,2.75,0,0,0-.32,0v0h0c.58.36,1.14.72,1.73,1.06a8.32,8.32,0,0,0,.82.37l0,.15a2.69,2.69,0,0,1-.91,0,7.09,7.09,0,0,1-3.33-2.14,1.16,1.16,0,0,0-.4-.26L115.74,90a1.14,1.14,0,0,0-.51-.15l-6.17.16,0,.18,3.37.4a2,2,0,0,1-1.64.49c-1.11-.18-2.2-.46-3.3-.7a7.31,7.31,0,0,0-1.39-.26c-2,0-4,0-6.22,0,1.56,1,3.22.47,4.76.82-.42.51-1,.46-1.52.5s-1.12,0-1.69.07a5.45,5.45,0,0,0,2.93.88,51.29,51.29,0,0,1,12.2.4,5,5,0,0,1,2.7.94,2.79,2.79,0,0,1,.65.8c-2.91-1.61-6.08-1.24-9.17-1.42a33.78,33.78,0,0,0,7.6,2.37,2.8,2.8,0,0,1-2.07.09c-2-.53-4-1.14-6-1.67-1.52-.4-3-1-4.64-.71l-.35.07c.9.41,1.65.8,2.43,1.1,1.24.47,2.48,1,3.75,1.31a41.3,41.3,0,0,0,7.5,1.66c.83.07.83.08,1.12-.71a1.61,1.61,0,0,1,2-1.09,7.06,7.06,0,0,0-.84.59,3.06,3.06,0,0,0-.6.86,30.9,30.9,0,0,1,6.94-1.14l0,.15-6.08,1.5v.07c.31,0,.63.07.94.08a16.16,16.16,0,0,0,4.62-.16,2,2,0,0,0,.87-.48,3.62,3.62,0,0,1,2.87-1c-.53.23-1,.39-1.42.62a6.19,6.19,0,0,0-.84.65v0c.8,0,1.59-.12,2.39-.14.57,0,1.13,0,1.7.06l0,.28-4.6.82c1.11.85,2.36.58,3.44.9l0,.15c-.28.05-.56.12-.84.16a4.27,4.27,0,0,1-3.19-.62.89.89,0,0,0-.56-.1c-.78.08-1.55.19-2.37.29a2.32,2.32,0,0,0,1.52,1.48,10.41,10.41,0,0,0,2.1.25,1.42,1.42,0,0,1-1.33.6,3.2,3.2,0,0,1-2.59-1.5,1.42,1.42,0,0,0-1.43-.75c-1.69,0-3.38-.07-5.13,0l3.21,1.33v.1a6,6,0,0,1-.77,0,6.3,6.3,0,0,1-3.37-1.28,3.09,3.09,0,0,0-1.42-.61c-1.53-.33-3-.72-4.55-1.13-1.22-.33-2.43-.73-3.75-1.13.66.84,1.27,1.63,1.9,2.4.06.07.24,0,.36.08,1.31.3,2.63.54,3.92.93,1.53.45,3,1.07,4.55,1.54a10.28,10.28,0,0,0,4.49.27l.8-.1.06.17A6.83,6.83,0,0,1,122,102a9.88,9.88,0,0,1-4.53-.32l-2.18-.54a4.74,4.74,0,0,0,2.77,1.81l0,.16a4.44,4.44,0,0,1-.64,0,3.82,3.82,0,0,1-2.85-1.81,2.73,2.73,0,0,0-1.75-1.13c-.88-.23-1.78-.38-2.67-.56a2.4,2.4,0,0,0-.36,0,29.91,29.91,0,0,0,5.41,4.09l-.06.12-.8-.28a13.65,13.65,0,0,1-6.19-4.38c-.78-1-1.52-1.94-2.37-2.83A6.55,6.55,0,0,0,104,95.08c-1.3-.65-2.64-1.2-4-1.77-.8-.34-1.63-.62-2.47-.89a11.79,11.79,0,0,0,3.38,2.28l0,.21c-.3,0-.65.17-.9.07a18.1,18.1,0,0,1-2.41-1.22c-.78-.49-1.49-1.08-2.34-1.58.06.19.13.38.18.57.2.83.38,1.66.6,2.48,0,.16.23.39.37.4a17.9,17.9,0,0,1,4,1.27,10.89,10.89,0,0,0,2.42.33,2.77,2.77,0,0,1,1.82.9l-2.23-.33,0,.11a13.41,13.41,0,0,1,1.18.8c.85.7,1.69,1.42,2.48,2.18a6.61,6.61,0,0,1,1.06,1.38,2.68,2.68,0,0,1,.29,1.19c-1.34-1.13-2.3-2.58-3.78-3.56a39.66,39.66,0,0,0-4.66-2.5c.11.74.17,1.33.31,1.91,0,.14.3.28.48.32a5,5,0,0,1,2.85,1.47.35.35,0,0,1,.08.27l-2.87-1c.2.68.68,1.14,2.13,1.88.85.43,1.77.71,2.64,1.18a2.27,2.27,0,0,1-.44,0,7.89,7.89,0,0,1-4.05-1.44,4.35,4.35,0,0,1-1.82-3.25,7,7,0,0,0-.34-1.32.63.63,0,0,0-.32-.37c-.44-.16-.89-.26-1.42-.41A7.25,7.25,0,0,0,97.1,100a9.46,9.46,0,0,0,3.5,3.11l3.81,2.23a.87.87,0,0,0,.4.15c.95,0,1.89,0,2.84-.05a.81.81,0,0,0,.49-.34,3.35,3.35,0,0,1,2.41-1.22,1.05,1.05,0,0,1,.6.2c-.74.49-1.79.36-2.36,1.27,2.28.3,4.63-.07,6.67,1.12l0,.28-4.34-.53a4.06,4.06,0,0,0,2.74,1.08,2.33,2.33,0,0,1-2,.12,10.79,10.79,0,0,1-2-.76c-1-.58-2-.28-3.07-.19,3.82,1.46,7.69,2.52,11.93,1.42-.28-1.66.64-2.61,1.88-3.34a2.8,2.8,0,0,1,2.55-.12l-2.78,1.18.06.17h1.49l.05.21c-.62.21-1.23.46-1.87.62s-.62.45-.54.95c1.16-.26,2.28-.57,3.43-.74a3.36,3.36,0,0,0,2.29-1.4,5.58,5.58,0,0,1,4.19-2,1.11,1.11,0,0,1,1.18.67,5.4,5.4,0,0,0-5.21,2.17c2.72-.22,5.34-.76,7.86.33v.25a8.7,8.7,0,0,1-1.08-.08,16.36,16.36,0,0,0-6.35.17,4,4,0,0,0-.42.14l4.8.75,0,.13a2,2,0,0,1-.41.07c-.85,0-1.71-.06-2.56-.11a35.82,35.82,0,0,0-4.19-.26,12.2,12.2,0,0,0-3.2.86c1.59.17,3.18.28,4.76.51,1.17.17,2.3.52,3.46.77a3,3,0,0,0,.84,0c.87-.07,1.73-.18,2.6-.23a2.53,2.53,0,0,1,.73.18l0,.24-2.62.19c.79.49,1.46.87,2.09,1.3a5.25,5.25,0,0,1,.88.81c.09.1.16.36.1.42a.55.55,0,0,1-.46.16c-.6-.2-1.18-.48-1.78-.66a32.08,32.08,0,0,0-3.88-1c-1.82-.3-3.67-.41-5.51-.6l-.08.27a32.33,32.33,0,0,0,3.6,1.65,32.73,32.73,0,0,0,3.9.79l0,.29a10.56,10.56,0,0,1-1.17.09,11.58,11.58,0,0,1-1.22-.16c.75.74,3.22,1.53,4,.59.05.64-.12.91-.74.93a5.31,5.31,0,0,1-1.62-.16,15.33,15.33,0,0,1-3.66-1.53c-1.34-.81-2.77-1.48-4.16-2.21l-.22.18c.19.5.25,1.17.61,1.46s1,.21,1.58.29c-.1.57-.53.47-.91.68l1.93,1.08a1.54,1.54,0,0,1-1.39-.1,4.59,4.59,0,0,1-2.66-3.61.55.55,0,0,0-.32-.35,4.33,4.33,0,0,0-1-.2c-1.54-.1-3.09-.17-4.75-.26.29.23.5.43.74.59a21.49,21.49,0,0,1,4.37,4,.62.62,0,0,0,.38.25,6.12,6.12,0,0,1,3.28,1.34,11.61,11.61,0,0,1,1,.76c-1.55.25-2.39-1-3.64-1.24,1.37,1.77,2.76,3.52,5,4.33a6.28,6.28,0,0,1-1.17,0,4.43,4.43,0,0,1-2.31-1.26c-1-1-1.87-2-2.79-3a1.34,1.34,0,0,1-.17-.38v0l0,0c-.33-.3-.69-.58-1-.9a8.85,8.85,0,0,0-.7-.76,4,4,0,0,0,.31,3.31.89.89,0,0,1-1.05-.64,5.73,5.73,0,0,1-.28-2,2.39,2.39,0,0,0-1.23-2.55,30.8,30.8,0,0,0-4-2.1c-.66-.31-1.35-.57-2-.85a4.61,4.61,0,0,0-.52-.14c.29,2.15,2.1,2.64,3.6,3.46l-.06.12a1,1,0,0,1-.23,0c-1.63-.1-4.16-1.37-4.25-3.6a.69.69,0,0,0-.34-.48c-.7-.35-1.43-.63-2.12-1-1.31-.67-2.59-1.38-3.89-2.08-.29-.15-.56-.33-.93-.55a5.28,5.28,0,0,0,.88,2.11l0,0c.56,1.25,1.74,1.22,2.83,1.41a12.49,12.49,0,0,1,1.31.37l0,.27-2.2-.11c1.26,1,2.72,1.33,4.11,2.09a4.42,4.42,0,0,1-2.34-.24,8.4,8.4,0,0,1-3.79-2.56,9.35,9.35,0,0,1-2-3.77A1.86,1.86,0,0,0,97,104a17.07,17.07,0,0,1-2.26-2.62,20.54,20.54,0,0,1-1.24-3.59c0-.11-.07-.23-.1-.35l-.16,0-.52,2a.85.85,0,0,1-.5-1,4.25,4.25,0,0,1,.61-1.55,1.79,1.79,0,0,0,.32-1.53,8.29,8.29,0,0,0-2.71-5,.73.73,0,0,0-.32-.15c.2.64,0,1.36.6,1.91a2.09,2.09,0,0,1,.73,1.64l-1-.92-.13.08,1.4,3.15-.17.1a2.22,2.22,0,0,1-.3-.26A7.6,7.6,0,0,1,89.41,92a7.7,7.7,0,0,0-.14-.86c-.32-1.4-.9-1.82-2.38-1.75.25.54.49,1.08.76,1.6a35.06,35.06,0,0,1,1.91,5.68c.35,1.16.73,2.32,1.08,3.49a1.14,1.14,0,0,0,.71.75,10.44,10.44,0,0,1,4.5,3.58,3.47,3.47,0,0,1,.7,2.36,1.76,1.76,0,0,1-.27.7,7.07,7.07,0,0,0-2.29-3.8l.26,2.14L94,106a2.45,2.45,0,0,1-.42-.61,14.47,14.47,0,0,1-.45-1.85.82.82,0,0,0-.49-.71,7.73,7.73,0,0,0-1.17-.54,17.23,17.23,0,0,0,.75,1.84c1,1.8,2,3.59,3,5.36a13.46,13.46,0,0,0,1.52,2,2.06,2.06,0,0,0,1.06.56,56.73,56.73,0,0,1,7.27,1.71c.92.33,1.83.71,2.75,1a1.65,1.65,0,0,0,.92,0,3.48,3.48,0,0,1,2.5.18.87.87,0,0,1,.39.39h-2.46c1.57,1,3.32,1.66,3.82,3.55l-.13.15c-.39-.28-.77-.57-1.16-.85-.56-.39-1.13-.79-1.7-1.16-.24-.16-.56-.24-.71.07s-.15.61,0,.73a10.41,10.41,0,0,0,1.43,1.12,3.63,3.63,0,0,0,.74.3v.16a2.59,2.59,0,0,1-1,0,5.51,5.51,0,0,1-1.61-1,1.2,1.2,0,0,1-.19-1.47c.21-.38.14-.63-.29-.8-1.56-.59-3.11-1.21-4.66-1.81l-.16.2a12.38,12.38,0,0,0,1.22,1.45,16.92,16.92,0,0,0,1.66,1.13c.52.36,1,.74,1.52,1.1l-.12.24c-.63-.25-1.28-.47-1.88-.77a7.67,7.67,0,0,1-2.55-2.09,10.59,10.59,0,0,1-.62-1.08c-.09-.14-.22-.32-.36-.36-1.27-.31-2.55-.59-3.83-.88,0,0-.1,0-.26.06.44.44.82.84,1.23,1.22.81.75,1.59,1.55,2.46,2.22a39.94,39.94,0,0,0,3.42,2.33c1.14.7,2.34,1.31,3.53,1.93a1.37,1.37,0,0,0,.72.11,11.65,11.65,0,0,0,1.73-.25,4.16,4.16,0,0,0,1.12-.51,6.15,6.15,0,0,1,2.84-.64,2.78,2.78,0,0,1,.63.15c-.9.62-2,.29-2.74.89,1.58.33,3.26.17,4.61,1.19l0,.16c-.41-.05-.82-.08-1.22-.17a17.52,17.52,0,0,0-5-.37,1.42,1.42,0,0,0-.69.22c.74.28,1.47.59,2.22.85,1.38.46,2.76.94,4.16,1.33a4,4,0,0,0,2.6.22,3,3,0,0,0,1.61-1.13c.08-.12.28-.15.43-.22,0,.16.08.39,0,.47-.47.53-1,1-1.52,1.6.63.2,1.32.45,2,.65.3.08.52.16.49.52s-.32.32-.57.3a44.08,44.08,0,0,1-10.79-2.12c-.49-.17-1-.27-1.51-.4l-.12.11c.68.71,1.36,1.42,2.06,2.11a8.74,8.74,0,0,0,1,.8,3.13,3.13,0,0,0,2.59.95,6.45,6.45,0,0,1,1.89.16,2.79,2.79,0,0,1,.49.15l0,.19h-2.3c.09.17.09.24.13.26a7,7,0,0,0,3.7,1.16,2,2,0,0,0,1-.39c.21-.15.28-.5.41-.75a.68.68,0,0,1-.05,1.15,3,3,0,0,1-1.38.57,8.53,8.53,0,0,1-4.94-1.46c-.67-.39-1.32-.81-2-1.23-1.32.74-1.36,1.66-.37,2.74a9.16,9.16,0,0,0,2.85,1.78c.15.08.32.14.57.24a1.89,1.89,0,0,1-1.66,0,6.4,6.4,0,0,1-2.84-2.21,1.86,1.86,0,0,1,.12-2.58l.5-.57a13.32,13.32,0,0,1-3.11-3.68v0h0c0,.73,0,1.45.1,2.17a1.47,1.47,0,0,0,.41.67,1.42,1.42,0,0,1,.52,1.22l-1-.62c-.34.69-.22,1.74-1.34,1.79a13.74,13.74,0,0,0,.23-4.62,2,2,0,0,0-1.37-1.78,33.88,33.88,0,0,1-6.68-4.19,3.06,3.06,0,0,0-.35-.19c.16.49.25.88.4,1.24.65,1.48,1.3,3,2,4.41.15.31.61.47.93.7.77.56,1.58,1.09,2.31,1.71a1.48,1.48,0,0,1,.56,1.38l-.18.18a11.26,11.26,0,0,0-1.29-1.5,12.32,12.32,0,0,0-1.82-1,13.83,13.83,0,0,0,3.11,5.54,3.79,3.79,0,0,1-2-1.25,16.55,16.55,0,0,1-2-4c-.47-1.18-1-2.33-1.54-3.49a6.27,6.27,0,0,0-.34-.56,5,5,0,0,0-.39.88,9.93,9.93,0,0,0,.35,5.53l0,0A6.32,6.32,0,0,1,98,123.89a4.8,4.8,0,0,1,.85-3.26.59.59,0,0,0,.08-.45c-.31-1.1-.59-2.21-1-3.29a3.79,3.79,0,0,0-.85-1c-.81-.9-1.67-1.76-2.43-2.7s-1.67-2.22-2.58-3.28c.6,2.31,1.37,4.52,3.6,5.93l-.69,0,.3,1.33-.16.09a1.77,1.77,0,0,1-.43-.34c-.82-1.26-1.68-2.51-2.41-3.82a7.28,7.28,0,0,1-1-4.54c0-.37-.28-.79-.46-1.18-.62-1.35-1.27-2.68-1.89-4-.49-1.07-.93-2.16-1.43-3.32a2.2,2.2,0,0,0-.56,1.59,3.23,3.23,0,0,1-.14.63c-.17-.19-.44-.35-.5-.56a2.54,2.54,0,0,1,.6-2.19A1.1,1.1,0,0,0,87,98.36c-.44-1.29-.78-2.61-1.23-3.9a3.25,3.25,0,0,0-.85-1.21,15.64,15.64,0,0,0-1.58-1.16h0a2.57,2.57,0,0,0,.15.56A10.9,10.9,0,0,1,84.7,98c0,1.44,0,2.88-.09,4.32a1.27,1.27,0,0,0,.43,1.05c.67.65,1.33,1.3,1.94,2a16.2,16.2,0,0,1,2.37,3.77c.65,1.38,1.38,2.72,2,4.11s1.2,2.77,1.74,4.17a4.29,4.29,0,0,1,.17,1.37c-1.37-1.47-1.94-3.36-2.82-5.09-.92.86-1.11,2.24-.4,2.74-.49.26-.85.19-.94-.31a4.92,4.92,0,0,1,0-1.65,2,2,0,0,1,.48-1,1.08,1.08,0,0,0,.07-1.48c-.78-1.39-1.5-2.81-2.3-4.33a5.37,5.37,0,0,0,.07,3.35c.3,1.06.69,2.08,1.08,3.24a4,4,0,0,1-.78-.76,10.07,10.07,0,0,1-1.5-4.74,11.2,11.2,0,0,1,.29-1.7.8.8,0,0,0-.08-.57c-.59-.69-1.22-1.34-2-2.13,0,.53-.09.91-.09,1.3a18.2,18.2,0,0,0,1.35,7.63c.52,1.16,1,2.34,1.52,3.5a1.14,1.14,0,0,0,.62.5,9.79,9.79,0,0,1,3.82,2.45,1.78,1.78,0,0,0,1.17.67,5.16,5.16,0,0,1,2.7.95A1.19,1.19,0,0,1,96,122.6a3.7,3.7,0,0,0-3-1.54,8.17,8.17,0,0,1,2.14,4.09l-3.83-4.94-.18.11.83,2.91-.09.09a4.38,4.38,0,0,1-.74-.9,25.75,25.75,0,0,1-1.09-2.79,1.17,1.17,0,0,0-.6-.77l-1.31-.65c0,.08-.08.12-.07.14.59,1.06,1.17,2.13,1.78,3.18s1.31,2.22,2,3.31c.51.81,1.05,1.61,1.61,2.39a1.88,1.88,0,0,0,.6.43l3,1.72a1.62,1.62,0,0,1,.26.25l-.07.15-2.7-1a5.55,5.55,0,0,0,.28.56c.54.81,1.12,1.6,1.64,2.43a2.89,2.89,0,0,0,2.31,1.11c.21,0,.52-.27.7-.49.35-.41.61-.89,1-1.31a2.07,2.07,0,0,1,.6-.35l.08.12-.85,1.16.09.14a6.41,6.41,0,0,1,4.73,1.24,3,3,0,0,1-1.89-.29,4.48,4.48,0,0,0-2.58-.15,3.59,3.59,0,0,0-.62.29l.59.21a15.08,15.08,0,0,1,3.15,1,4.37,4.37,0,0,0,3.23.3,19,19,0,0,1,3.42,0,.82.82,0,0,1,.45.2c-1.49.41-3.1,0-4.5.7l3,2.17-.12.18-6.43-3c.17,1.58.58,2.87,2,3.64A1.69,1.69,0,0,1,103,138a11.27,11.27,0,0,1-1.34-2.91.88.88,0,0,0-.44-.52c-1.12-.3-2.25-.55-3.43-.82a1,1,0,0,0,.07.25c.84,1.42,1.71,2.83,2.52,4.27s1.56,2.91,2.31,4.37c.08.15,0,.41-.05.61-.21-.07-.52-.07-.63-.22-1.12-1.47-2.2-3-3.39-4.58l.23,2.28-.24.09a4.51,4.51,0,0,1-.65-1.11,6.9,6.9,0,0,1-.17-1.82,1.18,1.18,0,0,0-.23-.94,9.34,9.34,0,0,1-.78-1.23h-.19c-.16.58-.36,1.15-.48,1.74a3.75,3.75,0,0,0,.91,3.44,4.58,4.58,0,0,1,.75,1.18c-1.14-.29-1.64-1.21-2.16-2.13a5,5,0,0,1-.26-3.13c-.73.12-1,.69-1.17,1.23a12.7,12.7,0,0,0-.34,1.78c-.42,0-.48-.36-.5-.65a3.17,3.17,0,0,1,2-3.27,1.18,1.18,0,0,0,.5-1.47L94,131.77l-1.19-1.66c-.08.57-.17,1-.2,1.47,0,.13.17.28.28.41.44.52,1,1,1,1.9l-1.14-1.08a5.46,5.46,0,0,0,.85,2.64l-.12.14a3.52,3.52,0,0,1-.55-.37,4.44,4.44,0,0,1-1.05-3,5,5,0,0,1,.3-2.63.56.56,0,0,0,0-.45c-.41-.66-.85-1.3-1.37-2.08-.22.58-.38,1-.56,1.47-.39,1-.84,1.94-1.13,3a2.28,2.28,0,0,0,.19,1.35c.56,1.42,1.24,2.79,1.77,4.22a4.18,4.18,0,0,1-.16,3.74,7.69,7.69,0,0,0-.51-3.28l-.9,1.51-.17,0a5.46,5.46,0,0,1,.07-1c.11-.44.32-.85.44-1.29a1.09,1.09,0,0,0,0-.68c-.37-.8-.79-1.57-1.25-2.48-.31,1.49-.69,2.86-.87,4.25s-.18,2.82-.26,4.27a1,1,0,0,1-.76-1.06c-.06-1,0-1.92,0-2.88a2.25,2.25,0,0,0,0-.56c-1.08.92-2.36,1.7-2.1,3.55a1.28,1.28,0,0,1-.42-1.47c.15-.48.39-.93.61-1.44H83.68a1.53,1.53,0,0,1,1.27-.69,1.12,1.12,0,0,0,.92-.36.62.62,0,0,1,.32-.2c.74-.17.91-.72,1-1.38.37-1.92.81-3.83,1.21-5.73a2.15,2.15,0,0,0-.54.36A6.16,6.16,0,0,0,86,133.62a6.19,6.19,0,0,1-.62,1.91,7.73,7.73,0,0,1,.44-3.47,7.32,7.32,0,0,1,2.88-3.39,1.63,1.63,0,0,0,.51-.6,17.09,17.09,0,0,0,.73-1.76.8.8,0,0,0-.09-.59c-.8-1.34-1.62-2.67-2.44-4-.11-.19-.25-.36-.36-.55-.76-1.41-1.53-2.8-2.25-4.23-.44-.87-.78-1.8-1.16-2.7,0-.09-.1-.18-.21-.38a9.67,9.67,0,0,0,.13,4.22c.07.27.41.45.58.71a14,14,0,0,1,2.26,4.86,2.2,2.2,0,0,1-.26,1.83,5.17,5.17,0,0,0-.15-1q-.54-1.54-1.16-3a11.18,11.18,0,0,0-.68-1.21v0h0c.28,1.18.57,2.36.83,3.55.22,1,.4,2,.57,3.06a5.48,5.48,0,0,1,0,.89l-.18.06a6.23,6.23,0,0,1-.49-1.07c-.19-.77-.28-1.58-.48-2.35-.49-1.92-1-3.83-1.53-5.74a10,10,0,0,1-.22-5.08,5.45,5.45,0,0,0-.15-3,24.18,24.18,0,0,1-.48-8,9.85,9.85,0,0,0-.6-4.44c-.39-1-.68-2-1.08-2.92A6,6,0,0,0,79.52,94a8.57,8.57,0,0,0-.5,3.2c.33,3.08.71,6.15,1.05,9.23a55,55,0,0,1,.16,11.89,3.41,3.41,0,0,0,.5,2.36,13.67,13.67,0,0,1,1.68,5.88,1.09,1.09,0,0,0,.37.64,6.87,6.87,0,0,1,1.1,1.66,6.18,6.18,0,0,1,.52,3.31,2.72,2.72,0,0,1-1.15,2c.95-2.16.41-4.13-.61-6h-.16c-.21,1.06-.39,2.12-.62,3.17a19.2,19.2,0,0,1-.57,2,2.72,2.72,0,0,1-.43.62l-.22-.08a7,7,0,0,1,.15-1.07,15.45,15.45,0,0,0,.77-6.62c0-.07,0-.14-.08-.34-.36.59-.88.83-.76,1.67a4,4,0,0,1-1,3.37h0l.5-2.77L80,128a8.35,8.35,0,0,0-1.2,3.72l-.2,0a9.39,9.39,0,0,1,0-1.36A7.22,7.22,0,0,1,79.81,127c.48-.66.92-1.35,1.36-2,.06-.1.14-.25.11-.34-.43-1.17-.87-2.34-1.32-3.51,0,0-.08-.06-.16-.1-.21.69-.39,1.38-.64,2-.53,1.39-1.05,2.78-1.66,4.14A8.1,8.1,0,0,0,77,132c0,.18.09.35.13.53a1.17,1.17,0,0,0,1,.92,7,7,0,0,1,2,.91,1.51,1.51,0,0,1,.51,1.36,3.15,3.15,0,0,0-2.71-1.37L81,138l-.1.09a12.52,12.52,0,0,1-3.56-3.43A8,8,0,0,1,76,129.91a4.67,4.67,0,0,0-1.16,1.85c-.49,1.92.26,3.67.7,5.46,0,.14.22.26.36.36.83.58,1.67,1.16,1.71,2.31a2.83,2.83,0,0,1-.25,1.09,3,3,0,0,0-1.59-2.57,16.7,16.7,0,0,1-.61,4.52,1.81,1.81,0,0,1-.2-.44,9.42,9.42,0,0,1,0-1.36,12.77,12.77,0,0,0-.74-5.64c-.23-.6-.35-1.25-.55-2-.32.66-.61,1.24-.88,1.83,0,.08,0,.23.1.33a7,7,0,0,1,1,5.12,2.36,2.36,0,0,1-1.37,1.88,5.56,5.56,0,0,0,.74-3.45l-.9.76c.23-1.16,1.08-2.27-.11-3.49-.18.89-.35,1.7-.5,2.51-.25,1.4-.48,2.8-.74,4.2-.08.44-.25.87-.35,1.32a.48.48,0,0,1-.68.4c-.38-.11-.33-.39-.29-.7.2-1.42.36-2.85.54-4.27a.54.54,0,0,0,0-.17,3.24,3.24,0,0,0-2,1.53,12.91,12.91,0,0,0-1,2.28c-.34-.09-.45-.48-.44-.85a3.56,3.56,0,0,1,.28-1.15,8.11,8.11,0,0,1,.6-1l-1.79-.31V140c.6,0,1.21-.06,1.81-.14a1.74,1.74,0,0,0,.82-.29c.57-.44,1-1.05,1.8-1.18.11,0,.25-.3.26-.47a10.6,10.6,0,0,1,1.26-3.87c.6-1.18,1.17-2.37,1.79-3.54.32-.6.71-1.17,1-1.8a14.46,14.46,0,0,0-3.3,2.42,9.54,9.54,0,0,0-2.21,3.64c-.27.87-.62,1.71-.94,2.56a3.24,3.24,0,0,1-.2.35,9.94,9.94,0,0,1,1.33-5.26l-.13-.14-2.37,1.36-.1-.08a2.76,2.76,0,0,1,.4-.66,6.28,6.28,0,0,1,2.69-1.6.94.94,0,0,0,.5-.29,14.84,14.84,0,0,1,3.72-3.15,14.51,14.51,0,0,0,1.37-1,3.5,3.5,0,0,0,.76-1,15.72,15.72,0,0,0,.68-1.67,26.16,26.16,0,0,0,1.48-10.72l-.63,1.08c-.8,1.32-1.58,2.65-2.41,4a1.75,1.75,0,0,0-.4,1.12c0,.9-.08,1.82-.1,2.72a3.14,3.14,0,0,0,.17,1.05,2.29,2.29,0,0,1-.14,1.95,3.09,3.09,0,0,1-.31.38l-.1-1.81-.19,0c-.73,1.09-1.06,2.48-2.35,3.13.52-1,1.12-2,1.53-3.06a5.27,5.27,0,0,0,.6-3.48l-3.78,6.26c.81-3.16,2.74-5.76,4.35-8.6a5.21,5.21,0,0,0-2.12,1.16,18.2,18.2,0,0,1-1.86,1.57,3.55,3.55,0,0,1,.25-.65,8.25,8.25,0,0,1,2.88-2.77,1.82,1.82,0,0,1,.87-.26.88.88,0,0,0,.89-.56c.32-.64.68-1.27,1-1.9l-.09-.16-1.5.3c.27-.64,1-.95,2-.89.42-.93.86-1.89,1.26-2.85a1.49,1.49,0,0,0,0-.7q-.66-5.56-1.34-11.12a1.49,1.49,0,0,0-.1-.25l-.87,2-.21,0a2,2,0,0,1,0-.69c.25-.81.54-1.61.81-2.41.06-.17.19-.35.16-.5-.18-1-.39-2-.59-3a1.9,1.9,0,0,0-.13-.28c-.8,1.15-.56,2.55-1.16,3.76a2.27,2.27,0,0,1-.41-1.66c0-.57.15-1.14.24-1.78l-.77.08c.32-.53,1-.59,1.17-1.27s.84-.87.49-1.56c0,0-.09,0-.1,0-.65.68-1.33,1.33-1.94,2a1.79,1.79,0,0,0-.33.9c-.1.76-.11,1.53-.22,2.28a3.81,3.81,0,0,0,.75,2.91,11.1,11.1,0,0,1,1.68,5c.07.42,0,.84.48,1.13a1.08,1.08,0,0,1,.36.77,23.49,23.49,0,0,1,0,2.55,1.3,1.3,0,0,1-.48.78l-.14-2.94-.2,0c-.32,1.48-.62,3-1.89,4a9.46,9.46,0,0,1,.23-1.29,9.11,9.11,0,0,0,.76-4.15,26.47,26.47,0,0,0-.61-2.87c-.18-.67-.47-1.31-.71-2l-.17,0c0,.15,0,.3,0,.45A29.79,29.79,0,0,1,72.2,110a.76.76,0,0,0,.13.58,4.32,4.32,0,0,1,0,5.3l-.65.85.47-2.34h0c-.41.66-.87,1.29-1.23,2s-.58,1.4-.86,2.1l-.22,0a8.79,8.79,0,0,1,.23-1.31,16.52,16.52,0,0,1,1.82-4c.44-.67.4-.71,0-1.54-.18.48-.31.92-.51,1.35-.76,1.67-1.54,3.32-2.3,5a2.59,2.59,0,0,0-.15.68c-.14.93-.24,1.87-.43,2.79a2.07,2.07,0,0,0,.12,1.56,2.47,2.47,0,0,1-.1,2.46c-.12.21-.38.35-.58.52l-.12-.07a9.76,9.76,0,0,0,.16-1.19,10.77,10.77,0,0,0-.14-1.3,8.7,8.7,0,0,0-1.55,6.31c.09.57.58.37.89.51-.13.49-.47.71-.85.45a2.61,2.61,0,0,1-.8-1,6.13,6.13,0,0,1-.3-1.32c-.58,1-.36,2.1-.61,3.12a1.26,1.26,0,0,1-.58-1.21,4.51,4.51,0,0,1,1.2-3.16,1,1,0,0,0,.15-.34c.5-1.32,1-2.65,1.49-4,.31-.82.65-1.64,1-2.46l-.19-.1L66.33,122c-.14.19-.24.41-.4.58a21.84,21.84,0,0,1-2.68,2.91,2.51,2.51,0,0,0-.92,2.48,26.25,26.25,0,0,1-.45,5.15c0,.14,0,.36.09.44a3.73,3.73,0,0,1,1.24,2.65,6.41,6.41,0,0,1-.54,3.94c0,.06-.08.12-.2.3,0-.71,0-1.29,0-1.87A7.58,7.58,0,0,0,62,135.1a5,5,0,0,0-.37-.62l-.15,0c-.29,1.18-.65,2.34-.85,3.53A7.06,7.06,0,0,1,59,141.84a2.62,2.62,0,0,1-.25.19c1-2.19,1.11-4.47,1.63-6.65a1.93,1.93,0,0,0,0-.43h0c-.85,1.42-1.7,2.83-2.56,4.25a4.33,4.33,0,0,1-.39.48l-.18-.07a4.22,4.22,0,0,1,.21-.76c.7-1.46,1.41-2.91,2.14-4.35a8.62,8.62,0,0,1,.77-1.12,4.69,4.69,0,0,0,.74-2.79c-1.37.5-2.23,1.61-3.34,2.63a2.38,2.38,0,0,1,.7-1.73,5.26,5.26,0,0,1,2.53-1.82.42.42,0,0,0,.23-.32c0-.7,0-1.41,0-2.18-.83.54-1.53,1-2.28,1.48q-1.64,1-3.32,1.87a.86.86,0,0,0-.5.75,10.72,10.72,0,0,1-1.56,4.5,1.63,1.63,0,0,0-.25,1.51c.35,1.08-.17,3.75-1.38,4.47.13-.74.25-1.4.35-2.07a14.5,14.5,0,0,0,.19-2c-1.72,1.79-3.3,3.72-6.09,3.65a12.25,12.25,0,0,0,6.24-6.28c-2,.31-3.19,1.81-4.74,2.69l-.12-.11.56-.72a11.33,11.33,0,0,1,3.27-2.5,5.23,5.23,0,0,1,1.25-.33c.14,0,.35-.11.38-.21.23-.78.43-1.56.67-2.5l-1.34.68a23.14,23.14,0,0,0-5,3.33c-.74.66-1.58,1.21-2.38,1.81l-3.15,2.34c-.13.1-.29.24-.42.23a1.08,1.08,0,0,1-.69-.24.68.68,0,0,1,.14-.63c.91-.77,1.87-1.5,2.8-2.25,1.12-.91,2.24-1.83,3.34-2.8a12,12,0,0,0-3.74,1c-.67.37-1.36.7-2,1a3.9,3.9,0,0,1-.66.19l-.1-.17L43,134.26a6.91,6.91,0,0,0-3.54-.18,3.8,3.8,0,0,1,2.62-.74,12.86,12.86,0,0,1,1.68.4,1.45,1.45,0,0,0,.62,0c1.34-.32,2.69-.64,4-1a4,4,0,0,0,1-.44c1.3-.76,2.6-1.53,3.9-2.3,1.53-.9,3.08-1.78,4.59-2.71a22.57,22.57,0,0,0,2.4-1.68c.72-.59,1.37-1.28,2-1.92l-.08-.13-1.17.23a6.56,6.56,0,0,1-1.28.28,2.34,2.34,0,0,0-1.85,1.15,7.71,7.71,0,0,1-3,2.44,8.2,8.2,0,0,1-1.55.34l-.12-.26a7.32,7.32,0,0,0,4-3.12c-.71.27-1.43.53-2.12.83-1.33.57-2.66,1.15-4,1.78a1.59,1.59,0,0,0-.66.71,3.78,3.78,0,0,1-1.84,1.86,11,11,0,0,1-5.91.94,7.53,7.53,0,0,1-1.8-.56c2.77.24,5.47.24,8-1.39H44.84l0-.16a10.93,10.93,0,0,0,4.55-1.12c1.38-.74,2.78-1.46,4.21-2.32-.57-.11-1.13-.28-1.7-.34a9.23,9.23,0,0,0-4,.51c-1.47.51-2.92,1.1-4.39,1.63a3.23,3.23,0,0,1-1.28.18l5.78-2.6a7.45,7.45,0,0,0-2.79-.79v-.18a5.62,5.62,0,0,1,1.38-.1c.66.11,1.28.39,1.93.55a5.1,5.1,0,0,0,1.2.19c1.14,0,2.29,0,3.43,0,.09,0,.18,0,.27,0,.64,0,1.09.73,1.83.41a18.9,18.9,0,0,1,1.81-.6l.86-.28v-.14l-1.07-.24a2.12,2.12,0,0,1,1.84-.1,1.65,1.65,0,0,0,.82.06c.84-.17,1.66-.43,2.5-.56A4,4,0,0,0,64.68,121c.87-1.29,1.71-2.61,2.49-4-.71.23-1.41.5-2.13.69-1.3.34-2.62.62-3.92,1a2,2,0,0,0-.82.42,8,8,0,0,1-3.83,2.21,6.84,6.84,0,0,1-1.31,0l0-.16c.55-.21,1.12-.39,1.65-.65s1.28-.68,1.9-1c.14-.08.21-.27.32-.41h0c-1.41.35-2.83.69-4.23,1.07a11.11,11.11,0,0,0-3.71,2.18l-.15-.13a7.19,7.19,0,0,1,.44-.66A6.47,6.47,0,0,1,54,119.65c.72-.29,1.43-.61,2.29-1a6.86,6.86,0,0,0-4.21.54c-.92.47-1.82,1-2.83,1.41a1.5,1.5,0,0,1,.26-.46c2.29-1.88,4.82-2.8,7.79-1.84a.82.82,0,0,0,.42.05l4-1a.61.61,0,0,0,.13-.07v-.15H55.24a6.77,6.77,0,0,1,3.79-.74c1.51.08,3,.32,4.51.4a7.94,7.94,0,0,0,1.8-.35c-.9-1.11-2.14-1.14-3.14-1.74h1.55c.21-.6.36-1.13.59-1.63,0-.11.34-.11.59-.17-.06.19-.06.29-.11.35a1,1,0,0,0-.23,1.28,2.22,2.22,0,0,0,1.59,1.36,2.59,2.59,0,0,0,1.26-.43A3,3,0,0,0,69,113.57c.52-1.63,1.07-3.25,1.46-4.91a20.14,20.14,0,0,0,.25-3.13l-.14,0c-.43.55-.89,1.09-1.29,1.67a1.15,1.15,0,0,0-.11.71,4.6,4.6,0,0,1-.46,3.07,4.83,4.83,0,0,1-.54.61l-.11-.08.45-2.89-.22-.05c-.86,1.18-1.08,2.66-1.73,3.95-.43-1.35.16-2.51.66-3.78-1.06.19-1.5,1.12-2.33,1.52a1.82,1.82,0,0,1,.8-1.39,12.73,12.73,0,0,1,1.72-.89c.12-.06.29-.1.36-.2.77-1.1,1.57-2.18,2.27-3.33a3.89,3.89,0,0,0,.58-1.78c.07-2,0-4,0-6l-.2,0c-.11.33-.24.65-.32,1-.33,1.23-.63,2.47-1,3.7a4.79,4.79,0,0,1-.4,1,17.84,17.84,0,0,1-3.92,4.91.76.76,0,0,0-.25.39,7.49,7.49,0,0,1-1.46,2.83,11.65,11.65,0,0,0-.93,1.83,2.61,2.61,0,0,1-1.57,1.4l0,0,.87-1.48a14.43,14.43,0,0,1-7.58,2.74c.48-.15.95-.33,1.43-.46a14.62,14.62,0,0,0,5.42-2.82,8.46,8.46,0,0,0,2.61-3.24c-.9.49-1.67,1-2.51,1.35a43,43,0,0,1-4.57,1.75A12.11,12.11,0,0,0,52.4,113a6.84,6.84,0,0,0-1.57,1.71,1.41,1.41,0,0,0,.1,1.69c.12.16.21.33.32.51a1,1,0,0,1-1.16-.76,3.22,3.22,0,0,1,.06-1.64,9.69,9.69,0,0,1,1-1.72c-1,.21-2.21.07-3,1a2.34,2.34,0,0,1-.26.28c-.52.44-.48.82-.2,1.48a4.3,4.3,0,0,1-.48,4,5.6,5.6,0,0,0-.37-4,3,3,0,0,0-.32.42c-.37.77-.74,1.54-1.07,2.33a1.44,1.44,0,0,0-.08.81,2.62,2.62,0,0,1-.88,2.84,3,3,0,0,1-.32.13,2.37,2.37,0,0,0,.62-2.33c-.44.63-.79,1.17-1.18,1.69a10.31,10.31,0,0,1-2.76,2.88.8.8,0,0,0-.35.45A4.21,4.21,0,0,1,38,127.92a3.49,3.49,0,0,1-1.18.27c1-.9,2.43-1.33,2.72-2.9a15.71,15.71,0,0,1-4.45,1.41,1.52,1.52,0,0,1-1.41-.28C35.37,126,37,126,38.54,125h-2l0-.16a5.6,5.6,0,0,1,2.34-.47,2.17,2.17,0,0,0,1.72-.65,9.66,9.66,0,0,0,.78-.83l-1.19.17-.06-.15,1.55-.56c.12,0,.3,0,.35-.09.63-.95,1.24-1.9,1.86-2.86,0,0,0,0-.06-.08-1.77.93-3.93,1.16-5.24,3a.47.47,0,0,1,0-.8,10.7,10.7,0,0,1,1.79-1.32c1.33-.7,2.72-1.3,4.08-2a.92.92,0,0,0,.33-.41c.68-1.28,1.34-2.57,2-3.86a1.33,1.33,0,0,0,0-.26L42.14,115c-.17,0-.34.13-.52.18a1.79,1.79,0,0,0-1.41,1.23,4.38,4.38,0,0,1-2.07,2.08,1.19,1.19,0,0,0-.63.81A2.38,2.38,0,0,1,36,121l.72-1.41-.11-.09-2.22,1.35-.08-.05a1.87,1.87,0,0,1,.32-.47c.77-.6,1.57-1.17,2.34-1.78s1.33-1.07,2-1.64a2.73,2.73,0,0,0,.42-.72l-.1-.11c-.36.15-.74.27-1.08.44-1.9.95-3.81,1.89-5.69,2.88a2.89,2.89,0,0,0-.81.93,8.19,8.19,0,0,0-.77,1.25,1,1,0,0,0,0,.69,1.14,1.14,0,0,1-.23,1.35l-.21-.46c-.34.4-.44,1-1.17,1.18l.41-1.4.12-.11h0v0l-.12.11c-.35.18-.69.37-1,.55a1.72,1.72,0,0,1-.65.18c1.08-1,2.32-1.82,2.78-3.41l-.48.19c-1.44.55-2.88,1.11-4.33,1.65-.14.05-.34-.08-.51-.12.09-.15.14-.37.27-.45,1.1-.65,2.23-1.28,3.34-1.92.91-.52,1.83-1,2.74-1.58a2.51,2.51,0,0,0,.38-.35h0l-6,.56-.06-.07,1.79-.84c-.48-.25-1.17,0-1.54-.69a2.76,2.76,0,0,1,.51,0,29.25,29.25,0,0,0,3,.44,18.94,18.94,0,0,0,2.93-.19,7.5,7.5,0,0,0,2.66-.89,44,44,0,0,1,7-2.89l.38-.15c-.23,0-.34-.06-.44-.06-.87,0-1.75,0-2.62,0a8.47,8.47,0,0,0-4.49,1.3,16.45,16.45,0,0,1-2.51,1,4,4,0,0,1-1.21,0l0-.14,1-.26a8,8,0,0,0,3.28-1.62h0c-2.28.48-4.66.48-6.83,1.61.18-1.38,3.55-2,5.3-1.83v0c1.22-.26,2.44-.52,3.66-.76a5.39,5.39,0,0,0,1-.22l-2.09-.2a13.77,13.77,0,0,1-2.1-.29,36,36,0,0,1,9,.65l.06-.23-2.16-1.15.08-.16a2.55,2.55,0,0,1,1.77.42,5.47,5.47,0,0,0,2.7,1,2.22,2.22,0,0,0,.38,0c2.11-.45,4.22-.91,6.33-1.43a25.89,25.89,0,0,0-6.65-.12l0-.18a1.84,1.84,0,0,1,.49-.21c1.34-.13,2.67-.31,4-.35s2.4.09,3.6.14a6,6,0,0,0,2.46-.34,27.41,27.41,0,0,0,5.4-2.58,1,1,0,0,0,.38-.42c-.71,0-1.42,0-2.12,0a5.24,5.24,0,0,0-2.76.53,21.64,21.64,0,0,1-3.82,1.24,3.53,3.53,0,0,1-2.58-.37,25.66,25.66,0,0,0,3-.38,13.42,13.42,0,0,0,2.75-1.12,31,31,0,0,0-5.9.32l-.07-.19a11.62,11.62,0,0,1,1.74-.72,19.54,19.54,0,0,1,6.4-.43c.17,0,.35,0,.59,0A7.47,7.47,0,0,0,55.37,104v-.22a3.15,3.15,0,0,1,.89-.24,5.27,5.27,0,0,1,1.61.23c1.33.48,2.61,1.11,4,1.56a3.57,3.57,0,0,0,2.8-.36A4.49,4.49,0,0,0,66,103.48c1-1.53,1.67-2.45,1.82-4.19-.47.32-.95.6-1.37.94-.13.1-.13.35-.2.54-.2.56-.38,1.14-.63,1.67-.11.23-.38.39-.58.58l-.19-.11.5-1.65a3,3,0,0,0-1.44,2.82h-.19a1.52,1.52,0,0,1-.24-.45,2.47,2.47,0,0,1,.65-2.11A21.2,21.2,0,0,1,67.5,98.6a1.66,1.66,0,0,0,.78-1.19c0-.5.15-1,.23-1.51-.08,0-.13,0-.15,0-.76.71-1.53,1.42-2.28,2.14a33.86,33.86,0,0,1-2.88,2.78A11.13,11.13,0,0,1,60.55,102a2.38,2.38,0,0,1-.83,0l0-.21a19,19,0,0,0,1.9-1,20.8,20.8,0,0,0,1.72-1.41h0a2.63,2.63,0,0,0-.37,0c-2,.53-4,1-6,1.6a5.44,5.44,0,0,0-1.29.67A6.81,6.81,0,0,1,52.71,103c-.33,0-.66,0-1,0l0-.17,2.59-1.16,0-.18c-1.05.1-2.12.14-3.15.34-.42.08-.75.55-1.15.8s-.36.78-.41,1.22a15.22,15.22,0,0,1-.34,2.09,1.86,1.86,0,0,1-1.45,1.42,4.77,4.77,0,0,0,1-3.57l-2.33,2.53h0c-1.71,1.8-3.59,3.23-6.25,3.16a1,1,0,0,1-.43-.11,10.81,10.81,0,0,0,6.14-4l-.69.15c-.39.09-.78.19-1.17.26a2,2,0,0,0-1.6.83,2.12,2.12,0,0,1-1.74.84l.63-.52a3.57,3.57,0,0,0,.51-.5,10.41,10.41,0,0,0-2.92,1.46,1.71,1.71,0,0,1,.77-1.25,7.7,7.7,0,0,1,2.86-1.16l4.08-1.19a.9.9,0,0,0,.41-.25c.56-.64,1.1-1.29,1.72-2-.82.08-1.56.15-2.3.24-1.1.14-2.21.26-3.3.46a2.29,2.29,0,0,0-1,.55,4.17,4.17,0,0,1-2.63,1.07l1.59-1.2-.08-.16a6.79,6.79,0,0,0-3.73,1c-.24.18-.33.55-.47.84s-.41.86-.62,1.28L36,106.1l.35-1.79a1.24,1.24,0,0,0-1.46.65c-.2.42-.33.89-.51,1.32q-.87,2.08-1.76,4.14a1,1,0,0,1-.19.26,1.27,1.27,0,0,1-.23.14l0-.61c-.72.4-1.42.95-2.39.21l1.67-.29v0Zm95-3.5,0,0,0,0h0ZM34.54,118.11l0,0,0,0h0Zm44.71-4h0Zm37.94,1.31v0l0,0Zm-81.88,2h0ZM60.24,62.47l-.55.19c.44.34.45,0,.54-.2l.11-.11c.33-.12.68-.15.87.2a.76.76,0,0,1,0,.68.55.55,0,0,0,0,.82c.29.3.66.74,1,.73a11.4,11.4,0,0,0,2.15-.49c-.24-.81-.46-1.56-.71-2.29,0-.12-.28-.18-.44-.28-.3.75-.73,1-1.16.81s-.54-.63-.22-1.26l-.81-1a7.84,7.84,0,0,0-.32.79c-.12.43-.21.86-.31,1.3Zm17.26.33h0a5.79,5.79,0,0,1-.28-1,3.1,3.1,0,0,1,.06-1.41,2.16,2.16,0,0,0,.07-1.4,4.49,4.49,0,0,1-1.2.4,4.45,4.45,0,0,1-1.21-.3c.19.87.19.87-.63,1.44a.37.37,0,0,0-.14.16c-.24.72-.89,1.35-.47,2.22a1.85,1.85,0,0,1,.07.7c0,.26,0,.52,0,.94.59-.24,1.09-.44,1.58-.66.25-.11.3-.3.09-.52s-.42-.35-.49-.58-.19-.76,0-.94a1.13,1.13,0,0,1,.95-.29c.21,0,.37.46.51.73,0,.09,0,.24,0,.33Zm16.07-.73c-1.47.39-2,.12-2.76-1.5a6.52,6.52,0,0,0-1.36,1A21.59,21.59,0,0,0,88,63.7l-.59.93h.66l3.49,0c.72,0,1.44,0,2.16,0a.84.84,0,0,0,.49-.27c.25-.26.46-.55.71-.87A2,2,0,0,1,93.56,62.07ZM76.39,71.33a4.15,4.15,0,0,0,.23-.84c.06-.87.06-1.74.11-2.61a3.26,3.26,0,0,1,1.07-2.29c.35-.33.39-1,.55-1.52,0-.05-.12-.15-.23-.29a1.5,1.5,0,0,1-1.56,1.46c-.29,1.15-1,1.38-1.85.64-.27-.24-1.32,0-1.38.38s-.05,1-.12,1.49a.81.81,0,0,0,.61.95,2.14,2.14,0,0,1,.79.46C75.22,69.83,75.77,70.57,76.39,71.33Zm-5.61-10c-.88-.39-1-.54-1.1-1.5a.89.89,0,0,0-.07-.2l-.5-1.29L67.71,59s0,.06,0,.1a1,1,0,0,0,.47,1.29,1,1,0,0,1,.62.95.67.67,0,0,0,0,.32,3,3,0,0,1,.35,2.16c-.17,1.08.61,1.61,1.14,2.32a6.93,6.93,0,0,0,.23-3.48A1.23,1.23,0,0,1,70.78,61.36ZM83,60.66c-1.28.43-1.95.07-2.34-1.16-.07-.22-.38-.41-.62-.52s-.32.15-.46.26a1.59,1.59,0,0,0-.37.4c-.21.35-.55.71-.55,1.07a2.6,2.6,0,0,0,1,2,11.55,11.55,0,0,1,1.33-.83,6.21,6.21,0,0,1,1.5-.46C82.9,61.32,83,61.11,83,60.66ZM58.43,62.44l-.33.93a5.21,5.21,0,0,1-.17.52.9.9,0,0,0,.52,1.38,3.22,3.22,0,0,0,2.05,0L60.17,64c-.45.28-.88.48-1.29,0s-.2-.92.21-1.33Zm6.38-5.58L64,57.1c.3.26.62.41.68.62.21.74.85,1,1.42,1.41l.24-.51c.26-.56.18-.7-.41-.84A1.25,1.25,0,0,1,64.81,56.86Zm12.84,1.23.54,1a2.06,2.06,0,0,0,1.21-1.41.63.63,0,0,0-1,0A3.79,3.79,0,0,1,77.65,58.08Z"/><path class="cls-3" d="M130.68,61.83c.58,0,.88.36,1.13.79a1.18,1.18,0,0,1-.11,1.23,3.09,3.09,0,0,0-.32.86,1,1,0,0,1-1.07.8,1,1,0,0,1-.67-1,1.65,1.65,0,0,0-.1-.78A1.32,1.32,0,0,1,130.68,61.83Z"/><path class="cls-3" d="M47.68,74.6a1.12,1.12,0,0,1-1.15-1.19,1.22,1.22,0,0,1,1.25-1.12,1.26,1.26,0,0,1,1.16,1.17A1.16,1.16,0,0,1,47.68,74.6Z"/><path class="cls-3" d="M128.2,60.28a1.38,1.38,0,0,1,1.08,1.22c0,.51-.66.91-1.57.95a.78.78,0,0,1-.78-.75A2,2,0,0,1,128.2,60.28Z"/><path class="cls-3" d="M123,64.48a1.06,1.06,0,0,1-1.09,1.11,1.11,1.11,0,0,1,0-2.22A1.06,1.06,0,0,1,123,64.48Z"/><path class="cls-3" d="M119.81,67.62a1.2,1.2,0,0,1,1.06,1.13,1.16,1.16,0,0,1-1.12,1.06,1,1,0,0,1-1-1.11A1.06,1.06,0,0,1,119.81,67.62Z"/><path class="cls-3" d="M74.52,10.58a1,1,0,1,1,0-2,1.06,1.06,0,0,1,1,1A1,1,0,0,1,74.52,10.58Z"/><path class="cls-3" d="M139.79,59.6a1.07,1.07,0,0,1-1.06,1,1,1,0,1,1,0-2A1.09,1.09,0,0,1,139.79,59.6Z"/><path class="cls-3" d="M115.28,70.34a.9.9,0,0,1-1-1,1,1,0,0,1,2,0A.94.94,0,0,1,115.28,70.34Z"/><path class="cls-3" d="M121.85,26.92a1,1,0,0,1-.91,1,.92.92,0,0,1-1-1,.91.91,0,0,1,1-.95A.94.94,0,0,1,121.85,26.92Z"/><path class="cls-3" d="M110.09,70.41a.85.85,0,0,1-.93-.91.94.94,0,0,1,1-.89.92.92,0,0,1,.93.87A.89.89,0,0,1,110.09,70.41Z"/><path class="cls-3" d="M30.42,65.58a1,1,0,0,1-1,.92,1,1,0,0,1-.92-.92.94.94,0,1,1,1.89,0Z"/><path class="cls-3" d="M34.51,18.31a1,1,0,0,1,0,1.9,1,1,0,0,1,0-1.9Z"/><path class="cls-3" d="M92.6,78.86c-.65,0-.89-.27-.88-1a.85.85,0,0,1,.89-.88.89.89,0,0,1,.88.91A.82.82,0,0,1,92.6,78.86Z"/><path class="cls-3" d="M134.61,44.21a.92.92,0,0,1,0-1.84.92.92,0,1,1,0,1.84Z"/><path class="cls-3" d="M120.39,22.27a.91.91,0,0,1-.89-.85.88.88,0,0,1,.91-.89.89.89,0,0,1,.92.88A.92.92,0,0,1,120.39,22.27Z"/><path class="cls-3" d="M24.23,65.93a.94.94,0,0,1-.86.89,1,1,0,0,1-.94-.88,1,1,0,0,1,1-.92A1,1,0,0,1,24.23,65.93Z"/><path class="cls-3" d="M31.44,73.08a.89.89,0,1,1,.89-.87A.79.79,0,0,1,31.44,73.08Z"/><path class="cls-3" d="M140,47.27a.87.87,0,0,1,.86.87.89.89,0,0,1-1.78-.05A.91.91,0,0,1,140,47.27Z"/><path class="cls-3" d="M93,12.73a.88.88,0,1,1,0,1.75,1,1,0,0,1-.94-.87A.89.89,0,0,1,93,12.73Z"/><path class="cls-3" d="M9.07,48.81a.91.91,0,0,1-.88-.91.88.88,0,0,1,1.76,0A.91.91,0,0,1,9.07,48.81Z"/><path class="cls-3" d="M118.65,17.56a.83.83,0,0,1,.9.81.8.8,0,0,1-.84.86.83.83,0,0,1-.94-.82A.86.86,0,0,1,118.65,17.56Z"/><path class="cls-3" d="M29.49,21.61a.77.77,0,0,1-.76.86.76.76,0,0,1-.84-.84c0-.56.28-.91.76-.93S29.48,21,29.49,21.61Z"/><path class="cls-3" d="M28.44,36.43a.83.83,0,0,1-.85.81.86.86,0,0,1-.82-.85.89.89,0,0,1,.89-.78A.86.86,0,0,1,28.44,36.43Z"/><path class="cls-3" d="M27.56,26.49a.85.85,0,0,1,.82-.78.81.81,0,0,1,.77.81.87.87,0,0,1-.85.82A.85.85,0,0,1,27.56,26.49Z"/><path class="cls-3" d="M57.59,71a.77.77,0,1,1,0,1.53.77.77,0,1,1,0-1.53Z"/><path class="cls-3" d="M135.15,63.32a.84.84,0,0,1-.85.81.71.71,0,0,1-.71-.8c0-.43.19-.75.67-.78A.82.82,0,0,1,135.15,63.32Z"/><path class="cls-3" d="M28,29.68a.7.7,0,0,1-.81.78c-.47,0-.72-.3-.72-.82a.69.69,0,0,1,.76-.72C27.77,28.93,28,29.18,28,29.68Z"/><path class="cls-3" d="M28.12,32.81a.68.68,0,0,1-.7.78.75.75,0,0,1-.78-.71.77.77,0,0,1,.75-.88C27.84,32,28.11,32.29,28.12,32.81Z"/><path class="cls-3" d="M11.42,60.28a.78.78,0,0,1-.72-.79.7.7,0,0,1,.71-.73.73.73,0,0,1,.82.68A.79.79,0,0,1,11.42,60.28Z"/><path class="cls-3" d="M56.54,69.73a.64.64,0,0,1-.71.71c-.41,0-.75-.18-.78-.67a.82.82,0,0,1,.77-.84A.74.74,0,0,1,56.54,69.73Z"/><path class="cls-3" d="M15.47,65.19a.76.76,0,0,1,0-1.51.76.76,0,1,1,0,1.51Z"/><path class="cls-3" d="M41.45,74a.68.68,0,0,1-.72.71.75.75,0,0,1-.79-.66.8.8,0,0,1,.77-.82A.77.77,0,0,1,41.45,74Z"/><path class="cls-3" d="M129.07,37.94a.7.7,0,0,1,.8-.64.67.67,0,0,1,.63.75.74.74,0,0,1-.74.72A.75.75,0,0,1,129.07,37.94Z"/><path class="cls-3" d="M12.41,42.6c0,.48-.22.7-.71.69a.61.61,0,0,1-.67-.68.65.65,0,0,1,.7-.72C12.2,41.88,12.41,42.1,12.41,42.6Z"/><path class="cls-3" d="M133.26,41c-.07.33-.22.66-.67.67a.75.75,0,0,1-.73-.79c0-.46.38-.61.77-.6A.62.62,0,0,1,133.26,41Z"/><path class="cls-3" d="M56.4,74.75c0,.48-.19.76-.64.78a.73.73,0,0,1-.76-.69.69.69,0,0,1,.74-.65A.58.58,0,0,1,56.4,74.75Z"/><path class="cls-3" d="M63.49,76.15a.61.61,0,0,1-.66.66.65.65,0,0,1-.73-.63.67.67,0,0,1,.71-.72C63.23,75.46,63.46,75.69,63.49,76.15Z"/><path class="cls-3" d="M13.68,60.37c.33,0,.53.26.57.65a.66.66,0,1,1-1.33.06C12.88,60.7,13.2,60.38,13.68,60.37Z"/><path class="cls-3" d="M30.75,36.62a.59.59,0,0,1-.6.67.69.69,0,0,1-.71-.68.58.58,0,0,1,.66-.57C30.45,36,30.76,36.15,30.75,36.62Z"/><path class="cls-3" d="M122.93,31.4c.28.37.55.59.62.85s-.34.72-.68.67-.67-.33-.59-.7S122.62,31.76,122.93,31.4Z"/><path class="cls-3" d="M83.5,10.64c.5,0,.74.23.76.63a.62.62,0,0,1-.62.68c-.44,0-.56-.3-.59-.63S83.17,10.68,83.5,10.64Z"/><path class="cls-3" d="M8.62,54.54c-.19.12-.42.39-.68.42a.55.55,0,0,1-.63-.58.6.6,0,0,1,.63-.66C8.36,53.71,8.55,54,8.62,54.54Z"/><path class="cls-3" d="M34.15,72.47c.05-.57.26-.78.65-.77a.55.55,0,0,1,.57.65c0,.35-.23.68-.62.59S34.3,72.59,34.15,72.47Z"/><path class="cls-3" d="M91.72,71.66c.09.14.34.35.37.58a.54.54,0,0,1-.57.63.59.59,0,0,1-.61-.63C90.89,71.85,91.15,71.67,91.72,71.66Z"/><path class="cls-3" d="M56.49,77.83c-.22.16-.45.47-.64.44a.86.86,0,0,1-.59-.54c-.08-.36.26-.53.59-.54S56.41,77.32,56.49,77.83Z"/><path class="cls-3" d="M29.92,70.31c-.33.25-.56.54-.72.51s-.37-.34-.55-.53c.18-.17.35-.45.54-.47S29.59,70.07,29.92,70.31Z"/><path class="cls-3" d="M99.36,127.86l-.12-.21,0,0,.07.24Z"/><path class="cls-3" d="M60.58,113.65l-.06.06,0-.09Z"/><polygon class="cls-3" points="99.36 127.85 99.38 127.86 99.36 127.86 99.36 127.85"/><path class="cls-3" d="M79.69,130.79h0Z"/></g></g></g></svg>
