<svg xmlns="http://www.w3.org/2000/svg" viewBox="0 0 166 166"><defs><style>.cls-1{fill:#807c66;opacity:0.75;}.cls-2{fill:#fff;}</style></defs><title>Recurso 4icon</title><g id="Capa_2" data-name="Capa 2"><g id="Capa_1-2" data-name="Capa 1"><circle class="cls-1" cx="83" cy="83" r="83"/><g id="SSO9cO"><path class="cls-2" d="M137.29,62.91a66.27,66.27,0,0,1-1.77,6.9c-1.63,4.41-4.56,8.09-7.2,11.92-6.33,9.16-12.58,18.38-19.11,27.4a36.22,36.22,0,0,0-6.94,20.54c-.05,1.56-.28,3.12-.35,4.68a4.84,4.84,0,0,1-3.1,4.43,30.84,30.84,0,0,1-9.27,2.53c-.38.05-.75.17-1.12.25H80.85a8.18,8.18,0,0,0-1.13-.21,69,69,0,0,1-28.49-7.66,33.45,33.45,0,0,1-4.57-2.75c-2.72-2-4-4.78-3.22-8.11a53,53,0,0,1,2.81-8.92,31.07,31.07,0,0,0,2.32-15.42c-.09-1-.07-2-.15-3-.48-5.86-1.3-11.64-3.58-17.15a62.45,62.45,0,0,1-2.44-8.22c-.39-1.5-.51-3.06-.75-4.59q0-3.27,0-6.53c.26-1.84.44-3.7.8-5.53,1-5,2.62-9.68,6-13.54,4.17-4.71,9.6-7.22,15.61-8.64,1.3-.31,2.63-.52,3.94-.77h5c2.69.83,5.41,1.56,8,2.53,1.83.67,3.54,1.67,5.3,2.52a19.45,19.45,0,0,0,9.09,2c2.18-.06,4.36-.1,6.53.05a20.33,20.33,0,0,1,4.71.9,7.46,7.46,0,0,1,4.56,4.76c.85-.19,1.61-.35,2.36-.54a28.3,28.3,0,0,1,9.71-.77,14.25,14.25,0,0,1,13.21,11.77c.27,1.31.51,2.63.76,3.94Zm-62.2,7.14a4.38,4.38,0,0,1-1.79-3.84c0-4.32.14-8.63,1.56-12.77,1.8-5.23,4.34-10,8.91-13.35a37.07,37.07,0,0,1,3.53-2,15.32,15.32,0,0,0-2.1-1.62c-6-3.15-12.31-5-19.22-3.81C55.68,34.45,48.24,39.7,45,50a40.26,40.26,0,0,0,.66,26.51A49.53,49.53,0,0,1,48.83,89,33.21,33.21,0,0,0,50,94.48c.13.5.67.89,1,1.34.31-.44.64-.87.91-1.33a1.6,1.6,0,0,0,.18-.76c0-2.86.19-5.73.07-8.59-.14-3.25-.51-6.48-.78-9.73a39.7,39.7,0,0,1,2.36,12.77,26.62,26.62,0,0,0,.33,5.07C54.51,95.57,56,96.1,58,94.9a5,5,0,0,0,2.5-4.33q.21-3.1.42-6.2h.32c.07.36.17.72.2,1.09.19,2,.37,4.07.54,6.11.2,2.5.6,3,3,3.78a12.22,12.22,0,0,0,1.91.42c4.93.71,7-.95,7.42-5.89,0-.3.08-.61.08-.91,0-2.08,0-4.15,0-6.23a28.65,28.65,0,0,1,1.14,9.55c-.1,2.84.6,3.87,3.34,4.64,2,.56,4.06,1,6.1,1.42,3.38.71,5-.19,6.31-3.44.59-1.5,1-3.05,1.69-4.52a19.58,19.58,0,0,1,1.62-2.56c-.76,2.42-1.74,4.7-2.34,7.08A7.34,7.34,0,0,0,92.36,99c1.39,3.77,7.07,5.11,10.08,2.47a13.77,13.77,0,0,0,2.4-2.74c1.58-2.4,3-4.92,4.57-7.29a27.21,27.21,0,0,1,2.83-3.08l.36.3c-.72,1.17-1.42,2.34-2.15,3.5-2.3,3.64-4.62,7.27-6.89,10.93a2.3,2.3,0,0,0,.2,3.11,2.5,2.5,0,0,0,3.34.39,13,13,0,0,0,3.11-2.54A148.85,148.85,0,0,0,124.7,84.58c2.81-4.7,6-9.14,8.15-14.26a25,25,0,0,0,1-17.09c-2.44-8.33-9-12-17-9.37a5.15,5.15,0,0,0-4,5.32,42,42,0,0,0,.12,4.31A15.79,15.79,0,0,1,112,61a35.72,35.72,0,0,1-2.87,6,64.78,64.78,0,0,1-5.23,6.45A7.2,7.2,0,0,1,102,74.6a2.59,2.59,0,0,1,.42-1.39c1.57-2.35,3.06-4.76,4.76-7a22.75,22.75,0,0,0,4.56-16.57c-.55-5.6-3.31-9-8.73-10.57a25.6,25.6,0,0,0-9.32-.69C86.2,39,80.8,42.58,77.79,49.54a31.15,31.15,0,0,0-2.67,10.58C74.94,63.32,75.08,66.54,75.08,70.05Zm25.53,63.22c.2-2.73.31-5.42.61-8.08.45-4,1.1-7.91,3.25-11.44,1.68-2.75,1.28-4.38-1.46-6.15-1.86-1.19-3.9-2.1-5.85-3.16-12.84-6.93-26.76-8.36-41-7.82-4.81.18-6.31,2-6.19,6.8a27.33,27.33,0,0,1-1.7,10.1c-.87,2.41-1.75,4.83-2.48,7.28-.44,1.45-.6,3-.91,4.57C64.63,121.24,82.93,124.92,100.61,133.28ZM65,125.65c-2.33.23-4.67.37-7,.72a3.12,3.12,0,0,0-1.21,5.82,21.28,21.28,0,0,0,4.1,2.24c5.92,2.18,11.89,4.24,18.17,5.15s12.68.77,18.7-1.9c.61-.27,1.47-.85,1.5-1.34s-.64-1.31-1.21-1.64a56.83,56.83,0,0,0-5.77-3C83.64,127.88,74.47,126.29,65,125.65Z"/><path class="cls-2" d="M71.68,39.25c-6.86,3.21-9.21,9.21-10.51,15.92h-.4a17.88,17.88,0,0,1-.2-3.38,16.56,16.56,0,0,1,5.51-10.64,11.67,11.67,0,0,1,3.52-1.85A6.09,6.09,0,0,1,71.68,39.25Z"/><path class="cls-2" d="M122.46,50.82c5.34,3.89,2.8,16.24-1.12,19,.61-1.75,1.08-3.31,1.69-4.83A15.67,15.67,0,0,0,122.76,52a8.46,8.46,0,0,1-.32-.85A1.4,1.4,0,0,1,122.46,50.82Z"/></g></g></g></svg>
