<svg xmlns="http://www.w3.org/2000/svg" viewBox="0 0 150.51 150.51"><defs><style>.cls-1{fill:none;}.cls-2{opacity:0.5;}.cls-3{fill:#807c66;}</style></defs><title>Recurso 1icon</title><g id="Capa_2" data-name="Capa 2"><g id="Capa_1-2" data-name="Capa 1"><rect class="cls-1" width="150.51" height="150.51"/><g id="_13DvgQ" data-name="13DvgQ" class="cls-2"><path class="cls-3" d="M89.27,8.82c2.31,1.11,3.16,3,3,5.47-.12,1.5,0,3,0,4.54A4.27,4.27,0,0,1,89.84,23a1.34,1.34,0,0,0-.62.94c-.13,4.55-.11,9.09,1.35,13.47A32,32,0,0,0,92,41.1c2.3,4.79,4.64,9.55,7,14.33a31.35,31.35,0,0,1,3.2,13.77q.09,32,0,64.08a8.09,8.09,0,0,1-8.44,8.4H56.7a8.08,8.08,0,0,1-8.43-8.4c0-21.4,0-42.81,0-64.21a30.68,30.68,0,0,1,3.08-13.4c2.28-4.7,4.54-9.41,6.87-14.08a29.71,29.71,0,0,0,3.06-13c0-1,0-2,0-3,0-1.34.07-2.48-1.47-3.3a4,4,0,0,1-1.46-2.82,63.11,63.11,0,0,1-.06-6.74c0-2,1.37-3,2.91-3.91ZM65.47,23.39c0,1.78,0,3.41,0,5a33.46,33.46,0,0,1-3.4,14.76c-2.25,4.52-4.4,9.09-6.65,13.61a28.83,28.83,0,0,0-3,13q0,31.58,0,63.16c0,3,1.53,4.54,4.55,4.54H93.41c3.18,0,4.68-1.49,4.68-4.67,0-20.88,0-41.76-.05-62.64a29.2,29.2,0,0,0-1.24-8.67A93.82,93.82,0,0,0,92.22,51c-1.52-3.29-3.29-6.47-4.71-9.81A35.53,35.53,0,0,1,85,25.84c0-.8,0-1.61,0-2.45ZM62.47,13v6.11H87.94V13Z"/><path class="cls-3" d="M91.86,94.07c0,4.67,0,9.33,0,14,0,2.85-1.67,4.54-4.49,4.55q-12.19,0-24.37,0a4.1,4.1,0,0,1-4.34-4.29q0-14.39,0-28.78A4.1,4.1,0,0,1,63,75.26q12.25,0,24.5,0a4.13,4.13,0,0,1,4.35,4.42C91.87,84.47,91.86,89.27,91.86,94.07Zm-4.24,14.34V79.51H62.87v28.9Z"/></g></g></g></svg>
