<svg xmlns="http://www.w3.org/2000/svg" viewBox="0 0 150.51 150.51"><defs><style>.cls-1{fill:none;}.cls-2{opacity:0.5;}.cls-3{fill:#807c66;}</style></defs><title>Recurso 3icon</title><g id="Capa_2" data-name="Capa 2"><g id="Capa_1-2" data-name="Capa 1"><rect class="cls-1" width="150.51" height="150.51"/><g id="ZChOH4" class="cls-2"><path class="cls-3" d="M142,70.58c-.16,2.93-.31,6.64-.57,10.35a9.56,9.56,0,0,1-3.52,6.92,70.06,70.06,0,0,1-7.2,5.09c-3.56,2.23-7.21,4.31-10.86,6.38a49.89,49.89,0,0,0-12.2,9.93c-3.75,4.1-7.37,8.32-11.24,12.3a89.8,89.8,0,0,1-8.67,7.89c-6.83,5.41-14.65,7.17-23.29,6A46.69,46.69,0,0,1,44.76,128c-5.78-3.75-11.9-7-17.81-10.54-3.64-2.19-7.18-4.53-10.73-6.86A13.87,13.87,0,0,1,9.74,98.82C9.52,93.42,9.1,88,8.58,82.64c-.55-5.77,2.14-9.92,6.33-13.36,2.82-2.32,6.28-3.39,9.71-4.36,2.4-.68,3.61-1.65,4.23-4.38C31.73,48,45.7,43.3,55.79,51.35a2.23,2.23,0,0,0,3,.25c5.6-3.23,11.27-6.34,16.89-9.53a22.18,22.18,0,0,1,15.82-2.39,381.08,381.08,0,0,1,42.43,11c5.76,1.87,8.05,5.16,8.08,11.19C142,64.47,142,67.13,142,70.58ZM28,66.74c-2.61.92-5,1.73-7.42,2.62A14.36,14.36,0,0,0,12,77.48c-1.11,2.64-.85,3.73,1.43,5.5a175,175,0,0,0,36.62,21.79c15.52,6.89,31.34,1.87,41.54-8.58a102,102,0,0,1,30.67-21.92c3.59-1.65,7.18-3.33,10.67-5.19a15.43,15.43,0,0,0,4.2-3.26,7.52,7.52,0,0,0-3.24-12.32A367.11,367.11,0,0,0,90.36,42.25,18.51,18.51,0,0,0,77,44.51c-3.73,2.21-7.47,4.43-11.24,6.58-2.09,1.19-4.26,2.23-6.52,3.4a17.75,17.75,0,0,1,3.62,9.9h5.49A13.23,13.23,0,0,1,72,54a12.45,12.45,0,0,1,10.5-3.88A12.84,12.84,0,0,1,94.05,63.67a12.38,12.38,0,0,1-4,8.58,12.84,12.84,0,0,1-11.47,3.32c-.77,6.12-1,6.94-2.44,9a12.64,12.64,0,0,1-7.63,5.15,12.43,12.43,0,0,1-7.81-.64,13,13,0,0,1-7.46-8.37c-5.54,2.46-10.94,2.49-16.15-.35S28.92,72.86,28,66.74ZM12.13,85.82l-.37.21c.46,5,1,10,1.35,15a8,8,0,0,0,3.14,6,74,74,0,0,0,6.91,5c8.4,5.13,17.31,9.38,25.4,15.07a34.76,34.76,0,0,0,13.23,5.25c10.16,2.1,19.24.11,26.85-7.09a147.75,147.75,0,0,0,11.84-12.31A77.94,77.94,0,0,1,124,93.52c3.58-1.88,7-4.17,10.34-6.39a8.35,8.35,0,0,0,3.82-4.95c1-4.4.47-8.88.65-13.28-2.3,1.41-4.39,2.86-6.63,4-2.94,1.55-6,2.91-9,4.32-10.58,5-20.27,11.25-28.2,20a42.72,42.72,0,0,1-12.53,9.45c-11.37,5.72-22.86,6.3-34.58.89a182.32,182.32,0,0,1-34.43-20.7Zm68.74-12.9c5.69-.11,10.41-5,10-10.52a9.83,9.83,0,1,0-19.31,3c.54,2.21-.11,3-2.33,2.47a12.75,12.75,0,0,0-7.4.14c-1.08.38-1.84-.27-2-1.44-.08-.77-.11-1.54-.17-2.31A15.19,15.19,0,0,0,43.66,50.53a14.35,14.35,0,0,0-13,14.38A14.55,14.55,0,0,0,44.07,79.1a19.23,19.23,0,0,0,8.41-1.73c2.41-1,2.71-.72,3.34,1.81a10.08,10.08,0,0,0,9.25,7.68A9.85,9.85,0,0,0,74.8,74.09,2.48,2.48,0,0,1,75,72c.38-.35,1.38-.15,2.07,0C78.38,72.24,79.62,72.61,80.87,72.93Z"/><path class="cls-3" d="M61.36,41.63a13.46,13.46,0,0,1,.18-26.92,13.46,13.46,0,1,1-.18,26.92Zm0-2.88a10.62,10.62,0,0,0,10.64-10.7,10.59,10.59,0,0,0-21.18.2A10.58,10.58,0,0,0,61.41,38.75Z"/><path class="cls-3" d="M66.86,127.45a5.58,5.58,0,0,1-5.48-5c-.08-1,.12-1.8,1.2-2s1.52.48,1.67,1.51a2.67,2.67,0,0,0,2.65,2.54,2.64,2.64,0,0,0,2.73-2.46c.19-1,.55-1.83,1.74-1.6s1.28,1.23,1.08,2.27A5.52,5.52,0,0,1,66.86,127.45Z"/><path class="cls-3" d="M22.81,105.36a4.58,4.58,0,0,1-4.47-4.11c-.07-.92.17-1.81,1.16-1.8a2.25,2.25,0,0,1,1.59,1.22c.38.86.66,1.65,1.73,1.59s1.31-.78,1.45-1.68a1.26,1.26,0,0,1,1.66-1.16,1.79,1.79,0,0,1,1.42,2.05A4.67,4.67,0,0,1,22.81,105.36Z"/><path class="cls-3" d="M111.7,95a4.21,4.21,0,0,1-4.23-4.22,1.36,1.36,0,0,1,2.69-.43c.33.81.47,1.61,1.54,1.57s1.2-.73,1.37-1.57a1.28,1.28,0,0,1,1.73-1.08,1.71,1.71,0,0,1,1.34,2A4.41,4.41,0,0,1,111.7,95Z"/><path class="cls-3" d="M92.82,113.64a4.18,4.18,0,0,1-4.26-3.87c0-.87.23-1.55,1.16-1.72s1.35.39,1.7,1.19a6.14,6.14,0,0,0,1.18,1.39c.42-.44,1-.81,1.22-1.33.34-.91.82-1.45,1.79-1.25A1.65,1.65,0,0,1,97,110,4.23,4.23,0,0,1,92.82,113.64Z"/><path class="cls-3" d="M42,117.34a3.72,3.72,0,0,1-3.86-3.79c0-.52.65-1.37,1-1.4s1.16.52,1.66.92a7.41,7.41,0,0,1,1,1.24,5.69,5.69,0,0,0,1-1.21,1.45,1.45,0,0,1,1.81-1A1.62,1.62,0,0,1,45.92,114,3.89,3.89,0,0,1,42,117.34Z"/><path class="cls-3" d="M127.75,83c.24-.45.31-.83.54-1,.54-.36,1.33-1,1.7-.82a2.28,2.28,0,0,1,1.12,1.7,3.23,3.23,0,0,1-3.31,3,3.29,3.29,0,0,1-3.3-3c-.06-.86.18-1.7,1.09-1.72.55,0,1.13.61,1.66,1C127.44,82.33,127.52,82.63,127.75,83Z"/><path class="cls-3" d="M54.55,56.88c-.71.71-1,1.27-1.54,1.51a107.31,107.31,0,0,1-18.43,6.74c-.94.27-1.71-.19-1.76-1a2.36,2.36,0,0,1,1-1.89c1.38-.65,2.94-.9,4.38-1.44,4.33-1.61,8.63-3.29,12.95-4.92a3,3,0,0,1,1.64-.35C53.38,55.72,53.82,56.29,54.55,56.88Z"/></g></g></g></svg>
