<svg xmlns="http://www.w3.org/2000/svg" viewBox="0 0 166 166"><defs><style>.cls-1{fill:#807c66;opacity:0.75;}.cls-2{fill:#fff;}</style></defs><title>Recurso 1icon</title><g id="Capa_2" data-name="Capa 2"><g id="Capa_1-2" data-name="Capa 1"><circle class="cls-1" cx="83" cy="83" r="83"/><g id="cJSnBQ"><path class="cls-2" d="M58.44,126.72c3.88,1.06,7.72,1.16,12.33,1.17,4.15,0,8.6.07,13.61.18,1.91,0,3.82.11,5.73.17,3.39.12,6.9.24,10.34.21a21.63,21.63,0,0,0,10.24-2.53,7.38,7.38,0,0,0,4.22-6.13l.16-2c.27-3.51.55-7.14.5-10.68-.07-4.5-.31-9.07-.54-13.5-.11-2.14-.22-5.07-.32-7.21-.07-1.47-.19-2.38-1.65-2.38h0c-2.28,0-4.56.79-6.83.8-5.28,0-10.56.41-15.83.38-5.79,0-11.68.12-17.47-.12-1.84-.08-3.69-.1-5.53-.22a95.78,95.78,0,0,0-13-.22,1.18,1.18,0,0,1-.38,0l-1.79-.41,1.47-.62.48-.21A7.07,7.07,0,0,1,55,83l4.28-1.35c3.53-1.12,7.18-2.27,10.79-3.33,11.78-3.45,23-7.93,35.5-13A3.91,3.91,0,0,0,108,61.45a14.42,14.42,0,0,0-2.8-8.63c-1.83-2.73-3.31-3.32-6.35-2.55-2,.5-3.92,1.18-5.81,1.84-.84.29-1.68.58-2.53.86l-19.41,6.4a.64.64,0,0,1-.54-.09L70,59l.3-.55,2.16-3.06a5.78,5.78,0,0,0,.7-4.86A7.1,7.1,0,0,0,70,46.1a6.82,6.82,0,0,0-3-.67,7.21,7.21,0,0,0-3.11.72,6.77,6.77,0,0,0-3.74,4.54c-.94,4,1.12,7.84,5.26,9.8l1.06.5-1.46.62-.67.28-3.79,1.49c-2.78,1.09-5.65,2.21-8.45,3.38a26.26,26.26,0,0,0-7.43,4.38c-3.06,2.67-3.64,5.43-1.89,8.94.61,1.21,1.35,2.4,2.07,3.55.53.84,1.07,1.71,1.57,2.59a6.77,6.77,0,0,1,1.07,3c0,2.08-.11,4.2-.24,6.24l-.12,2c-.32,5.41-.66,11,.13,16.47C48.31,120.77,51.94,124.95,58.44,126.72Zm-.72-39.47.45,0c3.26-.14,6.57-.11,9.77-.08,1.46,0,2.93,0,4.39,0h5.29c5.32,0,10.82,0,16.22-.06,1.48,0,3-.1,4.45-.17,1.81-.1,3.67-.2,5.53-.17a29.92,29.92,0,0,1,6.37.82c2.57.6,3.05,1.78,3.13,4l.17,5.41q.23,7,.44,13.92c.21,7.28-3.09,11.86-10.09,14a39.25,39.25,0,0,1-11.77,1.62q-1.46,0-3-.08c-9.08-.45-17-1-24.28-1.6a24.25,24.25,0,0,1-7.33-2c-4.26-1.83-6.8-5.42-7.33-10.38-.38-3.54-.46-7.16-.53-10.66l-.05-2.35c-.06-2.45-.06-4.94-.06-7.34,0-1.3,0-2.6,0-3.89,0-.32,0-.64-.07-1,0-.19,0-.4-.06-.61l-.08-1,.85.44C52.5,87.49,55,87.38,57.72,87.25Zm8.13-28.32a6.65,6.65,0,0,1-4.26-5.48A5.24,5.24,0,0,1,64,48a4.25,4.25,0,0,1,4.77-.31,5.8,5.8,0,0,1,3,4.85l0,.14-.06.13c-.08.18-.16.38-.25.59a14.06,14.06,0,0,1-.88,1.89,15.83,15.83,0,0,1-2.25,3.12,2.68,2.68,0,0,1-1.78.62A2.13,2.13,0,0,1,65.85,58.94Zm-19.57,14c2.26-2.5,7.94-5.35,12-6.92,3.2-1.24,6.51-2.35,9.71-3.42l2.55-.86c7.11-2.41,14.06-4.77,21-7.07,2.26-.75,4.46-1.36,6.54-1.83,3.55-.79,5.4.27,6.62,3.8l.24.7c.43,1.22.87,2.49,1.22,3.76a1.83,1.83,0,0,1-.61,1.76,16.32,16.32,0,0,1-3.26,1.83l-3.46,1.31c-6.68,2.54-13.6,5.17-20.45,7.61-6.3,2.24-12.74,4.43-19,6.55l-8.89,3c-.52.18-1,.39-1.57.6l-1.22.48-.22-.41C45.43,79.82,43.26,76.23,46.28,72.89Z"/><path class="cls-2" d="M109.43,71.31c.86-.86,1.75-1.75,2.59-2.65,1.95-2.1,3.38-3.76,4.63-5.39a6.17,6.17,0,0,0,1.21-4.9A63.29,63.29,0,0,0,116.29,52l.26-.27a24.91,24.91,0,0,1-.55-6.88v0s-.33.07-.34,0c-.07-.52-1-.8-1.54-.8h0c-.33,0-.59-.14-.64.63,0,.32-.06.53-.1.86a7.69,7.69,0,0,0-.09,2c.22,1.68.59,3.35.94,5l.2.93c.54,2.54,1.15,5.41.28,8.35s-2.48,5.25-5.36,8L108,70.91c-1.19,1.1-2.42,2.25-3.56,3.42a11.63,11.63,0,0,0-3.33,6.84c-.1.85.09,1,.6,1.13a1,1,0,0,0,.76-.16,1,1,0,0,0,.42-.72,13.33,13.33,0,0,1,3.75-7.27C107.55,73.18,108.51,72.23,109.43,71.31Z"/><path class="cls-2" d="M123.32,51.44a12.86,12.86,0,0,0-1.71,3.4c-.74,2.83-1.28,5.78-1.8,8.63l-.08.46c-1,5.58-3.28,8.88-7.35,10.7-.73.57-.6,1-.39,1.37a.82.82,0,0,0,1.2.38c4.1-1.86,6.37-4.39,7.16-8,.5-2.25.93-4.55,1.35-6.77.23-1.23.46-2.46.71-3.69.05-.28.1-.55.15-.83.31-1.74.63-3.54,2.08-5a2.09,2.09,0,0,0,.1-.34l.07-.26-.11-.19c-.09-.16-.28-.5-.38-.54h-.08a1.23,1.23,0,0,0-.7.25Z"/><path class="cls-2" d="M100.55,34.35c-.6,4,.42,7,3.22,9.44A8.41,8.41,0,0,1,105.41,46l.39.65c.43.69.86.65,1.22.52a.53.53,0,0,0,.33-.27.76.76,0,0,0,0-.58,13.43,13.43,0,0,0-1.19-2.27,6.84,6.84,0,0,0-1-1.11l-.33-.31a9,9,0,0,1-2.6-8.14,14.9,14.9,0,0,1,3.74-7.84,6.25,6.25,0,0,0,.52-.75l.14-.22-.14-.19c-.15-.19-.39-.51-.5-.53l-.16,0a1.56,1.56,0,0,0-1,.35A16,16,0,0,0,100.55,34.35Z"/><path class="cls-2" d="M44.4,88.65c-.13-2.07-.36-2.32-2.25-2.63-2.53-.42-5.12-.76-7.63-1.09l-1.81-.24h-.19c-.31,0-.66.13-.78.77a.77.77,0,0,0,.06.59,1,1,0,0,0,.65.29l3.28.48c1.61.24,3.22.48,4.83.69,1.29.17,1.91.54,1.71,2.08-.16,1.23-.39,2.46-.64,3.71-.15.78.18,1,.56,1.09a.89.89,0,0,0,.69,0,1,1,0,0,0,.38-.62c.28-1.19.54-2.39.8-3.59Z"/><path class="cls-2" d="M125.65,86.6c.77-.13.79-.39.73-.77s-.33-.86-1.27-1l-1.78.38c-1.62.35-3.29.7-5,1.13a1.43,1.43,0,0,0-1.07,1.52c.11,2,.31,4.13.63,6.54a.74.74,0,0,0,.29.55A1,1,0,0,0,119,95c.44-.11.67-.33.56-1.11-.14-1-.25-2-.36-3-.06-.54-.12-1.09-.18-1.63a1.44,1.44,0,0,1,1.34-1.78c1-.15,2-.33,3-.51Z"/></g></g></g></svg>
