<svg xmlns="http://www.w3.org/2000/svg" viewBox="0 0 166 166"><defs><style>.cls-1{fill:#807c66;opacity:0.75;}.cls-2{fill:#fff;}</style></defs><title>Recurso 3icon</title><g id="Capa_2" data-name="Capa 2"><g id="Capa_1-2" data-name="Capa 1"><circle class="cls-1" cx="83" cy="83" r="83"/><path class="cls-2" d="M136.59,82.45c-.48-3.92-3-6.39-7.48-7.77s-9.18-1.48-15.41-.45c-1.67.28-4.75,1.14-8.29,2s-6.4,1.71-8.4,2v0a5,5,0,0,1-.84,0c-.1-.06-.47-.17-.47-.29s-.09-.23,0-.29,0,0,0,0h0c.55-.13,7.17-1.84,8.25-2.18,0,0,1-.06,1-.07h0l-.81-.14-.83-.14h0c.07,0,.15,0,.22,0a4.91,4.91,0,0,1,.66-.28l1.14-.43c5.25-2.16,10.68-4.37,15.51-7.59A14.94,14.94,0,0,0,127,58.9,8.28,8.28,0,0,0,125.71,51,8.08,8.08,0,0,0,118.46,48a24.64,24.64,0,0,0-11.32,4.24,51.88,51.88,0,0,0-10.32,9.16,2.85,2.85,0,0,1-.72.53l-.18.11,0,.07-.08.31a.33.33,0,0,1-.05.22l0,.06a.33.33,0,0,1-.12.11c-.13.21-.35.56-.72,1.13L93,66.74c-1.23,1.9-2.63,4-2.75,4.17s-.17.1-.29.1h0c-.15,0-.28,0-.32-.17s0,0,0-.12v0c0-.11.15-.32,2.74-4.39,1.13-1.78,2.52-4,2.84-4.51l0-.1a.33.33,0,0,1,.12-.18l.15-.3c2.78-5.69,5.66-11.58,6.32-18.15.55-5.41-1.28-9.14-5.75-11.74a8.57,8.57,0,0,0-9.78.17,17.67,17.67,0,0,0-6.85,8,31.77,31.77,0,0,0-2.34,10c-.57,7.15.62,14,1.86,19.82a1.5,1.5,0,0,1-.15,1.37c-.24.3-.65.31-1.27.31h0c-.15,0-.28,0-.32-.11s-.06-.14-.09-.25-.15-.45-.2-.71a140,140,0,0,0-5.38-18.55,31.28,31.28,0,0,0-2.66-5.79C66,40.89,62.15,38,57.38,37.14a9.11,9.11,0,0,0-10.77,6.92c-.23.9-.4,1.85-.54,2.66C45,53,46.45,58.3,50.57,62.8a66.85,66.85,0,0,0,9.79,9c2.35,1.72,4.76,3.45,7.1,5.13l3.16,2.27a.33.33,0,0,1,.13.35l-.29,1.14a.33.33,0,0,1-.47.21l-1.2-.61c-.86-.43-1.67-.84-2.47-1.29a51.21,51.21,0,0,0-28.2-6.41c-5.48.25-9,2.3-11.14,6.44a25,25,0,0,0-1.89,4.81c-1,3.58.18,6.18,3.51,7.93a19.57,19.57,0,0,0,8.24,2.33,69.36,69.36,0,0,0,16.28-1.45c1.07-.2,5.75-1.26,9.87-2.19,3.31-.75,6.43-1.46,7.29-1.63a.33.33,0,0,1,.25.6c-.29.2-3.08.91-9.23,2.43-1.79.44-3.48.86-3.64.92a74.91,74.91,0,0,0-13.76,6.3,17.5,17.5,0,0,0-8.31,11.08c-1,4.21-.1,7.3,2.74,9.45a13.65,13.65,0,0,0,9.54,2.87,17.27,17.27,0,0,0,12.58-6.86c.93-1.18,1.76-2.47,2.57-3.72.46-.71.93-1.45,1.42-2.16.84-1.22,9.85-14.68,10.14-15.16a.33.33,0,0,1,.27-.17c.16,0,.31-.78.34-.62s0-.79,0-.79h0c0,1,0,1.07-3.58,6.6-1.6,2.49-3.42,5.74-3.57,6.06a1.7,1.7,0,0,1-.09.36,12.75,12.75,0,0,0-.93,1.59c-.49,1-1,2.16-1.5,3.19-1.08,2.23-2.2,4.57-3.14,6.9a21,21,0,0,0-1.47,12.37c1,4.68,3.57,7.47,7.74,8.28a17.45,17.45,0,0,0,6,0c5.14-.81,8.4-3.5,9.69-8a37.5,37.5,0,0,0,1.6-8.61,63.82,63.82,0,0,0-.27-7.63c-.08-1-.16-2.11-.22-3.16,0-.9-.53-4.87-.95-8.38-.36-3-.71-5.9-.75-6.55a.33.33,0,0,1,.64-.14c.59,1.58,1.45,5.34,2.37,9.33a105.31,105.31,0,0,0,3,11.38,30.32,30.32,0,0,0,9.21,12.27c5.45,4.32,10.81,1.66,12.86.32a6,6,0,0,0,2.82-6.66A31.7,31.7,0,0,0,113,118l-.52-1.33h0c-2-3-20.45-18.55-21.93-23.16a9.58,9.58,0,0,0,2.16-2s10.07,19.25,22.17,24.92a18.79,18.79,0,0,0,7.71,1.42c5.28-.13,7.87-2.17,9-7,1-4.36-.23-7.68-3.7-10.15-1.06-.76-2.22-1.43-3.34-2.09L123,97.59l-.62-.35-.27-.15c-4.16-2.15-26.65-9.25-26.65-9.25a6.19,6.19,0,0,0,.71-2.66c10,5.65,23.13,10.71,27.09,11.12h0l.77,0,.47,0c5.82-.27,9.34-2.84,11.13-8.1.21-.62.68-1.27.83-1.9.07-.29.5-.58.5-.87V82.71C137,82.65,136.6,82.57,136.59,82.45ZM80.91,44.11A16.58,16.58,0,0,1,87,34.5c2.51-1.9,4.89-2.21,7.29-.94,3.2,1.7,4.78,3.93,4.81,6.82a26.6,26.6,0,0,1-2.62,12c-1.88,3.86-3.86,7.76-5.77,11.53q-1.42,2.79-2.83,5.59a1.16,1.16,0,0,1-1.11.79,2.25,2.25,0,0,1-.42,0A23,23,0,0,0,83.58,70l-1.38-.1a.33.33,0,0,1-.3-.27c-.15-.9-.32-1.81-.49-2.73-.38-2.06-.77-4.19-1-6.32A43,43,0,0,1,80.91,44.11Zm-10.28,42a.33.33,0,0,1-.23.18l-2.74.51-5.31,1c-1.53.29-3.09.61-4.59.91-3.36.68-6.82,1.38-10.27,1.89a53.64,53.64,0,0,1-7.9.77A22.47,22.47,0,0,1,35.16,91a24.19,24.19,0,0,1-5.34-1.79c-2-.92-2.62-2.35-2.05-4.64a14.13,14.13,0,0,1,.46-1.4c.07-.2.14-.6.21-.8,1.64-4.81,5-7.36,10.33-7.36h.07c5.49,0,11.71.26,17.4,2.51,3.6,1.42,7.12,3.29,10.53,5,.95.47,1.9,1,2.84,1.47.39.19.56.69.75,1.19a7.1,7.1,0,0,0,.27.68A.36.36,0,0,1,70.63,86.15Zm1.66,6.09c0,.1,0,.21,0,.32a1.81,1.81,0,0,1-.23.85c-3.52,5.28-7.12,10.64-10.61,15.82l-2.16,3.21a16,16,0,0,1-9.77,7,12.89,12.89,0,0,1-1.82.25l-.64.06v0a.33.33,0,0,1-.3.19h-.1c-.51-.15-1-.29-1.56-.43a21,21,0,0,1-3.46-1.13c-3-1.37-4-3.57-3.41-6.92a14.09,14.09,0,0,1,7.33-10A93.68,93.68,0,0,1,57.38,96c3.2-1.21,6.54-2.17,9.77-3.11,1.23-.35,2.49-.72,3.74-1.1a1.69,1.69,0,0,1,.83,0l.29.05a.33.33,0,0,1,.29.39Zm-.38-16.08a.33.33,0,0,1-.44.06l-1.55-1.07C64.66,71.53,59.22,67.77,54.7,63c-.66-.69-1.32-1.41-2-2.11l-.36-.39C49,56.85,47.91,52.41,48.93,47l.09-.5c.07-.4.15-.82.23-1.23a6.33,6.33,0,0,1,8-5.21c3.61.77,6.58,3,9.08,6.82a21.88,21.88,0,0,1,2.14,4.39,151.87,151.87,0,0,1,6,20.75A1.68,1.68,0,0,1,74,73.69a19.81,19.81,0,0,0-1.42,1.67ZM81.8,128.9a8.92,8.92,0,0,1-8.44,6.88c-.64.06-1.22.08-1.77.08a12.07,12.07,0,0,1-2-.16c-3.42-.58-5.44-2.88-6-6.83a18.57,18.57,0,0,1,.77-8.14A60.63,60.63,0,0,1,70.72,107c1.1-1.84,2.26-3.69,3.39-5.48,1-1.62,2.07-3.29,3.07-5a1.94,1.94,0,0,1,2.54-1.12,3.57,3.57,0,0,0,.8.14l.46.05a.33.33,0,0,1,.28.3q.14,1.48.28,2.93c.2,2.11.41,4.28.58,6.42.33,4.17.7,9.11,1,14.11A27.56,27.56,0,0,1,81.8,128.9ZM104.57,111a23,23,0,0,1,6.75,9.91,5.79,5.79,0,0,1-.21,5.08,5.93,5.93,0,0,1-4.62,2.41,8.82,8.82,0,0,1-1,.05,7.88,7.88,0,0,1-5.18-2,28.45,28.45,0,0,1-7.05-8.75c-3-5.72-4.57-11.91-5.8-17.27-.27-1.17-.53-2.36-.77-3.52l-.36-1.65a.33.33,0,0,1,.13-.34,1.88,1.88,0,0,1,2.91.39A154.24,154.24,0,0,0,104.57,111ZM92.24,87.75c-1.14,2-3,2.86-5.07,3.79a.33.33,0,0,1-.43-.46l2-3.62-.94-.53-.65,1.13L85.38,91.2a2.2,2.2,0,0,1-2,1.39,4.16,4.16,0,0,1-.87-.1s0-.74,0-.74L82.4,91h0c-.12,0-.23.68-.29.57s0,.18,0,.09,0,.17,0,.16.05,0,.09,0c1.07-1.47,2.15-2.9,3.28-4.45l-.91-.63L83.68,88c-.87,1.2-1.69,2.35-2.46,3.54a1.72,1.72,0,0,1-2.68.67.33.33,0,0,1-.1-.47l4.91-6.85-.88-.65-1.25,1.72C80,87.66,78.78,89.3,77.6,91a1.51,1.51,0,0,1-1,.72,1.58,1.58,0,0,1-1.21-.5.33.33,0,0,1-.05-.45L82.07,82l-.86-.68L75,89.51a.33.33,0,0,1-.26.13.31.31,0,0,1-.26-.13,1.62,1.62,0,0,1,.1-2.37c1.54-1.78,3-3.55,4.59-5.42l1.54-1.83-.82-.71L74,86.06a.33.33,0,0,1-.56-.1,2.37,2.37,0,0,1,.32-2.61c1.39-1.62,2.74-3.22,4.16-4.92l1.43-1.71L78.56,76l-4.39,5.18a.33.33,0,0,1-.58-.26c.29-2.06,1-5,3.9-6.27a27.93,27.93,0,0,1,5.8-1.76,6.16,6.16,0,0,1,3.06.37,10.59,10.59,0,0,1,6.48,6.32A9.58,9.58,0,0,1,92.24,87.75ZM93,74.57a5.18,5.18,0,0,0-.71-.81l-.5-.52a.33.33,0,0,1,0-.42c.59-.81,1.18-1.64,1.76-2.45,1.28-1.8,2.61-3.66,4-5.41A50.79,50.79,0,0,1,108.1,55a23.65,23.65,0,0,1,10.31-4.16,5.36,5.36,0,0,1,5.11,1.94,5.61,5.61,0,0,1,.63,5.61,12.45,12.45,0,0,1-4.71,5.86c-5.1,3.43-10.84,5.71-16.39,7.91l-.94.37c-1.22.48-2.47.94-3.68,1.37s-2.21.8-3.3,1.23a2.56,2.56,0,0,1-.91.21A1.42,1.42,0,0,1,93,74.57ZM96.15,90l2.73,1c1.58.57,3.19,1.14,4.75,1.68,3.49,1.23,7.1,2.49,10.59,3.9,2.41,1,4.76,2.21,7,3.39,1,.5,1.93,1,2.91,1.5a8.39,8.39,0,0,1,1,.64l.12.09c3.63,2.52,4.41,4.71,3.21,9a4.58,4.58,0,0,1-4.05,3.55,16.84,16.84,0,0,1-2.38.17,16.55,16.55,0,0,1-9.58-3.13,47.58,47.58,0,0,1-10.28-10.41c-1.85-2.42-3.59-5-5.27-7.47-.72-1.06-1.46-2.16-2.21-3.23a3.49,3.49,0,0,1-.24-.43l-.18-.35a.33.33,0,0,1,.41-.46Zm37.42-5.61c-.22,5.44-3.73,8.92-9.18,9.08h-.74a27.94,27.94,0,0,1-10.81-2.33c-2.54-1.06-5.12-2.15-7.6-3.22s-5-2.14-7.53-3.18a1.83,1.83,0,0,1-1.36-2.11,4.62,4.62,0,0,0-.06-1.08c0-.22-.06-.48-.09-.76a.33.33,0,0,1,.26-.35l4.06-.85c3.09-.65,6.28-1.33,9.42-1.89,2.79-.5,5.66-.82,8.44-1.13l.82-.09a22.83,22.83,0,0,1,9.86,1.24C132.28,78.77,133.71,80.89,133.57,84.36Z"/></g></g></svg>
