<svg xmlns="http://www.w3.org/2000/svg" viewBox="0 0 166 166"><defs><style>.cls-1{fill:#807c66;opacity:0.75;}.cls-2{fill:#fff;}</style></defs><title>Recurso 2icon</title><g id="Capa_2" data-name="Capa 2"><g id="Capa_1-2" data-name="Capa 1"><circle class="cls-1" cx="83" cy="83" r="83"/><g id="_454B3I" data-name="454B3I"><path class="cls-2" d="M78.22,110h0c-2.06,0-3.76,2.18-3.79,4.53,0,.77.24,2.76.71,3.24S76.54,120,77.6,120h0c2.3,0,4.11-2.73,4.13-4.68a5.86,5.86,0,0,0-1.07-3.45C80,111.2,79.14,110,78.22,110Zm1.58,5.68c-.43.4-.95.32-1.48.32h-.05a1.89,1.89,0,0,1-2.06-2.17,2.63,2.63,0,0,1,.86-2,2.18,2.18,0,0,1,1.63-.55,2,2,0,0,1,2.09,2.11A3.16,3.16,0,0,1,79.8,115.68Z"/><path class="cls-2" d="M105,69a1,1,0,0,0-.79.39,1,1,0,0,0-.14.87c.86,3.16,1.77,6.41,2.7,9.68a3.82,3.82,0,0,0,.54,1.29,1,1,0,0,0,.4.26,3,3,0,0,0,.17-.39,2.58,2.58,0,0,0,.06-.63c0-.17,0-.35,0-.56a45.47,45.47,0,0,0-2.84-10.81A.54.54,0,0,0,105,69Z"/><path class="cls-2" d="M112.1,119.66a22.59,22.59,0,0,1-5,5.17l-.78.64a3.37,3.37,0,0,0-.63.83l-.07.12c0,.46.18.64.24.67s.19,0,.38-.09a14.84,14.84,0,0,0,2.34-1.45,13.91,13.91,0,0,0,4-5.53.56.56,0,0,0,.07-.36l-.08,0A1.11,1.11,0,0,0,112.1,119.66Z"/><path class="cls-2" d="M65.44,71.4l.28-.12a4.29,4.29,0,0,0,.55-.26,1.1,1.1,0,0,0-.15-.33,1.94,1.94,0,0,0-1.75-.42,1.62,1.62,0,0,0-1.26.89c-.84,2.17-1.51,4.43-2.16,6.63a.84.84,0,0,0,.13.4,1,1,0,0,0,1,.11,1,1,0,0,0,.59-.89c0-.67.05-1.36.06-2s0-1.06,0-1.6a2.65,2.65,0,0,1,.67-2A2.53,2.53,0,0,1,65.44,71.4Z"/><path class="cls-2" d="M100.68,72.26a1.59,1.59,0,0,0-.2-.41,2.12,2.12,0,0,0-.94-.12,1,1,0,0,0-.13.26c.64,2.23,1.36,4.48,2.14,6.69a.63.63,0,0,0,.3.37s.07,0,.18,0a2.15,2.15,0,0,0,.44-.58l.16-.25-.42-1.29C101.69,75.31,101.2,73.79,100.68,72.26Z"/><path class="cls-2" d="M47.62,127.9a22.11,22.11,0,0,0,8.53,6.1c7.33,3,15.46,4,26.36,3.18,4.92-.35,9.92-.95,14.75-1.53l.77-.09a45.86,45.86,0,0,0,13.56-3.42c4.76-2.13,7.63-5.44,8.76-10.12a18.23,18.23,0,0,0-.27-8.88c-2.54-10.32-3.83-21-5.07-31.3l-.42-3.5c-.66-5.41-1.26-9.55-1.95-13.43s-2.82-5.4-6.74-4.92a8.85,8.85,0,0,0-1.37.33l-.71.2-1.76.45-.2-.7-.1-.34c-.07-.22-.13-.42-.17-.63-.2-.92-.38-1.85-.57-2.77-.43-2.11-.87-4.3-1.41-6.41A10.71,10.71,0,0,0,98,46.61c-1.66-2.32-4.2-3.64-7.76-4C88.5,42.37,88,42.05,88,40.2q0-1.88,0-3.76t0-3.64a2.73,2.73,0,0,0-2.35-3.08c-.52-.15-1-.35-1.59-.47-.23,0-.46-.24-.68-.24H82c-.14,0-.28.15-.42.18-.36.07-.73.19-1.11.25l-.13,0c-1.83.28-3.55.55-4.38,2-1,1.83-2.42,1.79-3.65,1.74a123.9,123.9,0,0,0-17.46.46,6.58,6.58,0,0,0-4.4,2.16c-2.94,3.25-6.35,7-9.67,10.89a2.08,2.08,0,0,0-.6,1.59,2.33,2.33,0,0,0,1.2,1.52,10.54,10.54,0,0,0,1.53.74l.71.31c1.94.88,3.39.59,4.69-1,.88-1.05,1.8-2.1,2.69-3.11,1.1-1.26,2.25-2.56,3.32-3.87a5.13,5.13,0,0,1,3.94-2l2.22-.09c4.08-.16,8.3-.33,12.46-.47h.14a2.11,2.11,0,0,1,1.56.55,2.35,2.35,0,0,1,.59,1.81,2.13,2.13,0,0,1-1.51,2,14,14,0,0,0-8.37,14.93,1.87,1.87,0,0,1-.31,1.5,1.84,1.84,0,0,1-1.41.54A5.1,5.1,0,0,0,59.1,64.4a19.56,19.56,0,0,0-1.95,4.08q-.35,1.22-.72,2.43a95.79,95.79,0,0,0-2.78,10.84q-.46,2.66-.91,5.32c-1.44,8.42-2.92,17.12-5,25.59a41.06,41.06,0,0,0-1.49,11.77A5.56,5.56,0,0,0,47.62,127.9ZM76,39.24q.06-.81.12-1.63c.1-1.32.2-2.68.28-4a2,2,0,0,1,1.81-2c2.2-.21,4.18-.38,6.21-.45a2.46,2.46,0,0,1,2.73,2.28c.18,2.38.28,4.75.37,7a1.83,1.83,0,0,1-1.8,1.94l-2.09.26c-1.48.19-3,.39-4.53.51-.26,0-.5,0-.73,0a2.32,2.32,0,0,1-1.66-.5A3.21,3.21,0,0,1,76,40.27q0-.14,0-.28h-.09Zm-2.92.26c-.69,0-1.38,0-2.06,0l-1.5,0-5.37.18L56.43,40a3.2,3.2,0,0,0-2.59,1.26C51.33,44.32,49.09,47,47,49.4a3,3,0,0,1-2,.92l-.25,0a2,2,0,0,1-1.3-3.49c.79-.93,1.62-1.85,2.42-2.74,1.38-1.54,2.81-3.13,4.06-4.79,2.08-2.76,4.9-4.15,8.87-4.36,2.44-.13,4.93-.34,7.34-.54l3.22-.27.76-.06,0,.22h.37c.81,0,1.66,0,2.49,0,1.63.07,2.56,1.17,2.55,3S74.25,39.43,73.06,39.5Zm4.48,6.21A21,21,0,0,1,88.83,45c5.84,1.29,9.63,6.23,9.66,12.59a2.79,2.79,0,0,1-.12.74c0,.07,0,.14-.05.22l-.09.43-1.32.44-.31-.53-.2-.32a5.31,5.31,0,0,1-.49-.9c-.27-.69-.53-1.38-.78-2.06s-.51-1.37-.77-2.05a1.25,1.25,0,0,0-.24-.44l-.13,0a.47.47,0,0,0-.17.1,1.58,1.58,0,0,0,.16.51c.8,1.89,1.84,4.39,2.86,7a6.74,6.74,0,0,1,.48,2.11c.09,1.84-1.62,2.19-2.19,2.3a1.89,1.89,0,0,1-2.37-1.52c-.21-.73-.42-1.47-.62-2.19s-.43-1.57-.66-2.35c-.32-1.1-.61-2-.91-2.81l0-.13a3.19,3.19,0,0,0-.14-.35h0c-.5.17-.51.44-.44.71.19.79.41,1.59.62,2.37.16.58.32,1.17.47,1.76s.3,1.25.44,1.86l.2.87a1.88,1.88,0,0,1-.16,1.48,1.68,1.68,0,0,1-1.12.71,2,2,0,0,1-1.58-.21A1.82,1.82,0,0,1,88,64.18c-.15-.73-.28-1.48-.4-2.2-.08-.47-.16-.93-.25-1.4s-.24-1.29-.41-1.94l0-.12c-.24-.94-.31-.92-.61-.86s-.43.1-.21,1.12c.34,1.6.71,3.23,1.07,4.81a1.84,1.84,0,0,1-1.38,2.34,3.07,3.07,0,0,1-.89.16,1.49,1.49,0,0,1-.81-.22,2,2,0,0,1-.79-1.51c-.28-1.88-.53-3.46-.82-5.05-.09-.52-.19-.6-.2-.6a.45.45,0,0,0-.21,0c-.37.08-.59.12-.48.9.16,1.11.21,2.23.27,3.31,0,.23,0,.47,0,.7A1.75,1.75,0,0,1,81.48,65a1.81,1.81,0,0,1-1.34.54,27.64,27.64,0,0,1-8.1-.65,4.77,4.77,0,0,1-3.82-4.48C67.47,53.49,71,47.87,77.53,45.71ZM48.86,120.64a37.69,37.69,0,0,1,.68-5c.92-4.44,1.88-8.95,2.8-13.31,1-4.89,2.11-9.94,3.13-14.92.45-2.19.87-4.43,1.28-6.6.46-2.46.94-5,1.47-7.5A35.12,35.12,0,0,1,60,67.6c.84-2.12,1.81-2.6,4.13-2.09a117.85,117.85,0,0,0,21.32,2.68,36.51,36.51,0,0,0,14.09-2.45l.66-.24c1.21-.45,2.47-.91,3.73-1.31a5.36,5.36,0,0,1,4.49.29,5.16,5.16,0,0,1,2.22,3.74c.41,2.47.77,5,1.11,7.41.38,2.65.77,5.39,1.22,8.06.82,4.79,1.69,9.65,2.53,14.35.76,4.25,1.56,8.65,2.3,13l.05.3a26.66,26.66,0,0,1,.58,6.69,11.75,11.75,0,0,1-6.2,9.49,44,44,0,0,1-8,3.41,69.09,69.09,0,0,1-20.89,3.36q-1,0-1.9,0c-6,0-13.06-.18-19.91-2a26,26,0,0,1-9.23-4.09A8.22,8.22,0,0,1,48.86,120.64Z"/></g></g></g></svg>
