<svg xmlns="http://www.w3.org/2000/svg" viewBox="0 0 150.51 150.51"><defs><style>.cls-1{fill:none;}.cls-2{opacity:0.5;}.cls-3{fill:#807c66;}</style></defs><title>Recurso 2icon</title><g id="Capa_2" data-name="Capa 2"><g id="Capa_1-2" data-name="Capa 1"><rect class="cls-1" width="150.51" height="150.51"/><g id="xKeTz7" class="cls-2"><path class="cls-3" d="M37.66,14.27c.56.15,1.12.32,1.69.46a13.18,13.18,0,0,1,10.16,13c0,1.17.21,1.67,1.48,2,6.61,1.63,10.69,7.59,10.13,14.81H53.6v3.92H49.89V44.71H38.38v3.72H34.7c-.25-5.37-.5-10.73,3.76-15A12.71,12.71,0,0,1,45,29.81c.85-.17,1-.53,1.06-1.34a9.75,9.75,0,0,0-7.5-10.22A9.58,9.58,0,0,0,26.9,27.43c0,10.28,0,20.56,0,30.84q0,11.61,0,23.22c0,.5,0,1,0,1.59H42.21V79.43h3.73v3.64H57.43V79.44h3.73v3.65c.53,0,1,.06,1.37.06,8.14,0,16.27,0,24.41,0A1.34,1.34,0,0,0,88.5,82a9.46,9.46,0,0,1,9.23-6.73q11.07-.08,22.14-.2a9.85,9.85,0,0,1,9.94,7c.12.34.58.79.89.8,3.53,0,7.06,0,10.59,0v3.81h-3.87c0,2.09,0,4.06,0,6a33.13,33.13,0,0,1-23.83,31.14c-.42.12-1.09.51-1.1.8-.09,2.56-.05,5.13-.05,7.86h4.08v3.73H103.66a1.41,1.41,0,0,0,0-.46c-1.19-3.27-2.37-6.55-3.64-9.79a1.62,1.62,0,0,0-1.27-.68c-11,0-22,0-33.07,0a1.29,1.29,0,0,0-1.43,1.05c-.75,2.17-1.59,4.31-2.36,6.47-.41,1.14-.75,2.31-1.12,3.47H47.67v-3.77h4.11c0-2.21,0-4.31,0-6.39,0-.89-.26-1.18-1.16-1.36-12.57-2.56-21.21-9.79-25.67-21.87-1.7-4.61-1.9-9.44-1.79-14.3,0-.61,0-1.23,0-1.87H19.32V82.88h3.87c0-.57,0-1,0-1.51q0-11.3,0-22.61c0-10.27,0-20.54,0-30.81a13.23,13.23,0,0,1,10.25-13.3l1.6-.39Zm-11,72.43c.3,3.94.16,7.81.94,11.49a29.12,29.12,0,0,0,28.88,23.29q24,.08,48,0a29.19,29.19,0,0,0,6.13-.67c14.89-3.28,25.09-16.62,23-34h-19V102H88V86.69ZM91.69,98.33h19c0-.5,0-.92,0-1.35,0-2.78,0-5.55,0-8.33,0-3.26-.39-6.6,1.91-9.56-.55,0-.85-.07-1.16-.07-4.68,0-9.36,0-14,0a5.68,5.68,0,0,0-5.68,5.67c0,3.85,0,7.69,0,11.54C91.69,96.9,91.69,97.56,91.69,98.33ZM38.43,40.93H57.17C57,37,52.58,33.17,48,33.06,43.32,32.94,38.79,36.62,38.43,40.93Zm87.41,41.94a5.37,5.37,0,0,0-5-4.07,5.7,5.7,0,0,0-6.11,4.07ZM55.53,132.49a15.75,15.75,0,0,0,1.84,0c.3,0,.74-.22.82-.45.81-2.21,1.56-4.45,2.37-6.83h-5Zm48.14-7.11c.82,2.34,1.58,4.53,2.38,6.7a.86.86,0,0,0,.64.38c.65.05,1.31,0,1.94,0V125Z"/><path class="cls-3" d="M42.31,52.25V48.69h3.55v3.56Z"/><path class="cls-3" d="M57.52,52.23v-3.5h3.59v3.5Z"/><path class="cls-3" d="M53.54,75.38v3.53H50V75.38Z"/><path class="cls-3" d="M34.69,75.37h3.54v3.56H34.69Z"/><path class="cls-3" d="M38.27,52.53v3.54H34.68V52.53Z"/><path class="cls-3" d="M57.56,75.12V71.56h3.55v3.56Z"/><path class="cls-3" d="M45.89,71.57v3.54H42.32V71.57Z"/><path class="cls-3" d="M50,67.74H53.5v3.55H50Z"/><path class="cls-3" d="M34.68,67.74h3.56v3.58H34.68Z"/><path class="cls-3" d="M57.54,67.48V63.95h3.59v3.53Z"/><path class="cls-3" d="M42.33,63.93h3.56v3.55H42.33Z"/><path class="cls-3" d="M49.92,63.7V60.15H53.5V63.7Z"/><path class="cls-3" d="M34.68,63.7V60.15h3.57V63.7Z"/><path class="cls-3" d="M57.52,59.87V56.35h3.59v3.52Z"/><path class="cls-3" d="M45.86,59.9H42.32V56.31h3.54Z"/><path class="cls-3" d="M49.94,52.46h3.53v3.59H49.94Z"/></g></g></g></svg>
