<svg xmlns="http://www.w3.org/2000/svg" viewBox="0 0 150.51 150.51"><defs><style>.cls-1{fill:none;}.cls-2{opacity:0.5;}.cls-3{fill:#807c66;}</style></defs><title>Recurso 1icon</title><g id="Capa_2" data-name="Capa 2"><g id="Capa_1-2" data-name="Capa 1"><rect class="cls-1" width="150.51" height="150.51"/><g id="_7uJ1i8" data-name="7uJ1i8" class="cls-2"><path class="cls-3" d="M44.06,121.33h-14c-2.32,0-2.87-.51-2.07-2.66,1.77-4.81.71-9.62.32-14.43C27.42,93,26.22,81.79,25.52,70.53,25,61.42,28.72,54.2,36.44,49.18a2,2,0,0,0,1.11-2c-.07-2.67,0-5.35,0-8,0-2.18.2-2.37,2.45-2.38a22.29,22.29,0,0,0,2.77-.05,1.23,1.23,0,0,0,.84-.83c.07-2.18,0-4.36,0-6.74-.91.24-1.66.4-2.38.64A19.48,19.48,0,0,0,34,34.33a1.49,1.49,0,0,1-2.49,0c-.81-.91-1.62-1.81-2.47-2.69a1.46,1.46,0,0,1,.11-2.38,25.9,25.9,0,0,1,16-7.36c4.3-.34,8.64-.19,13-.18.53,0,1.4.41,1.49.78A2.4,2.4,0,0,1,59,24.21a30.35,30.35,0,0,1-2.36,2.38c-1.92,1.91-1.91,1.91-4.44,2.36,0,2.34,0,4.71,0,7.08,0,.27.58.72.92.75a27,27,0,0,0,3.21,0c1.33,0,1.95.51,1.92,1.91-.06,2.87,0,5.74,0,8.61a1.79,1.79,0,0,0,1,1.74c8.1,5.22,11.68,12.74,11.08,22.28C70,75.9,69.55,80.44,69.17,85l11,.64C80,83.82,80,82,79.79,80.18c-.23-2.71-.66-5.41-.75-8.12-.32-9.72,3-17.91,10.64-24.1a4,4,0,0,0,1.55-2.76c1.7-11,3.47-22.06,5.16-33.1.2-1.3.79-1.69,2-1.67q7.37.07,14.74,0c1.34,0,1.85.5,2,1.83q2.54,16.7,5.24,33.39a3.55,3.55,0,0,0,1.16,2c8,6.51,11.56,14.92,10.79,25.15-.64,8.43-1.38,16.84-2.11,25.26S128.76,115,128,123.47c-.12,1.38-.95,1.62-2.1,1.62q-9.85,0-19.7,0H98.88c0,1.3-.06,2.45,0,3.6a5.82,5.82,0,0,1-2.39,5.06,23.53,23.53,0,0,1-10.1,4.62c-11.46,2.53-22.83,2.42-34.06-1.27A25.27,25.27,0,0,1,50,136c-4.47-2-6.66-5.28-5.93-10.32A32,32,0,0,0,44.06,121.33ZM44,112.55c0-3.33.13-6.5,0-9.64a7.07,7.07,0,0,1,3.26-6.57,19.37,19.37,0,0,1,3.26-1.9,1.51,1.51,0,0,0,1.07-1.77,3.64,3.64,0,0,1,1.81-3.57,7.55,7.55,0,0,1,2.27-1.27C58.79,87,62,86.13,65.19,85.5c1.1-.21,1.48-.51,1.53-1.6.08-1.8.36-3.58.44-5.38.18-4.31.91-8.71.33-12.92-2.21-16.18-19.71-21.29-31-13.6C29.91,56.48,27.43,63.18,28,70.91c.92,12.26,2.09,24.51,3.16,36.76.14,1.62.32,3.24.48,4.88ZM129.38,65H83.49c-.76,0-1.5-.05-1.56,1a49.61,49.61,0,0,0-.26,5.67c.27,4.41.75,8.8,1.08,13.21.08,1,.56,1.43,1.5,1.76a33.72,33.72,0,0,1,5.17,2.26,3.73,3.73,0,0,1,2.08,3.87c-.11.87.28,1.29,1,1.64C96,96,99,98.06,99.18,102.36a3.33,3.33,0,0,0,.55.11c8.8,0,17.6,0,26.41,0,.9,0,1.2-.41,1.26-1.21q.44-5.37.91-10.74c.45-5.22.92-10.45,1.36-15.67C129.94,71.66,130.23,68.41,129.38,65ZM90.77,109.19a66,66,0,0,1-38.59,0c0,.67,0,1.24,0,1.8,0,7.1.06,14.2,0,21.3a2.45,2.45,0,0,0,2.1,2.82,62.58,62.58,0,0,0,21.48,2.21A52.59,52.59,0,0,0,89.15,135a2,2,0,0,0,1.65-2.25c-.06-7.34,0-14.68,0-22C90.77,110.22,90.77,109.75,90.77,109.19Zm38.13-46.8a23.28,23.28,0,0,0-8.27-12.21,5.66,5.66,0,0,0-3.15-1.11c-7.87-.09-15.74-.08-23.61,0a4.79,4.79,0,0,0-2.64.9,23.26,23.26,0,0,0-8,10.86c-.18.48-.29,1-.47,1.58Zm-1.84,42.73H99.13v17.31h26.42ZM114.64,25.17a2.92,2.92,0,0,0-.55-.14c-5.39,0-10.78,0-16.17,0-.86,0-1,.44-1.14,1.14-.44,2.93-.93,5.85-1.38,8.77-.59,3.77-1.16,7.54-1.76,11.4H118ZM71.58,96.38a64,64,0,0,0,7.11-.49,71.63,71.63,0,0,0,8.54-2.19A2.52,2.52,0,0,0,88.74,92c.05-.47-.86-1.32-1.5-1.54a43.68,43.68,0,0,0-7.07-2.09,53.9,53.9,0,0,0-19.7.44,21.22,21.22,0,0,0-5.06,1.74c-1.73.84-1.71,2,0,3a14.17,14.17,0,0,0,3.08,1.25A49.52,49.52,0,0,0,71.58,96.38Zm-20.17.38c-1,.55-1.84,1-2.62,1.51-2.81,2-2.88,4.41,0,6.26A21.69,21.69,0,0,0,54.32,107a62.56,62.56,0,0,0,31.91.7,20.65,20.65,0,0,0,8.4-3.48c1.67-1.3,2.22-3.2,1.08-4.42a31.74,31.74,0,0,0-3.86-3.09l-.36.34a10.7,10.7,0,0,0,0,1.29c.27,2.2-.85,3.61-2.64,4.61a10.42,10.42,0,0,1-2.77,1.26,98,98,0,0,1-11,2,42.85,42.85,0,0,1-18.79-2.21c-3.11-1.12-5.45-2.87-4.82-6.72A2.88,2.88,0,0,0,51.41,96.77Zm2.89-.85c-.38,4.42-.68,4.71,3.8,6.25a4.71,4.71,0,0,0,.84.24c3.07.45,6.12,1.06,9.21,1.29A47,47,0,0,0,85.43,102c3.5-1.07,4.23-2.65,3.25-6.09A49.26,49.26,0,0,1,54.3,95.91ZM97.46,22.34H114.1c-.35-2.36-.67-4.61-1-6.85-.37-2.44-.37-2.44-2.92-2.44H98.91Zm-57.25,17v7.86a23.33,23.33,0,0,1,15.52,0c0-2.49,0-4.77-.05-7,0-.3-.73-.8-1.13-.81-2.72-.06-5.44,0-8.17,0Zm9.24,93.72c.13-.29.23-.41.23-.54q0-11.95,0-23.9a1.35,1.35,0,0,0-.44-1c-.77-.55-1.61-1-2.52-1.53a6,6,0,0,0-.11.72c0,7.43,0,14.86,0,22.29C46.6,131.11,47.94,132.12,49.45,133.1Zm46.73-26.78c-2,.76-3,1.72-3,4.11.21,7,.07,14.07.07,21.11,0,.46.05.92.09,1.61,1.85-1.08,3-2.3,3-4.41-.06-7.13-.09-14.26-.13-21.39C96.28,107,96.22,106.69,96.17,106.31ZM32.58,31.7C34.92,30.38,37,29,39.22,28c4-1.91,8.37-2,12.7-1.76,1.6.09,2.44-.7,3.22-2-8.6-.51-16.85-.19-23.57,6.27Zm-1.84,86.95H43.87v-3.4H34.34C31.1,115.24,31.1,115.23,30.74,118.65ZM46.27,28.91v7.74h3.32V28.91Z"/></g></g></g></svg>
