<svg xmlns="http://www.w3.org/2000/svg" viewBox="0 0 150.51 150.51"><defs><style>.cls-1{fill:none;}.cls-2{opacity:0.5;}.cls-3{fill:#807c66;}</style></defs><title>Recurso 4icon</title><g id="Capa_2" data-name="Capa 2"><g id="Capa_1-2" data-name="Capa 1"><rect class="cls-1" width="150.51" height="150.51"/><g class="cls-2"><path class="cls-3" d="M14.88,74.49a1.72,1.72,0,0,0,.06-.29c0-.86,0-1.72.09-2.58.09-1.32.18-2.65.36-4,.24-1.76.5-3.52.86-5.26A57.6,57.6,0,0,1,20,50.84,60.26,60.26,0,0,1,42.7,24.3a58.43,58.43,0,0,1,17.48-7.55c2-.49,4-.89,6.05-1.2S70,15.1,72,15s3.77-.13,5.65,0,3.77.28,5.64.52a57.58,57.58,0,0,1,15.2,4.16,60.28,60.28,0,0,1,28,24.28,58.27,58.27,0,0,1,7.27,18.33c.41,2,.69,4,1,5.94.17,1.22.22,2.45.31,3.67.05.77.05,1.54.08,2.31a3,3,0,0,0,.06.38v.84a2.09,2.09,0,0,0-.06.32c0,.81,0,1.62-.09,2.43-.09,1.31-.14,2.62-.32,3.91-.26,1.9-.56,3.79-1,5.67a57,57,0,0,1-4.28,12.71,60.24,60.24,0,0,1-27.7,28.35,58.62,58.62,0,0,1-14.53,5c-1.62.33-3.27.56-4.91.79-1.19.16-2.38.27-3.58.35-1,.07-1.92.06-2.88.09a3.23,3.23,0,0,0-.41.06h-.84c-.15,0-.29-.06-.44-.07-1.81-.11-3.62-.16-5.42-.33-1.61-.15-3.21-.39-4.8-.68a57.72,57.72,0,0,1-9.31-2.53A60.24,60.24,0,0,1,19.45,97.88a56.9,56.9,0,0,1-3.2-10.36c-.36-1.74-.62-3.5-.86-5.26-.17-1.28-.26-2.56-.35-3.85-.06-.89-.06-1.78-.09-2.67a1.71,1.71,0,0,0-.06-.29Zm60,56.55A55.93,55.93,0,1,0,18.92,75.11,55.86,55.86,0,0,0,74.83,131Z"/><path class="cls-3" d="M32.36,47.09c.14-.13.29-.24.42-.38a26.32,26.32,0,0,1,5.77-4.62,19.31,19.31,0,0,1,6.7-2.34,26.1,26.1,0,0,1,5.18-.28,8.55,8.55,0,0,1,3.41,1,19.81,19.81,0,0,1,5.24,4,23,23,0,0,1,3.34,4.71Q67.34,57.61,72.3,66c.05.09.12.17.19.27,1.88-1.66,3.7-3.37,6.46-3.53-.09.24-.15.39-.21.55a8.75,8.75,0,0,0-.83,3.63,6.21,6.21,0,0,0,.19,1.6,1.71,1.71,0,0,1-.51,1.81c-.46.47-.93.94-1.42,1.38a.4.4,0,0,0-.1.6c2.61,4.47,5.21,8.95,7.83,13.41q4.32,7.37,8.68,14.72c1,1.63,1.95,3.27,3.05,4.82a9.14,9.14,0,0,0,6.51,3.77,18.63,18.63,0,0,0,3.38.16,13.46,13.46,0,0,0,3.76-.86,38.55,38.55,0,0,0,6-2.77l.21-.1c-.1.19-.17.33-.25.46a12.23,12.23,0,0,1-3.69,3.52,22,22,0,0,1-5.19,2.33,41.28,41.28,0,0,1-5.8,1.48,10.45,10.45,0,0,1-6.61-1A21.05,21.05,0,0,1,88,107.68a24.44,24.44,0,0,1-3.16-4.7Q78.67,92.45,72.52,81.9c-.73-1.24-1.43-2.5-2.13-3.77-.14-.26-.3-.33-.55-.22a14.77,14.77,0,0,0-1.62.77,86.3,86.3,0,0,0-7.74,5.49c-1.12.86-2.22,1.75-3.33,2.62-.09.07-.17.15-.25.23l0,.08,8-.85c0,.11-.07.19-.11.27-2.16,4.61-4.35,9.21-6.48,13.84-.68,1.47-1.2,3-1.8,4.51a.49.49,0,0,1-.17.23,20.07,20.07,0,0,0-5.55,5.56c-.6.83-1.15,1.69-1.76,2.58a62.88,62.88,0,0,1,2.38-11,89.67,89.67,0,0,1,4.08-10.53l-.05-.09c-.39,0-.78,0-1.17.11a14.6,14.6,0,0,0-5.81,2.63,29.49,29.49,0,0,0-6.76,6.57c-1.76,2.35-3.47,4.73-5.2,7.1a.9.9,0,0,1-1.52.17c-.46-.42-.88-.87-1.3-1.33a1.74,1.74,0,0,1-.31-1.48.52.52,0,0,1,.15-.25c2-2.17,3.88-4.38,5.89-6.5a113.14,113.14,0,0,1,9-8.46c2.71-2.3,5.57-4.39,8.46-6.44Q62.72,79.61,68.79,76c.21-.13.24-.24.12-.45q-1.6-2.89-3.18-5.79c-2-3.58-3.9-7.18-5.89-10.75C58.28,56.2,56.75,53.4,55,50.74a16.65,16.65,0,0,0-4.64-4.9,9.72,9.72,0,0,0-5-1.62,25.55,25.55,0,0,0-9.84,1.26,12,12,0,0,0-3,1.5,1.65,1.65,0,0,1-.24.12Z"/><path class="cls-3" d="M103.77,62.43a12.61,12.61,0,0,1-1.25,1.15A40.09,40.09,0,0,1,99,65.88a13.81,13.81,0,0,1-2.53.91c-.63.2-1.26.38-1.91.52a5.72,5.72,0,0,1-2.52-.15c-.89-.21-1.77-.49-2.67-.68a11.08,11.08,0,0,0-3.58-.19h-.18c.32-.27.59-.51.88-.73L92,61.43a2.78,2.78,0,0,1,1.63-.52,7.44,7.44,0,0,1,3.15.64,13.73,13.73,0,0,0,3.12.95,10.33,10.33,0,0,0,3.49-.1l.35-.06Z"/><path class="cls-3" d="M98,54.78a12.93,12.93,0,0,0,1.37-3,9.59,9.59,0,0,0,.4-3.73c0-.31,0-.62-.07-.92a2.68,2.68,0,0,1,1.13-2.37,17,17,0,0,1,6-2.87c.69-.19,1.39-.34,2.09-.51l0,.07-.16.26c-.52.87-1.08,1.71-1.54,2.6a10.34,10.34,0,0,0-.73,2.83,15.86,15.86,0,0,1-.54,2c-.1.29-.11.49.14.67a1.29,1.29,0,0,1,.14.14c-.31.24-.61.49-.92.72a37.58,37.58,0,0,1-5,2.86L98,54.79Z"/><path class="cls-3" d="M88.39,61.6a11.56,11.56,0,0,0,1.06-4.22c0-.85,0-1.7-.05-2.54a2.61,2.61,0,0,1,1.15-2.27,24,24,0,0,1,6.73-3.51c.4-.12.81-.2,1.27-.31a1.49,1.49,0,0,1-.08.2,9.77,9.77,0,0,0-1.33,4.47,10,10,0,0,1-.68,3.09c0,.09-.09.17-.14.28L96,56.5l-.1-.09a1.89,1.89,0,0,1-.22.36,21.25,21.25,0,0,1-6.13,4.42c-.36.17-.75.27-1.12.4Z"/><path class="cls-3" d="M104.55,54.68a12.32,12.32,0,0,0,8.52.36c-.12.16-.23.34-.36.49a19,19,0,0,1-3.62,3.15,10,10,0,0,1-2.06,1,18.4,18.4,0,0,1-2.5.81,3,3,0,0,1-1.24-.1c-1.18-.24-2.35-.55-3.54-.77a15.2,15.2,0,0,0-3.87-.18,1.67,1.67,0,0,1,.17-.15c2-1.27,3.91-2.54,5.88-3.79a4.21,4.21,0,0,1,2.2-.62,1.62,1.62,0,0,0,.43-.13Z"/><path class="cls-3" d="M87.12,55.85c-.13.61-.28,1.2-.38,1.79a13.27,13.27,0,0,0-.12,3.23,16.87,16.87,0,0,1,.06,1.95,1.23,1.23,0,0,1-.31.69c-.62.72-1.28,1.41-1.92,2.1a9,9,0,0,1-4.61,2.27,1.83,1.83,0,0,1-.36,0c.27-.52.55-1,.78-1.51a3.57,3.57,0,0,0,0-3.27,1.64,1.64,0,0,1-.12-.66,7.56,7.56,0,0,1,0-1.35,2.84,2.84,0,0,1,1.21-1.94A33.58,33.58,0,0,1,86.85,56Z"/><path class="cls-3" d="M77.55,72.27c.86-.63,1.66-1.23,2.48-1.81s1.94-1.35,2.91-2a3.84,3.84,0,0,1,2.44-.77,5,5,0,0,1,.93.2c1.05.26,2.1.59,3.17.78a10.56,10.56,0,0,0,3.29,0l.32,0a3.36,3.36,0,0,1-.35.56,14,14,0,0,1-1.51,1.5c-1.13.87-2.32,1.68-3.48,2.5a2.79,2.79,0,0,1-2.29.36c-1.8-.36-3.61-.68-5.42-1C79.24,72.42,78.43,72.37,77.55,72.27Z"/><path class="cls-3" d="M105.42,53.1c.58-.52,1.13-1.07,1.74-1.55q1.9-1.47,3.86-2.86a4.37,4.37,0,0,1,3.7-.74,9.15,9.15,0,0,0,5.35-.46.76.76,0,0,1,.36-.05c-.17.26-.32.54-.5.79a21.57,21.57,0,0,1-3.41,3.54,8.64,8.64,0,0,1-1.68,1c-1,.49-2,.95-2.94,1.43a1.12,1.12,0,0,1-1,0c-.45-.19-.9-.4-1.35-.58a8,8,0,0,0-3.86-.44h-.24Z"/><path class="cls-3" d="M32.22,47.26l.07-.07h-.07v.07Z"/><path class="cls-3" d="M32.23,47.25v0h0Z"/><path class="cls-3" d="M31.57,47.92h0Z"/><path class="cls-3" d="M31.57,47.9v0h0Z"/><path class="cls-3" d="M98,54.79h0Z"/><polygon class="cls-3" points="88.39 61.59 88.4 61.61 88.39 61.6 88.39 61.59"/><path class="cls-3" d="M32.3,47.2l.06-.1h0l-.07.1Z"/></g></g></g></svg>
