<svg xmlns="http://www.w3.org/2000/svg" viewBox="0 0 150.51 150.51"><defs><style>.cls-1{fill:none;}.cls-2{opacity:0.5;}.cls-3{fill:#807c66;}</style></defs><title>Recurso 2icon</title><g id="Capa_2" data-name="Capa 2"><g id="Capa_1-2" data-name="Capa 1"><rect class="cls-1" width="150.51" height="150.51"/><g id="BiCuHc" class="cls-2"><path class="cls-3" d="M78.84,131.65c-9,0-18-.12-27.06,0-7.81.14-13.53-3.41-17.76-9.6A29.76,29.76,0,0,1,30.75,115c-2.91-8.46-5.67-17-8.5-25.47a12,12,0,0,1,.15-9,2,2,0,0,0-.52-1.6c-1.47-1.65-3.22-3.08-4.52-4.85-3.17-4.33-4.59-9.16-3.16-14.53a12,12,0,0,1,11.07-9l.91-.05c4-.36,6-2.48,6.15-6.46a12.18,12.18,0,0,1,10.5-12,15,15,0,0,1,9.4,1.4,2.86,2.86,0,0,0,3.88-.72,12.23,12.23,0,0,0,1.9-4c.43-1.43.33-3,.76-4.45,1.85-6.17,8.19-9.67,15-8.38a20.79,20.79,0,0,1,11.55,6.69,23.39,23.39,0,0,0,4,3.46A10.78,10.78,0,0,0,98,27.67c6.5-1.37,11.93,1,16.47,5.45,5,4.92,7.19,10.76,5.54,17.86-.84,3.62.82,6.69,3.07,9.42a25.58,25.58,0,0,0,2.37,2.32,19.61,19.61,0,0,1,6.7,13.75,1.63,1.63,0,0,0,.49,1.12c3.77,2.75,4.41,6.58,3.2,10.66-2,6.7-4.31,13.3-6.5,19.93-1,2.91-1.83,5.86-2.94,8.72-3,7.68-8.22,12.91-16.54,14.57a12.44,12.44,0,0,1-2.41.17Zm42-19.35H87.4c-.4,0-.92.15-1.19,0-.59-.42-1.44-1-1.45-1.55s.8-1.2,1.4-1.59c.35-.24,1-.07,1.48-.07,11,0,22.07,0,33.11,0a1.66,1.66,0,0,0,1.9-1.38c2.16-6.65,4.4-13.28,6.59-19.92a10,10,0,0,0,.5-2.35c.14-1.91-.11-2.14-2.05-2.14H29.88c-1.76,0-2.26.48-1.92,2.28.31,1.62.93,3.18,1.34,4.79.22.86.71,1,1.53,1,3.38,0,6.75,0,10.13,0H52.15c1.08,0,1.81.49,1.82,1.57s-.7,1.61-1.78,1.6H32.38c-.48,0-1,0-1.63.07l1.06,3.17h2.45c2.72,0,5.44,0,8.16,0,1.07,0,1.82.47,1.86,1.54s-.76,1.67-1.87,1.7c-.5,0-1,0-1.51,0H32.78c1.88,5.37,3.29,10.72,5.6,15.65,2.61,5.57,7.16,8.73,13.72,8.58,7.66-.18,15.32,0,23,0H107c3.93,0,6.86-1.91,9.4-4.67-2.93-.17-5.8-.18-8.67-.17-1.15,0-2.09-.39-2.08-1.66s.93-1.62,2.1-1.6c2.52,0,5,0,7.56,0,4.44,0,4.44,0,5.6-4.35A2.24,2.24,0,0,0,120.87,112.29Zm4.69-35.55a20.76,20.76,0,0,0-.24-2.17,14.17,14.17,0,0,0-4.79-7.5c-5.33-4.83-8.55-10.75-6.72-18,2-8-7.57-17.3-15.1-15.09a15.72,15.72,0,0,1-6.84,0,18.84,18.84,0,0,1-11-6.68,14.1,14.1,0,0,0-8.22-5c-3.78-.69-8,1-8,6A13.52,13.52,0,0,1,64.24,31C62.92,37,58.57,40.4,51.78,40.89,48.22,41.15,46,43.4,46,47c-.07,3.77,1.59,6.79,4.21,9.36.83.81,1.74,1.54,2.52,2.39C56.64,63,58.79,68,58,74c-.11.88-.3,1.76-.47,2.75H71.28c0-1.7,1-2.18,2.49-2.25,1.86-.09,3.71-.32,5.57-.49l10.83-1c1.09-.1,1.95.25,2.06,1.46s-.57,1.73-1.7,1.86c-.72.08-1.44.25-2.35.42h12.38c0-.18.1-.29.08-.37-.12-.38-.25-.76-.4-1.13C97,67.37,91.66,61.06,85.13,55.74c-5-4.09-10.41-7.43-17.26-7.4a3,3,0,0,1-2.92-3.08,2.91,2.91,0,0,1,2.75-3.18,19.82,19.82,0,0,1,4.94.27C79.26,43.6,84.83,47,89.87,51.29c7.21,6.15,13.31,13.18,16.73,22.2.41,1.08.74,2.18,1.1,3.25Zm-74.64.09c.2-1.09.29-1.95.51-2.77a10,10,0,0,0-.77-7,2.4,2.4,0,0,0-1.34-1.25,60.58,60.58,0,0,0-6.78-1.24c-1.87-.21-3.25-1.24-3.42-3A3.19,3.19,0,0,1,42,58.1c.31-.06.61-.17,1-.28C39.13,51.75,38,45.62,42,39c-2.42,1.29-3.09,3.21-3.3,5.41A21.07,21.07,0,0,1,38.21,48a12.2,12.2,0,0,1-11.59,9c-4.38.2-6.58,2.53-6.44,6.82A12.29,12.29,0,0,0,24,72.07c1.22,1.27,2.43,2.56,3.75,3.72a3.73,3.73,0,0,0,2.14,1c5.54.08,11.08,0,16.63,0Z"/><path class="cls-3" d="M88.76,117.13c3.27,0,6.54,0,9.82,0,1.12,0,2.09.22,2.13,1.55s-1,1.7-2.16,1.7H78.76c-1.13,0-2.12-.33-2.14-1.59s1-1.69,2.18-1.68C82.12,117.15,85.44,117.13,88.76,117.13Z"/><path class="cls-3" d="M108.84,62.34c0,2,0,4,0,6,0,1.1-.38,1.91-1.59,1.94s-1.65-.8-1.66-1.88q0-6.1,0-12.2c0-1.08.41-1.95,1.61-1.95s1.66.89,1.65,2C108.82,58.32,108.84,60.33,108.84,62.34Z"/><path class="cls-3" d="M68.59,59.07h-3c-1,0-1.79-.43-1.83-1.55s.76-1.68,1.85-1.7q2.94,0,5.88,0c1.1,0,1.9.54,1.85,1.71s-.8,1.55-1.86,1.54S69.54,59.07,68.59,59.07Z"/><path class="cls-3" d="M91.06,44.62c0,1.06,0,2.11,0,3.17s-.66,1.74-1.62,1.53A2.25,2.25,0,0,1,88,47.81c-.17-2.15-.09-4.32-.06-6.48,0-1,.66-1.74,1.61-1.52A2.38,2.38,0,0,1,91,41.32,15.16,15.16,0,0,1,91.06,44.62Z"/><path class="cls-3" d="M42.67,75.18h-3c-1.08,0-1.76-.56-1.75-1.63A1.5,1.5,0,0,1,39.59,72h6.17c1.07,0,1.76.49,1.73,1.62s-.77,1.55-1.81,1.55Z"/></g></g></g></svg>
