<svg xmlns="http://www.w3.org/2000/svg" viewBox="0 0 150.51 150.51"><defs><style>.cls-1{fill:none;}.cls-2{opacity:0.5;}.cls-3{fill:#807c66;}</style></defs><title>Recurso 1icon</title><g id="Capa_2" data-name="Capa 2"><g id="Capa_1-2" data-name="Capa 1"><rect class="cls-1" width="150.51" height="150.51"/><g class="cls-2"><path class="cls-3" d="M114,58.31h0a3.71,3.71,0,0,1,2.52,1.32,3.49,3.49,0,0,1,1,2.52,1.88,1.88,0,0,1-.81,1.13,3.72,3.72,0,0,1-1-.5c-.19-.12-.39-.24-.58-.35a8.3,8.3,0,0,1-.89-.59l-.45-.32a.8.8,0,0,0-1.26.6,5.55,5.55,0,0,1-.09.57,2.82,2.82,0,0,0,.05,1.82c1.21,2.47,3.34,4,6.51,4.68,6.57,1.41,13.25,2.91,19.7,4.35l5.35,1.2-.38.09L138,76.2l-7.52,1.74c-4.33,1-8.81,2-13.21,3.08a6.38,6.38,0,0,0-4.78,4.17,2.52,2.52,0,0,0,.11,1.59,4.56,4.56,0,0,1,.12.44.8.8,0,0,0,.79.66l.2,0,.39-.07a2.41,2.41,0,0,0,1.35-.51,2.6,2.6,0,0,1,1.49-.87c.08,0,.34,0,.7.38s.71,1.12-.4,2.62a4.36,4.36,0,0,1-3.45,1.52,4.27,4.27,0,0,1-1.47-.25c-1.06-.39-2.25-1.18-2-3.87a7.68,7.68,0,0,1,3.72-6.17c2-1.14,4.24-2.1,6.37-3,.92-.4,1.87-.82,2.8-1.24l.87-.38.86-.37a.8.8,0,0,0,0-1.49l-1-.38-1.24-.48c-.68-.26-1.38-.49-2.06-.72a32.27,32.27,0,0,1-4.23-1.66c-4-2-6-5-6.13-8.88a3.54,3.54,0,0,1,1-2.6A3.8,3.8,0,0,1,114,58.31m0-.8A4.38,4.38,0,0,0,109.51,62c.13,4.57,2.69,7.61,6.57,9.58A61.75,61.75,0,0,0,122.45,74l2.2.86c-.95.41-1.35.57-1.75.75-3.09,1.41-6.28,2.65-9.24,4.3a8.38,8.38,0,0,0-4.12,6.78c-.26,2.49.55,4,2.48,4.71a5.1,5.1,0,0,0,1.75.3,5.17,5.17,0,0,0,4.09-1.84c.84-1.13,1.45-2.48.34-3.65a1.75,1.75,0,0,0-1.29-.64,3.29,3.29,0,0,0-2,1.08c-.32.29-.92.27-1.4.39-.1-.54-.42-1.17-.26-1.61a5.61,5.61,0,0,1,4.21-3.66c6.9-1.64,13.81-3.21,20.72-4.83,2.83-.66,5.65-1.35,8.48-2l-.11-.54c-9.07-2-18.14-4.09-27.23-6a8,8,0,0,1-6-4.24c-.25-.51.06-1.31.12-2a16.25,16.25,0,0,0,1.41,1c.63.34,1.38.95,1.95.95l.18,0a2.52,2.52,0,0,0,1.42-1.84,4.81,4.81,0,0,0-4.33-4.71Z"/><path class="cls-3" d="M62.34,109.14v.8a5,5,0,0,1,.83.07c3.8.64,6.62,2.94,8.36,6.81.73,1.62,1.35,3.32,2,5.12.32.87.65,1.76,1,2.7a.8.8,0,0,0,.75.52h0a.8.8,0,0,0,.75-.53l.81-2.27c.55-1.54,1.06-3,1.6-4.43,1.23-3.3,2.83-5.4,5-6.59a11.28,11.28,0,0,1,4.39-1.3h.29a3.06,3.06,0,0,1,3.09,2.93c.2,2.34-1,4.19-2.8,4.5l-.28,0a2.11,2.11,0,0,1-1.19-.31,4.21,4.21,0,0,1,.17-1.16c0-.16.07-.32.1-.47l.09-.1a2,2,0,0,0,.46-.64c.34-.85.56-1.7,0-2.15a2.92,2.92,0,0,0-1.61-.58,1.41,1.41,0,0,0-.63.14,6.59,6.59,0,0,0-2.69,2,14.47,14.47,0,0,0-2,4.41c-1.55,6.47-3.05,13.07-4.51,19.44L75,143.89l-.73-3.32c-1.08-4.9-2.19-10-3.3-14.94-.55-2.46-1.16-5.07-1.94-8.23a6.9,6.9,0,0,0-4.49-5.26A1.72,1.72,0,0,0,64,112a3.94,3.94,0,0,0-1.11.22,5.06,5.06,0,0,1-.49.13.8.8,0,0,0-.55,1.19l.25.43c.19.32.37.62.53.93a8.72,8.72,0,0,0,.48.75,3.87,3.87,0,0,1,.51.88c-.09.33-.31.75-1.12.75a2.86,2.86,0,0,1-.66-.08A3.79,3.79,0,0,1,58.74,113a3.46,3.46,0,0,1,3.6-3v-.8m24.94,6.29h0m-24.95-6.29a4.28,4.28,0,0,0-4.39,3.7A4.61,4.61,0,0,0,61.64,118a3.66,3.66,0,0,0,.85.11,1.8,1.8,0,0,0,1.91-1.39c.15-.6-.67-1.45-1.06-2.18-.25-.47-.53-.93-.8-1.39a9.47,9.47,0,0,1,1.46-.33.91.91,0,0,1,.3,0,6.16,6.16,0,0,1,4,4.69c.67,2.73,1.32,5.46,1.94,8.21q2.33,10.46,4.62,20.93A3.77,3.77,0,0,0,75.6,145c2-8.74,4-17.49,6.07-26.22a13.68,13.68,0,0,1,1.86-4.16,5.91,5.91,0,0,1,2.38-1.72.62.62,0,0,1,.27-.05,2.13,2.13,0,0,1,1.12.42c.15.12-.08.82-.23,1.22s-.52.51-.58.8c-.15.79-.52,1.85-.16,2.33a2.9,2.9,0,0,0,2.27.63c2.31-.39,3.7-2.67,3.47-5.36a3.85,3.85,0,0,0-3.89-3.66h-.35a12,12,0,0,0-4.72,1.39c-2.76,1.51-4.31,4.13-5.39,7-.79,2.11-1.52,4.23-2.41,6.71-1.12-2.91-2-5.44-3-7.86-1.75-3.89-4.63-6.55-9-7.28a5.79,5.79,0,0,0-1-.08Z"/><path class="cls-3" d="M37.31,57.52v.8h.11A3.69,3.69,0,0,1,40,59.56a3.41,3.41,0,0,1,.83,2.58,10,10,0,0,1-6.13,8.72A47.15,47.15,0,0,1,30,72.66c-.81.27-1.65.56-2.47.86a4.41,4.41,0,0,0-.84.46l-.62.38a.8.8,0,0,0,.15,1.45l1.67.58,3,1c3.52,1.18,6.84,2.51,8.68,5.73a11.18,11.18,0,0,1,1.38,4.37,2.92,2.92,0,0,1-.67,2.25,3.87,3.87,0,0,1-2.81,1.17h-.16a3.93,3.93,0,0,1-4-3.27,1.31,1.31,0,0,1,.23-1,.69.69,0,0,1,.54-.21,1.63,1.63,0,0,1,.66.16,2.06,2.06,0,0,1,.38.27,3.09,3.09,0,0,0,.8.52,6.19,6.19,0,0,0,1.27.33l.46.09.17,0a.8.8,0,0,0,.8-.71,5.37,5.37,0,0,1,.11-.54,2,2,0,0,0-.13-1.87l-.41-.48a8.18,8.18,0,0,0-3.22-2.71,109.74,109.74,0,0,0-10.9-3c-4.18-1-8.45-1.94-12.57-2.85L7,74.72l1.42-.31,9.18-2,5.94-1.3,8.76-1.92a8.35,8.35,0,0,0,6-4.13,3.54,3.54,0,0,0,.23-2c0-.25,0-.48,0-.68a.8.8,0,0,0-1.25-.69l-.5.35a7.12,7.12,0,0,1-1,.63l-.41.21a4.91,4.91,0,0,1-1,.42A2,2,0,0,1,33.56,62a3.35,3.35,0,0,1,1-2.4,4,4,0,0,1,2.73-1.31v-.8m0,0c-2.28,0-4.68,2.25-4.55,4.55A2.72,2.72,0,0,0,34.08,64a.56.56,0,0,0,.25.05,5.48,5.48,0,0,0,1.77-.71,14,14,0,0,0,1.59-1c0,.78.23,1.7-.1,2.32a7.67,7.67,0,0,1-5.46,3.72c-4.9,1.09-9.8,2.14-14.7,3.22l-13.57,3a8.9,8.9,0,0,0,1.13.5c6.26,1.42,12.54,2.77,18.79,4.25a110.69,110.69,0,0,1,10.82,3c1.29.45,2.32,1.84,3.29,3,.27.31-.09,1.18-.17,1.79a9.86,9.86,0,0,1-1.61-.38c-.42-.17-.73-.59-1.15-.78a2.42,2.42,0,0,0-1-.23c-1,0-1.69.82-1.57,2.1a4.73,4.73,0,0,0,4.81,4h.19c2.63-.1,4.48-1.78,4.26-4.3a11.93,11.93,0,0,0-1.49-4.7c-2-3.49-5.52-4.89-9.12-6.09-1.42-.48-2.84-1-4.65-1.6a11.37,11.37,0,0,1,1.33-.77c2.44-.9,5-1.6,7.32-2.69a10.88,10.88,0,0,0,6.59-9.38,4.33,4.33,0,0,0-4.21-4.69Z"/><path class="cls-3" d="M75.09,6.88l.07.31q.83,3.58,1.65,7.17.75,3.28,1.48,6.56c.83,3.69,1.69,7.51,2.56,11.26.5,2.15,1.32,4.52,3.67,5.82a4.13,4.13,0,0,0,2,.36c.26,0,.5,0,.72,0h.08a.8.8,0,0,0,.77-1c-.06-.19-.11-.4-.16-.61a6.12,6.12,0,0,0-.56-1.6l-.17-.29c-.69-1.18-.57-1.26-.28-1.45A2.13,2.13,0,0,1,88,33.14a2.94,2.94,0,0,1,1.07.18,4,4,0,0,1,2.08,4.75,3.2,3.2,0,0,1-3.4,2.4l-.61,0c-3.31-.32-5.78-2.16-7.53-5.62a39.09,39.09,0,0,1-1.85-4.59c-.24-.67-.49-1.37-.75-2.05-.15-.4-.29-.82-.43-1.22l-.2-.58a.8.8,0,0,0-.76-.54h-.09l-.44,0a.8.8,0,0,0-.66.51c-.26.68-.51,1.36-.75,2-.53,1.46-1.08,3-1.71,4.41-1.75,4-4,6.3-7.17,7.25a8.05,8.05,0,0,1-2.31.33,7.82,7.82,0,0,1-1.08-.07,3,3,0,0,1-2-1.24,3.75,3.75,0,0,1,2.85-5.91,2.29,2.29,0,0,1,.49.05,1.83,1.83,0,0,1,1,.81,3.62,3.62,0,0,1-.47.88c-.11.17-.22.35-.32.52a9.79,9.79,0,0,1-.63.93l-.33.46a.8.8,0,0,0,.6,1.26,5.67,5.67,0,0,1,.57.09,5.31,5.31,0,0,0,1,.12,1.93,1.93,0,0,0,.84-.17,7.68,7.68,0,0,0,4.27-5.44c1.19-5.17,2.36-10.43,3.5-15.52l1.08-4.84.06-.28c.38-1.71.77-3.46,1.25-5.22m.11-3.1A77.1,77.1,0,0,0,73,12.2C71.48,19,70,25.78,68.42,32.56a6.89,6.89,0,0,1-3.83,4.89,1.16,1.16,0,0,1-.5.1c-.46,0-1-.17-1.48-.2.34-.48.71-.94,1-1.45s1-1.41.89-2a2.46,2.46,0,0,0-1.63-1.44,3.09,3.09,0,0,0-.66-.07A4.64,4.64,0,0,0,58,36a4.19,4.19,0,0,0,3.29,5.14,8.62,8.62,0,0,0,1.2.08A8.87,8.87,0,0,0,65,40.87c3.89-1.18,6.12-4.16,7.68-7.7.93-2.11,1.66-4.31,2.48-6.47l.44,0c.21.61.41,1.22.64,1.82a69.07,69.07,0,0,0,2.63,6.72c1.68,3.32,4.26,5.68,8.17,6.05q.36,0,.69,0a4,4,0,0,0,4.17-3,4.8,4.8,0,0,0-2.54-5.72A3.74,3.74,0,0,0,88,32.34a2.85,2.85,0,0,0-1.51.36c-1.16.77-.35,1.85.2,2.81a10.06,10.06,0,0,1,.66,2.05,6.66,6.66,0,0,1-2.41-.29c-2-1.12-2.78-3.17-3.27-5.29-1.37-5.93-2.69-11.87-4-17.81C76.81,10.71,76,7.25,75.2,3.78Z"/><path class="cls-3" d="M43.91,77.07h0m0,0a.9.9,0,0,1,.45.16,3,3,0,0,1,.9,1.05c1.12,2,1.68,3,3.41,3A12.74,12.74,0,0,0,51,81a17.25,17.25,0,0,1,3.3-.35,11.76,11.76,0,0,1,4.14.73,6.66,6.66,0,0,1,4.33,4,6.54,6.54,0,0,1-1.22,5.69c-1.11,1.59-2.32,3.17-3.48,4.69l-.09.12c-1.24,1.62-1.09,3.06.48,4.53A16.06,16.06,0,0,0,66,104.34a7.3,7.3,0,0,0,1.66.21c2.15,0,3.45-1.31,3.85-3.9.24-1.52.41-3.08.58-4.58.08-.67.15-1.34.23-2a.8.8,0,0,0-.17-.6l0,0v-.09a3.4,3.4,0,0,1,0-1,4.73,4.73,0,0,1,.42-1,7.68,7.68,0,0,1,1.32,1,4.27,4.27,0,0,1-.06.95c-.14,1-.27,2.07-.39,3.08-.36,2.89-.73,5.87-1.31,8.75-.38,1.87-1,1.87-1.4,1.87a4.38,4.38,0,0,1-1.39-.3,96.61,96.61,0,0,1-12.43-5.19c-1.4-.73-2.18-1.48-2.39-2.27s.16-2,1.2-3.51c.63-.93,1.31-1.86,2-2.76.78-1.07,1.59-2.17,2.33-3.31a5,5,0,0,0,.94-4,5.26,5.26,0,0,0-3-3.16,7.59,7.59,0,0,0-3.56-.83,15.14,15.14,0,0,0-3.46.48,34.88,34.88,0,0,1-5.2.92,1.9,1.9,0,0,1-1-.47,26,26,0,0,1-.84-5.29.72.72,0,0,1,0-.19h0m0-.8c-.49,0-.86.32-.82,1A26.91,26.91,0,0,0,44,82.85c.13.47,1.17,1,1.8,1h.08a36.18,36.18,0,0,0,5.3-.94,14.34,14.34,0,0,1,3.27-.46,6.82,6.82,0,0,1,3.19.74c2.78,1.43,3.41,3.45,1.72,6-1.35,2.07-2.91,4-4.29,6.06-2.14,3.19-1.94,5.15,1.48,6.94a97.41,97.41,0,0,0,12.53,5.24,5.09,5.09,0,0,0,1.66.35c1.2,0,1.84-.8,2.19-2.52.79-3.92,1.18-7.92,1.72-11.89.07-.52.17-1.27-.11-1.56a14,14,0,0,0-2.25-1.64,11.3,11.3,0,0,0-.89,1.92,7.24,7.24,0,0,0,0,1.8l.19,0c-.27,2.19-.48,4.39-.81,6.57s-1.3,3.22-3.06,3.22a6.57,6.57,0,0,1-1.48-.19A15.32,15.32,0,0,1,59,99.82c-1.24-1.16-1.38-2.16-.39-3.45,1.22-1.59,2.44-3.19,3.59-4.84,3.11-4.45,1.56-9.08-3.49-10.94a12.57,12.57,0,0,0-4.42-.78,18.1,18.1,0,0,0-3.46.36,12.25,12.25,0,0,1-2.14.3c-1.26,0-1.63-.65-2.71-2.55a3.8,3.8,0,0,0-1.17-1.34,1.71,1.71,0,0,0-.88-.29Z"/><path class="cls-3" d="M106.82,77.39a2.89,2.89,0,0,1,.3,1.09c-.2,4.42-.57,4.62-1.84,4.62a19.72,19.72,0,0,1-3.41-.49c-.4-.08-.8-.2-1.23-.32a9.14,9.14,0,0,0-2.53-.48H98a14.25,14.25,0,0,0-5.5,1,4.32,4.32,0,0,0-2.56,2.69,5,5,0,0,0,1,4.1l.88,1.31c1.25,1.86,2.54,3.79,3.77,5.7,1.43,2.23,1.28,3.16-.77,4.5a52.86,52.86,0,0,1-7.68,4,20.53,20.53,0,0,1-3.18,1c-.82.21-1.67.43-2.5.72a3.15,3.15,0,0,1-1,.2c-.48,0-1.15-.15-1.4-1.43-.67-3.45-1.17-7-1.64-10.45l-.08-.55a4,4,0,0,1,.11-2.12,3.84,3.84,0,0,1,1-1.09,3.17,3.17,0,0,1,.47.83,4.52,4.52,0,0,1,.11,1.27q0,.09,0,.18l0,0a.8.8,0,0,0-.17.6c.09.7.17,1.4.25,2.1.19,1.6.38,3.25.64,4.87a3.51,3.51,0,0,0,3.72,3.2,5.83,5.83,0,0,0,.68,0,15.25,15.25,0,0,0,8.79-4.27,2.68,2.68,0,0,0,.25-4.05c-1.2-1.51-2.38-3.15-3.59-5-1.44-2.18-1.84-4.38-1.15-6.18s2.34-3,4.72-3.64a15.07,15.07,0,0,1,3.8-.43c.86,0,1.79.05,2.83.15l.16,0c.89.09,1.53.15,2.08.15,2,0,2.59-1,3.88-3.08a2.85,2.85,0,0,1,1-.73m.41-1.16c-.72.48-1.71.8-2.12,1.47-1.3,2.15-1.69,2.69-3.19,2.69-.54,0-1.23-.07-2.16-.16s-1.93-.16-2.9-.16a16,16,0,0,0-4,.45c-5.59,1.45-7.23,6.2-4,11,1.14,1.73,2.35,3.43,3.63,5a1.9,1.9,0,0,1-.17,3,14.41,14.41,0,0,1-8.33,4.06,5,5,0,0,1-.58,0,2.73,2.73,0,0,1-2.92-2.52c-.36-2.3-.6-4.63-.89-6.95l.2,0A9.23,9.23,0,0,0,79.59,92a8.29,8.29,0,0,0-1.1-1.81c-.64.64-1.5,1.18-1.86,2a4.85,4.85,0,0,0-.18,2.57c.51,3.69,1,7.39,1.73,11,.26,1.34,1,2.08,2.19,2.08a3.93,3.93,0,0,0,1.29-.25c1.89-.66,3.93-.94,5.74-1.74a53.11,53.11,0,0,0,7.79-4.09c2.49-1.64,2.61-3.1,1-5.61s-3.1-4.69-4.66-7-1.27-4.43,1.26-5.61A13.56,13.56,0,0,1,98,82.61h.12a19.45,19.45,0,0,1,3.6.78,20.2,20.2,0,0,0,3.56.51c2.19,0,2.46-1.31,2.65-5.39a7.35,7.35,0,0,0-.69-2.28Z"/><path class="cls-3" d="M70.38,43.7c1.18,0,1.81.44,2.49,4.45.37,2.19.54,4.46.72,6.66.08,1.06.17,2.15.27,3.23a1.25,1.25,0,0,1-.18.94,1.55,1.55,0,0,1-1,.35h-.12a1.1,1.1,0,0,1-.28,0,3.2,3.2,0,0,1,0-.58,4.68,4.68,0,0,0,0-.77c0-.38,0-.77,0-1.19v-.15a.8.8,0,0,0,.12-.54c-.09-.66-.17-1.33-.25-2-.19-1.51-.38-3.08-.65-4.61-.51-2.82-2.38-3.41-3.86-3.41l-.55,0A14.83,14.83,0,0,0,58,50.6c-1.77,1.69-.46,3.49,0,4.09s.75,1,1.12,1.51a34,34,0,0,1,2.73,4c1.23,2.23,1.44,4.28.62,5.92-.95,1.9-3.22,3.25-6.24,3.69a10.61,10.61,0,0,1-1.55.1,29.83,29.83,0,0,1-3.67-.31l-1.16-.14a8.32,8.32,0,0,0-1-.06A3.36,3.36,0,0,0,45.31,72a2.6,2.6,0,0,1-.74,1.12,1.22,1.22,0,0,1-.57.23,1.52,1.52,0,0,1-.14-.43,10.67,10.67,0,0,1,0-2c.2-3.14.91-3.3,2-3.3a10.73,10.73,0,0,1,2,.24l.55.11a32.8,32.8,0,0,0,6.29.83h.65c1.5-.06,2.91-1.07,4.16-2l.4-.28a3,3,0,0,0,.76-4.31c-1-1.65-2.12-3.31-3.16-4.91l-.87-1.33c-.32-.49-.65-1-1-1.44l-.61-.9a2.29,2.29,0,0,1,.33-3.31c3.21-3.22,7.45-4.54,11.55-5.82a12.68,12.68,0,0,1,3.44-.74m1.91,12.5h0m-1.91-13.3a13.52,13.52,0,0,0-3.68.78c-4.27,1.33-8.57,2.7-11.88,6A3.07,3.07,0,0,0,54.4,54c.52.78,1.06,1.55,1.57,2.33,1.35,2.07,2.72,4.13,4,6.22a2.24,2.24,0,0,1-.54,3.23c-1.27.89-2.72,2-4.13,2.09h-.62A35.38,35.38,0,0,1,48,67a11.44,11.44,0,0,0-2.13-.26c-2,0-2.66,1.09-2.85,4.05A11.39,11.39,0,0,0,43,73c.05.41.34,1.06.61,1.11l.23,0a2,2,0,0,0,1.19-.43,3.38,3.38,0,0,0,1-1.49,2.57,2.57,0,0,1,2.76-2,7.58,7.58,0,0,1,.86.05,43.87,43.87,0,0,0,4.93.46,11.48,11.48,0,0,0,1.66-.11c5.62-.82,9.51-4.79,6.21-10.8a55.15,55.15,0,0,0-3.91-5.58c-.74-1-1.13-2-.06-3a14.09,14.09,0,0,1,8.64-4.29l.48,0c1.74,0,2.74.89,3.07,2.75.39,2.17.61,4.37.9,6.56h-.13c0,.6,0,1.21,0,1.81.05.86-.55,2.13,1,2.13h.16c1.34-.07,2.13-.7,2-2.17-.32-3.32-.44-6.67-1-9.94-.62-3.69-1.26-5.12-3.28-5.12Z"/><path class="cls-3" d="M80.49,43.7h0a6.82,6.82,0,0,1,1.5.21,33.28,33.28,0,0,1,12.82,5.61c2,1.52,2.14,2.21.77,4.37s-2.7,4.15-4.33,6.47a5.54,5.54,0,0,0-.85,5.53,5.19,5.19,0,0,0,4.47,2.75c.42,0,.86.06,1.32.06a33.84,33.84,0,0,0,5.74-.66l.67-.12a17.64,17.64,0,0,1,2.68-.33c1,0,1.36,0,1.72,3.5a5.14,5.14,0,0,1-.24,1.73,5.23,5.23,0,0,1-1.29-1.38,3.34,3.34,0,0,0-3.05-2l-.39,0c-.57,0-1.14.11-1.69.18a29.4,29.4,0,0,1-3.3.25h-.49A13.66,13.66,0,0,1,92,69a5.91,5.91,0,0,1-3.65-3.54,6.17,6.17,0,0,1,.88-5.15c1.2-1.94,2.55-3.82,3.94-5.74a3.29,3.29,0,0,0,.75-2.64A2.92,2.92,0,0,0,92.3,50L91,49.28a36.09,36.09,0,0,0-6.14-3A5.87,5.87,0,0,0,83,46c-2.37,0-3.22,2-3.51,3.69s-.45,3.44-.6,5.12c-.1,1.14-.21,2.31-.35,3.46a3,3,0,0,1-.39,1.12H78c-.41,0-.62-.33-.63-1,0-.88,0-1.77,0-2.63q0-.58,0-1.16a.8.8,0,0,0-.07-.33c.1-.73.19-1.47.28-2.2.25-1.94.5-3.94.84-5.89.39-2.27,1.15-2.45,2-2.45m0-.8c-1.64,0-2.45.91-2.83,3.12-.49,2.83-.8,5.69-1.18,8.53l.12,0c0,1.27,0,2.54,0,3.81,0,1.07.54,1.77,1.43,1.77a2,2,0,0,0,.45-.05c.42-.1.81-1.13.9-1.78.36-2.84.46-5.73.95-8.54.35-2,1.21-3,2.72-3a5.05,5.05,0,0,1,1.6.3,45.29,45.29,0,0,1,7.27,3.64c1.45.81,1.56,2,.57,3.36-1.38,1.89-2.75,3.8-4,5.79-2.47,4-1.2,8.1,3.14,9.86a14.62,14.62,0,0,0,4.85.94H97c1.68,0,3.38-.29,5.07-.43h.33a2.5,2.5,0,0,1,2.34,1.62,11.86,11.86,0,0,0,2.47,2.48,12.23,12.23,0,0,0,.57-3.29c-.34-3.24-.66-4.22-2.52-4.22a18.38,18.38,0,0,0-2.81.34,37.84,37.84,0,0,1-6.27.77c-.42,0-.83,0-1.24-.05-4-.36-5.31-3.76-3-7,1.49-2.14,3-4.3,4.35-6.5,1.59-2.5,1.39-3.66-1-5.44a34.08,34.08,0,0,0-13.12-5.75,7.62,7.62,0,0,0-1.68-.23Z"/><path class="cls-3" d="M71.5,75.34a1.84,1.84,0,0,0-.11.27A2.94,2.94,0,0,0,71.92,78l.21.33c1.34,2.18,1.84,3,2.92,3a4,4,0,0,0,1.85-.71c.39-.21.87-.48,1.46-.76l.55-.26A11.1,11.1,0,0,0,81,78.46a10.42,10.42,0,0,1,6.56-1.8c.8,0,1.63,0,2.43.07l.67,0,.16.11-.11.09h0c-2.44,0-3.28,1.61-3.87,3.12-1.9,4.8-5.71,7.18-11.67,7.26h-.24A10.69,10.69,0,0,1,64.32,80.4c-.66-1.52-1.55-3.15-3.79-3.15h0l-.47,0L59.83,77a1.68,1.68,0,0,1,.23-.21c.92-.09,1.62-.13,2.26-.13a11.16,11.16,0,0,1,1.68.12,2.58,2.58,0,0,1,.92,1.09c.35.64.65,1.31,1,2a17.59,17.59,0,0,0,1.81,3.38,8.59,8.59,0,0,0,7.15,3.6,12.35,12.35,0,0,0,2.86-.35,9.6,9.6,0,0,0,7-6.57.8.8,0,0,0-.14-.77l-.27-.33-.14-.17a.8.8,0,0,0-1-.22l-2.34,1c-1.88.82-3.82,1.68-5.68,2.64a1.8,1.8,0,0,1-.77.26c-.11,0-.31,0-.72-.71-.57-1-1.17-2-1.74-2.93S71,77,70.46,76.18a1.29,1.29,0,0,1-.09-.22l1.13-.62m2.89-2.42c-1.64.85-3.28,1.69-4.89,2.6-.09.05.08.75.26,1.07,1.07,1.85,2.22,3.66,3.28,5.52.41.72.82,1.12,1.41,1.12a2.55,2.55,0,0,0,1.14-.35c2.59-1.35,5.31-2.45,8-3.66l.41.5a8.78,8.78,0,0,1-6.47,6,11.51,11.51,0,0,1-2.67.33,7.75,7.75,0,0,1-6.5-3.28c-1.17-1.57-1.76-3.56-2.72-5.31-.34-.61-.93-1.41-1.5-1.5a12,12,0,0,0-1.81-.13c-.8,0-1.6.06-2.39.14-.43,0-.81.64-1.21,1,.41.37.86,1.1,1.22,1.1h0a4.56,4.56,0,0,1,.56,0c1.69,0,2.38,1.1,3.05,2.67a11.49,11.49,0,0,0,11.29,7.43h.25c5.66-.08,10.2-2.2,12.4-7.77.62-1.58,1.32-2.61,3.13-2.61h.1c.41,0,.83-.61,1.24-.94-.44-.3-.86-.85-1.31-.87-1.06,0-2.12-.1-3.16-.1a11.08,11.08,0,0,0-7,2A14.59,14.59,0,0,1,78,79.14c-1.64.79-2.38,1.39-3,1.39s-1.1-.78-2.44-3c-.87-1.41-.64-2.17.81-2.74.43-.17,1-.33,1.19-.67s-.13-.82-.22-1.24Z"/><path class="cls-3" d="M75.32,63a18.37,18.37,0,0,1,2.75.22,10.2,10.2,0,0,1,8.06,6.26l.22.47c.71,1.55,1.6,3.49,4.09,3.49l.44,0,.07.09-.17.14c-.81.06-1.49.1-2.17.1a11.57,11.57,0,0,1-1.79-.12,1.74,1.74,0,0,1-.84-.91,14.6,14.6,0,0,0-4.33-7.15,8.77,8.77,0,0,0-5.8-2.06c-4.11,0-9,2.71-10,7.75a.8.8,0,0,0,1.12.89L69.53,71c2-.88,3.85-1.72,5.69-2.65a2.16,2.16,0,0,1,.9-.28c.16,0,.49,0,1,.85.83,1.45,1.69,2.88,2.6,4.39l.77,1.28-.48.25c-.84.43-1.64.84-2.43,1.23l.19-.13c.81-.54,1.57-1.06,1.48-1.87a6,6,0,0,0-1.14-2.52c-.21-.32-.4-.61-.56-.91a2.15,2.15,0,0,0-1.9-1.33,2.8,2.8,0,0,0-1.32.38c-.51.27-1.06.5-1.64.74a12.24,12.24,0,0,0-2.78,1.44,10.4,10.4,0,0,1-6.63,1.89c-1,0-2-.06-3-.12h0a.9.9,0,0,1-.2-.13,1,1,0,0,1,.21-.13h.17c2.12,0,2.75-1.35,3.42-2.79l0,0a13.62,13.62,0,0,1,3.7-5.08A12.39,12.39,0,0,1,75.32,63m-15,10.36h0m15-11.16a13.2,13.2,0,0,0-8.21,2.62,14.54,14.54,0,0,0-3.94,5.38c-.65,1.4-1.09,2.37-2.71,2.37h-.19c-.48,0-1,.58-1.46.89.47.34.92.95,1.41,1,1,.06,2.05.12,3.07.12a11.15,11.15,0,0,0,7.12-2.06c1.25-.95,2.9-1.36,4.31-2.12a2,2,0,0,1,.94-.29c.49,0,.86.3,1.19.91.57,1.05,1.48,2,1.61,3.14.06.52-1.4,1.17-2.1,1.84-.23.22-.25.66-.37,1a4.77,4.77,0,0,0,.89.26.36.36,0,0,0,.15,0c1.5-.69,3-1.47,4.6-2.31-1.37-2.29-2.62-4.33-3.8-6.4-.47-.83-1-1.26-1.68-1.26a2.87,2.87,0,0,0-1.27.37c-2.61,1.31-5.3,2.45-8.25,3.8.87-4.38,5.13-7.1,9.23-7.1a8,8,0,0,1,5.28,1.86A14.05,14.05,0,0,1,85.21,73a2.4,2.4,0,0,0,1.49,1.47,12.42,12.42,0,0,0,1.92.13c.76,0,1.53-.05,2.29-.11.39,0,.75-.56,1.12-.86-.31-.34-.66-1-.92-1h0a4.49,4.49,0,0,1-.64,0c-2.18,0-2.8-1.86-3.58-3.5a11.07,11.07,0,0,0-8.67-6.71,19.11,19.11,0,0,0-2.87-.23Z"/><path class="cls-3" d="M105.93,97.09l7.69,14.24,2.09,3.86L97.53,106c.67-1,1-1.33,1.35-1.33a6.52,6.52,0,0,1,1.9.6l4.41,1.83,2.21.92a.8.8,0,0,0,.88-.17l.43-.43a.8.8,0,0,0,.15-.93l-1-2.12-2.4-4.84a4.59,4.59,0,0,1-.62-1.59,3.57,3.57,0,0,1,1.13-.85m.31-1.11c-2.65,1.51-2.69,1.63-1.55,3.91s2.3,4.63,3.44,6.95l-.43.43-6.62-2.75a6.51,6.51,0,0,0-2.21-.66c-.9,0-1.43.7-2.5,2.45l20.47,10.37.36-.38L106.24,96Z"/><path class="cls-3" d="M115.61,34.92,110.7,44.1,106,52.93c-.53-.26-1.1-.57-1.17-.78s.36-1.16.55-1.55c.8-1.61,1.62-3.25,2.42-4.83l1.06-2.11a.8.8,0,0,0-.14-.92l-.35-.36-.1-.11a.8.8,0,0,0-.88-.19l-2,.8c-1.47.59-3,1.2-4.47,1.83l-.06,0a7.23,7.23,0,0,1-2,.69c-.32,0-.67-.43-1.36-1.45L100,42.75l15.62-7.83m1.17-1.48L96.37,43.67c1.22,1.85,1.7,2.57,2.53,2.57a7.16,7.16,0,0,0,2.34-.78c2.13-.91,4.29-1.75,6.44-2.63l.45.47c-1.16,2.32-2.33,4.63-3.48,7s-1,2.53,1.69,3.73l10.83-20.26-.39-.29Z"/><path class="cls-3" d="M43.63,97.19c.78.31,1.22.59,1.35.88s0,.91-.35,1.87l-2,4.92-1,2.49a.8.8,0,0,0,.74,1.11l.2,0,.71-.17a4.92,4.92,0,0,0,1.15-.35l1.38-.66A34.8,34.8,0,0,0,50,105a2.67,2.67,0,0,1,1.34-.53c.29,0,.71.12,1.29,1l-.59.32-17.44,9.42,9-18m-.4-1-10,20.15.36.38,20.25-10.94c-.73-1.39-1.47-2.09-2.4-2.09a3.36,3.36,0,0,0-1.78.66,50.83,50.83,0,0,1-5.53,2.85,10.7,10.7,0,0,1-1.71.46l3-7.41c1-2.36.57-3.15-2.15-4.05Z"/><path class="cls-3" d="M34.7,34.89,48,42l4.57,2.44c-.47.88-.71,1.08-.92,1.08a4.31,4.31,0,0,1-1.38-.5L46.56,43.2l-3.12-1.54a1,1,0,0,0-.43-.1,1.93,1.93,0,0,0-.39.05l-.43.07a.8.8,0,0,0-.63,1.1L42,44c.37.91.71,1.76,1.08,2.63.26.61.54,1.22.81,1.8.2.44.4.87.6,1.31.42.94.72,1.68.58,2a4.07,4.07,0,0,1-1.5,1.13l-4.37-8.79L34.7,34.89m-1.13-1.51-.34.37L43.27,54c3.06-1.66,3.17-1.92,2-4.56-.46-1-1-2.06-1.41-3.11-.53-1.24-1-2.49-1.57-3.81.41-.06.6-.12.71-.12h.08c2.28,1.12,4.55,2.26,6.83,3.37a4.39,4.39,0,0,0,1.74.58c.77,0,1.23-.65,2-2.23L33.57,33.38Z"/><path class="cls-3" d="M46.36,86h0m.52.11h0l.25,0c1.53,2.14,3,4.4,4.41,6.57l1.07,1.64v.05l0,.12,0,0a3,3,0,0,1-.2.36,1,1,0,0,1-.41-.13c-2.2-3-4.06-5.59-5.7-8a1.73,1.73,0,0,1,0-.58,2.7,2.7,0,0,1,.57-.06m0-.8a3.21,3.21,0,0,0-1.12.2c-.25.1-.4,1.28-.14,1.66,1.84,2.76,3.78,5.46,5.76,8.13a1.51,1.51,0,0,0,1.07.43.79.79,0,0,0,.28,0c.38-.15.59-.77.76-1a2.77,2.77,0,0,0-.13-.66c-1.86-2.83-3.67-5.7-5.64-8.45a1.07,1.07,0,0,0-.82-.23Z"/><path class="cls-3" d="M104.72,86.14l.13.13,0,.05a7,7,0,0,1-.46.87l-.84,1.26c-1.32,2-2.69,4-4.12,6a1.86,1.86,0,0,1-.64.27,2.74,2.74,0,0,1-.12-.78c1.41-2.38,3-4.83,4.8-7.28a2.48,2.48,0,0,1,1.28-.49m-6.08,7.76h0m6.2-8.6h0a3.39,3.39,0,0,0-2,.86c-1.72,2.38-3.36,4.83-4.85,7.36-.3.51.13,1.46.22,2.21.65-.27,1.54-.35,1.89-.83,1.74-2.36,3.35-4.82,5-7.25a16.14,16.14,0,0,0,.8-1.55c-.35-.28-.72-.79-1-.79Z"/><path class="cls-3" d="M52.37,55.66a3.25,3.25,0,0,1,.29.4l0,0-.06.13a4.69,4.69,0,0,1-.35.73l-.77,1.18C50.29,60,49,61.91,47.72,63.72a2.19,2.19,0,0,1-1.29.83h-.1a.64.64,0,0,1-.34-.07.67.67,0,0,1,.15-.37c1.7-2.56,3.6-5.27,5.8-8.3a.94.94,0,0,1,.42-.15m-.41.13h0m.44-.94a1.54,1.54,0,0,0-1.09.46c-2,2.75-3.95,5.52-5.83,8.35-.66,1-.1,1.7.86,1.7h.16a3,3,0,0,0,1.88-1.16C50,62,51.44,59.68,52.94,57.4A11.55,11.55,0,0,0,53.6,56c-.31-.39-.57-1-1-1.12a.74.74,0,0,0-.24,0Z"/><path class="cls-3" d="M98.84,55.45h0m-.17.22.13,0c1.85,2.52,3.68,5.11,5.45,7.62l.6.84,0,.08-.1.14-.43,0a1.83,1.83,0,0,1-.36,0c-1.9-2.65-3.78-5.42-5.58-8.23a2.8,2.8,0,0,1,.27-.49m-.15-.82a.41.41,0,0,0-.29.07c-.35.4-.8,1.21-.63,1.48q2.78,4.36,5.8,8.57c.14.2.53.26.94.26a5.5,5.5,0,0,0,.71-.05c.28,0,.49-.52.71-.77a3,3,0,0,0-.24-.68c-2-2.88-4.05-5.76-6.14-8.6a1.3,1.3,0,0,0-.86-.28Z"/><path class="cls-3" d="M112.64,72.77l4.34,2,.92.41-.62.27-4.57,2a4.43,4.43,0,0,1-.05-.55c0-1.12,0-2.25,0-3.56v-.5m-.8-1.24c0,2.14,0,3.73,0,5.31,0,.45.11.89.21,1.7l7.12-3.08v-.63l-7.34-3.31Z"/><path class="cls-3" d="M87.7,96.26c.79.8,2.06,2.17,1.92,2.83S88,100.43,87,100.84c-1.28-1.3-1.87-2.25-1.75-2.83s.93-1.13,2.44-1.74m.2-.94c-4.27,1.6-4.53,3.13-1.07,6.46,4.53-1.84,4.7-2.88,1.07-6.46Z"/><path class="cls-3" d="M38.44,72.47l-.1,2.18-.1,2.19L33.5,74.71l1.89-.86,3-1.39m.86-1.28-7,3.2-.08.61L39,78.06l.31-6.87Z"/><path class="cls-3" d="M72.55,112.76l1.34.09,3.08.21-2.19,4.62-1.07-2.34-1.17-2.57m-1.29-.89,3.52,7.72,3.43-7.25-6.95-.47Z"/><path class="cls-3" d="M75.46,33.76l1.27,2.79.78,1.72H73.29L74,36.79l1.46-3m0-1.9L72,39.07h6.74l-3.28-7.21Z"/><path class="cls-3" d="M64.13,50.24l1.8,3.16-.68.41L63.35,55,62.19,53l-.74-1.24.12-.07,2.57-1.48m.3-1.1-4.1,2.36,2.74,4.57L67,53.68l-2.59-4.54Z"/><path class="cls-3" d="M62.85,96.25l2.6,1.52-1.81,2.95-.8-.37a8.2,8.2,0,0,1-1.88-1,9.53,9.53,0,0,1,1.27-2.17l.62-.93m-.25-1.08C59.25,100.33,59,99.4,64,101.75l2.62-4.26-4-2.32Z"/><path class="cls-3" d="M87.07,50.48l.14.07a7.88,7.88,0,0,1,2.26,1.28A8.48,8.48,0,0,1,88.1,54.3l-.35.54-.81-.38a6.5,6.5,0,0,1-1.77-1c-.05-.33.86-1.57,1.91-3m-.25-1c-3.7,4.89-3.2,4.2,1.21,6.39,3.06-4.73,3.3-4.23-1.21-6.39Z"/><path class="cls-3" d="M101.35,73.33a1.35,1.35,0,0,1,.92.22c.12.12.26.43.24,1.2,0,1.73-.35,1.73-.63,1.73a2.47,2.47,0,0,1-.63-.1l-.21,0h-.23c-.28,0-.55,0-.78,0-.41,0-.52-.07-.54-.1s-.14-.17-.12-.8v-.33a7.58,7.58,0,0,1,.16-1.68,6,6,0,0,1,1.32-.15h.48m-1.79.15h0m1.79-1H101c-2.37.14-2.27.07-2.4,2.94-.07,1.46.55,1.73,1.46,1.73.31,0,.65,0,1-.06a3.22,3.22,0,0,0,.85.13c1.18,0,1.41-1,1.43-2.52,0-1.65-.53-2.23-2-2.23Z"/><path class="cls-3" d="M49.17,73.66h0a3.29,3.29,0,0,1,.63.07l.16,0h.13a3.27,3.27,0,0,1,.52,0c.47,0,.8,0,.84,1.52a1.9,1.9,0,0,1-.27,1.29c-.21.21-.69.32-1.53.32h0c-1.15,0-1.29-.18-1.3-1.62,0-.89.16-1.24.3-1.37s.16-.16.57-.16m0-.8c-1.22,0-1.68.79-1.67,2.34s.26,2.42,2.1,2.42h.05c1.81,0,2.64-.43,2.6-2.43,0-1.47-.37-2.31-1.64-2.31a4,4,0,0,0-.65.06,4.05,4.05,0,0,0-.78-.09Z"/><path class="cls-3" d="M54.66,84h0a3.7,3.7,0,0,0-3.39,3.55,3.49,3.49,0,0,0,3.4,3.35h.11a3.31,3.31,0,0,0,3.11-3.47A3.55,3.55,0,0,0,54.66,84Zm-.06,5.79h-.08A2.61,2.61,0,0,1,52,87.19a2.52,2.52,0,0,1,2.59-2.35h0a2.49,2.49,0,1,1-.07,5Z"/><path class="cls-3" d="M54.64,59.72a3.47,3.47,0,0,0-3.42,3.4,3.75,3.75,0,0,0,3.4,3.32h0A3.48,3.48,0,0,0,58,63.06a3.34,3.34,0,0,0-3.28-3.34Zm-.05,6.07H54.5a2.61,2.61,0,0,1-2.45-2.66,2.57,2.57,0,0,1,2.49-2.38h.22a2.36,2.36,0,0,1,2.32,2.52,2.54,2.54,0,0,1-2.5,2.52Z"/><path class="cls-3" d="M96.34,84.28h-.09A3.23,3.23,0,0,0,93,87.4a3.48,3.48,0,0,0,3.36,3.53h0a3.36,3.36,0,0,0,3.32-3.3,3.15,3.15,0,0,0-3.32-3.35Zm-.08,5.53a2.39,2.39,0,0,1-2.43-2.41,2.43,2.43,0,0,1,2.38-2.68h.18a2.52,2.52,0,0,1,2.47,2.44,2.62,2.62,0,0,1-2.6,2.66Z"/><path class="cls-3" d="M96.32,59.73h0A3.38,3.38,0,0,0,93,63a3.53,3.53,0,0,0,3.26,3.4h.05a3.43,3.43,0,0,0,3.35-3.24,3.38,3.38,0,0,0-3.35-3.47Zm-.09,6.06a2.55,2.55,0,0,1,0-5.09h.05a2.74,2.74,0,0,1,2.63,2.46,2.79,2.79,0,0,1-2.68,2.63Z"/><path class="cls-3" d="M47.73,100.73l1.64,1.46-2.21,1-.66.3.43-1,.8-1.8m-.29-1.33-2.23,5,.43.37,5.18-2.35-3.39-3Z"/><path class="cls-3" d="M46.44,46.48l2.7,1.27-1.39,1.7-1.31-3m-.81-1.27-.41.48L47.54,51l2.87-3.52-4.78-2.26Z"/><path class="cls-3" d="M102.84,100.85l1.36,2.67-1.46-.62-1.34-.57.78-.8.66-.67m.21-1.36-3,3.11,5.12,2.18.42-.41L103,99.49Z"/><path class="cls-3" d="M104.18,46.58l-.49,1-.8,1.65-.79-.74-.71-.66,2.16-1,.64-.29m1-1.34L99.95,47.6l3.18,3,2.45-5-.37-.31Z"/><path class="cls-3" d="M67.15,96a.64.64,0,0,1-.25,0,24.75,24.75,0,0,1-3.24-1.66c-.44-.27-.47-1.14-.32-1.51a1.65,1.65,0,0,1,.69-.7l.29-.21a.4.4,0,0,1,.44,0l.9.47c.89.46,1.73.9,2.54,1.41a.69.69,0,0,1,.29.46,1.69,1.69,0,0,1-.14,1.13A1.71,1.71,0,0,1,67.15,96Zm-3-2.37a23.9,23.9,0,0,0,3.06,1.57,1,1,0,0,0,.5-.32,1.06,1.06,0,0,0,0-.52c-.77-.47-1.57-.89-2.42-1.33l-.68-.36-.13.09a1.31,1.31,0,0,0-.39.33A1,1,0,0,0,64.11,93.62Zm0,0Z"/><path class="cls-3" d="M82.93,95.88c-.28,0-.43-.33-.71-.94-.18-.39-.32-.7,0-.89A34.51,34.51,0,0,1,86,92c.38-.17.8.05,1.2.27a4,4,0,0,0,.39.19.4.4,0,0,1,.24.49l-.32,1a.4.4,0,0,1-.24.25l-.58.23c-1.18.47-2.4,1-3.63,1.39Zm0-1.31.2.42c1.11-.39,2.22-.84,3.29-1.27l.4-.16L87,93,86.84,93a2.06,2.06,0,0,0-.52-.23h0A32.57,32.57,0,0,0,82.93,94.57Zm4.22-.71h0Z"/><path class="cls-3" d="M68.64,93a2.25,2.25,0,0,1-1.17-.42c-.25-.16-.52-.3-.81-.45a7.21,7.21,0,0,1-1.28-.78,1.84,1.84,0,0,1-.51-1,3.94,3.94,0,0,0-.11-.39.4.4,0,0,1,.27-.52,3.94,3.94,0,0,0,.4-.15,1.63,1.63,0,0,1,1.2-.17A21.45,21.45,0,0,1,69,90.23l.93.51a.4.4,0,0,1,.2.43c-.19.95-.51,1.49-1,1.7A1.14,1.14,0,0,1,68.64,93Zm-3-3,0,.08a1.46,1.46,0,0,0,.24.61,6.51,6.51,0,0,0,1.14.68c.29.15.59.3.87.49s.65.36.88.27.3-.22.47-.83l-.67-.37a20.85,20.85,0,0,0-2.24-1.15,1.68,1.68,0,0,0-.59.17Z"/><path class="cls-3" d="M81.93,93.05a.4.4,0,0,1-.25-.09l-.25-.17a1.62,1.62,0,0,1-.68-.67c-.16-.37-.19-1.25.25-1.52a24.84,24.84,0,0,1,3.22-1.67c.46-.2,1.21.27,1.44.67a1.37,1.37,0,0,1-.28,1.53c-.75.49-1.52.91-2.35,1.36l-.91.5A.4.4,0,0,1,81.93,93.05Zm-.45-1.79a1.09,1.09,0,0,0,0,.55,1.22,1.22,0,0,0,.38.31l.09.06.69-.38c.8-.43,1.55-.85,2.26-1.31A.87.87,0,0,0,85,90a1,1,0,0,0-.47-.3A24,24,0,0,0,81.48,91.26Z"/><path class="cls-3" d="M84.28,62.26A.79.79,0,0,1,84,62.2a16.56,16.56,0,0,1-2.81-1.63c-.43-.3-.42-1.1-.34-1.44a1.27,1.27,0,0,1,.55-.69l.25-.21a.4.4,0,0,1,.47-.06l.88.47c.88.47,1.7.91,2.51,1.42a.83.83,0,0,1,.32.65,1.31,1.31,0,0,1-.22,1A2,2,0,0,1,84.28,62.26ZM81.93,59l-.08.06a1.43,1.43,0,0,0-.26.24,1.14,1.14,0,0,0,.05.62,16,16,0,0,0,2.65,1.53,1.33,1.33,0,0,0,.67-.32,1.07,1.07,0,0,0,0-.44c-.76-.48-1.55-.9-2.39-1.35Zm3,2.15Z"/><path class="cls-3" d="M66,61.95a.42.42,0,0,1-.41-.36c-.15-.51-.25-1.16.1-1.37a34.54,34.54,0,0,1,3.54-1.84c.34-.15.6.1,1,.49.16.15.34.33.55.51a.4.4,0,0,1,0,.64l-.84.58a10.54,10.54,0,0,1-1.75,1.09,4.33,4.33,0,0,1-1.77.26H66Zm.26-1.13c0,.09,0,.22,0,.32h.07A3.76,3.76,0,0,0,67.8,61a9.84,9.84,0,0,0,1.62-1l.43-.31-.2-.19-.28-.26A33.8,33.8,0,0,0,66.24,60.82Z"/><path class="cls-3" d="M85.51,59a.72.72,0,0,1-.38-.1A20.06,20.06,0,0,1,83,57.31l-.78-.63a.4.4,0,0,1,.2-.71c.18,0,.38-.07.59-.11a2.8,2.8,0,0,1,1.55-.06,8.92,8.92,0,0,1,1.91,1.06l.62.4a.4.4,0,0,1,.19.4c0,.2,0,.34-.06.43s-.05.42-.31.51-.28.1-.42.17A2.56,2.56,0,0,1,85.51,59Zm-2.17-2.45.12.1a19.69,19.69,0,0,0,2.06,1.55,2.58,2.58,0,0,0,.6-.21l.27-.11v-.11L86,57.52a8.19,8.19,0,0,0-1.74-1A1.82,1.82,0,0,0,83.34,56.59Z"/><path class="cls-3" d="M65.23,59.35a.4.4,0,0,1-.24-.08l-.27-.17a1.41,1.41,0,0,1-.7-.68,1.45,1.45,0,0,1,.38-1.5,21.51,21.51,0,0,1,3-1.55,1.41,1.41,0,0,1,1.45.58,1.38,1.38,0,0,1-.23,1.56c-.75.48-1.53.89-2.35,1.33l-.88.47A.4.4,0,0,1,65.23,59.35Zm2.5-3.23h0a21.12,21.12,0,0,0-2.89,1.49,1.1,1.1,0,0,0,0,.55,1.48,1.48,0,0,0,.35.25l.12.07.68-.36c.79-.42,1.54-.82,2.25-1.26a.92.92,0,0,0,0-.5A.87.87,0,0,0,67.73,56.12Z"/><path class="cls-3" d="M53.66,73.14c0,1.31,0,2.63,0,3.94,0,.15.36.43.52.43h0c.26-.08.65-.35.66-.56.06-1.26,0-2.52,0-3.78l-1.27,0Z"/><path class="cls-3" d="M96.85,72.77h-.62v4.31h.62V72.77Z"/><path class="cls-3" d="M54.57,88.57a1.64,1.64,0,0,1-.93-.46c-.14-.11-.3-.23-.47-.34a.4.4,0,0,1,0-.65c.17-.14.32-.29.46-.43.36-.36.65-.64,1-.57a1.83,1.83,0,0,1,.93.69c.09.1.17.2.26.28a.4.4,0,0,1,0,.59c-.08.08-.16.17-.24.26a1.52,1.52,0,0,1-.9.62ZM54,87.39l.1.08a1.94,1.94,0,0,0,.45.3,1.75,1.75,0,0,0,.37-.36l0,0,0,0a2,2,0,0,0-.43-.41,4,4,0,0,0-.35.33Z"/><path class="cls-3" d="M54.6,64.38a.48.48,0,0,1-.18,0,2,2,0,0,1-1.14-1.25c-.09-.37.19-.66.54-1,.15-.16.31-.33.47-.53a.4.4,0,0,1,.66,0c.13.21.26.39.37.55a1.87,1.87,0,0,1,.49,1.09c0,.51-.7,1-.73,1A.89.89,0,0,1,54.6,64.38ZM54.08,63a1.32,1.32,0,0,0,.53.57,1.29,1.29,0,0,0,.4-.41,2.39,2.39,0,0,0-.35-.56l-.1-.15-.16.17A4.27,4.27,0,0,0,54.08,63Z"/><path class="cls-3" d="M96.4,88.73h0a.4.4,0,0,1-.29-.15c-.08-.1-.18-.2-.27-.3a2.1,2.1,0,0,1-.64-1c-.06-.38.25-.68.61-1,.15-.14.3-.28.43-.43a.41.41,0,0,1,.32-.13.4.4,0,0,1,.3.16c.12.17.26.33.4.48.34.39.62.7.5,1.07a2.2,2.2,0,0,1-.75.95c-.1.09-.21.18-.3.28A.4.4,0,0,1,96.4,88.73ZM96,87.18a2,2,0,0,0,.41.54l0,0,0,0a2.15,2.15,0,0,0,.48-.51,4.13,4.13,0,0,0-.31-.38l-.14-.17-.15.15A3.72,3.72,0,0,0,96,87.18Z"/><path class="cls-3" d="M96.43,64.55h0c-.42,0-.79-.47-.9-.61a.91.91,0,0,1-.24-.76c.13-.48.69-1.2,1.26-1.25.4,0,.71.25,1.11.6.17.15.36.32.58.49a.4.4,0,0,1-.05.67c-.24.13-.45.26-.63.38A2.15,2.15,0,0,1,96.43,64.55Zm0-.8Zm-.4-.42a1.24,1.24,0,0,0,.38.42,2.11,2.11,0,0,0,.66-.34l.17-.11-.18-.16a2.33,2.33,0,0,0-.52-.4A1.21,1.21,0,0,0,96.07,63.33Zm0,0Z"/></g></g></g></svg>
