<svg xmlns="http://www.w3.org/2000/svg" viewBox="0 0 150.51 150.51"><defs><style>.cls-1{opacity:0.5;}.cls-2{fill:#807c66;}.cls-3{fill:none;}</style></defs><title>Recurso 1icon</title><g id="Capa_2" data-name="Capa 2"><g id="Capa_1-2" data-name="Capa 1"><g id="CXo9KH" class="cls-1"><path class="cls-2" d="M85.22,37.63a7.29,7.29,0,0,0,1.63-.92,51.92,51.92,0,0,1,33-15.09,48.79,48.79,0,0,1,8.92,0c4.26.45,5.48,3.45,2.64,6.69a50.31,50.31,0,0,1-26.94,16.46,47.22,47.22,0,0,1-17.59.9c-2.92-.43-7.24,2.07-8.44,4.74-1.45,3.23-2.85,6.49-4.14,9.78A5,5,0,0,0,74.09,63,65.58,65.58,0,0,0,80.7,80.72c.67,1.2,1.22,1.62,2.75,1.18,6.09-1.72,11.6,0,16.47,3.68,7.47,5.6,11.93,12.95,11.78,22.55-.16,9.93-8.25,16.08-17.9,13.74-11.68-2.83-21-15.55-19.87-27.5.25-2.59,1.75-5,2.6-7.58a3.14,3.14,0,0,0,.17-2c-1.78-4.06-3.67-8.08-5.53-12.11a11.16,11.16,0,0,0-.78-1.11c-1,4.51-2.21,8.56-2.87,12.69-.85,5.34-1.34,10.74-1.86,16.13a2.57,2.57,0,0,0,1,2.12c7.79,3.62,11.56,10.17,13.2,18.15a26.39,26.39,0,0,1-2.06,17.68c-5,9.93-15.78,11.89-23.92,4.29-4.84-4.51-7.24-10.3-8-16.78a27.07,27.07,0,0,1,1.67-13.72,16.53,16.53,0,0,1,10.6-9.91c1.41-.44,1.82-1.12,2-2.59.88-7.09,1.9-14.17,3-21.22a3,3,0,0,0-1-3c-2.07-2-4.57-2.82-7.27-3.64-15.21-4.59-26.39-14.2-34-28.06a47.82,47.82,0,0,1-3.51-8c-1.26-3.84.56-6.15,4.47-5.21a56,56,0,0,1,12.2,4.6A58.18,58.18,0,0,1,60.51,62.23c.84,1.73,1.16,3.7,1.94,5.46A21.41,21.41,0,0,0,64.87,71c.75-2.26,1.25-3.89,1.82-5.5,1.11-3.14,2.26-6.27,3.37-9.41.2-.57.56-1.47.31-1.73-1.66-1.84-3.15-4.37-5.26-5.17-13.73-5.15-24-14.07-30.64-27.1A79.2,79.2,0,0,1,29.13,8c-1.18-4.17,1.44-6.22,5.63-4.72C42.17,5.87,48.33,10.51,54,15.86A57.73,57.73,0,0,1,69.21,40.63a8.3,8.3,0,0,1,.62,2.83c-.14,2.54,1.47,3.86,3.3,5.38.41-.81.7-1.49,1.08-2.13,4.14-7.07,8.24-14.16,12.45-21.19,1.2-2,2.91-2.41,4.34-1.37s1.37,2.57.15,4.43c-2,3-3.93,6.07-5.89,9.11,0,.37,0,.74-.07,1.1l-.14-.07.1.09ZM51.07,122.49c0,6.16,2.42,12.26,6.32,16.05,5.33,5.17,11.88,4.24,15.26-2.39a21,21,0,0,0,2.16-7.31c.73-7.42-1.23-14.09-6.94-19.2-4.79-4.28-10.57-3.32-14,2.12A19.74,19.74,0,0,0,51.07,122.49Zm55.3-15.1c0-9.21-7.85-18.8-16.83-20.56a8.25,8.25,0,0,0-10.09,6.92c-1.64,9,5.92,20.33,15.11,22.71C101.42,118.23,106.37,114.43,106.37,107.39ZM35.22,9.46C36.51,21,53.63,40.67,63.84,42.55,62.82,32,46.38,12.87,35.22,9.46ZM23.73,36.31C25.91,47.46,46.82,66.45,56.27,66,49.63,51.52,38.68,41.94,23.73,36.31Zm67.05,4.18c10.5,1.69,30.38-6.39,34.22-13.74C111.87,26.91,100.57,31.13,90.78,40.49Z"/><path class="cls-2" d="M56.66,123.73c0-1-.12-1.36,0-1.63a20.49,20.49,0,0,1,1.19-1.88,10.29,10.29,0,0,1,.87,2,9.33,9.33,0,0,1,.2,2.67,6.63,6.63,0,0,1-.64,1.75c-.5-.46-1.18-.83-1.46-1.4A3.16,3.16,0,0,1,56.66,123.73Z"/><path class="cls-2" d="M84.1,99.93c.8-.85,1.21-1.67,1.75-1.76a2.23,2.23,0,0,1,1.84.83,38.63,38.63,0,0,1,2.82,5.22,2.14,2.14,0,0,1-.32,2,2,2,0,0,1-2,0C86.79,104.26,85.54,102.16,84.1,99.93Z"/><path class="cls-2" d="M43,18.41c.92.61,1.83,1.25,2.77,1.83,5.5,3.37,7.79,6.41,9.74,13.2-4.25-4.86-8.21-9.37-12.14-13.91-.23-.27-.23-.74-.33-1.12Z"/><path class="cls-2" d="M43.07,18.41l-.14.1.1-.09Z"/><path class="cls-2" d="M34.3,46a16.38,16.38,0,0,1,9.89,5.83c1.86,2.33,3,5.23,4.46,7.87l.08,0L34.25,45.94Z"/><path class="cls-2" d="M48.65,59.7l.13-.06-.05.09Z"/><path class="cls-2" d="M34.25,45.94h.12l-.07.06Z"/><path class="cls-2" d="M96.9,37.76c1.1-.84,2.25-1.61,3.29-2.52,4.22-3.66,9.24-4.3,14.65-3.67-3,1.14-6,2.35-9,3.38s-5.91,1.82-8.87,2.72Z"/><path class="cls-2" d="M96.95,37.68l0,.14-.07-.07Z"/></g><rect class="cls-3" width="150.51" height="150.51"/></g></g></svg>
