<svg xmlns="http://www.w3.org/2000/svg" viewBox="0 0 106.6 28.52"><defs><style>.cls-1{fill:#807c66;}</style></defs><title>Recurso 14</title><g id="Capa_2" data-name="Capa 2"><g id="Capa_1-2" data-name="Capa 1"><g id="_0CftmR" data-name="0CftmR"><path class="cls-1" d="M52.62.15h20l12,0h19.1c.39,0,.77,0,1.16,0,.21,0,.27.08.27.28q0,4.19,0,8.37,0,4.85,0,9.7,0,2.49,0,5c0,.18-.06.24-.23.26l-4.25.49c-1.2.14-2.4.28-3.59.4l-5.64.54c-1.56.15-3.12.29-4.68.42s-3.14.24-4.71.35l-5.35.36-3.48.2c-2,.1-4,.21-6,.3q-2.33.1-4.67.14c-3.21.06-6.43.13-9.64.14-2.48,0-5-.08-7.43-.13-1.17,0-2.34,0-3.51-.08q-4.29-.19-8.58-.41-3-.16-6-.35c-1.63-.11-3.25-.25-4.88-.37l-3.69-.29c-1.59-.13-3.17-.26-4.76-.41s-3.22-.31-4.84-.48l-5-.53L.37,23.65c-.2,0-.3-.08-.3-.3q0-6.9,0-13.79c0-3.08,0-6.15,0-9.23C.12.17.08,0,.35,0l9,0,11.88,0H33.36l10.42,0h8.84ZM67,17.36l0,.07a1.48,1.48,0,0,1-.27.14c-.16,0-.32.07-.49.1a5.19,5.19,0,0,1-4.08-.8c-.12-.08-.33-.16-.41-.11a.6.6,0,0,0-.22.43c0,.63,0,1.25,0,1.88a.77.77,0,0,0,.24.53,4.84,4.84,0,0,0,2.89,1.11c.88,0,1.77,0,2.65,0a5.33,5.33,0,0,0,1.3-.18,3.79,3.79,0,0,0,2.17-1.57,4,4,0,0,0,.58-2.29q0-4.17,0-8.35c0-.64-.26-.9-.91-.9H66a5.78,5.78,0,0,0-2.33.36A4.67,4.67,0,0,0,61,10.61a5.65,5.65,0,0,0-.24,2.21,4.64,4.64,0,0,0,2.56,4,5,5,0,0,0,2.63.51ZM34.19,11.54l.29-.15a2.92,2.92,0,0,0,1.23-1.23,3.1,3.1,0,0,0,0-3.24,2.87,2.87,0,0,0-2.33-1.52c-.68,0-1.36,0-2,0H26c-.2,0-.46,0-.51.23s.12.33.24.45a1.41,1.41,0,0,1,.42,1c0,.64,0,1.29,0,1.93q0,4.09,0,8.18c0,.57.22.79.78.79h6.16a3.14,3.14,0,0,0,1.68-.48,3.36,3.36,0,0,0,0-5.71C34.59,11.71,34.42,11.65,34.19,11.54ZM54.3,5.41H51.79a1.77,1.77,0,0,0-.36,0c-.32.07-.39.31-.18.55.08.09.17.17.26.25a1,1,0,0,1,.31,1.06c-.23.9-.49,1.79-.73,2.69L50,14.12c-.28,1-.53,2.09-.86,3.11-.19.59.1.82.61.8.76,0,1.53,0,2.29,0,.51,0,.66-.12.8-.61s.26-.94.38-1.41a.27.27,0,0,1,.31-.23h3.09a.29.29,0,0,1,.33.24c.14.5.29,1,.44,1.48a.63.63,0,0,0,.73.55h2.54c.36,0,.57-.23.48-.53q-.38-1.33-.77-2.65L59,10.43Q58.4,8.22,57.74,6a.74.74,0,0,0-.81-.6Zm33.82,6.79h0q0-2,0-4c0-.63-.18-.81-.82-.81H85c-.58,0-.76.16-.77.74,0,1.59,0,3.19,0,4.78a6.31,6.31,0,0,1-.11,1.37,1.11,1.11,0,0,1-1.59.68,1.16,1.16,0,0,1-.67-1.14q0-2.87,0-5.75c0-.51-.18-.68-.68-.69H79.8c-.69,0-1.38,0-2.07,0a.64.64,0,0,0-.45.2c0,.06.09.28.16.42a.66.66,0,0,0,.15.16,1.15,1.15,0,0,1,.39.88c0,1.9,0,3.79,0,5.69A3.23,3.23,0,0,0,81.08,18c2.41,0,4.83,0,7.24,0a1.66,1.66,0,0,0,.38,0,.26.26,0,0,0,.15-.45,1.86,1.86,0,0,0-.21-.21,1.42,1.42,0,0,1-.51-1.06C88.12,14.94,88.13,13.57,88.13,12.19Zm2.12,1.73h0c0,.47,0,.94,0,1.41s0,.94,0,1.41A1.69,1.69,0,0,0,92,18.34c.76-.06,1.53,0,2.29,0a2.31,2.31,0,0,0,.41,0c.26,0,.34-.22.18-.44a1.41,1.41,0,0,0-.27-.28,1.12,1.12,0,0,1-.43-1c0-1.82,0-3.65,0-5.47,0-.2.06-.3.26-.34a.71.71,0,0,0,.56-.51c.15-.58.29-1.16.4-1.75A.46.46,0,0,0,94.93,8a1.94,1.94,0,0,0-.44,0c-.26,0-.35-.08-.33-.33a3.93,3.93,0,0,0,0-.63,1.76,1.76,0,0,0-1.73-1.57c-.75,0-1.51,0-2.27,0a1.84,1.84,0,0,0-.46,0c-.29.08-.36.32-.13.51a1.82,1.82,0,0,1,.68,1.76.31.31,0,0,1-.17.22.84.84,0,0,0-.67.69l-.27,1.1c-.23.94-.12,1.08.85,1.06.2,0,.26.07.26.26C90.24,12,90.24,13,90.24,13.92ZM72.3,12.24h0c0,.55,0,1.1,0,1.66,0,1.15,0,2.3,0,3.45a.61.61,0,0,0,.62.69h2.65a.61.61,0,0,0,.57-.32,1.08,1.08,0,0,0,.09-.48q0-2.87,0-5.75c0-1.41,0-2.82,0-4.23a1.73,1.73,0,0,0-1.61-1.83c-.89,0-1.79,0-2.68,0a.52.52,0,0,0-.4.21c0,.1.07.31.18.41a1.74,1.74,0,0,1,.6,1.39C72.28,9.05,72.3,10.65,72.3,12.24Zm-31.48.81h0c0-1.39,0-2.78,0-4.17,0-.58-.21-.81-.79-.81-.77,0-1.55,0-2.32,0a.73.73,0,0,0-.82.82c0,1.26,0,2.52,0,3.78,0,1.53,0,3.06,0,4.58,0,.51.23.74.72.75H40c.56,0,.77-.24.77-.8Q40.82,15.12,40.82,13.05Zm-20.1-.35a8.23,8.23,0,0,0-16.46-.06,8.33,8.33,0,0,0,8.37,8.27A8.35,8.35,0,0,0,20.72,12.71Zm24.87.58h1.93a.64.64,0,0,0,.69-.71c0-.44,0-.88,0-1.33,0-.62-.21-.83-.82-.83H43.75c-.54,0-.75.21-.76.75s0,.92,0,1.38a.66.66,0,0,0,.76.74ZM37.95,5.4h0c-.49,0-1,0-1.46,0a.5.5,0,0,0-.37.21c0,.08.06.29.15.37a1.79,1.79,0,0,1,.68,1.27.54.54,0,0,0,.59.5h2.68a.55.55,0,0,0,.61-.65,2.28,2.28,0,0,0-.24-.81,1.52,1.52,0,0,0-1.4-.9ZM98.27,7.67a1.42,1.42,0,0,0-1.44-1.36,1.46,1.46,0,0,0-1.37,1.37A1.43,1.43,0,0,0,96.87,9,1.41,1.41,0,0,0,98.27,7.67Z"/><path class="cls-1" d="M106.33.14a11.79,11.79,0,0,1,.26,1.75q0,10.36,0,20.73c0,.49,0,1-.05,1.46a1.07,1.07,0,0,1-.93,1,23.8,23.8,0,0,1-4.14.56c-.43,0-.86.12-1.28.17l-2.9.28c-.94.1-1.87.22-2.81.31-.77.08-1.54.12-2.31.19l-2.46.25c-.24,0-.48,0-.72,0l-2.2.15-3.1.26-1.76.13c-1.14.08-2.27.18-3.41.25-.74,0-1.48.06-2.23.09l-2,.12L72.07,28l-1.74.09L68,28.23c-1,0-1.93.1-2.89.13-.77,0-1.54,0-2.32,0-1.88,0-3.77.08-5.65.11-1.6,0-3.2,0-4.8,0-1.24,0-2.48,0-3.73,0l-5.18-.11q-1.59,0-3.17-.11l-4.19-.21-2.7-.12-1.85-.07-1.65-.11-3.13-.26-2.7-.18-.87-.08c-1.36-.1-2.73-.2-4.09-.31s-2.43-.25-3.64-.36c-.57-.05-1.14-.08-1.71-.13l-2.6-.27-3.1-.33-3.7-.43c-.85-.1-1.7-.18-2.54-.3A4.18,4.18,0,0,1,0,24.43l.65.05,3.29.4,3.18.36,3.4.37,3,.29,2.55.25,2.91.25,3,.25,3.27.24,2.75.2,2,.13,2.31.13,2.73.14,2.73.14c1.41.06,2.81.12,4.22.16q3.76.1,7.51.16c1.8,0,3.59.06,5.39,0,2.66,0,5.32-.09,8-.15q2.71-.06,5.41-.17c1.75-.07,3.49-.17,5.24-.26s3.36-.18,5-.29c1.5-.09,3-.21,4.49-.32l3.25-.23L90,26.25l3.38-.3,3.73-.37,3.89-.4,3.23-.37c.52-.06,1-.12,1.56-.17s.41-.05.41-.42c0-.75,0-1.49,0-2.24q0-3.3,0-6.6,0-2.14,0-4.28,0-3.83,0-7.66,0-1.64,0-3.28Z"/><path class="cls-1" d="M64.35,12.41a1.93,1.93,0,0,1,.91-1.77,1.41,1.41,0,0,1,1.87.45,2.38,2.38,0,0,1,0,2.72,1.46,1.46,0,0,1-2.45-.2A2.23,2.23,0,0,1,64.35,12.41Z"/><path class="cls-1" d="M30.79,8.55c.23,0,.46,0,.69,0a.79.79,0,0,1,.83.81.75.75,0,0,1-.79.81c-.49,0-1,0-1.46,0-.16,0-.21-.07-.21-.22,0-.4,0-.81,0-1.21,0-.17.09-.22.24-.22h.69Z"/><path class="cls-1" d="M30.78,14.9h-.72c-.15,0-.22-.06-.22-.21,0-.4,0-.81,0-1.21,0-.16.06-.23.23-.23.48,0,1,0,1.43,0a.76.76,0,0,1,.79.81.79.79,0,0,1-.8.81c-.24,0-.48,0-.72,0Z"/><path class="cls-1" d="M55.74,12H54.27l.67-2.6H55Z"/><path class="cls-1" d="M5,12.66a7.46,7.46,0,0,1,7.53-7.51,7.53,7.53,0,1,1-.21,15.06A7.45,7.45,0,0,1,5,12.66ZM17.68,16.4l-.09-.11-.31.17a2.28,2.28,0,0,1-1.65.38,1.08,1.08,0,0,1-.83-.57c-.61-1.14-1.23-2.28-1.85-3.42a.45.45,0,0,1,0-.49,2.4,2.4,0,0,0,.26-1.11c-.41,0-.56.39-.84.58-.06-.1-.12-.19-.17-.27-.53-1-1-1.92-1.58-2.88A1.32,1.32,0,0,0,9.42,8,3.58,3.58,0,0,0,7.17,9s0,.11,0,.17a.51.51,0,0,0,.2,0c.22-.11.43-.25.65-.35a1.61,1.61,0,0,1,2.27.81c.45.89.93,1.78,1.38,2.67.19.37.29.42-.15.72A27.24,27.24,0,0,0,7.1,16.88.45.45,0,0,0,7,17.3a.5.5,0,0,0,.38.23c.12,0,.27-.15.34-.28a4.26,4.26,0,0,1,1.91-1.84,3.55,3.55,0,0,1,.37-.12A4.14,4.14,0,0,0,9.36,18a5.43,5.43,0,0,0,.9-.73.81.81,0,0,0,.19-.44,5,5,0,0,1,.9-2.26c.09-.13.16-.27.28-.48l-.83.19,0-.07,1.11-.75c.18-.12.27-.1.38.1.61,1.08,1.23,2.16,1.88,3.21a1.49,1.49,0,0,0,1.29.77,3,3,0,0,0,1.88-.81A4.4,4.4,0,0,0,17.68,16.4Zm-.17-6.27a2.92,2.92,0,0,0-1.35-.1,2.14,2.14,0,0,0-.62.37c-.19.14-.09.23.08.27l.78.15A1.18,1.18,0,0,0,17.52,10.13Zm-1.11,1c-.85-.29-1.58-.33-1.93.33C15.14,11.93,16.22,11.75,16.41,11.11Zm1-1.31a1.31,1.31,0,0,0,1.19-.73c0-.08.1-.24.06-.26a.44.44,0,0,0-.3-.09,1.65,1.65,0,0,0-1.14.54,2.62,2.62,0,0,0-.26.43Zm0-1.39c-.18,0-.28,0-.38,0a1.25,1.25,0,0,0-1,1.19c0,.07,0,.17,0,.2a.26.26,0,0,0,.2,0C16.87,9.62,17.08,9,17.38,8.42Zm-3,1.8c-.67.09-1,.91-.86,1.65C14.11,11.77,14.47,11.1,14.36,10.21ZM15,11.91c-.81-.21-1.72.07-1.8.55C14.08,12.72,14.88,12.49,15,11.91Zm-.42-1.1c.8-.21.92-.86,1.14-1.49a1,1,0,0,0-.83.31A1.18,1.18,0,0,0,14.62,10.81Z"/><path class="cls-1" d="M96.87,8.72a1,1,0,0,1-1-1,1,1,0,0,1,1-1.08,1,1,0,0,1,1,1.07A1,1,0,0,1,96.87,8.72Zm-.56-1.05h0c0,.21,0,.42,0,.63,0,0,.08.11.14.13s.1-.06.12-.11a1,1,0,0,0,0-.19c0-.1.06-.2.09-.29A1.83,1.83,0,0,1,97,8c.1.11.17.26.27.37s.12,0,.17,0,0-.1,0-.14a.62.62,0,0,0-.1-.16c-.13-.16-.17-.29,0-.45A.38.38,0,0,0,97.31,7a2,2,0,0,0-.87-.06c-.06,0-.09.35-.12.54A1.06,1.06,0,0,0,96.32,7.67Z"/><path class="cls-1" d="M96.84,7.65c-.1-.13-.2-.2-.22-.28a.17.17,0,0,1,.23-.21,1.38,1.38,0,0,1,.34.21Z"/></g></g></g></svg>
