<svg xmlns="http://www.w3.org/2000/svg" viewBox="0 0 75.9 19.96"><defs><style>.cls-1{fill:#807c66;}</style></defs><title>Recurso 3</title><g id="Capa_2" data-name="Capa 2"><g id="Capa_1-2" data-name="Capa 1"><g id="Fp6GVj"><path class="cls-1" d="M42.62,15.11c0,.5,0,1,0,1.56A1.4,1.4,0,0,1,41.5,17.9a4.3,4.3,0,0,1-3.56-.37,1.51,1.51,0,0,0-1.4-.22,1,1,0,0,0-.69.82,1,1,0,0,0,.53,1c.45.26.92.47,1.43.72-12.18,0-35.75.31-36.42-.27C.69,19.3,0,17.73,0,16.51Q0,10.14,0,3.77a4,4,0,0,1,1.27-3A2.63,2.63,0,0,1,3.15,0H9.77c0,.49.09,1,.13,1.43.08,1,.17,2,.21,3s0,1.9,0,2.86q0,2.84,0,5.68a.73.73,0,0,1-.07.35,1,1,0,0,0,0,1.22,1.1,1.1,0,0,0,1.25.38,1.22,1.22,0,0,1,.77,0,6.33,6.33,0,0,0,3,.23,5.69,5.69,0,0,0,2.68-1A3.77,3.77,0,0,0,19.21,12a6.06,6.06,0,0,0-.46-4.5A3.35,3.35,0,0,0,17,6.13a4.58,4.58,0,0,0-3.75.33c-.24.1-.47.25-.73.38a1.86,1.86,0,0,1,0-.21c0-.81,0-1.62,0-2.43s.14-1.74.21-2.61c0-.43.07-.85.07-1.28,0-.25.08-.33.33-.32H60.15c4.18,0,8.36,0,12.54,0A2.85,2.85,0,0,1,75,1.23,4.39,4.39,0,0,1,75.9,4c0,3.23,0,6.45,0,9.68,0,1,0,1.9,0,2.86,0,1.25-.66,2.74-1.49,3.15s-21.24.17-32,.17c.34-.2.66-.38,1-.57a3.16,3.16,0,0,0,1.53-2.56C45,16,45,15.19,45,14.4c0-2.35,0-4.7,0-7.05a1.16,1.16,0,0,0-.71-1.08,1,1,0,0,0-1.18.15c-.21.19-.34.13-.54,0a4.63,4.63,0,0,0-2.45-.7,5,5,0,0,0-4.62,3.54,5,5,0,0,0,1.67,5.37,4.67,4.67,0,0,0,3.36.86C41.2,15.45,41.9,15.25,42.62,15.11Zm19.25-.6c.09.11.18.21.27.32a1.26,1.26,0,0,0,1.4.49,1,1,0,0,0,.74-1.23c-.12-.27-.26-.54-.4-.8a4,4,0,0,1-.54-1,17.71,17.71,0,0,1-.23-2.49c0-1,0-2,0-3a1.21,1.21,0,0,0-.86-1.08,7.37,7.37,0,0,0-1.92-.14,7,7,0,0,0-3.6,1.58A5.65,5.65,0,0,0,55.5,8.66a4.82,4.82,0,0,0-.63,4.54,3.22,3.22,0,0,0,2.65,2.1,11.9,11.9,0,0,0,2.3.06A3.48,3.48,0,0,0,61,15,8,8,0,0,0,61.87,14.5Zm-33,1.24a6.88,6.88,0,0,0,.71-.06,5.4,5.4,0,0,0,3.75-2.6,5,5,0,0,0,.15-5.55,3.75,3.75,0,0,0-3.63-2,5.06,5.06,0,0,0-3.64,1.81,5.6,5.6,0,0,0-1.5,4.94A4.26,4.26,0,0,0,28.92,15.75ZM47,11.18h0c0,1,0,2.06,0,3.08a1.17,1.17,0,0,0,1.37,1.18,1.14,1.14,0,0,0,1-1.15c0-1.72,0-3.44,0-5.17,0-.11,0-.25.07-.31a7,7,0,0,1,2.06-1.4,1,1,0,0,1,1.07.15c.19.14.38.29.57.42a1.08,1.08,0,0,0,1.32-1.7,3.2,3.2,0,0,0-1.33-.84,3,3,0,0,0-2.25-.06c-.62.25-1.19.6-1.79.89a.4.4,0,0,1-.28,0c-.4-.15-.78-.35-1.18-.46a1.1,1.1,0,0,0-1.41.84,1,1,0,0,0,.6,1.09.37.37,0,0,1,.21.38C47,9.14,47,10.16,47,11.18Zm-23.65-.89h-.06q0-1.94,0-3.88a1,1,0,0,0-.05-.33,1.14,1.14,0,0,0-1.39-.79,1.22,1.22,0,0,0-.9,1.2c0,2.57,0,5.14.07,7.7a1.19,1.19,0,0,0,1.18,1.2,1.15,1.15,0,0,0,1.15-1.22Q23.38,12.22,23.38,10.28ZM60.64,0a5.29,5.29,0,0,0-.82.34c-.76.48-1.51,1-2.25,1.48a10.78,10.78,0,0,0-1.08.78.93.93,0,0,0-.33,1,1,1,0,0,0,.85.77,1.45,1.45,0,0,0,1.08-.24L61.24,2A1.06,1.06,0,0,0,61.71.79,1.2,1.2,0,0,0,60.64,0Zm5.65,8a4,4,0,0,0,.85-.23,1.37,1.37,0,0,0,.4-2.4A2,2,0,0,0,66.43,5a2.06,2.06,0,0,0-1.84.66A1.28,1.28,0,0,0,64.37,7,2,2,0,0,0,66.29,8.05ZM23.5,2.92a1.34,1.34,0,0,0-2.69,0,1.35,1.35,0,0,0,1.33,1.32A1.37,1.37,0,0,0,23.5,2.92Z"/><path class="cls-1" d="M42.64,10.81c0,.5,0,1,0,1.51a.41.41,0,0,1-.12.29,3.64,3.64,0,0,1-3.78.44,1.78,1.78,0,0,1-.88-1.2,2.93,2.93,0,0,1,0-2.27A2.41,2.41,0,0,1,40.59,8a3.78,3.78,0,0,1,1.62.79.8.8,0,0,1,.44.83A11.73,11.73,0,0,0,42.64,10.81Z"/><path class="cls-1" d="M12.46,11.33c0-.3,0-.61,0-.91a.78.78,0,0,1,.2-.62,5,5,0,0,1,2.18-1.62,1.74,1.74,0,0,1,1.45,0A1.57,1.57,0,0,1,17,9.33a3.3,3.3,0,0,1-.21,2.4,2.07,2.07,0,0,1-.56.65,3.52,3.52,0,0,1-3.31.54c-.39-.12-.44-.19-.44-.6S12.46,11.66,12.46,11.33Z"/><path class="cls-1" d="M17.44,14a5.24,5.24,0,0,1-2.54,1,5.65,5.65,0,0,1-3.14-.38.47.47,0,0,0-.26,0,3.12,3.12,0,0,1-.52.13.78.78,0,0,1-.78-.38.92.92,0,0,1,0-.9.79.79,0,0,0,.12-.33c0-3,0-6,0-8.94,0-.85-.14-1.7-.2-2.55,0-.51-.06-1-.09-1.56l.21,0c.26,0,.37.06.39.34.06,1.08.18,2.16.22,3.24.05,1.57.05,3.14.06,4.7,0,1.16,0,2.32,0,3.48a6.49,6.49,0,0,1-.16,1.8c-.12.46.14.71.6.6a2.87,2.87,0,0,1,1.22.1c.63.1,1.27.15,1.91.21a6.53,6.53,0,0,0,.92,0,3.77,3.77,0,0,0,.61-.13l.3-.07L17.44,14Z"/><path class="cls-1" d="M42.07,18a4.73,4.73,0,0,0,.45-.44,1.61,1.61,0,0,0,.33-1.09c0-.57,0-1.14,0-1.74L41.68,15a5,5,0,0,1-4.21-.45,4.18,4.18,0,0,1-1.87-3,4.82,4.82,0,0,1,.34-2.84,4.27,4.27,0,0,1,1.58-1.82,1.24,1.24,0,0,1,.3-.09l-.68.89a5.17,5.17,0,0,0-.57.81,4.8,4.8,0,0,0-.43,2.85,4.35,4.35,0,0,0,1,2.26,3.44,3.44,0,0,0,2.3,1.11,15.55,15.55,0,0,0,1.84,0,2.23,2.23,0,0,0,1.21-.34c.23-.14.77.15.82.44A5.12,5.12,0,0,1,43.31,17a1.57,1.57,0,0,1-.79.93C42.43,18,42.28,18,42.07,18ZM37.52,7v0h0Z"/><path class="cls-1" d="M38.67,7.94a2.91,2.91,0,0,1,.62-.46,4.38,4.38,0,0,1,1-.25A3.14,3.14,0,0,1,42.4,8a3.07,3.07,0,0,1,.77.67,1.25,1.25,0,0,1,.25.7c0,.95,0,1.9,0,2.85a.79.79,0,0,1-.56.85h0l-.72.25,0,0c.2-.14.4-.28.59-.43a.4.4,0,0,0,.14-.26q0-1.69,0-3.39a.38.38,0,0,0-.11-.27,5.8,5.8,0,0,0-1.92-1.12,2.92,2.92,0,0,0-1.67.07c-.16,0-.32.06-.49.09Z"/><path class="cls-1" d="M14,8.2c.08-.24.28-.33.48-.43a2.69,2.69,0,0,1,1.18-.45,1.75,1.75,0,0,1,1.5.65,3.71,3.71,0,0,1,.71,2.43A3.33,3.33,0,0,1,17.45,12c-.13.23-.26.55-.63.57-.08,0-.15.1-.23.15h0l-.67.33,0,0c.15-.11.29-.24.44-.34a2.53,2.53,0,0,0,1-2.05,3.94,3.94,0,0,0-.24-1.76,1.58,1.58,0,0,0-1.95-1c-.37.1-.73.24-1.1.36Z"/><path class="cls-1" d="M42.58,19.26l.51-.16a3.57,3.57,0,0,1-2.16.8,8.5,8.5,0,0,0-1.2,0A5,5,0,0,1,37,19.25L36.54,19a.82.82,0,0,1-.36-1.08.93.93,0,0,1,.37-.28,1.29,1.29,0,0,0,.58,1.05,6.66,6.66,0,0,0,3.21.84c.49,0,1-.1,1.47-.1.24,0,.45.08.61-.17h.18v.09l0,0Z"/><path class="cls-1" d="M13.23,6.88,13,7l0-.07.21-.08Z"/><path class="cls-1" d="M42,18.07,42,18l0,0-.09.08Z"/><path class="cls-1" d="M38,6.65h0Z"/><path class="cls-1" d="M39.1,7.59h0l0,0s0,0,0,0Z"/><path class="cls-1" d="M13.61,8.47l0-.07,0,0-.05.05Z"/><polygon class="cls-1" points="41.95 13.35 41.95 13.36 41.93 13.35 41.95 13.35"/><path class="cls-1" d="M38,6.65l-.12,0h0L38,6.65Z"/><path class="cls-1" d="M42,18.07l0,0,0,0Z"/><path class="cls-1" d="M14,8.19l0,0v0h0Z"/><polygon class="cls-1" points="42.41 19.26 42.4 19.26 42.41 19.26 42.41 19.26"/><polygon class="cls-1" points="17.44 13.96 17.44 13.95 17.44 13.96 17.44 13.96"/><path class="cls-1" d="M37.89,6.69l0,0h0Z"/><path class="cls-1" d="M13.61,8.47h0Z"/><polygon class="cls-1" points="13.8 8.32 13.82 8.32 13.81 8.33 13.8 8.32"/><polygon class="cls-1" points="38.68 7.94 38.68 7.95 38.67 7.94 38.68 7.94"/><path class="cls-1" d="M60.74,7.64c0,.95,0,1.83,0,2.71,0,.59.13,1.18.21,1.77,0,.15,0,.26-.13.36-.36.22-.7.45-1.05.67a.71.71,0,0,1-.32.11A4.07,4.07,0,0,1,57.61,13a1.43,1.43,0,0,1-.69-1.11A4.42,4.42,0,0,1,58.8,8.32,5,5,0,0,1,60.74,7.64Z"/><path class="cls-1" d="M57,7.62l-.12.23v0h0c-.07.07-.24.06-.18.23h0a7.15,7.15,0,0,0-.94,1.44,4.32,4.32,0,0,0-.07,3.59,2.44,2.44,0,0,0,1.88,1.42c.69.08,1.4.09,2.09.13.32,0,.64.05,1,0a1.3,1.3,0,0,0,.42-.15l.3-.14h0a2.5,2.5,0,0,1-1.74.7c-.61,0-1.22,0-1.82,0a3.07,3.07,0,0,1-2.59-1.73,3.9,3.9,0,0,1-.28-2.77,6.07,6.07,0,0,1,1.83-3.11,10.15,10.15,0,0,1,1.58-1h0c-.08.07-.15.16-.24.22l-.32.23h0l-.35.18h0v0l-.4.54Z"/><path class="cls-1" d="M59.26,7.49l1-.41a.88.88,0,0,1,1.14.23,1.15,1.15,0,0,1,.16.58c0,.82,0,1.65,0,2.47a13.63,13.63,0,0,0,.15,1.55,1,1,0,0,1-.17.78h0a1.33,1.33,0,0,1-.92.29h0c.54-.28.62-.69.52-1.29A21.9,21.9,0,0,1,61,9c0-.46,0-.93,0-1.4,0-.19-.07-.27-.25-.24l-1.14.24-.33,0h0l-.06-.06h0V7.5Z"/><path class="cls-1" d="M61.59,14.07a.5.5,0,0,1,.67-.14c.15.11.29.24.45.35l.94.66c-.7.4-1.08.17-1.73-.78l-.55.25h0l.23-.35h0Z"/><path class="cls-1" d="M58.67,8l.58-.39h0l.06.06h0L58.67,8Z"/><path class="cls-1" d="M60.57,13l-.25.28-.08-.09.33-.18Z"/><path class="cls-1" d="M58.47,6.42l0-.1,0,0-.09.06Z"/><path class="cls-1" d="M58.5,8.07l0,0s0,0,0,0l0,0Z"/><path class="cls-1" d="M57.77,6.92h0Z"/><path class="cls-1" d="M60.17,13.38h-.1v0l.09,0Z"/><path class="cls-1" d="M58.34,6.47l.13-.05h0l-.13.05Z"/><path class="cls-1" d="M60.16,13.38h0Z"/><path class="cls-1" d="M60.57,13l.06-.07h0l-.06.07Z"/><path class="cls-1" d="M61.54,12.69h0Z"/><polygon class="cls-1" points="59.27 7.5 59.25 7.49 59.26 7.5 59.27 7.5"/><polygon class="cls-1" points="56.73 8.07 56.74 8.08 56.73 8.08 56.73 8.07"/><polygon class="cls-1" points="58.67 7.99 58.68 8.01 58.67 8 58.67 7.99"/><path class="cls-1" d="M29,13.61a2.1,2.1,0,0,1-2-1.92,4,4,0,0,1,1.08-3,2.73,2.73,0,0,1,1.84-.93,2,2,0,0,1,1.92,1.55,3.73,3.73,0,0,1-2.06,4.12C29.52,13.5,29.24,13.54,29,13.61Z"/><path class="cls-1" d="M31.15,14.82a4,4,0,0,1-6-2.09,4.68,4.68,0,0,1,.39-3.82,5.76,5.76,0,0,1,1.62-2,3,3,0,0,1,.42-.22h0l-.18.24h0a23.32,23.32,0,0,0-1.31,1.95,4.62,4.62,0,0,0-.45,3.49A3.36,3.36,0,0,0,28.3,14.9a4.74,4.74,0,0,0,2.33,0c.24-.07.49-.11.74-.16h0l-.22.13Z"/><path class="cls-1" d="M30.47,13.38a4.38,4.38,0,0,0,1.67-2.69,2.86,2.86,0,0,0-.58-2.46,2.1,2.1,0,0,0-2.61-.51l-.28.12,0-.08c.1-.07.2-.12.3-.2a2,2,0,0,1,2.21-.35,2.58,2.58,0,0,1,1.34,1.5A3.16,3.16,0,0,1,32.72,10a4.16,4.16,0,0,1-.56,2c-.12.2-.21.42-.35.61a.76.76,0,0,1-.33.3c-.25.08-.33.46-.68.39,0,0-.15.17-.3.14h0l-.06-.06Z"/><path class="cls-1" d="M30.52,13.44l-.22.18-.06-.07.23-.17h0l.06.06Z"/><path class="cls-1" d="M27.55,6.7l.16-.12h0l-.17.12Z"/><path class="cls-1" d="M27.37,6.93h0Z"/><path class="cls-1" d="M31.37,14.7h0Z"/><polygon class="cls-1" points="31.59 14.55 31.62 14.54 31.61 14.56 31.59 14.55"/><path class="cls-1" d="M28,6.45h0v0Z"/><path class="cls-1" d="M27.72,6.58l0,0v0h0Z"/><path class="cls-1" d="M48.64,15.05a.77.77,0,0,1-.9,0,1,1,0,0,1-.47-.94c0-1.48,0-3,0-4.45,0-.59,0-1.18,0-1.77a.28.28,0,0,0-.19-.32,1.21,1.21,0,0,1-.4-.27.73.73,0,0,1,.15-1.18h0l.07.18h0v0a1.45,1.45,0,0,0,.13.33c.18.26.4.5.57.76a1,1,0,0,1,.19.48c0,1.06,0,2.13,0,3.2s0,1.9,0,2.85a1.07,1.07,0,0,0,.61.92,1.83,1.83,0,0,1,.2.18Z"/><path class="cls-1" d="M50.64,7.44c.3-.22.59-.47.91-.67A1.28,1.28,0,0,1,53,6.89c.4.25.78.55,1.17.84a.68.68,0,0,1-.9,0c-.19-.13-.38-.26-.55-.4a1.32,1.32,0,0,0-1.42-.16l-.6.27Z"/><path class="cls-1" d="M49.56,6.53c0-.24.1-.35.45-.4h0l-.14.18h0l-.32.22Z"/><path class="cls-1" d="M50,6.14,50.23,6h0L50,6.13Z"/><path class="cls-1" d="M50.46,7.58h0v0h0Z"/><path class="cls-1" d="M49.37,6.47l0,0s0,0,0,0,0,0,0,0Z"/><path class="cls-1" d="M50.19,7.79l.06-.09,0,0-.1.06Z"/><path class="cls-1" d="M46.83,6.16H47v0h-.15Z"/><path class="cls-1" d="M50.18,7.79h0Z"/><path class="cls-1" d="M50.23,6l0,0,0,0Z"/><polygon class="cls-1" points="48.64 15.06 48.64 15.04 48.64 15.05 48.64 15.06"/><polygon class="cls-1" points="49.97 6.31 49.97 6.3 49.96 6.31 49.97 6.31"/><polygon class="cls-1" points="49.55 6.53 49.54 6.53 49.56 6.53 49.55 6.53"/><path class="cls-1" d="M50,6.31h0Z"/><path class="cls-1" d="M21.8,5.61c0,1,0,2,0,2.92,0,1.81,0,3.63.06,5.44a.9.9,0,0,0,.53.76l.28.18a.6.6,0,0,1-.6.21.78.78,0,0,1-.69-.55,4.05,4.05,0,0,1-.1-1c0-1.88,0-3.77,0-5.65,0-.49,0-1,0-1.48A.93.93,0,0,1,21.8,5.61Z"/><path class="cls-1" d="M58.74,1.62a5.38,5.38,0,0,0-.64.29c-.24.15-.45.33-.67.5h0l-.1,0,.1,0h0l-.11.18h0A.56.56,0,0,0,57,3.4a.42.42,0,0,0,.16.19,1.9,1.9,0,0,0,.45.22,1.17,1.17,0,0,0,.36,0h0A1,1,0,0,1,56.67,4a.79.79,0,0,1,0-1.25c.88-.6,1.78-1.18,2.67-1.76a.41.41,0,0,1,.11,0h0l-.23.3v0h0l-.52.41,0-.05Z"/><path class="cls-1" d="M59.48.93l.44-.33,0,.09-.5.24Z"/><path class="cls-1" d="M58.29,3.61l.16-.18,0,.05-.21.13Z"/><path class="cls-1" d="M59.23,2.94l.08-.05,0,0L59.26,3Z"/><path class="cls-1" d="M60.71,2V2l0,0V2Z"/><path class="cls-1" d="M58,3.79l.06-.09,0,0-.1.05Z"/><path class="cls-1" d="M58.81,3.25v0l0,0,0,0Z"/><path class="cls-1" d="M59.89,2.53,60,2.45l0,0-.11,0Z"/><path class="cls-1" d="M59.54,2.78l0,0,0,0,0,0Z"/><path class="cls-1" d="M60.33,2.24l0,0,0,0Z"/><path class="cls-1" d="M60.43,2.11l-.1.12h0l.1-.13Z"/><path class="cls-1" d="M58.2,2h0V2h0Z"/><path class="cls-1" d="M60.44,2.11h0Z"/><path class="cls-1" d="M58.95,3.19h0Z"/><polygon class="cls-1" points="59.1 3.06 59.1 3.08 59.08 3.07 59.1 3.06"/><path class="cls-1" d="M57.42,2.42h0l0,0h0V2.41Z"/><path class="cls-1" d="M58.57,3.34h.05v0l0,0Z"/><polygon class="cls-1" points="59.94 0.82 59.94 0.81 59.94 0.82 59.94 0.82"/><path class="cls-1" d="M59.94.82h0Z"/><polygon class="cls-1" points="59.7 1.1 59.72 1.09 59.71 1.09 59.7 1.1"/><polygon class="cls-1" points="59.71 1.09 59.7 1.11 59.7 1.1 59.71 1.09"/><path class="cls-1" d="M58.57,3.33h0Z"/><polygon class="cls-1" points="58.29 3.61 58.28 3.62 58.29 3.61 58.29 3.61"/><path class="cls-1" d="M59.83,2.59l.06-.06h0l-.06.07Z"/><polygon class="cls-1" points="59.83 2.6 59.82 2.6 59.83 2.59 59.83 2.6"/><path class="cls-1" d="M65.36,5.69V7.26a.86.86,0,0,1-.47-.72A.93.93,0,0,1,65.36,5.69Z"/><path class="cls-1" d="M67,5.73a.82.82,0,0,1,.18,1.41l-.35-.42c.42-.44.45-.59.17-1Z"/><path class="cls-1" d="M65.87,7.52,66,6.68l.67.78Z"/><path class="cls-1" d="M66.57,6.23h-.66C66,6.14,66,6,66.07,6S66.45,5.95,66.57,6.23Z"/><path class="cls-1" d="M65,7.38a.92.92,0,0,1-.51-.95l.5,1Z"/><path class="cls-1" d="M65.61,6.92V6.16h.05v.76Z"/><path class="cls-1" d="M66.57,7l-.3-.39.12-.07.18.46Z"/><path class="cls-1" d="M65.83,5.5h.72v0h-.72Z"/><path class="cls-1" d="M65,7.44l.23.08,0,.07L65,7.44Z"/><path class="cls-1" d="M66.52,7.73l.15,0v0l-.15,0Z"/><path class="cls-1" d="M66.86,7.62h.09v0h-.09Z"/><path class="cls-1" d="M65.67,7.74h.08v0h-.08Z"/><path class="cls-1" d="M64.6,6.11v0l0,0,0,0Z"/><path class="cls-1" d="M67.58,6h0v0l0,0Z"/><path class="cls-1" d="M67.69,6.74h0a.09.09,0,0,1,0,0h0A.09.09,0,0,1,67.69,6.74Z"/><path class="cls-1" d="M65.33,7.63h.09s0,0,0,0Z"/><path class="cls-1" d="M67.7,6.27v0l0,0v0Z"/><path class="cls-1" d="M66.34,5.81h0l0,0h0Z"/><path class="cls-1" d="M66.91,5.66h0Z"/><path class="cls-1" d="M65,7.44,65,7.38h0l.06.06Z"/><path class="cls-1" d="M66.56,7h0Z"/><polygon class="cls-1" points="64.77 5.75 64.77 5.76 64.76 5.76 64.77 5.75"/><path class="cls-1" d="M67,5.73l-.06-.07h0l.06.07Z"/><path class="cls-1" d="M21.71,2c-.15,1.3,0,1.26,1,1.75a1,1,0,1,1-1-1.75Z"/></g></g></g></svg>
