<svg xmlns="http://www.w3.org/2000/svg" viewBox="0 0 79.1 21.28"><defs><style>.cls-1{fill:#807c66;}</style></defs><title>Recurso 2</title><g id="Capa_2" data-name="Capa 2"><g id="Capa_1-2" data-name="Capa 1"><g id="aqV9zU"><path class="cls-1" d="M79.1,7.31c-.47.19-.95.35-1.4.57a.76.76,0,0,0-.37.4c-.16.49-.27,1-.41,1.5-.19.72-.39,1.44-.57,2.16s-.35,1.59-.54,2.38c-.11.45-.21.91-.35,1.36a.36.36,0,0,1-.26.2,5.52,5.52,0,0,1-1,0c-.29,0-.42-.24-.42-.54a1.67,1.67,0,0,1,0-.36q.23-1,.47-2c.2-.8.39-1.61.59-2.41s.34-1.35.53-2a.81.81,0,0,0-.09-.72c-.31-.49-.27-.72.21-1A1,1,0,0,0,76,6.13c.11-.59.29-1.17.39-1.76.13-.77,1.1-.81,1.5-.48a.57.57,0,0,1,.2.57c-.08.49-.14,1-.22,1.46a.41.41,0,0,0,.26.48c.32.13.65.23,1,.34Z"/><path class="cls-1" d="M4.11,0c.69,0,.78.09.69.76-.06.45-.2.88-.29,1.33q-.21,1-.41,2C4,4.55,4,5,3.87,5.39A1.29,1.29,0,0,0,5,7.09c.65.13,1.32.2,2,.32a2.76,2.76,0,0,1,1.62.79A3.08,3.08,0,0,1,9.1,9a4.33,4.33,0,0,1,.28,2.2A6.89,6.89,0,0,1,9,12.79a6.32,6.32,0,0,1-2.91,3.34,2.87,2.87,0,0,1-1.5.51,2.72,2.72,0,0,0-.51.09,1.25,1.25,0,0,1-.35,0,4.58,4.58,0,0,1-3-1.41A3,3,0,0,1,.07,12.8C.3,11.51.64,10.24.92,9s.54-2.56.82-3.84c.14-.65.29-1.3.44-2S2.49,1.74,2.7,1A1.27,1.27,0,0,1,4.11,0ZM7.36,11A2.76,2.76,0,0,0,6.89,9.4,2.28,2.28,0,0,0,5,8a1.51,1.51,0,0,0-1.4.42,6.6,6.6,0,0,0-1.23,3,10.42,10.42,0,0,0-.08,1.68,2.66,2.66,0,0,0,.91,2.07A1.63,1.63,0,0,0,5.89,15a5.49,5.49,0,0,0,.88-1.43A7,7,0,0,0,7.36,11Z"/><path class="cls-1" d="M38.62.1a6.28,6.28,0,0,1,.84,0c.13,0,.34.15.35.24a.67.67,0,0,1-.2.42.65.65,0,0,1-.33.14c-.66.16-1.33.28-2,.48A4.38,4.38,0,0,0,34.87,3a2.45,2.45,0,0,0-.58,1.51,12.61,12.61,0,0,0,0,1.63,6.84,6.84,0,0,0,.55,1.58c.43,1,.92,1.89,1.37,2.84a5.35,5.35,0,0,1,.34,2.56,5.73,5.73,0,0,1-1.19,3.22,7.2,7.2,0,0,1-3.19,2.47,8.45,8.45,0,0,1-1.44.58,11.35,11.35,0,0,1-2.39.47c-.6,0-1.19.08-1.79.11a1.46,1.46,0,0,1-.51-.07c-.32-.1-.37-.4-.09-.6a1.28,1.28,0,0,1,.43-.2c.3-.08.6-.12.9-.19.69-.16,1.39-.28,2.06-.49a9.19,9.19,0,0,0,3.1-1.55,4.68,4.68,0,0,0,1.39-1.64,3.86,3.86,0,0,0,.29-2.43,17.57,17.57,0,0,0-.55-1.88c-.11-.33-.3-.62-.44-.94a15.21,15.21,0,0,1-.87-2.19,7.19,7.19,0,0,1,0-4.42,4.55,4.55,0,0,1,1.52-2,5.65,5.65,0,0,1,2.46-1C37,.19,37.83.14,38.61,0Z"/><path class="cls-1" d="M50.68,10a6.74,6.74,0,0,1-.82,3.19,9.44,9.44,0,0,1-1.54,2.23,3,3,0,0,1-1.13.74,4.17,4.17,0,0,1-3.16.18,1.19,1.19,0,0,0-1.54.59,7.53,7.53,0,0,0-.66,2.13c-.15.61-.27,1.22-.42,1.83-.1.4-.41.4-1.19.32-.36,0-.46-.19-.45-.58a.66.66,0,0,1,0-.12q.23-1.05.46-2.11c0-.1.07-.2.1-.31.3-1.38.59-2.76.9-4.14.13-.59.31-1.16.45-1.74.18-.74.33-1.48.52-2.22A9.56,9.56,0,0,1,42.7,8.5a2.09,2.09,0,0,1,1.59-1.14,14.21,14.21,0,0,1,3.66-.28,2.91,2.91,0,0,1,1.65.55,2.53,2.53,0,0,1,1.08,2.16C50.68,9.87,50.68,9.95,50.68,10Zm-7.12,2.43a3.14,3.14,0,0,0,.83,2.43,2,2,0,0,0,1.53.74A2,2,0,0,0,47.28,15a4.57,4.57,0,0,0,1.36-2.26,5.89,5.89,0,0,0,.28-2.24A3.39,3.39,0,0,0,48,8.37a1.73,1.73,0,0,0-1.88-.57,2.73,2.73,0,0,0-1.4,1A6.69,6.69,0,0,0,43.56,12.46Z"/><path class="cls-1" d="M24.52,7a4,4,0,0,1,1.84.29A2.79,2.79,0,0,1,28,9.24a5.44,5.44,0,0,1-.06,2.93,7.65,7.65,0,0,1-.8,1.74,6.14,6.14,0,0,1-1.28,1.64,3.91,3.91,0,0,1-2.16,1.12c-.37,0-.74.11-1.11.11a3.62,3.62,0,0,1-2.89-1.21,2.5,2.5,0,0,1-.44-.71,4.2,4.2,0,0,1-.47-2.24,5.37,5.37,0,0,1,.72-2,11.24,11.24,0,0,1,2.75-3,3,3,0,0,1,2-.58Zm-3.7,5.52c.09.35.2.69.28,1a3,3,0,0,0,2,2.27,1,1,0,0,0,.85-.06c.14-.08.29-.13.43-.22a3.46,3.46,0,0,0,1.37-1.53,6,6,0,0,0,.49-2,3.2,3.2,0,0,0,.09-.79,5.4,5.4,0,0,0-.53-1.91A2.41,2.41,0,0,0,23.8,8a1.82,1.82,0,0,0-2,1.13,17.62,17.62,0,0,0-.62,1.68C21,11.37,20.95,12,20.82,12.57Z"/><path class="cls-1" d="M60.56,15l.29-1.16c.13-.5.26-1,.39-1.51.18-.73.34-1.45.52-2.18,0-.17.09-.33.14-.5a5.34,5.34,0,0,0,.19-.73,1.62,1.62,0,0,1,.69-1.11A3.76,3.76,0,0,1,65.1,7a7.19,7.19,0,0,1,.75-.07.46.46,0,0,1,.35.25.51.51,0,0,1-.19.39,1.65,1.65,0,0,1-.44.18,2.35,2.35,0,0,0-1.31,1,5,5,0,0,0-.34.77c-.17.53-.32,1.07-.47,1.6-.2.73-.4,1.46-.6,2.19,0,.06,0,.13-.06.19-.14.58-.27,1.17-.41,1.75s-.34.68-.88.66h-.08C60.63,15.88,60.58,15.82,60.56,15Z"/><path class="cls-1" d="M13.06,16c-.76-.08-.86-.17-.73-.89s.3-1.32.47-2,.32-1.21.47-1.82.36-1.45.52-2.18A1.31,1.31,0,0,1,15.39,8c.38.07.47.23.38.6-.17.67-.35,1.34-.53,2l0,.12c-.13.67-.25,1.33-.39,2s-.26,1.37-.47,2a2.45,2.45,0,0,1-.58.94C13.62,15.87,13.31,15.89,13.06,16Z"/><path class="cls-1" d="M68.09,15.9c-.77,0-1-.33-.79-1.11s.31-1.48.48-2.22c.14-.58.3-1.16.46-1.74s.37-1.42.55-2.12c.06-.25.09-.51.4-.59a1.27,1.27,0,0,1,1.19.08.48.48,0,0,1,.17.34,6.37,6.37,0,0,1-.12,1c-.07.34-.18.67-.26,1-.19.81-.38,1.63-.56,2.45l-.48,2.14C69,15.84,68.68,16,68.09,15.9Z"/><path class="cls-1" d="M54.57,15.9c-.88,0-1-.15-.74-1,.16-.63.28-1.27.44-1.91s.39-1.49.58-2.24.35-1.39.52-2.09a.94.94,0,0,1,1.32-.59.54.54,0,0,1,.34.5,2.37,2.37,0,0,1,0,.56c-.16.65-.36,1.28-.52,1.93s-.34,1.56-.51,2.34c-.13.61-.26,1.22-.42,1.83S55.22,15.92,54.57,15.9Z"/><path class="cls-1" d="M71.68,3.86c.7,0,1,.4.75.88a1.47,1.47,0,0,1-.46.53,8.29,8.29,0,0,1-.91.48.55.55,0,0,1-.7,0,.7.7,0,0,1-.11-.79A2.35,2.35,0,0,1,71.68,3.86Z"/><path class="cls-1" d="M57.78,2.55c-.51,0-.76-.38-.54-.77a2,2,0,0,1,.55-.62,5.46,5.46,0,0,1,1-.54.46.46,0,0,1,.57.18.56.56,0,0,1,0,.64A2.24,2.24,0,0,1,57.78,2.55Z"/><path class="cls-1" d="M18.21,2c.09,0,.27.1.34.21a.52.52,0,0,1,0,.44,2.68,2.68,0,0,1-1.28,1.16L16.67,4a.35.35,0,0,1-.52-.34.69.69,0,0,1,.12-.45,3.72,3.72,0,0,1,1.67-1.19Z"/></g></g></g></svg>
