<svg xmlns="http://www.w3.org/2000/svg" viewBox="0 0 99.94 39.93"><defs><style>.cls-1{fill:#807c66;}</style></defs><title>Recurso 19</title><g id="Capa_2" data-name="Capa 2"><g id="Capa_1-2" data-name="Capa 1"><g id="lRwAct"><path class="cls-1" d="M50.13,39.93q-22.23,0-44.46,0a5.06,5.06,0,0,1-3.59-1.59A6.45,6.45,0,0,1,.34,35.1,12.35,12.35,0,0,1,.44,29a6.16,6.16,0,0,1,2.18-3.39,5.29,5.29,0,0,1,3.29-1.14h9.86a.87.87,0,0,0,.31-.11c.55-.24.77-.76,1-1.23a1.4,1.4,0,0,1,1.75-.67.59.59,0,0,0,.4,0,3.73,3.73,0,0,0,.59-.4.21.21,0,0,0,0-.19,6.59,6.59,0,0,1-.42-2.58A5.7,5.7,0,0,1,21.1,15.4a3.58,3.58,0,0,1,1.56-.85,7.79,7.79,0,0,1,2.67-.37.28.28,0,0,0,.29-.17,22.62,22.62,0,0,1,3-4.4,27.7,27.7,0,0,1,5.44-4.85,27.36,27.36,0,0,1,6.15-3.13,28.32,28.32,0,0,1,19.37.14A27.25,27.25,0,0,1,68.28,7a26.3,26.3,0,0,1,5.62,7,.36.36,0,0,0,.38.2,7.71,7.71,0,0,1,3.26.61A3.47,3.47,0,0,1,79,16a5.68,5.68,0,0,1,1,4.53,12.3,12.3,0,0,1-.43,1.51c0,.13,0,.17.09.23a1.36,1.36,0,0,0,1.07.12,1.38,1.38,0,0,1,1.63.81c.15.26.29.53.44.78a.83.83,0,0,0,.79.43c3.56,0,7.12,0,10.68,0a5.06,5.06,0,0,1,3.37,1.38,6.45,6.45,0,0,1,2,3.56,12.53,12.53,0,0,1-.17,6.34A5.81,5.81,0,0,1,97,39.15a4.88,4.88,0,0,1-2.65.78H50.13Zm2.3-25.4h-.09l-.11,0h0l.12,0ZM67.11,25.1h0Zm-25.17.07h0Zm23.92.8h0Zm-21.66-.34h0Zm7.87-14.78,0,0,0,0v0l0,0-.05,0h0Zm9.83,3.8h-.12s0,0,0,0ZM36.68,25h0Zm8.54-.16h0Zm-23.85.29v0h0ZM36.73,23.8v0h0Zm16.33-7.41h0Zm2.86-.24h0v0Zm6.18,8.4v0h0Zm-44.35-.2h0ZM56.51,10.9h0Zm1.83,2.53v.13h0v-.13h0ZM20.6,25.86l-.07,0h0l.07,0h.13v0ZM57.47,13.54h0ZM55,11.27h0ZM74.27,26.1v0h0ZM55,25.44h0v0h0Zm20.27.91h0v0h0ZM54.69,13.78h0v0Zm8.82,11.43h0ZM20.06,26.74h0Zm3.28-.11h0ZM53.08,9.95h0ZM31.82,24.4l0,0v.05h0Zm49.78-.06h0S81.6,24.35,81.59,24.34Zm-24.1,1.39h0s0,0,0,0h0ZM54.69,17h0l0,0ZM58,12.89h0s0,0,0,0h0Zm5.68,11h0l0,0ZM55,11.54h0v0Zm4.57,6.1h0S59.56,17.62,59.56,17.64Zm-6.3-8h0ZM44.75,23.86h0Zm13-11.79h0l.05,0,.08-.07,0,0-.05.09ZM54.39,9.26h0v0ZM79.12,25.83h0ZM38.38,23.95l0,0v.16h0l0-.15,0,0h0ZM61.06,25l0,0h0l0,.05,0,0-.06.06,0,0,0-.08Zm-4.78.24h0l0,0Zm2.6-.63h0l0,0Zm-28.12.86,0,0,0,0h0Zm20.85-10h0Zm-9.41,9.72h0v.13l-.12.11,0,0,.08-.15Zm-25.29-.11h0S16.91,25.14,16.91,25.16Zm58,1.49h0l0,0ZM63.18,15.21h0v0h0Zm-11.28.7h0L52,16l.15.06V16H52ZM25.62,25.52v0h0ZM54.38,12.41h-.09v0h.09a.1.1,0,0,0,0,0h0Zm-30.13,14h0l-.06-.14-.05-.06,0,0,.07,0Zm58.23-1.36,0,0,0,0v-.12c.11-.09.11-.09,0-.17s0,.11,0,.17ZM42,25.31l.09-.11.11-.11-.05,0-.06.15-.1.11v0h0Zm-19.18-.06h0l.07,0v0Zm11,1.12h0v-.09h0ZM67.3,25V24.9h0a.4.4,0,0,0,0,.09h0Zm-22.76.6,0-.16.07,0,0,0,0,.06,0,.16v.07h0A.45.45,0,0,0,44.54,25.6Zm3.28.07h0l-.07,0v0Zm-11.9.1-.08,0,0,.06,0-.09v0Zm-4.26-2.09h-.08v0l.07,0h0Zm16.14,0h.08v0l-.07,0h0ZM24.17,25.38h0l0-.07,0,0ZM19,26.83l-.07,0,0,0,0-.07v-.07h0Zm33.63-2.18h0l0-.06,0,0Zm27.49,2.42h0l.11,0v0ZM56.64,13.81l.16,0,0,.06h0l0-.07-.15,0h0Zm-3.87,0,.1,0-.07-.06,0,.08ZM25.18,25.88h0l0-.07-.06,0Zm35.5-.48.11-.08h0l-.11.08v0Zm-25.35.1.07-.05,0,0,0,.08h0Zm2.27-.09,0,.08h0V25.4h0ZM54.34,12.74l.11-.09.08,0v0h-.09l-.11.09h0Zm.72,2.1h0l0,.09,0,0Zm4.87-3.08h0v.12h0A.44.44,0,0,0,59.93,11.76ZM77.83,25h-.07v0l.07,0,0,.08h0ZM18,23.21l-.08,0,0,0,.05-.07h0Zm50.36,1.13h-.07v0l.07,0,.05.09,0,0ZM46.21,24l.07,0,0,0-.05.07v0h0Zm-13.07.09v0l.06.05,0,0Zm-15.9.16h.08v0l-.07,0v.07h0Zm13.52.33.06-.09h0l0,.11v.07h0Zm2.07-.75h0l.09.07,0,0Zm23.34,0-.07.09,0,0,0-.1.14-.07h.56a.6.6,0,0,0-.55,0Zm22.69,2.06h0l-.13-.06v0ZM54,9.13l.12.05v0H54v.08h0ZM67.91,23.59h0l-.08-.11,0,0Zm-23.5.05h-.11v0l.11,0,0,.1h.05Zm6.75-11.19.05-.14h0v.15l-.09.11,0,0Zm11.68,2.89h0l.16,0v0Zm-29.51,9h0v.16h0Zm-9.84,2-.09.06,0,0,.06-.09v-.07h0Zm7.56-1.52-.1.05,0,0,.08-.08h0ZM51.4,10.61l.12-.05,0,0-.1.09v0Zm.84-.22h0l.09.06,0,0Zm4.14-.07-.1.06,0,0,.07-.09h0Zm-4.31,5.39.1.07v0l-.12,0-.12-.07,0,0ZM64.68,26h-.1v0l.09,0v0h0ZM62,25.44l0-.07h0v.07l.09.07,0,0Zm-43.95-.91h0l-.11,0v0Zm36.27.55v0l.15,0v0ZM52.4,12.39l.08-.11,0,0,0,.14Zm1.28,11h0l0-.15h0ZM52.52,10.25l.12-.06-.07-.06-.06.12h0ZM78.24,26.59h0l.33,0,.22.11,0-.06-.24-.05ZM63,16.12l.07-.2h0l0,.22-.06.14h0ZM55,25.07l0,.15h0v-.15l-.08-.18,0,0ZM80.5,23.79h0l.11.12,0,0ZM18.59,25.07l-.19.05,0,0,.16-.11h0ZM57.87,15.7h0l.13.1,0,0Zm-5.18-2.17.07.06,0,0h-.09l0-.18h0ZM18.89,23.69l-.13.15,0,0,.08-.18v-.13h0Zm6.28,1.26h0l-.07-.19-.06,0Zm32.48-1.1-.18,0v.06l.19,0,.13.17,0,0Zm23,1.14h0l0-.23h0Zm-28.35-9.8c-.05.09-.05.09,0,.12l0-.12.07-.11h0Zm2.83,2h0c.1.11.12.12.19,0h0Zm7.72,7-.13-.09,0,.06.16,0v0Zm.46-.59.1.06v0l-.12,0L63,23.53v0Zm-11.88.89h0l-.17-.07v0Zm15.39.84.14-.13,0,0-.1.17h0Zm-2.4-.74-.05.09h0l0-.11-.2-.13,0,.05Zm-12.65-15h0l-.12-.12,0,.06ZM20.39,25.74l-.23.05,0,0,.21-.1.08-.1.26-.22.09,0v0l-.07,0c-.11,0-.29,0-.26.22Zm59.52-.42v0l0,.29h0ZM53.71,10.38l.11.11,0-.06-.15,0Zm6.56,15.8L60,26.08l0,.06.23,0V26.1h0ZM58,24.74l.12-.23,0,0-.08.25v.07h0Zm-9.6.25h0l0-.17-.06,0ZM61.56,14.86h0l-.07-.22,0,0ZM60.22,25l-.14.21.05,0,.09-.24v-.11h0A.69.69,0,0,0,60.22,25Zm19.65-.06,0,.11h0v-.11l-.13-.28,0,0Zm-.49-1.3h0v.3h.07ZM61,23.31h0l-.22-.11,0,.07ZM52.37,24l-.06.44h.06q0-.22,0-.45h0Zm3.11-.28v0c0,.16,0,.3,0,.41A.36.36,0,0,0,55.48,23.69Zm20,1.25,0,.16h0v-.16l-.3-.22,0,.06ZM35.74,26l-.38.15,0,.07.34-.23h0Zm8.67-1.29-.08.68h.08c0-.23,0-.46,0-.69V24.6h0A.43.43,0,0,0,44.41,24.67Zm-21.73-.09h.65v-.05l-.65.05h0ZM75.56,27a1.45,1.45,0,0,1-1.1.43c-.35,0-.71,0-1.06-.06a.55.55,0,0,1-.45-.31,3.81,3.81,0,0,1-.23-.59.24.24,0,0,0-.28-.2c-.65,0-1.31,0-2,.08s-1.19.15-1.78.22a1.51,1.51,0,0,1-.4,0c-.49-.08-1-.19-1.47-.23a1.14,1.14,0,0,0-.7.21,1.09,1.09,0,0,1-.84.22c-.48-.06-1-.15-1.43-.22l-.34,0c-.41,0-.82-.05-1.21-.13a1.7,1.7,0,0,0-1.67.33h0a.74.74,0,0,1-.91,0l-.45-.32c-.06,0-.13-.11-.19-.11a6.85,6.85,0,0,0-1.21,0,3.76,3.76,0,0,0-.88.38.57.57,0,0,1-.78-.15l-.12-.14a.65.65,0,0,0-.77-.12.57.57,0,0,1-.54,0,3.17,3.17,0,0,0-1.59-.05c-.4.07-.8.18-1.2.21a4.57,4.57,0,0,1-1.74-.27c-.39-.12-.5-.07-.64.3a1.72,1.72,0,0,1-.12.26.62.62,0,0,1-.74.29,1.73,1.73,0,0,1-.37-.16l-1.06-.64a.62.62,0,0,0-.28-.09c-.48,0-1,0-1.45,0a.41.41,0,0,0-.44.26.6.6,0,0,1-.92.22l-.61-.38a.31.31,0,0,0-.35,0,9.38,9.38,0,0,1-1.12.53A.93.93,0,0,1,41,26.42l-.15-.21c-.36.17-.7.34-1.05.48s-.76.06-.94-.42a.2.2,0,0,0-.13-.11,1.37,1.37,0,0,0-1.35.34.65.65,0,0,1-.19.12.72.72,0,0,1-.87-.16c-.1-.13-.17-.12-.29,0a1.54,1.54,0,0,1-1.43.33.25.25,0,0,0-.2.1c-.21.29-.37.33-.68.14l-1-.63a.4.4,0,0,0-.51,0,2.25,2.25,0,0,1-2.69.07.56.56,0,0,0-.3-.1H27.67a.45.45,0,0,0-.24,0,7.18,7.18,0,0,1-2,.71A2,2,0,0,1,23.85,27a.18.18,0,0,0-.17,0,.88.88,0,0,1-.69.34c-.47,0-.95,0-1.42,0a4.81,4.81,0,0,0-.87-.05c-.68.1-1.35.25-2,.39-.25,0-.37,0-.37-.29a3.06,3.06,0,0,1,.25-1.37,2.45,2.45,0,0,0,.09-.26,4.29,4.29,0,0,0-.44.07,1.7,1.7,0,0,1-1.12-.06c-.26-.11-.52-.24-.78-.34a1.2,1.2,0,0,0-.42-.1h-10a4.3,4.3,0,0,0-2.6.89,5.53,5.53,0,0,0-2,3.32A11.65,11.65,0,0,0,1,33a8,8,0,0,0,.83,3.34A4.57,4.57,0,0,0,6,39H94.26a4.09,4.09,0,0,0,3.15-1.43A6.07,6.07,0,0,0,98.8,34.5a12.64,12.64,0,0,0,0-4.29,6.45,6.45,0,0,0-1.19-3A4.45,4.45,0,0,0,94,25.35H83.86a1.26,1.26,0,0,0-.78.18A4.19,4.19,0,0,1,81.6,26c-.5.12-.5.11-.46.63,0,.34.08.68.1,1s-.12.33-.33.29c-.84-.18-1.69-.36-2.54-.52a3.3,3.3,0,0,0-1.66,0,.92.92,0,0,1-.77-.09A3,3,0,0,1,75.56,27Zm1.29-3.36-.06-.07-.11,0a1.81,1.81,0,0,1-.89-.65A5.18,5.18,0,0,1,75,21.14a28,28,0,0,0-1.29-3.72,25.89,25.89,0,0,0-5.43-8A25.86,25.86,0,0,0,52,1.85a26.43,26.43,0,0,0-7.18.37A25.86,25.86,0,0,0,29.18,11.8a26,26,0,0,0-4.44,8.69,15.22,15.22,0,0,1-.62,1.74,2.11,2.11,0,0,1-1.35,1.33.49.49,0,0,0-.1.06l.13.05,4.44,1.1a1,1,0,0,0,1-.41,8.88,8.88,0,0,0,1.15-2.49,21.1,21.1,0,0,1,20-15.25,21.25,21.25,0,0,1,6.49.88A21.11,21.11,0,0,1,70.19,22.07a7.83,7.83,0,0,0,1.13,2.34,1,1,0,0,0,1,.36l4-1ZM31,23.07l.13-.05a1,1,0,0,1,1.36.28.29.29,0,0,0,.34.13,1.24,1.24,0,0,0,.33-.15,1.24,1.24,0,0,1,1-.18,3.39,3.39,0,0,1,.35.12.24.24,0,0,0,.29-.07.8.8,0,0,1,.31-.19,1.63,1.63,0,0,1,1.1,0c.07,0,.17,0,.21,0,.24-.18.65-.22.6-.66a.29.29,0,0,1,0-.13,4.84,4.84,0,0,0,.24-.49,7,7,0,0,1,.84-1.53,5.53,5.53,0,0,0,.41-.84c.07-.15.1-.33.18-.47a1.3,1.3,0,0,1,1.1-.61c.37,0,.75-.06,1.12-.09a.61.61,0,0,0,.31-.09.81.81,0,0,0,.1-.94A1.45,1.45,0,0,1,41,16.12a1.86,1.86,0,0,1,.36-1.19,1.67,1.67,0,0,1,1.24-.69,3.49,3.49,0,0,0,.46-.08,1.46,1.46,0,0,1,1.06.19,1.17,1.17,0,0,1,.37,1.56,1,1,0,0,0-.18.73,2.53,2.53,0,0,1,0,.55s-.05.14-.08.14c-.3,0-.29.23-.32.4s-.11.24-.26.24h-.26c-.34,0-.35,0-.48.29l-.05.13a.32.32,0,0,0,.13.44,3.94,3.94,0,0,0,.5.28,1,1,0,0,1,.63.75c0,.22,0,.44.08.66a9,9,0,0,0,.82,2.38.17.17,0,0,0,.12.09c.31,0,.62,0,.93,0,.13,0,.17-.08.09-.21s-.27-.52-.41-.77a.37.37,0,0,0-.12-.14.63.63,0,0,1-.28-.75c.07-.27.18-.53.25-.79a1.48,1.48,0,0,0,.09-.47c0-.74.07-.9.8-1.08.25-.07.36-.19.33-.39a.46.46,0,0,0-.46-.45,2.38,2.38,0,0,1-.48-.05.25.25,0,0,1-.14-.17,2,2,0,0,1,0-.46c0-.16,0-.24-.2-.26s-.17-.12-.09-.24.09-.1.13-.16a.54.54,0,0,0,.09-.67c-.09-.14-.16-.29-.24-.43a.16.16,0,0,1,0-.1,1.15,1.15,0,0,1,.39-.84,1.57,1.57,0,0,1,1-.32c.32,0,.64,0,1,.09a1.36,1.36,0,0,1,1.16,1c.1.38.19.77.3,1.14a3.13,3.13,0,0,1,.2,1.22.5.5,0,0,1-.44.53c-.22.05-.44.08-.67.12a.71.71,0,0,0,.46.58l.66.28a.79.79,0,0,1,.44.53,7.58,7.58,0,0,0,.35,1c.23.54.5,1.06.76,1.58a.58.58,0,0,1-.11.75c-.2.2-.38.42-.58.64,0,0,.08,0,.1,0a1.46,1.46,0,0,1,1.06.18c.39.17.41.16.6-.21a.82.82,0,0,1,.88-.52.27.27,0,0,0,.29-.17c0-.09.1-.18.14-.27a.72.72,0,0,1,.56-.43,1.73,1.73,0,0,1,.95.07c.42.15.63,0,.75-.38a6.62,6.62,0,0,0,.17-.75c.07-.48.13-1,.19-1.43a1.46,1.46,0,0,1,.29-.71,2.54,2.54,0,0,0,.28-.5c.1-.23.06-.28-.19-.31-.52-.06-1-.11-1.56-.2a5,5,0,0,1-2.63-1.42,5.87,5.87,0,0,1-1.62-3.58,13.55,13.55,0,0,1,.06-3,3,3,0,0,1,.5-1.53l-.08,0a22.31,22.31,0,0,0-3.52.13,18.47,18.47,0,0,0-8,3,21.42,21.42,0,0,0-4.28,3.76,20.06,20.06,0,0,0-2.83,4.08,23.19,23.19,0,0,0-1,2.48C31.26,22.31,31.17,22.67,31,23.07Zm33.13.54.24-.35a1.11,1.11,0,0,1,1.49-.46l.23.09a.31.31,0,0,0,.36,0,1.53,1.53,0,0,1,1-.28c.28,0,.39-.1.35-.38a1,1,0,0,0-.05-.24,26,26,0,0,0-1.3-3.25,15.93,15.93,0,0,0-2.1-3.1l-.2-.21-.08.14a4.34,4.34,0,0,1-1.34,1.54,7,7,0,0,1-3.24,1.19.41.41,0,0,0-.25.11c-.21.26-.4.53-.6.8a.69.69,0,0,1-.17.16,1.76,1.76,0,0,0-.94,1.33c0,.22,0,.44,0,.67,0,.41,0,.83-.07,1.24a1.17,1.17,0,0,0,.33.87c.09.12.18.13.31,0A5.44,5.44,0,0,1,58.8,23a1.66,1.66,0,0,1,1.2-.37,4.77,4.77,0,0,1,1.77.75c.17.11.27.13.43,0a1.16,1.16,0,0,1,1.67,0Zm-42.59-.7a.63.63,0,0,0,.62.39,2.31,2.31,0,0,0,1.3-.87,5.41,5.41,0,0,0,.79-1.69A26.48,26.48,0,0,1,34.66,6,26,26,0,0,1,47,1.46a26.43,26.43,0,0,1,8,.37,26.24,26.24,0,0,1,15.67,9.73A26.26,26.26,0,0,1,75,19.92a13.36,13.36,0,0,0,.7,2,2.66,2.66,0,0,0,1.55,1.39.56.56,0,0,0,.68-.39l-.11,0a1.58,1.58,0,0,1-1.11-.65,5.34,5.34,0,0,1-.81-1.64A27,27,0,0,0,55.76,1.37,27.56,27.56,0,0,0,47.4.82,27,27,0,0,0,23.83,20,7.74,7.74,0,0,1,23,22a1.61,1.61,0,0,1-1,.82Zm6.76,2.18c.19.07.37.12.55.19a.32.32,0,0,0,.43-.1,4.54,4.54,0,0,0,.56-.89,18.7,18.7,0,0,0,.63-1.94,19.53,19.53,0,0,1,5.69-9.5,19.18,19.18,0,0,1,10.09-5,20.51,20.51,0,0,1,9.19.51A19.56,19.56,0,0,1,68.7,21.49c.2.66.36,1.34.56,2a4.66,4.66,0,0,0,.9,1.65c.07.08.2.19.28.18a5.52,5.52,0,0,0,.71-.22,5.63,5.63,0,0,1-.46-.49,6.36,6.36,0,0,1-1-2.2,20.89,20.89,0,0,0-1.54-4.12,20.31,20.31,0,0,0-7.16-8,20.09,20.09,0,0,0-6.75-2.8,21.68,21.68,0,0,0-5.34-.45,20.29,20.29,0,0,0-13.29,5.51,19.92,19.92,0,0,0-4.94,7.22C30.27,20.85,30,22,29.61,23A4.1,4.1,0,0,1,28.35,25.09Zm-4.63-6.63,1.54-3.51a5,5,0,0,0-3.46.85A3.17,3.17,0,0,1,23.72,18.46Zm50.56-3.52,1.54,3.51a3.19,3.19,0,0,1,1.93-2.65A5.12,5.12,0,0,0,74.28,14.94ZM56.35,22.26v-.06c.12-.15.26-.29.36-.45s.24-.43.39-.62a.44.44,0,0,0,.07-.44.81.81,0,0,0-.16-.23l.18-.13-.09-.2.19,0,0,0a1.4,1.4,0,0,1,.12-.32c.14-.21.3-.41.47-.62.53,0,1.22-.62,1.16-1l-.9.63L58,18.69l.17-.53c0-.14,0-.22-.15-.24a.42.42,0,0,0-.43.17c-.11.14-.2.29-.31.43s-.23.14-.3-.05,0-.14-.05-.2a1.32,1.32,0,0,0-.11-.18l-.06,0a.69.69,0,0,0,0,.21.51.51,0,0,1-.08.53,4.11,4.11,0,0,0-.59,1.81c-.06.47-.08.94-.12,1.42a4.48,4.48,0,0,0,0,.53.57.57,0,0,0,.41.55.32.32,0,0,0,.27-.09,1.23,1.23,0,0,0,.16-.86.49.49,0,0,0-.09-.15l-.16.1ZM77.73,16.4c.11.1.26.17.32.29a6.68,6.68,0,0,1,.53,1.23,5.66,5.66,0,0,1,0,2.9c-.15.58-.23,1.2-.86,1.51a.51.51,0,0,0,.75,0,1.65,1.65,0,0,0,.46-.78,7,7,0,0,0,.27-3.24,5.23,5.23,0,0,0-.65-1.77A.54.54,0,0,0,77.73,16.4Zm-55.94,0a.52.52,0,0,0-.79.18,5,5,0,0,0-.66,1.83,6.92,6.92,0,0,0,.36,3.37,1.23,1.23,0,0,0,.49.66.48.48,0,0,0,.64-.07,1.4,1.4,0,0,1-.73-1c-.07-.26-.13-.51-.18-.77a5.29,5.29,0,0,1,.49-3.66A3.77,3.77,0,0,1,21.79,16.38Zm17.49,4.73h-.06c-.3.47-.6.93-.89,1.4a.19.19,0,0,0,0,.18c.24.18.49.35.77.55A8.34,8.34,0,0,0,39.28,21.11Zm10.06.34h-.08c0,.47-.09.95-.11,1.42a.82.82,0,0,0,.16.38c.06.11.15.09.22,0l.44-.61Zm-6.43,1.48h1l-.56-1.23Zm1.18,1.74v.69h0Zm-8.1.45c-.2-.11-.35-.07-.43.1Zm22.83-1.27h-.06l.06.55h0Zm-39.3.4.06,0,.11-.35,0,0ZM59.85,11.92h0l-.07.38h.06Zm8.81,12.6.21.09-.08-.24ZM52,11.84c-.15.07-.16.12,0,.24Zm-.68,2.38c0,.28,0,.32.13.31ZM21.17,23.54l0-.05-.48,0v0Zm33-9.71c0,.15,0,.25.15.27ZM48.86,26.46h.05l.11-.38h0ZM67.53,24.4h0v-.25h0A2.09,2.09,0,0,0,67.53,24.4ZM31.27,26.3v0h0ZM57.82,14.14l-.05,0,.12.27,0,0ZM55.24,14h-.07l0,.28h0ZM76.31,24.55h0l.37,0v0Zm-23.24-.92v0l.41,0v0ZM51.63,8.73v0l.23,0V8.74Zm4.15,3.93h0v-.27h0ZM52.87,14.8h0V14.6h0A.93.93,0,0,0,52.87,14.8ZM64.59,25.28h0l0,.29h.05ZM30,26.07l0,.06.24.07v0Zm27-.83h.06V25h0Zm-16-.09,0,0,.22-.12,0,0Zm16.15.75,0-.05-.2.12,0,0ZM53.68,13.72v.07l.19,0v-.06ZM32,24.54h0v.24h0Zm18.64,1.2v0l-.29,0v0ZM52.13,12V12l.17,0v0ZM59.62,15l0,0,.11-.2,0,0ZM79.79,26.88l0-.06-.17,0v0ZM56.1,9.9l0-.06-.18-.06v0ZM52.75,9l0,.05.15.11,0,0Zm.32,7.81.05,0,.08-.18,0,0Zm-21.35,7,0,.05.19-.08,0-.05Zm-6.88,2.79v0h-.31v0Zm29-1.89,0,.05.19.07,0,0Zm1.63-7.14v0l-.22,0v0Zm19.82,8.26v0H75v0Zm5.9-1.41,0,.06.14,0,0,0ZM54.13,12.86v0H54v0ZM75.88,26h0L76,25.8h-.06Zm4.62,1,0,0,.09.17,0,0ZM43.76,25.36l0,0-.11-.19,0,0Zm-3.86-.77-.06,0,0,.12.05,0Zm20-1.27h0l0,.23h0ZM61,14.27l0,0L61,14.09l0,0ZM26.42,26.15l0,0,0,0a.31.31,0,0,0,0-.08ZM52.95,10.22h0V10h0ZM55.68,15l0,.05.11-.09,0,0Zm4.69,10.83,0,0,.07-.18,0,0Zm8.52-.65,0,0-.18-.06v0ZM34.64,26h0a1.71,1.71,0,0,0,0-.26h0ZM37,26h0l0-.22h0Zm1.19-1.23,0,0-.1.11,0,0Zm19.35-9v-.05l-.14,0v0Zm-3.89.3h0l0,.21h0Zm5.75.68v0h.13v0ZM54.06,9.53h0l0,.18h0A.76.76,0,0,0,54.06,9.53Zm-20,15.35h0v-.22h0Zm14.58-.93,0,0-.07-.12,0,0Zm-2.13.61,0,0,0-.13h0Zm9.59.42,0,0,.06.14,0,0Zm-21,.2,0,0,.13-.08,0,0Zm30.45.67h0v.1h0ZM39.55,24.61h0l0,.12h0Zm36.31,0,0,0,.1,0,0,0Zm-44.78-.76,0,0-.07.12,0,0Zm49.37.8h0l0-.17h0Zm-38.79.21v0l.12,0v0Zm34.42.73,0,0,.11-.14,0,0Zm-51.53,0v0l-.18,0v0Zm27-15.27.05,0-.07-.13,0,0Zm1.23,2.51,0,0-.09-.1,0,0ZM35.07,26.31v0h-.23v0ZM16.75,24.81l0,0,.13-.07,0,0Zm57.8.93,0,0-.17.08v0ZM52.68,9.35h0c0,.06,0,.12,0,.18h0ZM52.35,9h0l0-.11h0ZM31.12,25.7l0,0-.11,0v0ZM53.54,10.46v0l-.11,0v0Zm2,3.43s0,0,0,0a.05.05,0,0,0,0,0s0,0,0,0S55.51,13.87,55.52,13.89Zm1.38-.81v0h-.13v0ZM68.05,25.24l0,0,.12.05,0,0ZM39.14,23.77v0l.12,0v0Zm3.63,1.79h0v-.12h0ZM54.68,10.11v0h.12v0Zm22,16.55v0l.1,0v0Zm-24.17-12h0v-.1h0A.33.33,0,0,0,52.45,14.7ZM37.34,25.25h0v-.19h0ZM54.17,11.14h0v.15h0Zm26.1,15.44,0,0-.08-.11,0,0ZM53.33,24.75v0h-.1v0Zm3.49-.26h0v-.11h0ZM62,17l0,0-.09.06,0,0ZM37.36,24.41h0v.14h0Zm-1.11.26,0,0,.11.07,0,0ZM47,24.17v0h.09v0Zm27.56.58,0,0,0,0a.15.15,0,0,0,0,0Zm-13.12-.37h0v.09h0Zm-2.34.76,0,0L59.06,25h0Zm-16.53,0,0,0-.09.05v0Zm36-1.68v0h-.15v0ZM56.34,14.7h0l.05-.13h0ZM78,23.51l0,0,.1-.07v0ZM59.5,23.14l0,0-.09,0v0Zm1.15-6.53v0h0Zm2.81-2,0,0,.1,0v0Zm-11.27.05a.26.26,0,0,0,0,.06s0,0,0,0,0,0,0,0S52.21,14.65,52.19,14.62Zm28.92,10.6v0l-.11,0v0Zm-38-1.42,0,0-.06.07,0,0ZM68,23v0h.15v0Zm-8,1.07h0L60,24ZM57.16,13.89h.05v-.1h0Zm3.07-1.82h0v.15h0ZM48.39,25.94l0,0,0,0v0ZM33.31,26l0,0,.09.06,0,0Zm20.34-14.2h-.05l0,.1h0ZM42.31,26l0,0,.11-.08,0,0Zm-18-.18h-.17v0ZM60.68,12.31h0a1.47,1.47,0,0,0,0,.15h0Zm-7.88-.14v0h-.09v0ZM20.62,26.61h.15v0ZM51.42,9.5l0,0-.05,0v0Zm1.3,2.81h0v.17h0C52.72,12.42,52.72,12.36,52.72,12.31ZM73.48,26.21l0,0-.09.06,0,0ZM52,25.81h0Zm3.64-16v0h-.06s0,0,0,0Zm2,2.07,0,0,.05.08,0,0Zm-5-1.94h0v-.1h0A.28.28,0,0,0,52.61,9.92ZM66.1,25.75l0,0-.08.06,0,0Zm-6.46-13h.05v-.11h0ZM54.23,9.41l0,0,0,0,0,0ZM67.88,24.08s0,.07,0,.07H68Zm-5.48.4v0h0Zm-9.72-8.92,0,0,0,0,0,0Zm5-2.79,0,0-.06.08,0,0ZM57.21,24.5h0v.09h0Zm-34,1,0,0-.06-.06,0,0ZM56.77,13.47h0l0-.11h0ZM60,12.31l0,0,.08,0v0Zm.06,4.14,0,0L60,16.36v0ZM57.66,17h0v.13h0Zm11,6.9,0,0,0-.07,0,0Zm-1-.55-.07,0s0,0,0,0l0,0Zm13.47.8,0,0-.1,0v0Zm-13.8-.83,0,0-.06.07,0,0ZM43.52,25.11l0,0L43.49,25l-.05.05Zm33.64.16v0h.11v0ZM51,24.84l0,0,0,0h0S51,24.85,51,24.84Zm4.21.17h0l0,.1h0Zm1.43-7.64,0,0a0,0,0,0,0,0,0l0,0Zm6.36,7,0,.15.06-.06Zm-29-.84,0,0-.05,0v0Zm23.53-12.7,0,0h-.06s0,0,0,0ZM81.68,23.52l0,0,.06.09,0,0ZM59.43,16.06l0,0,.08,0v0Zm-6.54.57,0,0,.06.06,0,0Zm-18.63,7v0h-.06s0,0,0,0Zm40.69,1h0Zm-8.51.87,0,0-.07,0v0Zm-13.69.25v0h-.12v0Zm21.08.95v0l.08,0v0ZM59.17,13.1v0h.08v0ZM45.57,24.53l0,0,.08,0v0Zm1.78.94v0h.08v0Zm21.18-2,0,0,0,0,0,0A.22.22,0,0,0,68.54,23.47ZM53.77,9a.19.19,0,0,0,0,0l0,0,0,0ZM31.35,24.68l0,0,0,0,0,0Zm4.16-1.21v0l.08,0v0Zm26.94-6.78,0,0,0,0,0,0Zm-10.8-5.87,0,0,0,.08h0ZM18.14,24.2v0h-.08v0Zm25.25.67,0,0,0,0,0,0Zm12.72-7.15h0v.09h0Zm-.39,0v0l-.08,0v0Zm0-6.22v0h-.09v0Zm1.81,5.85h0l0,0,0,0Zm3.44.05,0,0h0v0Zm-6.39,7.51,0,0a.14.14,0,0,0,0,0l0,0Zm5.52-10.37v0h.11v0Zm5.69,9.64h0v-.09h0Zm11.89,0,0,0,0,0s0,0,0,0Zm-8.94.13h0v-.09h0A.44.44,0,0,0,68.75,24.24ZM50.1,25v0h0Zm4-.86,0,0,.06,0,0,0Zm9-8.38,0,0,0,0,0,0Zm-11.26,0,0,0s0,0,0,0l0,0S51.79,15.73,51.8,15.72ZM18.29,24.44l0,0h0l0,0ZM61.5,16.63h0l0,.09h0Zm19,10.24,0,0h0v0ZM57.14,10.47l0,0,0,0,0,0Zm.72,6h-.06l0,0,0,0Zm-3-5.64h0l0,0,0,0Zm-1.38-.08h0s0,0,0,0h0ZM48,24.53l0,0,0,0h0Zm4.54-8.13v0l0,0,0,0Zm10.22-.07,0,0h0l0,0Zm3.38,8.19h0v.09h0ZM56.2,10.09l0,0,0,0h0ZM63.43,15v0l0,0v0ZM82,24.24l0,0,0,0,0,0ZM54.3,17.3l0,0,0,0,0,0Zm23.24,7v0l0,0,0,0Zm-43,.07v0h-.09v0ZM62,24.78l0,0a0,0,0,0,0,0,0h0S62,24.79,62,24.78Zm-.89-7.92h0v0l0,0Zm1.62,7.87,0,0,0,0,0,0Zm-15,0,0,0,0,0,0,0Zm-25.33,0h0a.2.2,0,0,0,0,0h0Zm35.53-8h0l0,.08h0Zm1.47,8.75,0,0v0l0,0Zm-36,.4h0l0-.06h0ZM53.13,9.33l0,0-.06-.05,0,0ZM58,13.45l.12,0,0,0Zm-2.51-1.17.06.05.06-.06-.05-.05ZM31.29,25.44l0,0,0,0h0ZM52.56,23.8l0,0h0l0,0Zm-17.7,1.59,0,0h0l0,0Zm31.45-1.5,0,0,0,0,0,0S66.3,23.87,66.31,23.88ZM36.87,25.42h0l0-.07h0ZM54.55,13.64l0,0,0,0,0,0ZM40.16,23.9l0,0,0,0,0,0Zm13.72,0,0,0,0,0,0,0Zm7.59.08h0v-.09h0Zm3.5-.11,0,0,0,0,0,0Zm-.15-.23h0v.1h0A.49.49,0,0,0,64.81,23.65Zm-10-11h0l0,0,0,0ZM33.67,23.71v-.05h0a0,0,0,0,0,0,0ZM56.09,12.77s0,0,0,0h0l0,0Zm-25.7,13,0,0h0v0ZM53.28,12.64s0,0,0,0l0,0s0,0,0,0ZM53.46,9l0,0,0,0,0,0ZM33.06,25.83v0l-.06,0v0ZM60.75,12.9l0,0,0,0,0,0ZM45.69,23.57v0h0Zm-10.37,0,0,0-.06.07,0,0Zm18.76-.05v0l0,0,0,0Zm11.47,2v0h0Zm-8-12.49h0l0,.07Zm-3,.05,0,0h0v0ZM75.47,26h0s0,0,0,0l0,0ZM58.66,17.81l-.06,0,0,0s0,0,0,0Zm-25.09,8.1,0,0,0,.07,0,0Zm7.77-1.84v0h-.08v0ZM52.09,9.78s0,0,0,0H52s0,0,0,0Zm3.52,4.35,0,0,0,0h0Zm4.19,9,0,0,.07,0v0Zm8.49,0,0,0,0,0,0,0Zm5.47,2.82h0l0-.08h0Zm-19-.67,0,0,0-.07h0Zm-14.86.63,0,0,0,0,0,0Zm11.47-.06v0h0Zm16.54-2.62,0,0,0,0,0,0ZM52.27,9.11h0l0,0ZM18.58,23.26l0,0h0l0,0Zm28.8,1.17,0,0h0Zm-7.78-.68v0h0v0ZM81,23.14v0h.07v0Zm-14.37.41v0h0v0Zm-13-13.8h0v.07h0Zm-12,14.49,0,0s0,0,0,0l0,0Zm-6.41-.11,0,0s0,0,0,0l0,0Zm42.09.37,0,0,0,0,0,0S77.39,24.5,77.39,24.51ZM53.84,22.93l0,0s0,0,0,0l0,0S53.85,22.94,53.84,22.93Zm-20.16,1.2v0l0,0,0,0ZM54.8,22.85l0,0h0l0,0ZM39,23.93v0l0,0s0,0,0,0Zm-1.52-.62v0h.06v0Zm4.38,1.18,0,0h0ZM54.78,9.85v0h-.06v0ZM52.13,8.77l0,0,0,0,0,0ZM48.29,23.66v0h-.07v0ZM53.57,17l0,0,0,0,0,0ZM34.78,24h0v.06h0Zm22.37-6.57,0,0,0,0,0,0ZM37.23,23.39l0,0h0l0,0Zm-4.59.43v0h0v0Zm6.26.43h0v-.06h0Zm29.16-.86,0,0s0,0,0,0l0,0ZM66,23.52h0v-.08h0Zm-7.83-6h0l0-.06h0Zm3.17,6v0l-.06,0v0Zm17.62,0h0l0,0h0ZM60.22,17.54l0,0,0,0,0,0Zm-9-8.3,0,0h0v0Zm9.54,8.26,0,0,0,0,0,0ZM54,10.3v0h0Zm.23,6.76h0V17h0Zm.66.1v0l-.06,0h0Zm-9,7.26,0,0h0l0,0ZM53.1,13.83l0,0h0a.11.11,0,0,0,0,0Zm-1-1.57,0,0,0,.05,0,0Zm14,13,0,0a.11.11,0,0,0,0,0l0,0A.12.12,0,0,0,66.06,25.3Zm8.1-.14h0l0,0ZM57.36,14s0,0,0,0h0v0Zm-4.17.1,0,0,0,0h0Zm7.61,0,0,0,0,0,0,0Zm7.4,11,0,0h0v0Zm-17.72,0,0,0,0,0h0Zm-7.69,0,0,0,0,0,0,0Zm31.84.84Zm-43,.07h0l0,0h0ZM55.86,11.77h0v.05h0A.18.18,0,0,0,55.86,11.77ZM24,26.08l0,0h0l0,0ZM55.48,14.8h0ZM24.07,24.91l0,0,0,0s0,0,0,0Zm53.16-.09v0h.05v0Zm-35.7,1.27,0,0,0,0,0,0S41.52,26.1,41.52,26.09ZM55.47,11.5v0h0v0Zm7.1,14.25v0h0v0ZM55.42,12.67h0l0,0,0,0Zm-29.6,13,0,0,0,0h0ZM61.45,12.84l0,0,0,0,0,0A.16.16,0,0,0,61.45,12.84ZM74.69,25.63v0l.06,0Zm-6.35-.1h0ZM57.83,13l0,0h0l0,0Zm-9,12.57,0,0s0,0,0,0l0,0Zm29.88-.07s0,0,0,0h0s0,0,0,0Zm-37.33.37h0v-.07h0A.23.23,0,0,0,41.42,25.88Zm13.91-12.8,0,0h0v0Zm-2.14.18h0v-.07h0Zm-1-.78,0,0h0Zm22.88,13v0h0v0ZM57,13.21v0h.07v0ZM54.83,25.48l0,0,0,0h0Zm.07-12,0,0,0,0,0,0Zm-22.53,12,0,0s0,0,0,0l0,0Zm22.81-11.8,0,0h0a.14.14,0,0,0,0,0ZM81.45,25.26l0,0h0v0ZM52.73,15.51h0v-.07h0ZM17.8,24.61h0v0Zm5.88,0h0ZM54.17,10.78l0,0,0,0h0ZM19,27l0,0,0,0v0Zm5.72-2.39h0Zm-3,2h0Zm59.75-2,0,0h0l0,0Zm-18,.23v0h0l0,0ZM52.64,16h0s0,0,0,.06h0ZM36,24.5l0,0,0,0,0,0ZM19.83,26.81l0,0,0,0,0,0Zm33.8-2.06h0Zm2.6-9.7,0,0h0Zm-.27.08h0v-.06h0A.25.25,0,0,0,56,15.13ZM54.56,11v0h.06v0Zm8.22,4.06,0,0h0Zm-8.89-4.14h-.08v0ZM20.37,26.66h0S20.4,26.67,20.37,26.66ZM54.54,11.35l0,0h0l0,0ZM23.08,26.68v0h0v0Zm54.29-.13v0h0ZM59.87,16.4l0,0,0,0,0,0ZM55.3,11.12v0h0a0,0,0,0,0,0,0ZM31.44,25.49h0Zm-8.61,1.29v0Zm-.56,0h0Zm27.38-1.36h0a.16.16,0,0,0,0,0h0Zm25,1.33h0l0,0ZM40.7,25.32h0l0,0Zm-4.62,0h0v0ZM39,24.74h0v0h0ZM32.2,23.65l0,0h0l0,0Zm7.85,2.08h0l0,0h0Zm23.72,0h0Zm2.16,0,0,0v0l0,0Zm-34.29-1.2v0h0v0Zm30.78,1.14h0Zm-12.25,0h0a0,0,0,0,0,0,0Zm-10.61,0h0a0,0,0,0,0,0,0h0Zm15.39,0,0,0,0,0,0,0Zm25,1.29h0l0,0Zm-2-1.42,0,0h0l0,0ZM47.61,23.79v0h0v0ZM41.76,26.3h0ZM51.22,25s0,0,0,0h0v0Zm-.43-.7h0v0h0ZM32.41,25h0Zm47.14-.94,0,0v0l0,0Zm-61.17,0h0v0Zm28.86.22h0l0,0ZM64.51,25h0a0,0,0,0,0,0,0h0ZM44.44,26.05s0,0,0,0h0v0Zm-18.17.25h0Zm51.24-1.44h0l0,0h0Zm-13.31,0,0,0h0l0,0Zm14.87,1.18h0v0h0ZM63.84,24.19h0v0h0Zm-27.33.67v0h0v0Zm3.67-.66v0h0v0Zm-6.72.67s0,0,0,0h0v0Zm7.13-.69h0ZM26,25.82l0,0h0Zm34-1.4v0a0,0,0,0,0,0,0v0Zm3.57,1.42h0v0Zm.43-.66h0v0Zm-13.11,0h0v0h0ZM68,25.82h0ZM37.1,25.2h0a.05.05,0,0,0,0,0l0,0ZM40.95,24l0,0h0l0,0Zm14.42.45v0h0s0,0,0,0Zm-15.47-.08h0l0,0h0ZM57,24h0l0,0ZM19.39,26v0h0v0ZM40.33,24l0,0s0,0,0,0h0ZM31.25,25.9v0h0Zm18.38-.8h0v0ZM26,26.34h0a0,0,0,0,0,0,0ZM55,13.25h0Zm-1.45-3.12,0,0h0v0Zm.67-.38v0h0v0ZM55,22.93h0v0h0Zm7.93-7.38h0Zm-3.67,0v0h0a.05.05,0,0,0,0,0Zm8.48,7.52h0a.29.29,0,0,0,0,0h0A.29.29,0,0,0,67.75,23.08Zm-9.5-7.62h0Zm-2.87,7.77a.24.24,0,0,0,0,0h0a.28.28,0,0,0,0,0ZM55.22,9.47h0l0,0h0ZM65.36,23.18h0v0h0Zm-9.9-8,0,0h0Zm7.16-.1h0l0,0h0ZM37.8,23.33l0,0h0v0Zm21.3,0h0l0,0h0Zm1.37,0,0,0h0l0,0ZM56.42,13.6v0h0v0Zm5.3,1.53v0h0v0Zm2-.23v0h0a.05.05,0,0,0,0,0Zm-1.31-.08h0l0,0h0Zm-6.18-3.9h0v0h0Zm-2,5.79,0,0,0,0v0Zm6.9-3.76h0v0h0Zm-1.4,3.68v0s0,0,0,0v0Zm2.49.29v0h0v0Zm-.67.05h0v0h0Zm-2.25-.43v0l0,0v0Zm-1.37.58v0h0v0Zm1.45-.93h0a.13.13,0,0,0,0,0h0A.22.22,0,0,0,59.38,16.18ZM61,12.9l0,0h0a0,0,0,0,0,0,0Zm-6.86,4.27h0v0Zm-.94-4.3h0s0,0,0,0h0Zm7.47-.07h0Zm.7,3.3h0v0Zm-8.21,0v0h0ZM51,12.71h0v0h0ZM57.12,16h0Zm-1.59,1.37v0h0v0Zm1.23,0h0Zm-2.21.06h0Zm1-4.81v0h0v0Zm.13,4.8h0l0,0h0Zm1.61,0,0,0h0l0,0Zm1.86.12,0,0v0h0Zm2.5-1.76,0,0h0l0,0Zm-6.89-2.58h0v0h0ZM52.15,10.6h0v0h0ZM55,11.77l0,0v0l0,0ZM53.52,12h0v0Zm2.08,2.6v0h0v0ZM51.23,9h0V9h0Zm9.5,5.49h0ZM37,23.55v0h0v0ZM54.55,14l0,0,0,0h0Zm8.28,9.6h0l0,0h0Zm-3.91,0,0,0h0l0,0ZM54.53,10.38v0h0ZM46,23.64h0Zm10.53-9.3v0l0,0v0Zm-4.74,0,0,0h0l0,0Zm8.7,0h0Zm-2.64-3.61,0,0v0l0,0ZM34.74,25.58a0,0,0,0,0,0,0h0ZM55.66,13.06h0l0,0Zm4.65,11.53a0,0,0,0,0,0,0h0Zm-26.55,0h0ZM52.89,14.15h0Zm.7-3.56h0Zm-31,14.61h0S22.61,25.2,22.61,25.19ZM56.46,16h0ZM56.29,13v0h0ZM47.58,24.61v0h0ZM61.73,14.25h0v0Zm-3-1.22h0Zm3.16,0v0h0a0,0,0,0,0,0,0ZM57.67,25.48h0a0,0,0,0,0,0,0h0ZM51.47,14.25h0Zm-29.2,11h0Zm2.24-.59h0ZM54.72,14h0l0,0Zm-.37-4h0Zm-2.49.8h0ZM38.37,24.45h0Zm1.33,0h0v0Zm3.32,0v0h0v0Zm18.23-7.81s0,0,0,0h0s0,0,0,0ZM56.81,14h0ZM56,16.62v0h0a0,0,0,0,0,0,0Zm4.65-2.74v0h0Zm2,2.61h0l0,0h0Zm2.8,8h0ZM57.64,10.71h0v0Zm-38.25,15h0l0,0Zm58.81-.07h0ZM37.07,24.5h0v0ZM57.58,14h0ZM25.43,26.46h0ZM53.48,9.94v0h0ZM21.17,25.59h0Zm35.79,0h0Zm17,0h0v0ZM19.46,27h0a0,0,0,0,0,0,0Zm34-16.81h0ZM18.77,24.79h0v0Zm35.75-13.9h0ZM24.28,24.78v0h0ZM44.93,25h0v0Zm-9.9.27h0ZM59.44,15.18h0v0Zm1.82,9.61v0l0,0h0ZM76.39,26.7h0Zm-57-1.87h0ZM53.43,13.55h0ZM76.49,25.27h0ZM61.08,13.64h0ZM78.41,25.31h0l0,0Zm-30.55-.44v0ZM62.06,14.75h0ZM30.74,24.92v0h0ZM60.93,13.56h0ZM73.57,26.63h0Zm4.22-1.18h0Zm-.72-.82h0ZM57.41,10.56h0l0,0h0Zm-1.83,2.68h0v0h0ZM23.34,24.67h0Zm56.12,2.12h0ZM61.75,15.63h0Zm14.38,11h0a0,0,0,0,0,0,0ZM48.05,24.68s0,0,0,0h0v0Zm-.92.78v0h0Zm7.06-12.16h0v0Zm.89,11.38h0Zm1.75,0h0Zm-11.51,0h0Zm5.28,0v0h0ZM61.89,13.36v0h0Zm-9,0a0,0,0,0,0,0,0h0a0,0,0,0,0,0,0ZM33.53,26.12h0Zm-1.82,0h0Zm28-.33v0ZM56,11.47v0h0l0,0ZM54.34,23h0ZM54,22.83h0v0h0Zm26.12,3.41h0ZM54.41,22.75h0Zm6,1.31h0ZM57.08,11.28h0l0,0h0Zm-.17,0h0ZM44.14,25.79v0h0ZM80.79,24h0a0,0,0,0,0,0,0Zm-33.15.1v0h0v0Zm6.9,0v0h0v0ZM59,17.56h0Zm-4.8-.09h0Zm-33.9,8.59v0h0Zm54.29,0h0Zm-49.48,0h0ZM79.34,26h0Zm-36-2.35h0Zm18.07,0h0Zm-16.13,0h0ZM44,23.6h0ZM64.42,26h0Zm-24.86.14a0,0,0,0,0,0,0h0a0,0,0,0,0,0,0Zm.09,0h0Zm-8.49-2.43v0ZM58,11.7h0Zm2.41,12h0Zm20.1-.19,0,0h0S80.48,23.53,80.48,23.54Zm-20.08,0h0v0Zm13.23,2.56v0h0v0Zm-42.07-.16h0ZM17.68,23.49h0Zm7.1,2.45h0Zm29.46-2.56h0Zm-20.65.49,0,0h0A.07.07,0,0,0,33.58,23.86ZM80,25.92h0ZM53.68,11.61l0,0h0A.09.09,0,0,0,53.68,11.61Zm3.6,12.57h0Zm3.28-6.83h0l0,0ZM48,25.75h0ZM40.86,24.3h0Zm24.85,1.38h0ZM61.6,17.16h0v0h0ZM46.8,24.22h0a0,0,0,0,0,0,0ZM59.57,12.88h0A0,0,0,0,0,59.57,12.88Zm2.1,0h0a0,0,0,0,0,0,0ZM58,24.27a0,0,0,0,0,0,0h0a0,0,0,0,0,0,0Zm3.25-7.09h0v0Zm-27.45,8.5h0ZM54,16.74h0ZM75.9,26.41a0,0,0,0,0,0,0h0a0,0,0,0,0,0,0ZM44,25.65h0v0h0Zm.51-1.47h0v0ZM33.93,26.46h0Zm-8.47-1.18h0Zm23.25,1h0Zm-6.89-1h0Zm-10.32.33h0ZM54.2,11.55h0Zm.45.13h0ZM21.33,25.54h0ZM51.56,11h0Zm6.59,2.17h0v0Zm-2-1.92h0ZM41.51,25.59h0Zm2.94.32h0Zm17.88-9.09h0ZM46,24.33h0Zm7.7-7.1h0Zm.1-7.27h0Zm7.79,6h0Zm.28.13h0Zm20.31,8.32h0v0Zm-21.06-8h0Zm-8.42,0h0Zm28,6.83h0Zm-61.92.06h0Zm13.07.13h0Zm14.38.28h0ZM52.06,9h0Zm1.63.64h0Zm-1.91,1h0Zm3.39,4.63h0ZM63.06,25h0Zm-4.8-9.25h0Zm-7.95,9h0ZM55.65,14h0Zm-2.76,1.83h0Z"/><path class="cls-1" d="M60.11,32.37a8.44,8.44,0,0,0,.76-.73,2.17,2.17,0,0,0,.6-1.54,1.56,1.56,0,0,1,0-.24h0c0,.09.09.13.15.18a8.54,8.54,0,0,1,.57.69h0v.09h0l0,0h0a2.61,2.61,0,0,1,.54,1.41A3.12,3.12,0,0,1,62,34.79a3,3,0,0,1-2.19,1.12,1.05,1.05,0,0,1-.25,0h0a.3.3,0,0,0-.36.19,4.67,4.67,0,0,1-2.68,2.14,4.49,4.49,0,0,1-1.65.18,8.09,8.09,0,0,1-3-.71,4.38,4.38,0,0,1-1.18-.83,16.28,16.28,0,0,1-2.49-3.09.8.8,0,0,0-.81-.43c-.45,0-.45,0-.45.46,0,.64,0,1.28.06,1.92,0,.31.13.4.44.42a1.49,1.49,0,0,1,.32,0c.08,0,.14.1.2.16s-.14.16-.22.16c-.26,0-.53,0-.8,0H45.09a.4.4,0,0,1-.18,0,.79.79,0,0,1-.16-.16.89.89,0,0,1,.17-.15.51.51,0,0,1,.18,0c.33,0,.42-.1.44-.44,0-.56.06-1.13.06-1.69,0-1.44,0-2.89,0-4.33,0-.5-.14-.62-.64-.63,0,0-.08,0-.1,0s-.2-.09-.22-.16.1-.16.2-.16l1,0c.74,0,1.48,0,2.22,0a3.25,3.25,0,0,1,1.09.23,1.79,1.79,0,0,1,1,2.13,3.11,3.11,0,0,1-1,1.62L49,32.8l0,0a.34.34,0,0,0,0,.08c.85,1,1.68,2,2.55,3a4.69,4.69,0,0,0,2,1.24,6,6,0,0,0,3.85.13,3.27,3.27,0,0,0,1-.63c.22-.17.39-.4.6-.58a.69.69,0,0,0,.19-.57l-.1.18a1.13,1.13,0,0,1-.75-1,1.71,1.71,0,0,1,.79-1.63l1-.72.07,0,0,0Zm1.65.82-.06,0h0l.06,0h0Zm-1.64,1.37h0v0l-.05,0L60,34.8l.06,0,.05-.2Zm.1-.23h0v0Zm-.65,1.07h0v0Zm1.59-1.75v0h0Zm-.61.42-.08,0v0l.07,0h0Zm1-.39-.1.09h0l.1-.1Zm.08-3.47h0l0,0ZM60.22,35l-.14.08.07.08.07-.16h0Zm-.71.79h0l0-.19-.12.18h.1ZM46.91,31h0c0,.48,0,1,0,1.43,0,.16.06.23.2.24l.57.06a1,1,0,0,0,1-.7,2.45,2.45,0,0,0,.1-1.44,1.46,1.46,0,0,0-1.69-1.23c-.16,0-.23.08-.22.26C46.92,30,46.91,30.49,46.91,31Zm12.53,3.73h0V34h0Zm2.25-2h0l.07-.25h0Zm-2,1.47h0l0-.18h0Zm1.06.62,0,0,.16-.07v0Zm.82-3.9h0l0,.18h0ZM60.92,34v0l-.11,0v0Zm.48.31v0l-.12,0v0ZM61.55,33l0,0-.07.1,0,0Zm-.06-.66h0l0,.08h0Zm-.41,2.26v0l.08,0v0Zm.59-1,0-.05,0,0,0,0A.14.14,0,0,0,61.66,33.63Zm-1.92.74s0,0,0,0l0,0s0,0,0,0Zm2-3.57h0v.05h0Zm-1.36,3.8,0,0,0,0,0,0Zm1.63,0v0h0a.17.17,0,0,0,0,0Zm-.68-1.92,0,0,0,0,0,0Zm-.93,2.25h0l0,0h0Zm.4-2.82h0l0,0h0Zm.72-.12s0,0,0,0S61.58,31.93,61.57,32Zm-1.06,1.58,0,0,0,0,0,0ZM62,30.62h0a.29.29,0,0,0,0,0h0Zm-.35-.07,0,0s0,0,0,0h0Zm-2.41,4.77h0v0h0Zm.12-.25h0l0,0h0Zm-1,0,0,0h0l0,0Zm2.8-2.23,0,0h0l0,0Zm.13.67,0,0h0l0,0ZM60.27,33v0l0,0h0Zm.64,1.48h0v0h0Zm1.79-2.07s0,0,0,0h0v0Zm-2.18.35,0,0v0Zm.3,1h0Zm1.72,0h0Zm-.76-.29h0Zm-3,0v0h0Zm2.64-2.71a0,0,0,0,0,0,0h0a0,0,0,0,0,0,0Zm.38.91h0Zm-2.42,3.36h0Zm2.46-.41a0,0,0,0,0,0,0h0a0,0,0,0,0,0,0Zm-.34-1.17h0Zm-1.34,1.3h0Z"/><path class="cls-1" d="M78.16,31c0,.61,0,1.2,0,1.79s0,1.44.06,2.16a4.5,4.5,0,0,0,.08.73c.06.28.17.36.45.39a2.43,2.43,0,0,1,.34,0c.06,0,.11.1.16.15s-.1.14-.16.14c-.22,0-.45,0-.67,0H75.29c-.41,0-.82,0-1.22,0a.79.79,0,0,1-.26-.11,1.58,1.58,0,0,0,.15-.2.25.25,0,0,0,0-.17c-.24-.66-.49-1.31-.74-2a.26.26,0,0,0-.19-.13h-2a.22.22,0,0,0-.16.11c-.21.53-.4,1.07-.6,1.61a1.09,1.09,0,0,0-.05.22c0,.25,0,.34.29.35h.18c.11,0,.23,0,.2.17a.26.26,0,0,1-.19.15c-.19,0-.38,0-.57,0H68.51a.49.49,0,0,1-.2,0,.21.21,0,0,1-.12-.14s.06-.11.11-.15.07,0,.1,0a.94.94,0,0,0,1-.7l1.1-2.75L72,28.92a.67.67,0,0,1,.08-.19c.08-.09.18-.25.26-.24a.45.45,0,0,1,.28.24c.14.29.26.6.38.9l2.27,5.62,0,.07a1.24,1.24,0,0,0,1.61.74.33.33,0,0,0,.28-.28,4.51,4.51,0,0,0,.05-.53q.05-3,.1-6.08a1.62,1.62,0,0,1,0-.35c0-.1.08-.27.14-.28a.42.42,0,0,1,.31.12c.25.24.48.5.72.75l3,3.06L82.94,34a1.84,1.84,0,0,1,.16.23l.08,0a1.6,1.6,0,0,0,0-.19q0-2.12-.09-4.25a1.83,1.83,0,0,0,0-.22c-.06-.39-.18-.5-.58-.52a.71.71,0,0,1-.22,0,.93.93,0,0,1-.2-.15c.07-.05.12-.14.2-.16a1.81,1.81,0,0,1,.39,0h1.8a.79.79,0,0,1,.26,0c.07,0,.12.1.18.16l-.19.15h0c-.54.06-.62.14-.63.68,0,1.12,0,2.25-.06,3.37s0,2.08-.07,3.12c0,.12-.07.32-.12.32a.54.54,0,0,1-.37-.13c-.56-.53-1.1-1.07-1.64-1.62l-2.53-2.57c-.35-.36-.67-.73-1-1.09Zm-6-.17h-.07l-.85,2.28H73Z"/><path class="cls-1" d="M27.23,32.87c.8.93,1.57,1.85,2.37,2.75a1.23,1.23,0,0,0,1.14.47c.2,0,.34-.11.35-.32,0-.47.08-.95.08-1.42,0-1.55,0-3.09,0-4.64,0,0,0-.08,0-.12,0-.43-.15-.55-.58-.57a1.2,1.2,0,0,1-.28,0c-.05,0-.13-.09-.12-.13a.21.21,0,0,1,.12-.15,2.91,2.91,0,0,1,.47,0c.78,0,1.55,0,2.33,0a6.62,6.62,0,0,1,1.41.16,1.73,1.73,0,0,1,1.29,1.9A2.43,2.43,0,0,1,33.12,33c-.09,0-.22-.09-.24-.16s.1-.17.22-.18a1.37,1.37,0,0,0,1.28-1,1.9,1.9,0,0,0-.62-2.2,1.48,1.48,0,0,0-1-.24c-.18,0-.24.07-.24.26,0,1.59,0,3.17,0,4.76,0,.46,0,.91.06,1.37,0,.29.11.37.41.41.14,0,.29,0,.43,0s.14.09.21.14-.14.16-.21.16c-.41,0-.82,0-1.22,0s-.75,0-1.12,0-.88,0-1.31.08a2.16,2.16,0,0,1-2.05-1c-.47-.64-.93-1.27-1.39-1.92a.5.5,0,0,0-.5-.27,3.59,3.59,0,0,1-.55,0c-.11,0-.15,0-.15.14,0,.75,0,1.5.07,2.24,0,.36.11.42.47.46a1.34,1.34,0,0,1,.28,0c.09,0,.24.09.24.15s-.13.17-.26.17H23.31a.53.53,0,0,1-.2,0,.74.74,0,0,1-.17-.14,1.08,1.08,0,0,1,.16-.15s.09,0,.14,0c.4,0,.48-.08.51-.48,0-.64.06-1.29.06-1.94,0-1.3,0-2.6,0-3.9,0-.16,0-.33,0-.49a.4.4,0,0,0-.38-.39c-.14,0-.29,0-.42,0s-.12-.09-.18-.15.12-.16.19-.16c.27,0,.54,0,.82,0,.86,0,1.73,0,2.59,0a2.75,2.75,0,0,1,1.22.29,1.84,1.84,0,0,1,1,1.87,2.94,2.94,0,0,1-1.06,1.83Zm0-1.81A2,2,0,0,0,27,30a1.54,1.54,0,0,0-1.67-.71.26.26,0,0,0-.14.2c0,1,0,1.95,0,2.92,0,.14.05.22.19.23s.54,0,.81.06a.77.77,0,0,0,.58-.25A1.83,1.83,0,0,0,27.21,31.06Z"/><path class="cls-1" d="M22.92,32.39a4.08,4.08,0,0,1-1.54,3.31,4.27,4.27,0,0,1-2.83.86A4.16,4.16,0,0,1,16.41,36a3.75,3.75,0,0,1-1.78-2.71,4,4,0,0,1,1-3.52,3.63,3.63,0,0,1,2.09-1.11,5,5,0,0,1,3.42.47,3.4,3.4,0,0,1,1.73,2.79C22.91,32.06,22.91,32.21,22.92,32.39Zm-6.81-.17a4.29,4.29,0,0,0,.21,1.51,2.91,2.91,0,0,0,2,2.07,2.12,2.12,0,0,0,2.8-1.34,4.73,4.73,0,0,0-.23-3.84,2.53,2.53,0,0,0-2.1-1.43,2.16,2.16,0,0,0-2.42,1.5A4.16,4.16,0,0,0,16.11,32.22Z"/><path class="cls-1" d="M40.4,36.57A4,4,0,0,1,38,35.79a3.85,3.85,0,0,1-1.54-3.41,3.77,3.77,0,0,1,2.23-3.44,4.54,4.54,0,0,1,2.09-.4,4.68,4.68,0,0,1,2.18.52,3.35,3.35,0,0,1,1.79,2.67,4.2,4.2,0,0,1-1.13,3.65,4.09,4.09,0,0,1-2.89,1.19Zm2.83-3.89c0-.22,0-.55-.1-.88a3.31,3.31,0,0,0-1.2-2.1A2.37,2.37,0,0,0,38.09,31a5,5,0,0,0,.17,3,2.82,2.82,0,0,0,2.26,1.9,2.1,2.1,0,0,0,2.42-1.41A5.71,5.71,0,0,0,43.22,32.68Z"/><path class="cls-1" d="M89.4,36.56a4,4,0,0,1-2.55-.82A3.85,3.85,0,0,1,85.39,33a4,4,0,0,1,1.06-3.23,3.77,3.77,0,0,1,2.33-1.15,5.12,5.12,0,0,1,2.8.32,3.33,3.33,0,0,1,2.07,2.75,4.22,4.22,0,0,1-1.07,3.65,4,4,0,0,1-2.81,1.23Zm-2.5-4.39h-.06a13.15,13.15,0,0,0,.3,1.57,2.85,2.85,0,0,0,2.16,2.1A2.14,2.14,0,0,0,92,34.28a5,5,0,0,0,0-3.06,2.71,2.71,0,0,0-2.38-2,2.16,2.16,0,0,0-2.38,1.42A4.64,4.64,0,0,0,86.9,32.17Z"/><path class="cls-1" d="M17.58,26.26v.34h-.22c-3.89,0-7.79,0-11.68,0A3.17,3.17,0,0,0,3.06,28.1a5.42,5.42,0,0,0-.89,2.37,10.56,10.56,0,0,0,.16,4.37A4.11,4.11,0,0,0,4.1,37.42a3.24,3.24,0,0,0,1.74.51H41.28c3.4,0,6.81,0,10.21,0a3.59,3.59,0,0,1,.91.25v.06h-.11q-23.07,0-46.14,0a4.05,4.05,0,0,1-3.93-2.71,8.3,8.3,0,0,1-.51-2.7,11,11,0,0,1,.25-3A4.79,4.79,0,0,1,3.64,27a3.52,3.52,0,0,1,2.18-.75H17.58Z"/><path class="cls-1" d="M14.09,29c0,.2,0,.49,0,.78a.47.47,0,0,1,0,.22.94.94,0,0,1-.19.18c-.06-.07-.15-.13-.18-.21s0-.34-.08-.5a1.45,1.45,0,0,0-.87-1,4.33,4.33,0,0,0-3-.17,2.44,2.44,0,0,0-1.6,1.55,4.81,4.81,0,0,0,.14,3.94,3.62,3.62,0,0,0,3.64,2,5.55,5.55,0,0,0,.59-.08,1.65,1.65,0,0,0,1.32-1.22.65.65,0,0,1,.06-.19c0-.06.12-.13.18-.12s.12.08.16.15a.26.26,0,0,1,0,.16c-.07.47-.15.94-.23,1.41a.57.57,0,0,1-.51.51,15.17,15.17,0,0,1-1.59.21,7,7,0,0,1-3-.43A4.4,4.4,0,0,1,6,31.41a4.18,4.18,0,0,1,2.46-3.48,5.58,5.58,0,0,1,2.26-.49,13.9,13.9,0,0,1,3.22.32.23.23,0,0,1,.2.28C14.15,28.33,14.12,28.63,14.09,29Z"/><path class="cls-1" d="M57.35,38.25a1.31,1.31,0,0,1,.85-.34H87.36c2.24,0,4.48,0,6.72,0a3.22,3.22,0,0,0,2.75-1.64,6.18,6.18,0,0,0,.85-2.76,11.13,11.13,0,0,0-.12-3.25,5,5,0,0,0-1.2-2.57,3.23,3.23,0,0,0-2.42-1.08H81.62c-.07-.33-.06-.34.24-.34H93.81a3.71,3.71,0,0,1,3.36,1.94A6.63,6.63,0,0,1,98,31.1,10.84,10.84,0,0,1,97.77,35a4.52,4.52,0,0,1-1.68,2.63,3.42,3.42,0,0,1-2,.68H57.35Z"/><path class="cls-1" d="M63.56,35.27c0-.37,0-.69.07-1,0-.12.05-.24.2-.24s.18.14.19.27a2,2,0,0,0,.48,1.23,1.7,1.7,0,0,0,2.55-.27A1.43,1.43,0,0,0,67,33.86a4,4,0,0,0-1-1.06,17,17,0,0,1-1.39-1.25,2.53,2.53,0,0,1-.72-2.07,2.14,2.14,0,0,1,1.67-1.9,4.88,4.88,0,0,1,2.64,0,.25.25,0,0,1,.21.3c0,.46,0,.91,0,1.37a.61.61,0,0,1,0,.08c0,.12,0,.27-.19.27s-.18-.14-.19-.28a1.4,1.4,0,0,0-1.48-1.26,1.24,1.24,0,0,0-1.18.59,1.19,1.19,0,0,0,.32,1.49c.44.4.92.76,1.38,1.14a5.34,5.34,0,0,1,1.24,1.34,2.55,2.55,0,0,1-1.55,3.86,4.41,4.41,0,0,1-2.71-.13c-.3-.11-.35-.2-.35-.52S63.56,35.44,63.56,35.27Z"/><path class="cls-1" d="M54.87,36.42H52.69c-.11,0-.23,0-.2-.16s.13-.11.21-.16.08,0,.12,0c.31,0,.39-.07.43-.38a9.58,9.58,0,0,0,.07-1.12c0-1.53,0-3.06,0-4.59,0-.17,0-.34,0-.51s-.12-.4-.42-.46l-.24,0c-.13,0-.32,0-.31-.17s.19-.16.32-.16l1.14,0h2.76a2.85,2.85,0,0,0,.48-.07c.2,0,.27,0,.25.22,0,.37-.07.73-.11,1.1a.52.52,0,0,1,0,.2.21.21,0,0,1-.15.11c-.05,0-.11-.06-.15-.1s0-.05,0-.08c0-.54-.2-.62-.66-.66s-.86,0-1.28,0c-.15,0-.14.1-.14.2,0,.6,0,1.2,0,1.8,0,.19,0,.45.06.56s.36,0,.55,0l.92,0a.73.73,0,0,0,.6-.21.19.19,0,0,1,.17,0,.24.24,0,0,1,.09.18c0,.47-.07.95-.12,1.42,0,.07-.11.13-.17.19s-.13-.12-.14-.19c-.1-.57-.19-.66-.78-.67l-1,0c-.12,0-.16,0-.16.15,0,.77,0,1.54,0,2.31,0,.49.14.62.62.66a7.88,7.88,0,0,0,1.14,0,.66.66,0,0,0,.64-.56,1.25,1.25,0,0,1,.08-.29.22.22,0,0,1,.17-.1s.1.08.13.13a.26.26,0,0,1,0,.14c0,.34-.07.69-.12,1s-.15.38-.46.38H54.87Z"/><path class="cls-1" d="M62.2,30.73l0,.12h0l0,0h0v-.09Z"/><path class="cls-1" d="M61.49,29.86h0Z"/><path class="cls-1" d="M40.89,7.52c.23-.26.23-.26.11-.59-.19-.54-.39-1.09-.59-1.63-.08-.21-.09-.21-.43-.28a4.72,4.72,0,0,1,1.35-.43.54.54,0,0,1,.55.34.56.56,0,0,1-.06.68.28.28,0,0,0,0,.07s0,0,0,0l.09,0a.63.63,0,0,1,.62.57.64.64,0,0,1-.39.75C41.72,7.22,41.3,7.36,40.89,7.52Zm.65-1.61-.35.1c-.11,0-.12.08-.08.18s.17.46.25.69.14.28.4.17L41.92,7a.48.48,0,0,0,.2-.62A.55.55,0,0,0,41.54,5.91Zm-.45-1.12-.24.06c-.16,0-.21.12-.14.28s.11.28.16.42c.14.41.14.41.53.2a.43.43,0,0,0,.24-.53A.53.53,0,0,0,41.09,4.79Z"/><path class="cls-1" d="M68.62,11.63c.26.33.54.64.76,1a.6.6,0,0,1-.12.81.64.64,0,0,1-.82.09l-.15-.08A6.49,6.49,0,0,0,68,15a.51.51,0,0,1-.27-.66c.1-.33.21-.66.29-1,0-.07,0-.16,0-.23a.81.81,0,0,0-.19.08c-.13.1-.25.2-.38.31s-.39.27-.15.57h-.08l-.58-.69v-.06c.28.26.44,0,.62-.11l1.22-1c.16-.13.31-.27.13-.5ZM68,12.95l.27.24a.53.53,0,0,0,.8-.11.53.53,0,0,0-.11-.77.19.19,0,0,0-.18,0C68.53,12.5,68.28,12.72,68,12.95Z"/><path class="cls-1" d="M33,9.4a12.35,12.35,0,0,1,1.13-.81,1,1,0,0,1,1.23.15,1.36,1.36,0,0,1,.57,1.43,1.29,1.29,0,0,1-.32.55c-.26.26-.55.48-.83.72,0,0,0,0-.11,0,.28-.27.06-.43-.08-.6l-1-1.22c-.14-.17-.27-.33-.53-.15Zm2.69.75a1.55,1.55,0,0,0-1.1-1.41,1,1,0,0,0-.87.29.23.23,0,0,0,0,.22q.64.79,1.31,1.56a.23.23,0,0,0,.22,0A1,1,0,0,0,35.66,10.15Z"/><path class="cls-1" d="M60.3,7.67h0c.23-.47.46-.93.67-1.41,0-.08-.07-.22-.12-.36l.67.33c-.4,0-.46.3-.59.55l-.81,1.65a.16.16,0,0,1-.1.09L59.67,6l-.07,0a.53.53,0,0,1,0,.1l-.63,1.28c-.15.32-.14.38,0,.64l-.68-.33,0,0c.26.08.38-.08.48-.29l.76-1.56a.36.36,0,0,0-.14-.47A.57.57,0,0,1,60,5.7c.09.63.18,1.25.27,1.88A.59.59,0,0,0,60.3,7.67Z"/><path class="cls-1" d="M43.22,6.63c.36-.12.24-.35.19-.56-.12-.51-.25-1-.38-1.52-.09-.34-.09-.34-.42-.43l.12,0,1.42-.36c.15,0,.25,0,.27.15a3.11,3.11,0,0,0,.08.35h-.07c-.23-.34-.25-.35-.67-.24s-.51.13-.38.64l0,.06.16.42c.22-.07.44-.12.66-.2,0,0,.07-.12.08-.19a.86.86,0,0,0,0-.17h.06l.21.85,0,0c-.13-.12-.17-.36-.42-.29s-.37.09-.58.15c.09.35.16.67.26,1,0,0,.13.09.19.08a2.14,2.14,0,0,0,.38-.09.64.64,0,0,0,.55-.58.33.33,0,0,1,0-.09H45c0,.21,0,.42,0,.62,0,0-.06.06-.09.06l-1.66.41Z"/><path class="cls-1" d="M52,4l-.06.89-.06,0c-.06-.11-.09-.29-.17-.31A2.55,2.55,0,0,0,51,4.51s-.09.08-.09.13c0,.28,0,.56-.06.83a.16.16,0,0,0,.17.2,2.77,2.77,0,0,0,.65,0,1,1,0,0,0,.37-.26.71.71,0,0,0,.11-.18l.07,0c-.06.2-.12.4-.19.6,0,0-.07,0-.11,0l-1.67-.12-.05,0c.33,0,.3-.28.32-.49,0-.54.07-1.09.11-1.63,0-.2,0-.4-.28-.42l0-.06,1.75.12v.54l-.06,0,0-.08c-.08-.33-.11-.36-.45-.39a3.7,3.7,0,0,0-.47,0c-.05,0-.14.07-.15.11,0,.3,0,.59-.07.91l.61,0a.25.25,0,0,0,.28-.19c0-.05,0-.1.06-.16Z"/><path class="cls-1" d="M53,4c.06-.19.12-.39.18-.58,0,0,.07,0,.1,0L55,3.71,53,5.86v.07c.36,0,.73.11,1.09.13.1,0,.21-.13.3-.22a.9.9,0,0,0,.12-.2l.06,0c-.06.2-.13.4-.2.59,0,0-.08,0-.12,0L52.56,6l0,0,1.95-2.15-.41-.08-.34-.06a.47.47,0,0,0-.62.29L53,4Z"/><path class="cls-1" d="M66.39,9.5l.69.65v.06c-.32-.25-.47,0-.63.18-.31.35-.64.69-.94,1a.53.53,0,0,0,0,.76.54.54,0,0,0,.79.09c.33-.28.62-.61.92-.92l.05-.06c.17-.2.43-.37.2-.71h.06l.54.51v.06c-.3-.21-.45,0-.62.17l-.71.76a2.68,2.68,0,0,1-.24.22.85.85,0,0,1-1.21-1.2c.28-.34.59-.65.89-1S66.47,9.85,66.39,9.5Z"/><path class="cls-1" d="M31.56,11c-.24.29,0,.44.15.6l.87.8a1.87,1.87,0,0,0,.26.2.51.51,0,0,0,.72-.08.54.54,0,0,0,.1-.75,2.48,2.48,0,0,0-.32-.37l-.76-.71c-.17-.16-.34-.34-.61-.11l0-.07.52-.56s0,.07,0,.07c-.14.2,0,.35.1.48l.85.8a2.36,2.36,0,0,1,.28.3.77.77,0,0,1-.09,1.1.75.75,0,0,1-1.08.1c-.28-.21-.53-.46-.79-.7l-.27-.25c-.28-.26-.28-.26-.66-.14l.67-.73Z"/><path class="cls-1" d="M27.29,17.24l.76.26,0,.06a.55.55,0,0,0-.14,0,2.22,2.22,0,0,0-.56.13.37.37,0,0,0-.17.5.45.45,0,0,0,.52.19,3.37,3.37,0,0,0,.4-.2c.16-.08.31-.18.47-.25a.78.78,0,0,1,1,.24.74.74,0,0,1-.13,1c-.09.09-.24.17-.06.35l0,0-.79-.24v-.06h.18a2.17,2.17,0,0,0,.49-.1.46.46,0,0,0,.27-.57.53.53,0,0,0-.65-.29,2.69,2.69,0,0,0-.35.17c-.16.09-.32.19-.48.26a.74.74,0,0,1-.9-.23.6.6,0,0,1,.07-.81C27.24,17.54,27.38,17.45,27.29,17.24Z"/><path class="cls-1" d="M30.33,17.17l-.3.52c0-.31-.24-.47-.4-.66-.41-.51-.84-1-1.26-1.5,0-.05-.08-.11-.16-.23l1,.17,1.45.24a3.16,3.16,0,0,0,.46,0l-.4.7c0-.13,0-.25-.06-.3a.59.59,0,0,0-.28-.1c-.39-.08-.39-.08-.59.27l0,.05c-.23.41-.21.54.19.82C30.06,17.22,30.21,17.17,30.33,17.17Zm-1.55-1.46,0,.06.71.83.39-.69Z"/><path class="cls-1" d="M62,9.57c.36,0,.36,0,.43-.34l0-.1c.06-.19,0-.34-.17-.42a1.42,1.42,0,0,1-.17-.1c-.13-.07-.29-.22-.38-.18a1.21,1.21,0,0,0-.44.38c0,.06,0,.19,0,.31l-.55-.34c.45,0,.68-.34,1-.55s.85-.66,1.27-1l.25-.17c0,.21-.06.36-.09.51-.14.67-.28,1.34-.41,2a2.33,2.33,0,0,0,0,.41Zm.8-2,0,0-.86.69.67.42Z"/><path class="cls-1" d="M69.4,17.26,69,16.57c.12,0,.22.1.29.08a.6.6,0,0,0,.22-.2c.25-.3.25-.3,0-.63l0-.05c-.25-.41-.25-.41-.69-.29-.25.07-.26.08-.25.42l-.39-.62a1.61,1.61,0,0,0,1.07-.05c.57-.11,1.14-.25,1.72-.37h.17c0,.07-.08.13-.12.18-.46.6-.92,1.19-1.38,1.8A2.88,2.88,0,0,0,69.4,17.26Zm1.12-2.12,0-.06-1.08.25.42.66Z"/><path class="cls-1" d="M55.44,6.59l-.52-.16A6.18,6.18,0,0,0,55.36,6c.42-.55.84-1.1,1.25-1.66l.15-.18a1.13,1.13,0,0,1,0,.16c0,.73.09,1.46.14,2.2,0,.2,0,.43.21.56l0,0-.81-.25c.12-.05.23-.07.27-.13a.53.53,0,0,0,0-.3c0-.48,0-.37-.39-.51l-.06,0c-.47-.15-.58-.11-.77.36C55.34,6.34,55.42,6.47,55.44,6.59Zm1.1-1.83-.07,0-.65.89.73.21Z"/><path class="cls-1" d="M38.33,5.77c0,.22-.09.41-.11.61s0,.27,0,.41a2,2,0,0,0,.37,1.38c.12.18.22.31.45.19l.1,0-.91.51,0,0c.22-.25.22-.25.05-.56-.08-.16-.17-.31-.26-.46a.53.53,0,0,0-.16-.17c-.34-.21-.68-.42-1-.61a2.91,2.91,0,0,0-.44-.16l.79-.45,0,0a.41.41,0,0,1-.06.08c-.1.08-.1.17,0,.23l.94.59c0-.4,0-.75,0-1.1s-.18-.12-.35-.13Z"/><path class="cls-1" d="M64.88,8.52a1.48,1.48,0,0,0-.49-.24c-.14,0-.3.12-.48.17l.41-.52L65.88,9.1l-.41.58a1.58,1.58,0,0,0,0-.56c0-.14-.21-.25-.36-.4l-.1.15-1.12,1.48c-.2.27-.2.27-.06.58l-.75-.58c.39.06.31.08.56-.24C64.08,9.61,64.46,9.09,64.88,8.52Z"/><path class="cls-1" d="M32,13.36l.4.47a.12.12,0,0,1,0,.11c-.34.47-.68.95-1.06,1.4a.36.36,0,0,1,0-.1.21.21,0,0,0-.07-.29c-.56-.4-1.11-.81-1.67-1.2-.08-.06-.24,0-.39,0L29.8,13h.08c-.25.36,0,.46.22.6l1.37,1a.2.2,0,0,0,.33,0l.21-.3a.63.63,0,0,0,0-.74A1,1,0,0,1,32,13.4Z"/><path class="cls-1" d="M70.94,19.22l-.59.1s-.1,0-.11-.09c-.22-.5-.43-1-.65-1.52a.68.68,0,0,1,0-.15c.17.34.38.23.58.14l1.5-.64c.19-.08.41-.15.28-.47l.08,0,.35.83,0,.06c-.21-.35-.45-.16-.67-.07l-1.48.62c-.19.08-.23.19-.14.36l.12.26a.65.65,0,0,0,.66.45l.11,0Z"/><path class="cls-1" d="M45.21,3.51l.89-.13.06,0c-.41.1-.29.38-.26.62q.11.8.22,1.59c0,.25.06.27.32.24l.3-.05a.62.62,0,0,0,.57-.5.6.6,0,0,1,.06-.12h.06c0,.21,0,.42-.07.63,0,0-.06.06-.09.07-.57.08-1.14.17-1.74.22.35-.12.25-.37.22-.6-.07-.55-.16-1.09-.23-1.63,0-.2-.11-.33-.34-.33Z"/><path class="cls-1" d="M49.82,5.11c0,.19-.06.37-.1.55a.19.19,0,0,1-.14.11l-1.65.08,0,0c.31-.07.27-.3.25-.53,0-.52-.05-1-.08-1.55,0-.21,0-.45-.33-.48l0-.05.89-.05,0,0c-.41.08-.31.36-.3.61,0,.55.06,1.1.09,1.65,0,.18.11.23.27.22l.28,0a.65.65,0,0,0,.67-.47.4.4,0,0,1,.06-.09Z"/></g></g></g></svg>
