<svg xmlns="http://www.w3.org/2000/svg" viewBox="0 0 109.01 25.35"><defs><style>.cls-1{fill:#807c66;}</style></defs><title>Recurso 12</title><g id="Capa_2" data-name="Capa 2"><g id="Capa_1-2" data-name="Capa 1"><g id="LV0z4Y"><path class="cls-1" d="M0,2.34l.35,0c1.32,0,2.64,0,4,0s2.83,0,4.23.16A7.4,7.4,0,0,1,13.7,5.23a10.11,10.11,0,0,1,2.25,5A17.5,17.5,0,0,1,15.86,17a10.07,10.07,0,0,1-3.17,5.63A6.9,6.9,0,0,1,8.2,24.44c-2.6,0-5.2.07-7.79.11H0Q0,13.45,0,2.34ZM4.54,13.4c0,2.4,0,4.8,0,7.2,0,.26.07.35.34.34.75,0,1.5,0,2.25,0a3.46,3.46,0,0,0,3.12-1.83,8.4,8.4,0,0,0,.94-4c0-1.34,0-2.68-.11-4a7.82,7.82,0,0,0-.73-2.91A3.59,3.59,0,0,0,7.28,5.91c-.78-.06-1.57,0-2.36,0-.37,0-.38,0-.38.37Q4.54,9.81,4.54,13.4Z"/><path class="cls-1" d="M87.22,0a2.77,2.77,0,0,1,1.29.76,2.31,2.31,0,0,1-2.23,3.8,2.29,2.29,0,0,1-1.78-2A2.29,2.29,0,0,1,86.13.08L86.35,0Z"/><path class="cls-1" d="M93.69,0a2.88,2.88,0,0,1,1.23.7A2.31,2.31,0,1,1,92.46.12L92.82,0Z"/><path class="cls-1" d="M48.65,3.92,46.55,7.1c-.63-.32-1.24-.65-1.86-.93a7.53,7.53,0,0,0-3.61-.72,2.89,2.89,0,0,0-2.52,1.39,2.27,2.27,0,0,0-.22,1.73,1.52,1.52,0,0,0,.86,1,11.89,11.89,0,0,0,1.56.6c1.24.38,2.52.68,3.75,1.1a6.77,6.77,0,0,1,3.35,2.41A6.36,6.36,0,0,1,49,18.33c-.36,3.28-2.34,5.22-5.36,6.18a13.63,13.63,0,0,1-7.82,0,15.26,15.26,0,0,1-3.27-1.3L32.27,23l1.66-3.49,1,.48A12,12,0,0,0,39,21.27a6.56,6.56,0,0,0,3.28-.35,2.56,2.56,0,0,0,1.61-2.24,2.5,2.5,0,0,0-1.23-2.58,7.83,7.83,0,0,0-2-.78c-1.17-.34-2.36-.63-3.51-1.05a5.57,5.57,0,0,1-3.83-4.8,6.52,6.52,0,0,1,4.26-7.15,10.06,10.06,0,0,1,4.24-.64A13.17,13.17,0,0,1,47.9,3.42c.2.12.4.25.59.38Z"/><path class="cls-1" d="M70.77,24.55H66.41v-.39q0-8.71,0-17.41A24.43,24.43,0,0,0,66.1,1.9l4.4-1a61.12,61.12,0,0,1,.25,8.56L71,9.26A7,7,0,0,1,77.12,8a4,4,0,0,1,1.7.93,3.66,3.66,0,0,1,1.06,2.27A11,11,0,0,1,80,12.86c0,3.79,0,7.59,0,11.38v.31h-4.2v-.34q0-5.26,0-10.51a6.16,6.16,0,0,0-.12-1.24,1.28,1.28,0,0,0-1.37-1.11,4.76,4.76,0,0,0-2.7.86c-.86.53-.85.54-.85,1.54q0,5.22,0,10.43Z"/><path class="cls-1" d="M84.79,13.15l-1.8-3c.36-.21.69-.43,1-.6A15,15,0,0,1,88.82,7.9a9.11,9.11,0,0,1,3.61.2,4.07,4.07,0,0,1,3.26,4.22c0,2.21-.06,4.42-.09,6.62a14.54,14.54,0,0,0,.05,1.52,3,3,0,0,0,1.22,2.07l.21.17s0,0,0,.07l-1,1.12c-.38.45-.77.89-1.15,1.34a.23.23,0,0,1-.32.07,4.7,4.7,0,0,1-2.12-1.88c-.09.08-.18.14-.25.22a4.82,4.82,0,0,1-2.91,1.43,7.82,7.82,0,0,1-3.7-.32,4.31,4.31,0,0,1-3-3.76,6.57,6.57,0,0,1,.19-2.82A4.75,4.75,0,0,1,86.2,15a14,14,0,0,1,5-.58c.24,0,.33,0,.31-.29,0-.46,0-.92-.07-1.38a1.39,1.39,0,0,0-1.51-1.39,5.5,5.5,0,0,0-2.66.53C86.42,12.27,85.63,12.72,84.79,13.15Zm6.58,4.24h-.51a7.47,7.47,0,0,0-2.33.32,1.7,1.7,0,0,0-1.22,1.4,4.39,4.39,0,0,0,0,1.32A1.83,1.83,0,0,0,89.58,22a3,3,0,0,0,1.6-.91.62.62,0,0,0,.16-.37c0-.54,0-1.09,0-1.63S91.38,18,91.38,17.39Z"/><path class="cls-1" d="M63.44,9.61l-2.08,2.81-.3-.24a4.26,4.26,0,0,0-2-1,2.2,2.2,0,0,0-2.32,1.06,5.47,5.47,0,0,0-.68,2.3,16.16,16.16,0,0,0,.09,4.63,4.75,4.75,0,0,0,.31,1,2.5,2.5,0,0,0,3.18,1.34,5.49,5.49,0,0,0,2-1.2l.25-.21.12.13,1.86,2.47c-.33.29-.63.59-1,.84a7.52,7.52,0,0,1-4.84,1.39,6.61,6.61,0,0,1-4.43-1.65,6.94,6.94,0,0,1-2.06-3.69,12.17,12.17,0,0,1,.46-7.49,7.13,7.13,0,0,1,9.57-3.77A6.91,6.91,0,0,1,63.44,9.61Z"/><path class="cls-1" d="M99.12,8.82l2.71-.73c.29-.08.58-.14.86-.23s.28,0,.36.16a5.51,5.51,0,0,1,.53,1.82l0,.25.22-.25a5.7,5.7,0,0,1,2.12-1.7,3.59,3.59,0,0,1,2.88-.06c.11,0,.23.07.18.24l-1.13,3.61-.12,0a2.82,2.82,0,0,0-3,.39A1.65,1.65,0,0,0,104,13.8c0,3.45,0,6.9,0,10.35v.4H99.71c0-.12,0-.24,0-.36,0-3.54,0-7.08,0-10.62a15.32,15.32,0,0,0-.56-4.62A.55.55,0,0,1,99.12,8.82Z"/><path class="cls-1" d="M27.22,11.83a9.77,9.77,0,0,0-1.28-.2,3.21,3.21,0,0,0-2.52,1.29.63.63,0,0,0-.08.38q0,5.39,0,10.78c0,.56,0,.47-.48.47-1.15,0-2.3,0-3.45,0-.26,0-.33-.07-.33-.33q0-5.39,0-10.78a20.69,20.69,0,0,0-.13-2.3c-.09-.76-.26-1.51-.4-2.3l.2-.07c1.09-.29,2.19-.58,3.28-.88.22-.06.35,0,.41.2q.25.87.49,1.74c0,.07,0,.15.05.3l.29-.35A5.13,5.13,0,0,1,26,7.92a3.47,3.47,0,0,1,2.16.15c.14.06.22.12.16.3-.36,1.11-.7,2.22-1.05,3.34A.49.49,0,0,1,27.22,11.83Z"/><path class="cls-1" d="M26.14,2.34A2.25,2.25,0,0,1,28.42.07a2.3,2.3,0,0,1,2.27,2.29,2.26,2.26,0,0,1-2.3,2.25A2.22,2.22,0,0,1,26.14,2.34Z"/></g></g></g></svg>
