<svg xmlns="http://www.w3.org/2000/svg" viewBox="0 0 80.8 23.18"><defs><style>.cls-1{fill:#807c66;}</style></defs><title>Recurso 11</title><g id="Capa_2" data-name="Capa 2"><g id="Capa_1-2" data-name="Capa 1"><g id="xGEjWB"><path class="cls-1" d="M51.9,19.15c.68-2.05,1.33-4,2-5.9a31.49,31.49,0,0,0,.91-3.07c.08-.39-.06-1.14-.27-1.22a1.53,1.53,0,0,0-1.36.23,11.82,11.82,0,0,0-2.09,3c-.83,2-1.43,4.1-2.08,6.17a1,1,0,0,1-1.13.81c-.86-.06-1.73,0-2.76,0,.12-.44.2-.78.31-1.11.85-2.57,1.75-5.12,2.55-7.7.46-1.49.38-1.55-1-2.25a.52.52,0,0,1-.28-.34c0-.11.19-.33.28-.32a21.14,21.14,0,0,1,3.72.46c.49.13.78,1,1.2,1.55a4.54,4.54,0,0,1,3.33-2.06,2.81,2.81,0,0,1,3.11,2.34c.26-.3.48-.57.72-.83a4.11,4.11,0,0,1,3-1.51,2.8,2.8,0,0,1,3,3.76c-.54,1.72-1.25,3.38-1.85,5.09-.21.61-.65,1.38.14,1.79A1.31,1.31,0,0,0,65,17.19q1.66-3.86,3.16-7.78c.26-.69,0-1.24-.86-1.33-.2,0-.38-.25-.57-.38.21-.12.42-.33.63-.34a15,15,0,0,1,2.11,0c1.84.18,2.63,1.32,2,3.07s-1.31,3.5-2,5.25a3.46,3.46,0,0,0-.32.94c0,.43,0,1.2.14,1.24.45.13,1.19.15,1.45-.12a7.63,7.63,0,0,0,1.72-2.52C73.83,11.53,75,7.75,76.16,4c.08-.25.1-.53.17-.78.27-.91-.14-1.32-1-1.43a4.16,4.16,0,0,1-1.53-.46c.22-.15.43-.44.65-.44,2.11,0,4.21,0,6.35,0-.63,1.91-1.33,4-2,6q-1.52,4.72-3,9.46c-.19.61-.56,1.42.2,1.81s1.44-.25,1.88-.91c.31-.47.51-1,.82-1.49.11-.17.38-.25.58-.37.06.21.2.43.16.61a4.5,4.5,0,0,1-5.59,3.41,9.49,9.49,0,0,1-2-1.17c-2.29,1.7-4.57,1.7-6.34-.17a4.42,4.42,0,0,1-4.48,1.23,2.07,2.07,0,0,1-1.71-2.84c.5-1.66,1.17-3.27,1.76-4.9a6,6,0,0,0,.44-1.43c0-.39,0-1-.3-1.14A1.24,1.24,0,0,0,60.08,9a7.15,7.15,0,0,0-1.87,2.25c-.91,2.29-1.63,4.66-2.36,7-.19.62-.46.87-1.12.83C53.84,19.11,52.94,19.15,51.9,19.15Z"/><path class="cls-1" d="M73.31,4.26A2.3,2.3,0,0,1,71,6.68a1.84,1.84,0,0,1-1.93-2,2.37,2.37,0,0,1,2.4-2.44A1.79,1.79,0,0,1,73.31,4.26Z"/></g><path class="cls-1" d="M36.69,9.19c-.92-.38-1.64.28-2.26.94a3.36,3.36,0,0,0-.26.31,14,14,0,0,0-2.57,7.19c.12.3.26,1.29.56,1.34a3.2,3.2,0,0,0,2-.51A4.15,4.15,0,0,0,35.37,17a13.35,13.35,0,0,0,1.85-5.77C37.28,10.53,37.57,9.56,36.69,9.19Z"/><path class="cls-1" d="M55.61,0c.1,0,.19,1.18.28,1.18H5.06c-.28,0-.57-1.08-.85-1C2.07.84.85,1.85.73,4.28c0,.9.44,1.5.55,2.38C1.48,8.1.53,8.91.53,9.88v.6s-.55.08-.53.1c1.49,1.09,1,2.68,1,4.23,0,.87-.16,1.73-.13,2.6C1,19.94,2.08,21.82,4.48,22.6c.22.07.36.58.58.58H33.59c.68,0,1.37-.61,2-.77a10.15,10.15,0,0,0,7.5-7C44,12.77,44.84,10.67,45.7,8,47.26,3.16,50.41.67,55.61,0ZM40.82,13.38A7.56,7.56,0,0,1,31.71,20a4.36,4.36,0,0,1-3.6-3.15c-2.7,4.59-9.43,4.12-10.51-.1-.49.44-.94.87-1.42,1.26A8.51,8.51,0,0,1,7,19.31a6.2,6.2,0,0,1-3.78-6.75c0-.26.06-.52.09-.86a19,19,0,0,1-2.32-.63c-.34-.14-.81-.61-.79-.88.07-.65.61-.44,1.1-.38a66.12,66.12,0,0,0,7,.84c3.24.09,6.8-3,7.38-6.18a2.14,2.14,0,0,0-.45-1.69,1.24,1.24,0,0,0-1.85.37c-1,1.38-1.8,2.86-2.69,4.31a2.23,2.23,0,0,0-.14.37C9.72,10,9.72,10.05,7.31,10c-1.12,0-2.23-.18-3.49-.29A12.42,12.42,0,0,1,10.53,2.1a11.08,11.08,0,0,1,6.76-.85c2.66.52,3.73,2.42,2.83,5a6.69,6.69,0,0,1-2.93,3.45,16.34,16.34,0,0,1-7,2.26c-.66.08-1,.3-1,1s-.09,1.34,0,2A3.13,3.13,0,0,0,14,17.64a9.65,9.65,0,0,0,4.23-4.93c1-2.32,2.54-4.15,5.12-4.67a7.41,7.41,0,0,1,3.34.11,2.56,2.56,0,0,1,1.44,3.76,2,2,0,0,1-3,.68A1.43,1.43,0,0,1,25,10.44a12.8,12.8,0,0,1,1.24-1.17c-.37-.7-.93-.61-1.47-.39a2.3,2.3,0,0,0-.88.64,10,10,0,0,0-2.31,7.36,1.84,1.84,0,0,0,2.76,1.74,5.67,5.67,0,0,0,2.34-1.77,12,12,0,0,0,1.65-3.29,7.81,7.81,0,0,1,8.91-5.3A4.36,4.36,0,0,1,40.82,13.38Z"/></g></g></svg>
