<svg xmlns="http://www.w3.org/2000/svg" viewBox="0 0 53.5 31.17"><defs><style>.cls-1{fill:#807c66;}</style></defs><title>Recurso 4</title><g id="Capa_2" data-name="Capa 2"><g id="Capa_1-2" data-name="Capa 1"><g id="fuWaQi"><path class="cls-1" d="M0,8.09V7.65a1.84,1.84,0,0,1,.72-.92,36.35,36.35,0,0,1,11-5.3A35.41,35.41,0,0,1,19.34.09L20.42,0H23a.89.89,0,0,0,.16,0A36.11,36.11,0,0,1,50.74,14.58a34.37,34.37,0,0,1,2.53,3.9,1.27,1.27,0,0,1-.2,1.69c-.57.6-1.14,1.21-1.73,1.79a32.75,32.75,0,0,1-13.76,7.93,32,32,0,0,1-6.86,1.19l-1.06.08H27.32l-.16,0L25.68,31a31.24,31.24,0,0,1-5.2-.86A32.84,32.84,0,0,1,7.9,23.94a33.13,33.13,0,0,1-4-3.79,1.19,1.19,0,0,1,0-1.8c.49-.52,1-1,1.48-1.54l.54-.54-.11-.12a34.57,34.57,0,0,1-3.34-4A23,23,0,0,1,0,8.09Zm13.95,6.16c0,.36,0,.69-.07,1a.85.85,0,0,1-.66.74c-.68.17-1.46,0-1.48-1.08s0-2.07,0-3.1a1.05,1.05,0,0,1,.47-1,1.1,1.1,0,0,1,1.7.8c.06.38.19.51.59.53h.35a.47.47,0,0,0,.47-.43,1.83,1.83,0,0,0-.88-1.86,3.18,3.18,0,0,0-2.34-.35,2,2,0,0,0-1.74,2c-.05.69,0,1.38,0,2.07s0,1.21,0,1.81a1.93,1.93,0,0,0,1.52,1.81,5,5,0,0,0,1.41.1,2.05,2.05,0,0,0,2-2c0-.54,0-1.08,0-1.61,0-.37-.16-.53-.53-.53H13.19a.56.56,0,0,0,0,1.12Zm30.42.44a6.17,6.17,0,0,0-.06-.8,2.32,2.32,0,0,0-2.15-1.79,2.27,2.27,0,0,0-2.38,1.71,5,5,0,0,0,0,1.79,2.11,2.11,0,0,0,1.77,1.67,2.27,2.27,0,0,0,2.37-.91A2.38,2.38,0,0,0,44.36,14.69Zm-12.28.39h.27c.71,0,1.43,0,2.14,0a.67.67,0,0,0,.7-.64,1.85,1.85,0,0,0-.51-1.63,2.29,2.29,0,0,0-2.21-.62,2.16,2.16,0,0,0-1.8,2.18c0,.28,0,.57,0,.85a2,2,0,0,0,.53,1.35,3.05,3.05,0,0,0,3.63.34,1,1,0,0,0,.23-.23A.52.52,0,0,0,35,16a.45.45,0,0,0-.56-.16A3.38,3.38,0,0,1,34,16a3.49,3.49,0,0,1-.86.17A1,1,0,0,1,32.08,15.08Zm-5.43-2.29c-.1-.54-.37-.71-.9-.6l-.11,0a.42.42,0,0,0-.34.47c0,1.34,0,2.68,0,4a.41.41,0,0,0,.29.44,1.28,1.28,0,0,0,.59.07c.46-.09.54-.28.53-.64,0-.72,0-1.44,0-2.16a1.8,1.8,0,0,1,0-.39.85.85,0,0,1,.93-.68,1,1,0,0,1,.79.89q0,1.22,0,2.45a.45.45,0,0,0,.27.46,1,1,0,0,0,.89,0,.41.41,0,0,0,.26-.41c0-.84,0-1.69,0-2.53a2.25,2.25,0,0,0-.48-1.38,1.7,1.7,0,0,0-1.83-.66A1.61,1.61,0,0,0,26.65,12.78ZM23,16.55c0,.07,0,.11,0,.15a.51.51,0,0,0,.5.52.75.75,0,0,0,.79-.33.43.43,0,0,0,0-.15c0-.92,0-1.84,0-2.75a1.8,1.8,0,0,0-1.22-1.73,3,3,0,0,0-1.48-.15,2.21,2.21,0,0,0-1.09.4.59.59,0,0,0-.07.84c.15.23.35.26.65.09a1.79,1.79,0,0,1,1.08-.2.84.84,0,0,1,.72,1c-.52,0-1,0-1.53.13a1.45,1.45,0,0,0-1.28,2,1.13,1.13,0,0,0,.9.88,1.84,1.84,0,0,0,1.69-.43ZM18.73,8.37h0c.36,0,.73,0,1.09,0a.66.66,0,0,0,.69-.6,1.73,1.73,0,0,0-.26-1.34,2.32,2.32,0,0,0-4.15.88,7.87,7.87,0,0,0,0,1.18,1.91,1.91,0,0,0,.79,1.58,2.93,2.93,0,0,0,2.13.51,2.21,2.21,0,0,0,1.23-.46.48.48,0,0,0,.2-.59.51.51,0,0,0-.79-.32,2.07,2.07,0,0,1-1.14.29,1,1,0,0,1-1-.86c0-.18,0-.27.22-.26S18.38,8.37,18.73,8.37Zm2.37-2h0c0,.84,0,1.69,0,2.53a1.39,1.39,0,0,0,1.22,1.47,6.54,6.54,0,0,0,1.08.08A.56.56,0,0,0,24,9.92a.57.57,0,0,0-.62-.6h-.55A.37.37,0,0,1,22.5,9a2.58,2.58,0,0,1,0-.33q0-2.38,0-4.76c0-.32-.09-.46-.4-.52a1.57,1.57,0,0,0-.62,0c-.26.06-.35.21-.35.48Q21.11,5.13,21.11,6.4Zm-3.48,6.47c0-.06,0-.1,0-.15,0-.34-.13-.49-.46-.54a1.34,1.34,0,0,0-.45,0,.43.43,0,0,0-.4.5q0,2,0,4c0,.31.1.47.4.53a1.38,1.38,0,0,0,.58,0c.32-.07.42-.24.42-.57,0-.65,0-1.31,0-2a1.31,1.31,0,0,1,1.4-1.32h.13a.63.63,0,0,0,.08-1.21,1.52,1.52,0,0,0-1.27.31C17.91,12.56,17.78,12.71,17.62,12.87Zm19.65-.05,0,.06c0-.07,0-.14,0-.21a.39.39,0,0,0-.33-.44,2.08,2.08,0,0,0-.7,0,.36.36,0,0,0-.27.39c0,1.36,0,2.72,0,4.08a.49.49,0,0,0,.06.25.83.83,0,0,0,.92.21.52.52,0,0,0,.42-.6c0-.68,0-1.35,0-2a1.28,1.28,0,0,1,1.37-1.23H39a.57.57,0,0,0,.48-.54c0-.32-.14-.64-.4-.67a1.53,1.53,0,0,0-1.19.23ZM29.4,19.08a6.43,6.43,0,0,0-.88-.06.92.92,0,0,0-.89,1,1,1,0,0,0,.28.71,1.4,1.4,0,0,0-.19.42,1.4,1.4,0,0,0,.12.44.65.65,0,0,0,0,1.08,1.83,1.83,0,0,0,1.92,0,.75.75,0,0,0-.16-1.3,2.15,2.15,0,0,0-.4-.11l-.69-.12s-.09-.08-.13-.12A.68.68,0,0,1,28.5,21h.24a1,1,0,0,0,1.12-1.15,2.59,2.59,0,0,0-.15-.5l.16-.13c.13-.09.2-.19.09-.34a.28.28,0,0,0-.42,0A1.65,1.65,0,0,0,29.4,19.08Zm-3.72,1.51h1.06c.47,0,.65-.22.56-.68a1.13,1.13,0,0,0-1.24-.9,1.17,1.17,0,0,0-1.16,1,3.67,3.67,0,0,0,0,.82,1.08,1.08,0,0,0,.26.49,1.6,1.6,0,0,0,1.88.19c.2-.14.24-.27.14-.44s-.22-.18-.45-.1a1.81,1.81,0,0,1-.63.13A.48.48,0,0,1,25.68,20.58Zm8.17.81c.07.25.21.35.43.32s.3-.12.3-.39,0-.83,0-1.25A1,1,0,0,0,33.66,19a2.69,2.69,0,0,0-.73,0,.87.87,0,0,0-.38.19c-.14.12-.1.28,0,.42s.2.12.34.07a1.63,1.63,0,0,1,.52-.11c.29,0,.45.21.4.52-.13,0-.27,0-.41,0a3.5,3.5,0,0,0-.68.14.7.7,0,0,0-.41.81.67.67,0,0,0,.58.62A1.08,1.08,0,0,0,33.86,21.4ZM20.91,19.31a.38.38,0,0,0-.49-.26c-.23,0-.25.2-.25.39,0,.64,0,1.28,0,1.92a.4.4,0,0,0,.09.27.45.45,0,0,0,.49,0c.16-.07.17-.2.17-.35,0-.41,0-.82,0-1.22a.43.43,0,0,1,.34-.42.44.44,0,0,1,.5.26.94.94,0,0,1,.06.34c0,.38,0,.76,0,1.14s.15.28.32.3.43-.08.43-.24a8.74,8.74,0,0,0-.06-1.65A.94.94,0,0,0,20.91,19.31ZM23.84,19c0-.31,0-.58,0-.86s-.13-.32-.37-.32-.38.11-.38.32c0,.89,0,1.78,0,2.66a.74.74,0,0,0,.59.83,3.12,3.12,0,0,0,.71.06.28.28,0,0,0,.29-.3.3.3,0,0,0-.27-.34,2,2,0,0,1-.32,0c-.09,0-.22-.11-.22-.18,0-.42,0-.85,0-1.29h.54a.25.25,0,0,0,.3-.27c0-.19-.09-.29-.29-.3Zm12,.73c0-.53,0-1.06,0-1.59,0-.23-.12-.33-.38-.34s-.38.1-.38.34q0,1.6,0,3.21c0,.23.13.35.38.35s.38-.12.38-.35C35.81,20.83,35.81,20.3,35.81,19.76Zm-4.73-.38c-.07-.29-.19-.38-.43-.35s-.31.11-.31.4c0,.65,0,1.29,0,1.94a.33.33,0,0,0,.38.34c.25,0,.37-.12.37-.35s0-.55,0-.83c0-.58.22-.81.78-.88a.32.32,0,0,0,.3-.34.31.31,0,0,0-.31-.33A.84.84,0,0,0,31.09,19.38Zm-11.44,1c0-.34,0-.68,0-1s-.13-.34-.38-.34-.37.11-.37.32q0,1,0,2.05c0,.21.14.32.38.32s.37-.12.37-.33S19.65,20.72,19.65,20.39Zm17.65-1.8a.62.62,0,1,0-.62.65A.63.63,0,0,0,37.29,18.59Zm-18-.84a.37.37,0,1,0,.38.37A.38.38,0,0,0,19.3,17.74Z"/><path class="cls-1" d="M42.94,14.7c0,.14,0,.28,0,.42a.92.92,0,1,1-1.83,0c0-.3,0-.6,0-.9a.92.92,0,1,1,1.83,0C42.94,14.43,42.94,14.56,42.94,14.7Z"/><path class="cls-1" d="M32.91,14.23c-.23,0-.45,0-.68,0-.06,0-.15-.06-.16-.11a.86.86,0,0,1,.84-1,.87.87,0,0,1,1,.8c0,.19-.07.29-.26.29h-.72Z"/><path class="cls-1" d="M22.88,15.08A1.05,1.05,0,0,1,22,16.27a.5.5,0,0,1-.54-.35.52.52,0,0,1,.27-.68,4.1,4.1,0,0,1,.8-.16A2.52,2.52,0,0,1,22.88,15.08Z"/><path class="cls-1" d="M18.3,7.54h-.68c-.1,0-.16,0-.17-.14a.84.84,0,0,1,.76-.92.87.87,0,0,1,1,.72c0,.25,0,.34-.29.35Z"/><path class="cls-1" d="M28.36,20a2,2,0,0,1,0-.25.34.34,0,0,1,.34-.25.33.33,0,0,1,.34.26,1.34,1.34,0,0,1,0,.47.36.36,0,0,1-.36.34.4.4,0,0,1-.37-.37,1.38,1.38,0,0,1,0-.2Z"/><path class="cls-1" d="M28.78,22.47a2.57,2.57,0,0,1-.28-.07.35.35,0,0,1-.25-.4.36.36,0,0,1,.41-.27,1.13,1.13,0,0,1,.4.09.4.4,0,0,1,.21.26.43.43,0,0,1-.18.29A.94.94,0,0,1,28.78,22.47Z"/><path class="cls-1" d="M25.68,20.11c0-.33.11-.5.38-.55a.47.47,0,0,1,.54.31c0,.15,0,.24-.17.24Z"/><path class="cls-1" d="M33.81,20.57a.55.55,0,0,1-.42.62.28.28,0,0,1-.15-.53A3.78,3.78,0,0,1,33.81,20.57Z"/><path class="cls-1" d="M37.14,18.59a.48.48,0,0,1-.48.49.49.49,0,1,1,.48-.49Zm-.48.09.18.26h.05c0-.06,0-.12,0-.17s0-.12,0-.18,0-.27,0-.31a.5.5,0,0,0-.34,0s-.05.16-.07.24a.49.49,0,0,0,0,.17c0,.1,0,.19.07.29Z"/><path class="cls-1" d="M36.69,18.56s-.08-.07-.08-.1,0-.06.06-.09.08,0,.09.08S36.73,18.5,36.69,18.56Z"/></g></g></g></svg>
