<svg xmlns="http://www.w3.org/2000/svg" viewBox="0 0 97.28 41.74"><defs><style>.cls-1{fill:#807c66;}</style></defs><title>Recurso 13</title><g id="Capa_2" data-name="Capa 2"><g id="Capa_1-2" data-name="Capa 1"><g id="Rq3a10"><path class="cls-1" d="M78.68,21.8a35.39,35.39,0,0,1-6.18.12.66.66,0,0,1,.11-.17,3,3,0,0,0,1.14-2.53c0-2.76,0-5.52,0-8.28a1.58,1.58,0,0,0-1.53-1.71,2.08,2.08,0,0,0-2,1.77c0,2.67,0,5.35,0,8a4,4,0,0,0,.67,2.38l.1.14.22.35a1.73,1.73,0,0,1-.49.15h-9.8c-2.59,0-5.17.05-7.76.07a1.86,1.86,0,0,1-.56-.19,1.89,1.89,0,0,1,.25-.58,1.75,1.75,0,0,0,.5-1.25c0-2.86,0-5.72,0-8.57,0-1.1-.47-1.69-1.25-1.85-.62-.12-1.29-.21-1.73.38A1.64,1.64,0,0,0,50,11c0,2.76,0,5.52,0,8.28a4,4,0,0,0,.65,2.18,2.71,2.71,0,0,0,.17.23l.25.29a1.41,1.41,0,0,1-.44.16q-2.49,0-5,0a1.38,1.38,0,0,1-.46-.19l.22-.39a2.25,2.25,0,0,0,.28-.59,7.35,7.35,0,0,0,.1-1.21q0-3.93,0-7.85a4.55,4.55,0,0,0-.11-1A1.46,1.46,0,0,0,44.47,9.8a1.6,1.6,0,0,0-1.67.87.69.69,0,0,0,0,.33c0,2.82,0,5.63,0,8.45A3.8,3.8,0,0,0,43.6,22a3.34,3.34,0,0,1-.57.11c-1.59,0-3.18,0-4.77,0-.15,0-.31-.14-.46-.21a1.81,1.81,0,0,1,.24-.46,2.26,2.26,0,0,0,.67-1.54q.07-3.71.08-7.42a1.44,1.44,0,0,1,.39-1.05,3,3,0,0,0,.72-1.92,9.1,9.1,0,0,0,0-1A.47.47,0,0,1,40.21,8c.84-.4,1.66-.83,2.48-1.25l.24,2a7.17,7.17,0,0,1,3.15-1.3,3.84,3.84,0,0,1,3,.34c.29.21.52.5.8.72a.45.45,0,0,0,.4,0,7.65,7.65,0,0,1,4.59-1.33,2.32,2.32,0,0,1,2.22,2.22c0,3.11,0,6.22,0,9.33a5.2,5.2,0,0,0,.55,2.33c.41.84.87.79,1.5.33A2,2,0,0,0,60,19.7c0-2.07,0-4.14,0-6.21a18.57,18.57,0,0,0-.1-2.31,7.19,7.19,0,0,0-.47-1.42,3.25,3.25,0,0,0-.16-.34c-.33-.66-.23-.72.45-.82A7.39,7.39,0,0,0,63.29,7.1.45.45,0,0,1,63.65,7c.08,0,.13.23.13.35,0,3.5,0,7,.1,10.5a18.14,18.14,0,0,0,.37,2.81c.08.45.34.95.82.94.27,0,.62-.41.77-.72a3.65,3.65,0,0,0,.39-1.47q.06-3.76,0-7.52a4.72,4.72,0,0,0-.93-3c-.2-.25,0-.46.4-.5a9.55,9.55,0,0,0,1.07-.15,8.52,8.52,0,0,0,2.89-1.28c.11-.07.3-.16.36-.12a.62.62,0,0,1,.16.39c0,.22,0,.46,0,.67a.92.92,0,0,0,.27.53c.08.06.35,0,.48-.14A7.27,7.27,0,0,1,74.09,7a3.37,3.37,0,0,1,2,.09,2.49,2.49,0,0,1,1.51,2.38c.08,2.47.07,4.95.09,7.42a16.37,16.37,0,0,0,.22,3.85A1.3,1.3,0,0,0,78.68,21.8Z"/><path class="cls-1" d="M45.36,31.67a7.19,7.19,0,0,1-2.53-2.78,5.6,5.6,0,0,1-.31-.9.51.51,0,0,0-.39-.41l-5.34-1.52a2.14,2.14,0,0,1-.48-.14c-.11-.07-.18-.21-.27-.32.12-.05.25-.17.35-.14.57.13,1.13.29,1.69.44,2.36.66,4.71,1.34,7.07,2A5.16,5.16,0,0,1,48.5,31l.14.32a5.4,5.4,0,0,1,2.27-2.91,9.32,9.32,0,0,1,2-.78c2.53-.74,5.08-1.44,7.62-2.15.23-.06.52-.21.63.12,0,.06-.3.31-.5.37-1.69.5-3.39,1-5.09,1.47l-.45.11a.52.52,0,0,0-.44.47,4.42,4.42,0,0,1-1.21,2.21c-.47.51-1,1-1.51,1.43l1.55.31A5.46,5.46,0,0,1,56,33.28a1.55,1.55,0,0,0,.86.33c.71,0,1.43,0,2.15,0,.35,0,.66,0,.78.47a.56.56,0,0,0,.51.2,1,1,0,0,0,.46-.5c0-.07-.23-.38-.37-.39a10.52,10.52,0,0,0-1.52,0A2.17,2.17,0,0,1,57.2,33c-.44-.38-.39-.63.15-.84a4.44,4.44,0,0,1,4.65.54l.52.42A2,2,0,0,0,64,33.7c.74,0,1.49,0,2.24,0,.31,0,.53,0,.64.4a.57.57,0,0,0,.49.24.77.77,0,0,0,.51-.33.33.33,0,0,0-.24-.52,12.28,12.28,0,0,0-1.24-.07c-.47,0-.95,0-1.42,0a.7.7,0,0,1-.42-.15,5.59,5.59,0,0,1-.5-.63,2.51,2.51,0,0,1,.59-.41,4.27,4.27,0,0,1,3.36,0,9.71,9.71,0,0,1,1.6,1,2.26,2.26,0,0,0,1.48.59c.83,0,1.66,0,2.49,0,.34,0,.46.09.4.44a.35.35,0,0,0,.21.28.65.65,0,0,0,.75-.45.46.46,0,0,0-.45-.55,7.3,7.3,0,0,0-1.66,0c-.86.13-1.41-.05-1.73-.66-.17-.32-.1-.48.25-.57a6.25,6.25,0,0,1,6,1,2.71,2.71,0,0,0,1.84.58c.89,0,1.77,0,2.82,0-.15.19-.21.33-.32.38a1.06,1.06,0,0,1-.45.08,17.63,17.63,0,0,1-1.86,0,3.48,3.48,0,0,0-2.58.89,3.75,3.75,0,0,1-2.56.88c-.65,0-1.3,0-1.94,0a2.38,2.38,0,0,1-1.07-.4c-.4-.28-.31-.67.14-.86l.66-.26c.06,0,.09-.1.16-.17s-.12-.11-.18-.11a4,4,0,0,0-3.23,1,3.08,3.08,0,0,1-2.71.79,9.71,9.71,0,0,1-1.71-.46c-.42-.16-.41-.49-.06-.78.19-.15.39-.29.63-.45a3.59,3.59,0,0,0-3.33.9,4.05,4.05,0,0,1-4.44.26c-.32-.23-.33-.49,0-.73s.45-.32.76-.54a2.42,2.42,0,0,0-1.56.14,6.27,6.27,0,0,1-2.7.68l-2.54.17a5,5,0,0,0,.5.42,6.44,6.44,0,0,1,2.68,3.23,5.6,5.6,0,0,1,.17.71c.64.17,1.33.35,2,.55,1.36.39,2.72.79,4.08,1.2.13,0,.22.2.33.3-.15.05-.31.17-.43.14-.49-.11-1-.26-1.44-.39-2.48-.69-5-1.36-7.44-2.07a4.13,4.13,0,0,1-2.65-2.7c-.08-.19-.14-.39-.22-.61a6,6,0,0,1-1.36,2.42A4.78,4.78,0,0,1,45,39.48c-1.93.53-3.86,1.08-5.79,1.63l-2.12.6a.4.4,0,0,1-.21,0c-.14,0-.28-.11-.42-.16.12-.1.22-.25.35-.29q2.86-.84,5.74-1.64c.25-.07.33-.18.43-.45a9.85,9.85,0,0,1,1-1.93,5.15,5.15,0,0,1,1.91-1.73c.12-.06.2-.21.33-.34-1.12-.09-2.18-.14-3.22-.27a6,6,0,0,1-1.68-.47,3.2,3.2,0,0,0-1.81-.28c.22.18.38.34.56.46.52.36.53.65,0,.94a4.15,4.15,0,0,1-4.24-.34c-.18-.15-.38-.28-.56-.44-.81-.71-1.78-.58-2.86-.55l.7.52c.32.24.34.55,0,.72a4.78,4.78,0,0,1-1.28.46,3.68,3.68,0,0,1-2.14-.15,4.06,4.06,0,0,1-1.1-.66,3.93,3.93,0,0,0-3.2-.92s-.09.05-.25.15a8.33,8.33,0,0,1,.79.36c.17.1.44.26.44.4a.9.9,0,0,1-.31.61,1.27,1.27,0,0,1-.73.28c-1,0-2.05,0-3.07-.07a3.76,3.76,0,0,1-1.91-1,3,3,0,0,0-2-.7c-.74,0-1.49,0-2.24,0-.4,0-.49-.1-.51-.46.91,0,1.82,0,2.73,0a3.13,3.13,0,0,0,1.77-.54,9.61,9.61,0,0,1,2.12-1.12A7.4,7.4,0,0,1,24.34,32a9.4,9.4,0,0,1,1.63.3c.35.07.37.26.22.55-.34.63-.85.82-1.72.66a8.71,8.71,0,0,0-1.29-.12,1.12,1.12,0,0,0-.52.15c-.25.13-.45.3-.25.63s.62.45.83.29a.34.34,0,0,0,.07-.28c-.05-.32.07-.43.39-.42.79,0,1.58,0,2.36,0a2.08,2.08,0,0,0,1.57-.57,4.84,4.84,0,0,1,2.88-1.39A5.55,5.55,0,0,1,32,32a4.6,4.6,0,0,1,1,.31c.35.15.38.36.13.66a1.47,1.47,0,0,1-1.2.48c-.55,0-1.09-.05-1.64-.07a2,2,0,0,0-.45.06c-.23,0-.49.13-.41.41a.91.91,0,0,0,.44.46.41.41,0,0,0,.61-.23c.09-.35.31-.38.6-.38.75,0,1.5,0,2.24,0a2.15,2.15,0,0,0,1.62-.63,4.38,4.38,0,0,1,3.3-1.27,10.49,10.49,0,0,1,1.77.41c.16,0,.41.24.4.34a.85.85,0,0,1-.33.54,2.41,2.41,0,0,1-1.64.34,8.3,8.3,0,0,0-1.48,0c-.14,0-.39.33-.36.4a1,1,0,0,0,.48.49.55.55,0,0,0,.5-.22c.12-.42.42-.45.75-.45a17.49,17.49,0,0,1,1.77,0,1.93,1.93,0,0,0,1.59-.58,5.63,5.63,0,0,1,3.12-1.27Z"/><path class="cls-1" d="M11.15,9.93h6.67a.9.9,0,0,1-.1.25,3.83,3.83,0,0,0-.81,2.5c0,1.84,0,3.69,0,5.53a2.85,2.85,0,0,0,.87,2.15l.11.12a.89.89,0,0,1,.06.12,9,9,0,0,0-3.21,1.31,8.77,8.77,0,0,1-3.36.93,7.75,7.75,0,0,1-3.76-.55,8,8,0,0,1-4.22-3.88,10.63,10.63,0,0,1-1.12-3.14c-.13-.81-.21-1.63-.29-2.44a10.4,10.4,0,0,1-.08-1.3,16.2,16.2,0,0,1,1.54-7A7.71,7.71,0,0,1,7.66.47,7.5,7.5,0,0,1,11.42.09a26.71,26.71,0,0,1,2.79.49,6,6,0,0,1,1.45.78.39.39,0,0,1,.12.35c-.56,2-1.13,4-1.7,5.94a2.88,2.88,0,0,1-.14.3c-.12-.42-.22-.75-.3-1.09A14.3,14.3,0,0,0,12.1,2.55a2.94,2.94,0,0,0-1.27-1.18A1.31,1.31,0,0,0,9,1.87,9.78,9.78,0,0,0,7.71,5,24.7,24.7,0,0,0,7.1,12.4a19.61,19.61,0,0,0,1.62,7.72,3.94,3.94,0,0,0,.66,1A1.48,1.48,0,0,0,12,20.46a2.94,2.94,0,0,0,.14-.95q0-3.44,0-6.88a3.71,3.71,0,0,0-.95-2.56A.53.53,0,0,1,11.15,9.93Z"/><path class="cls-1" d="M90.55,20a2.78,2.78,0,0,1-3.08,2.23,4.29,4.29,0,0,1-1.69-.84,1,1,0,0,0-1.17-.12,6.16,6.16,0,0,1-3.41.83c-1.7-.18-2.88-.91-3.09-2.5A4.44,4.44,0,0,1,79.2,16.1a10.58,10.58,0,0,1,3.69-2.69c.81-.4,1.67-.69,2.49-1,0-1.12,0-2.25,0-3.38a1.12,1.12,0,0,0-.84-1,1.14,1.14,0,0,0-1.34.6c-.3.71-.5,1.47-.73,2.21a2.52,2.52,0,0,1-1.08,1.62,1.76,1.76,0,0,1-1.89-.15,1.77,1.77,0,0,1-.27-2.1,4.77,4.77,0,0,1,2.07-2.07,11,11,0,0,1,4-1.48c1.29-.19,3.08.42,3.59,1.7a2.5,2.5,0,0,1,.19.85c0,2.18.06,4.36.09,6.53q0,1.64.07,3.28a.93.93,0,0,0,1,1Zm-5.11-3.45h0q0-1,0-2.07c0-.76-.24-.93-1-.67a1.22,1.22,0,0,0-.29.16,4.7,4.7,0,0,0-1.82,2.82,3.29,3.29,0,0,0,.45,2.6,1.31,1.31,0,0,0,1.53.76,1.75,1.75,0,0,0,1.1-1.49C85.45,17.91,85.45,17.21,85.45,16.51Z"/><path class="cls-1" d="M21.38,14.16a7.57,7.57,0,0,0,1,3.66,3.54,3.54,0,0,0,1.06,1,2.27,2.27,0,0,0,2.69-.23A5.33,5.33,0,0,0,27.59,17a3.78,3.78,0,0,1,.29-.37l.17,0A11.74,11.74,0,0,1,28,18a6.88,6.88,0,0,1-1.32,3.12,3.9,3.9,0,0,1-2.83,1.53,4.21,4.21,0,0,1-3.28-1.24,7.74,7.74,0,0,1-2.43-4.91A11.08,11.08,0,0,1,19.6,9a4.14,4.14,0,0,1,2.7-2.09A3.66,3.66,0,0,1,25,7.49a6,6,0,0,1,3,4.62c.06.41.1.83.15,1.24a.48.48,0,0,1-.4.59,1.3,1.3,0,0,1-.29,0l-4,.08C22.8,14.07,22.13,14.12,21.38,14.16Zm0-1.43H24.1c.49,0,.69-.19.69-.68s0-1.18,0-1.77a2.84,2.84,0,0,0-.6-1.88A1.12,1.12,0,0,0,22.61,8a2,2,0,0,0-.82,1.12A9.1,9.1,0,0,0,21.41,12.73Z"/><path class="cls-1" d="M28.5,8.66A19.32,19.32,0,0,0,31,8a18.78,18.78,0,0,0,2.24-1.32l.2,1.91c.54-.47,1.07-1,1.65-1.42a2.77,2.77,0,0,1,1.73-.65,2.48,2.48,0,0,1,2.33,1.82,3.6,3.6,0,0,1-.67,3.12,1.81,1.81,0,0,1-1.86.42,1.27,1.27,0,0,1-1-1.4s0-.06,0-.08c0-.44,0-1-.48-1.13a1.58,1.58,0,0,0-1.06.5,2.52,2.52,0,0,0-.87,2c0,2.32,0,4.64,0,7A3.77,3.77,0,0,0,33.89,21a3.94,3.94,0,0,1,.3.33,4.19,4.19,0,0,1,.23.54A1.51,1.51,0,0,1,34,22c-1.79,0-3.57,0-5.36,0a1.64,1.64,0,0,1-.54-.22,1.86,1.86,0,0,1,.24-.45,3.43,3.43,0,0,0,1-2.52c0-2.79,0-5.57,0-8.36a2.08,2.08,0,0,0-.55-1.43C28.68,8.93,28.59,8.78,28.5,8.66Z"/><path class="cls-1" d="M95.57.25c0,.29-.07.47-.08.66s0,.59,0,.88c0,5.68,0,11.37,0,17.05a3.4,3.4,0,0,0,1.06,2.67c.06.06.07.17.1.26a1.12,1.12,0,0,1-.33.11H92.26c-.42,0-.84,0-1.27,0a1.35,1.35,0,0,1-.39-.15,1.88,1.88,0,0,1,.19-.43,5.13,5.13,0,0,0,.63-.75,2.6,2.6,0,0,0,.27-1.08q0-7.56,0-15.11a3.61,3.61,0,0,0-.73-2c-.2-.3-.16-.41.18-.41a6.34,6.34,0,0,0,4-1.51A3.14,3.14,0,0,1,95.57.25Z"/><path class="cls-1" d="M18.53,32.75a1.18,1.18,0,0,1-1.26.78c-.68,0-1.35,0-2,0-.26,0-.54.08-.56.39a.62.62,0,0,0,.21.49,1.45,1.45,0,0,0,.62.09c.73.05,1.47.06,2.2.17.35.05.82.21.79.67s-.51.47-.85.55a5.71,5.71,0,0,1-4.12-.34,8.8,8.8,0,0,1-1.16-.75,1.81,1.81,0,0,0-1.62-.23l.64.33a.43.43,0,0,1,0,.8A2.81,2.81,0,0,1,9.63,36,6.79,6.79,0,0,1,6.7,34.83a3.54,3.54,0,0,0-1.91-.53c-1.42,0-2.84,0-4.26,0-.1,0-.21,0-.29,0A1.05,1.05,0,0,1,0,34a1,1,0,0,1,.24-.19.84.84,0,0,1,.29,0c1.28,0,2.56,0,3.84,0a4.39,4.39,0,0,0,2.09-.5,19.88,19.88,0,0,1,2.42-1,2.8,2.8,0,0,1,2.09.07c.21.1.52.37.49.51a.82.82,0,0,1-.52.56A16.57,16.57,0,0,1,9,33.62c-.12,0-.29-.07-.37,0a3.63,3.63,0,0,0-.48.47c.15.13.3.28.47.4a.92.92,0,0,0,.29.08l-.07-.63a6,6,0,0,1,.67-.09c.59,0,1.18,0,1.77,0a1.79,1.79,0,0,0,1.2-.42,5.84,5.84,0,0,1,2.64-1.28A4.57,4.57,0,0,1,18.53,32.75Z"/><path class="cls-1" d="M88.32,34.56a1,1,0,0,1,.24-.07c.3,0,.56-.12.51-.45s-.33-.46-.67-.44a9.06,9.06,0,0,1-1.21.05,3.48,3.48,0,0,1-1-.26.62.62,0,0,1-.34-.45.69.69,0,0,1,.35-.45,2.76,2.76,0,0,1,1.75-.27,7.93,7.93,0,0,1,2.91,1.1,3.94,3.94,0,0,0,2.09.51c1.28,0,2.56,0,3.84,0a1,1,0,0,1,.33,0c.09,0,.21.14.21.21s-.11.19-.2.22a.91.91,0,0,1-.33,0c-1.27,0-2.54,0-3.8,0a5.09,5.09,0,0,0-3,.88,5.09,5.09,0,0,1-3.65.73,1,1,0,0,1-.45-.18.71.71,0,0,1-.26-.45c0-.13.17-.28.29-.37a5.88,5.88,0,0,1,.68-.36,2.17,2.17,0,0,0-2,.44,5.16,5.16,0,0,1-2.21,1,6.5,6.5,0,0,1-3.14-.23c-.2-.06-.49-.3-.49-.47s.25-.41.44-.52a4.39,4.39,0,0,1,2.46-.3,1.57,1.57,0,0,0,.64-.06.53.53,0,0,0,.27-.42.7.7,0,0,0-.31-.42.84.84,0,0,0-.44-.08c-.6,0-1.21,0-1.81,0a1.21,1.21,0,0,1-1.31-.85,9.69,9.69,0,0,1,1.5-.54,5.16,5.16,0,0,1,3.32.48,9.15,9.15,0,0,1,1.24.85,1.86,1.86,0,0,0,1.22.37c.58,0,1.15,0,1.73,0S88.46,33.92,88.32,34.56Z"/><path class="cls-1" d="M31.78,31.22c-.3,0-.6-.07-.9-.07a7.33,7.33,0,0,0-3.15.53,2.17,2.17,0,0,1-2.55-.6,8.43,8.43,0,0,1-1.89-3,.62.62,0,0,0-.53-.45q-3-.57-5.92-1.2c-.13,0-.22-.21-.33-.32.13-.06.28-.19.4-.17q1.77.3,3.53.65l7.68,1.54c.57.11,1.15.19,1.71.36a1.11,1.11,0,0,1,.7.52,3.93,3.93,0,0,0,1.12,1.6,1.69,1.69,0,0,1,.24.48Z"/><path class="cls-1" d="M70.24,31.86c-.39-.12-1-.33-1.54-.49A7,7,0,0,0,66,31.2a1.85,1.85,0,0,1-.54-.1,1.74,1.74,0,0,1,.25-.54A3.68,3.68,0,0,0,66.75,29a1.07,1.07,0,0,1,.73-.53c4.12-.84,8.26-1.65,12.38-2.47A2.21,2.21,0,0,1,80.4,26a1.14,1.14,0,0,1,.37.16c-.11.11-.19.3-.32.33-.54.14-1.08.23-1.63.34-1.46.29-2.92.57-4.37.88a.67.67,0,0,0-.39.36,9.63,9.63,0,0,1-2,3.08A2.41,2.41,0,0,1,70.24,31.86Z"/><path class="cls-1" d="M24.12,31.1a5.35,5.35,0,0,0-.73.08,17.75,17.75,0,0,0-2.23.65,2.36,2.36,0,0,1-2.6-.59,7.12,7.12,0,0,1-1.93-3,.66.66,0,0,0-.58-.48q-3.14-.61-6.28-1.26c-.14,0-.24-.2-.36-.3.14-.07.29-.21.42-.19q1.18.15,2.35.36l7.17,1.32c.79.15,1.59.26,2.38.43a.74.74,0,0,1,.42.34c.3.53.52,1.1.85,1.61a4.17,4.17,0,0,0,.74.72Z"/><path class="cls-1" d="M73.23,31a7.26,7.26,0,0,1,.62-.55,2.86,2.86,0,0,0,.94-1.29c.49-1.14.5-1.1,1.7-1.3,1.82-.31,3.63-.67,5.45-1L87,26a2.46,2.46,0,0,1,.57-.07c.12,0,.23.12.35.18-.1.11-.19.27-.32.3-.63.16-1.27.29-1.91.41-1.51.29-3,.56-4.54.87a.68.68,0,0,0-.41.37,8.45,8.45,0,0,1-1.8,3,3,3,0,0,1-1.66.9,2.35,2.35,0,0,1-1.09-.19,8.32,8.32,0,0,0-2.74-.67S73.33,31.09,73.23,31Z"/><path class="cls-1" d="M24.46,36.76c-.1.16-.14.25-.2.3a5.58,5.58,0,0,0-1.35,1.41,3.42,3.42,0,0,1-2.48,1.38c-1.7.24-3.39.61-5.08.91-1.25.22-2.5.42-3.75.63-.48.08-.95.21-1.43.26-.15,0-.31-.12-.46-.18.11-.12.2-.32.33-.35,1.18-.26,2.36-.49,3.54-.73.76-.15,1.52-.32,2.29-.45a.68.68,0,0,0,.56-.42,6.94,6.94,0,0,1,2.07-2.6,2.64,2.64,0,0,1,2.57-.48,11.9,11.9,0,0,0,2.52.3C23.84,36.78,24.1,36.76,24.46,36.76Z"/><path class="cls-1" d="M72.94,36.76a8.75,8.75,0,0,0,1.13,0,24.31,24.31,0,0,0,2.41-.4,2.59,2.59,0,0,1,2.21.5,6.43,6.43,0,0,1,2.08,2.54,1,1,0,0,0,.81.61c1.85.35,3.7.72,5.56,1.09.22,0,.51.07.44.38s-.31.25-.57.2q-3.66-.69-7.33-1.35c-1.25-.22-2.5-.4-3.74-.64a1.87,1.87,0,0,1-.86-.49c-.35-.33-.61-.75-.94-1.11s-.52-.51-.79-.76l-.48-.41Z"/><path class="cls-1" d="M31.29,36.84a1.9,1.9,0,0,1-.25.35,4.51,4.51,0,0,0-1.34,1.64c-.23.5-.79.53-1.26.63l-7.88,1.61c-.76.15-1.52.31-2.29.45-.12,0-.27-.08-.41-.13.1-.13.17-.34.29-.38.74-.19,1.48-.35,2.23-.51s1.74-.37,2.61-.58a.75.75,0,0,0,.43-.37A7.52,7.52,0,0,1,26,36.38a2,2,0,0,1,2.35-.17,3.61,3.61,0,0,0,2.38.4C30.91,36.6,31.07,36.74,31.29,36.84Z"/><path class="cls-1" d="M66.46,36.55a4.15,4.15,0,0,0,2.76-.49,1.8,1.8,0,0,1,1.86.23,7.4,7.4,0,0,1,2.8,3.26.75.75,0,0,0,.43.36c1.57.37,3.14.71,4.71,1.06.07,0,.17,0,.2,0a2.63,2.63,0,0,1,.2.37c-.11.05-.24.17-.34.15L72.63,40.2c-1.38-.28-2.76-.54-4.12-.85a1.46,1.46,0,0,1-.9-.53,5.56,5.56,0,0,0-1.38-1.66.39.39,0,0,1-.1-.36C66.18,36.7,66.34,36.64,66.46,36.55Z"/><path class="cls-1" d="M71.69,41.05c-.64-.12-1.27-.22-1.9-.35l-7-1.42c-.83-.17-1.66-.3-2.48-.52a1,1,0,0,1-.64-.52A3.1,3.1,0,0,0,58.82,37a1.92,1.92,0,0,1-.26-.55,2.39,2.39,0,0,1,.53,0,5.47,5.47,0,0,0,2.79-.34c1.56-.6,2.24.09,2.92,1A21.73,21.73,0,0,1,66,39.25a.51.51,0,0,0,.3.22l4.21.85.93.2C71.7,40.57,71.81,40.71,71.69,41.05Z"/><path class="cls-1" d="M34.3,35.78c.45.13.77.26,1.11.33.71.15,1.42.3,2.13.4a4.33,4.33,0,0,0,.86-.12.41.41,0,0,1,.31.12c0,.05,0,.21,0,.29a1.62,1.62,0,0,1-.29.31,2.13,2.13,0,0,0-.73,1.09.84.84,0,0,1-.74.59l-9,1.83c-.65.13-1.31.26-2,.37a1.18,1.18,0,0,1-.44-.11c.12-.13.22-.35.36-.38.95-.21,1.91-.38,2.86-.57.74-.15,1.47-.29,2.2-.46a.62.62,0,0,0,.35-.31,7.5,7.5,0,0,1,1.86-2.76A6.68,6.68,0,0,1,34.3,35.78Z"/><path class="cls-1" d="M38.89,31.16a2.69,2.69,0,0,1-.5,0,5.87,5.87,0,0,0-3.32.42,2,2,0,0,1-2.29-.74c-.55-.78-1-1.64-1.49-2.45a.65.65,0,0,0-.36-.29c-1.68-.35-3.37-.68-5.06-1-.15,0-.26-.21-.39-.32.15-.05.31-.17.44-.15,1.66.31,3.32.65,5,1,2,.4,4,.81,6,1.19a1.07,1.07,0,0,1,.89.76,4.1,4.1,0,0,0,.6.88Z"/><path class="cls-1" d="M58.47,31.13a2.68,2.68,0,0,1,.32-.53,3,3,0,0,0,.89-1.29.82.82,0,0,1,.55-.44c2.48-.51,5-1,7.45-1.49,1.25-.25,2.5-.51,3.75-.75.1,0,.22.09.33.14-.09.11-.16.31-.26.33-1.69.36-3.38.68-5.06,1a.75.75,0,0,0-.46.38A9.56,9.56,0,0,1,64.42,31a2,2,0,0,1-2.26.59,6.39,6.39,0,0,0-3.25-.38.7.7,0,0,1-.21,0Z"/><path class="cls-1" d="M79.75,31.39a4.63,4.63,0,0,0,.68-.66,9.4,9.4,0,0,0,.89-1.51,1.58,1.58,0,0,1,1.37-1.08c1.73-.2,3.45-.46,5.17-.7,1.17-.16,2.34-.35,3.51-.5.14,0,.3.11.45.17-.12.11-.23.28-.36.31q-2.34.42-4.68.79a.82.82,0,0,0-.7.57,5.09,5.09,0,0,1-2.16,2.53,3.37,3.37,0,0,1-1.91.26c-.58,0-1.17,0-1.75,0l-.47,0Z"/><path class="cls-1" d="M17.49,31.5a1.1,1.1,0,0,1-.31.1c-.72,0-1.45-.05-2.16,0A3.32,3.32,0,0,1,12,30.07a6.4,6.4,0,0,1-.77-1.37.74.74,0,0,0-.64-.47C9,28,7.41,27.7,5.86,27.42c-.15,0-.27-.2-.4-.31.17-.05.34-.17.5-.15q2.65.33,5.29.71c1.29.18,2.59.37,3.87.59a1,1,0,0,1,.52.43c.41.65.75,1.34,1.19,2a3.59,3.59,0,0,0,.79.65Z"/><path class="cls-1" d="M38.27,39.2a7.35,7.35,0,0,1,1.83-2.83,2,2,0,0,1,1.54-.62q.9.07,1.8.08c.25,0,.49-.06.74-.07a.31.31,0,0,1,.25.1.27.27,0,0,1-.05.26A4.29,4.29,0,0,0,43.05,38a1.79,1.79,0,0,1-1.48,1.1c-3.19.64-6.37,1.31-9.55,2a2,2,0,0,1-.53.07c-.12,0-.23-.11-.34-.18.08-.08.14-.21.24-.24.5-.14,1-.28,1.53-.39Z"/><path class="cls-1" d="M52.77,35.73a8.78,8.78,0,0,0,1,.1,16.36,16.36,0,0,0,1.67-.08A2.49,2.49,0,0,1,57.74,37a11.66,11.66,0,0,1,1.1,1.86.77.77,0,0,0,.6.47l6.27,1.36a.28.28,0,0,1,.12,0l.33.31c-.16.05-.33.18-.48.15-1-.18-2-.39-3.07-.61-2.38-.5-4.75-1-7.14-1.49a1.56,1.56,0,0,1-1.2-1,5,5,0,0,0-1.37-2C52.83,36.07,52.83,35.92,52.77,35.73Z"/><path class="cls-1" d="M53.11,31.45c.11-.19.14-.32.23-.38a3.49,3.49,0,0,0,1.07-1.41,2.24,2.24,0,0,0,.14-.3,2,2,0,0,1,1.7-1.3c2-.36,4-.82,6-1.23q2-.4,3.93-.77c.11,0,.24.12.37.19-.09.09-.16.25-.27.27-1.73.39-3.47.76-5.21,1.14-.51.11-1,.21-1.54.34a.43.43,0,0,0-.24.25,6.53,6.53,0,0,1-1.45,2.38,2,2,0,0,1-1.75.82,16.11,16.11,0,0,0-1.63-.07C54,31.37,53.63,31.42,53.11,31.45Z"/><path class="cls-1" d="M43.79,31.44c-1,0-1.83,0-2.67,0a2.13,2.13,0,0,1-1.7-.85A6.67,6.67,0,0,1,38,28.22a.5.5,0,0,0-.33-.24l-6.18-1.36a1.18,1.18,0,0,1-.36-.09,2.4,2.4,0,0,1-.35-.32c.14,0,.3-.15.43-.13.73.12,1.45.26,2.18.41l6.36,1.33c.58.12,1.17.25,1.75.34a1.51,1.51,0,0,1,1.11.91c.28.51.56,1,.86,1.53a3,3,0,0,0,.36.41l.28.32Z"/><path class="cls-1" d="M5.09,40.89a3.74,3.74,0,0,1,.62-.23c1.72-.32,3.44-.64,5.17-.92a.43.43,0,0,0,.39-.34,5,5,0,0,1,1.66-2.26,2.11,2.11,0,0,1,1.81-.36,5.08,5.08,0,0,0,2.15.08c.1,0,.23.06.34.09a1.11,1.11,0,0,1-.13.32c-.35.4-.84.72-1,1.18a2.57,2.57,0,0,1-2.46,1.47c-1.27.15-2.52.39-3.78.59s-2.75.44-4.13.65a2.19,2.19,0,0,1-.58-.07Z"/><path class="cls-1" d="M92.15,41.15A9.83,9.83,0,0,1,91,41.09c-1.7-.28-3.39-.58-5.09-.86q-1.71-.28-3.43-.51a1.16,1.16,0,0,1-.84-.57,6.5,6.5,0,0,0-1.53-1.91c-.06,0-.13-.2-.1-.24a.34.34,0,0,1,.27-.14,9.5,9.5,0,0,0,2.86-.15,2,2,0,0,1,1.08.36,4,4,0,0,1,1.65,2.11.85.85,0,0,0,.78.62c1.67.27,3.34.57,5,.88a1.93,1.93,0,0,1,.49.25Z"/><path class="cls-1" d="M59.59,3.48A2.27,2.27,0,0,1,61.86,1.2a2.2,2.2,0,0,1,2.22,2.28,2.27,2.27,0,0,1-2.15,2.33A2.22,2.22,0,0,1,59.59,3.48Z"/><path class="cls-1" d="M11.5,36.22a7.83,7.83,0,0,1,.93,0,.43.43,0,0,1,.32.26.42.42,0,0,1-.23.33,3.55,3.55,0,0,0-1.72,1.52.91.91,0,0,0-.09.14c-.3.72-.92.84-1.6.89-1.32.11-2.63.27-4,.39-1,.09-2,.15-3,.22a.78.78,0,0,1-.33,0,.31.31,0,0,1-.18-.21.26.26,0,0,1,.16-.19,9.14,9.14,0,0,1,1-.17c.89-.09,1.77-.16,2.66-.27A.8.8,0,0,0,6,38.81a5.51,5.51,0,0,1,4.22-2.52c.43-.06.87-.07,1.3-.1Z"/><path class="cls-1" d="M85.69,36.22a6.45,6.45,0,0,1,4.16,1.08,8.12,8.12,0,0,1,1.43,1.49.77.77,0,0,0,.57.34l3.36.34a.18.18,0,0,1,.08,0l.34.26c-.13.08-.26.23-.38.23-.5,0-1,0-1.51-.08l-3-.28c-1.09-.11-2.19-.19-3.28-.35-.23,0-.45-.3-.62-.5-.45-.51-.86-1.05-1.32-1.55a3.68,3.68,0,0,0-.68-.39,1.58,1.58,0,0,1-.28-.32c.12-.1.23-.26.36-.27A5.56,5.56,0,0,1,85.69,36.22Z"/><path class="cls-1" d="M87.18,31.85c-.56-.09-1.15-.16-1.73-.28a.23.23,0,0,1-.09-.44,2.39,2.39,0,0,0,1-1.36c.24-.67.77-.69,1.3-.76l5.49-.77c.59-.08,1.18-.19,1.77-.24.13,0,.27.17.41.27-.1.09-.19.24-.31.26l-3.34.55a.58.58,0,0,0-.36.26,4.47,4.47,0,0,1-2.76,2.29C88.12,31.74,87.66,31.78,87.18,31.85Z"/><path class="cls-1" d="M10.31,31.82A4.54,4.54,0,0,1,6,29.3a.52.52,0,0,0-.33-.23c-1.1-.19-2.2-.35-3.29-.54-.13,0-.24-.19-.36-.29.16-.08.33-.24.47-.22,1.65.21,3.3.46,4.95.69,1,.13,1.91.23,2.85.4a1.07,1.07,0,0,1,.56.44c.17.23.24.54.41.78s.43.49.64.74a.58.58,0,0,1,.17.3c0,.07-.13.19-.22.21C11.23,31.69,10.66,31.76,10.31,31.82Z"/></g></g></g></svg>
