<svg xmlns="http://www.w3.org/2000/svg" viewBox="0 0 168.38 23.94"><defs><style>.cls-1{fill:#807c66;}</style></defs><title>Recurso 15</title><g id="Capa_2" data-name="Capa 2"><g id="Capa_1-2" data-name="Capa 1"><g id="gM2H8z"><path class="cls-1" d="M0,12.38C0,9.1,0,5.83.06,2.56c0-.45.63-1.26,1-1.26a56.94,56.94,0,0,1,8.7.34c5,.79,7.73,4.33,7.74,9.34a29.39,29.39,0,0,1-.09,3.83c-.69,5.32-4.4,8.46-10.31,8.76a42.82,42.82,0,0,1-5.67,0A2,2,0,0,1,.08,22.19C0,18.92,0,15.65,0,12.38Zm3.66,0c0,2.91,0,5.81,0,8.71,0,.44.47,1.19.83,1.26,3.93.79,7.28-1,8.32-4.89a26.51,26.51,0,0,0,.67-7.24c-.09-5.41-3.12-8.15-8.48-7.79A2,2,0,0,0,3.74,3.84C3.61,6.69,3.68,9.55,3.68,12.4Z"/><path class="cls-1" d="M59.24,12.48c0,3.06,0,6.13,0,9.19,0,1.22-.07,2-1.67,2s-1.78-.61-1.75-1.92c.07-2.6,0-5.21,0-7.81,0-1.22-.42-1.61-1.6-1.58-2.45.06-4.9.08-7.35,0-1.32,0-1.65.5-1.62,1.72.07,2.65,0,5.31,0,8,0,1.19-.37,1.65-1.58,1.59-1.06,0-1.86,0-1.84-1.5q.09-9.73,0-19.46c0-1.33.65-1.47,1.71-1.47s1.76.11,1.71,1.46c-.08,2.4-.1,4.81,0,7.2a2,2,0,0,0,1.31,1.4,73.09,73.09,0,0,0,7.81,0,2,2,0,0,0,1.3-1.41c.14-2.39.13-4.8,0-7.2,0-1.36.67-1.45,1.71-1.45s1.74.12,1.71,1.46C59.19,5.94,59.24,9.21,59.24,12.48Z"/><path class="cls-1" d="M63.93,10.76a5.67,5.67,0,0,1,6-3.56c2.67.31,4.64,2,4.75,4.58.16,3.57.11,7.15,0,10.71,0,.39-1.07,1-1.63,1s-1.52-.64-1.58-1.1a24,24,0,0,1-.07-4.58c.08-1.34-.49-1.66-1.72-1.55-2.31.21-3.51,1.28-3.44,3.26.07,2.16,1.48,3,3.88,2.24-.32,1.52-2,2.39-3.87,2.07A3.81,3.81,0,0,1,63,19.58c.32-2.46,2.36-4.11,5.44-4.16,1.8,0,3.4.13,3-2.55-.39-2.39-1.73-3.58-4.11-3.12A32.53,32.53,0,0,0,63.93,10.76Z"/><path class="cls-1" d="M157.61,10.76a5.47,5.47,0,0,1,5.74-3.57c2.75.21,4.87,2,5,4.54.11,3.57.09,7.15,0,10.72,0,.41-1.11,1.05-1.71,1.07s-1.46-.69-1.49-1.14c-.17-1.92-.07-3.86-.07-6-1.78-.22-3.55-.4-4.48,1.21a3.79,3.79,0,0,0-.1,3.33c.55.81,2.06,1,3.38,1.51-.68.36-1.66,1.32-2.61,1.28-1.29-.05-3.08-.52-3.68-1.45a5.37,5.37,0,0,1-.3-4.24c.8-2.13,3-2.67,5.1-2.67,1.64,0,3,.11,2.72-2.31-.29-2.23-1.43-3.67-3.44-3.42a25.69,25.69,0,0,0-3.95,1.1Z"/><path class="cls-1" d="M145.05,12c0,3.42-.05,6.84,0,10.26,0,1.45-.82,1.34-1.78,1.36s-1.65,0-1.64-1.34q.07-10.49,0-21c0-1.38.81-1.27,1.7-1.26s1.74-.16,1.72,1.24C145,4.85,145.05,8.42,145.05,12Z"/><path class="cls-1" d="M127.21,11.87c0,3.41,0,6.83,0,10.24,0,1.28-.53,1.52-1.65,1.52s-1.77-.17-1.76-1.56q.09-10.24,0-20.49c0-1.36.55-1.57,1.73-1.59s1.72.32,1.69,1.63C127.16,5,127.21,8.46,127.21,11.87Z"/><path class="cls-1" d="M95.66,20.85a20.34,20.34,0,0,0,3.64,1.66,2.83,2.83,0,0,0,3.65-1.74c.59-1.69-.34-2.8-1.83-3.56A25.79,25.79,0,0,1,97.28,15a3.84,3.84,0,0,1-1.33-4.78c.7-1.8,3.06-3.1,5.28-3a4.4,4.4,0,0,1,4.26,3.26A16.79,16.79,0,0,0,103.14,9c-1.49-.62-3-.62-3.85,1s.14,2.71,1.53,3.48c1.21.67,2.46,1.26,3.61,2a4.18,4.18,0,0,1,2,4.48,4.35,4.35,0,0,1-3.25,3.52,6.9,6.9,0,0,1-6.56-.87A8.53,8.53,0,0,1,95.29,21Z"/><path class="cls-1" d="M120.67,20c-.9,3.5-4.58,4.86-8.07,3.15-2.9-1.42-4.42-5.46-3.63-9.65.7-3.71,3.06-6,6.45-6.36,2.22-.21,4.07.9,5.18,3.5-.72-.56-1.07-.82-1.41-1.09a3.61,3.61,0,0,0-5.79,1.21,10.39,10.39,0,0,0,0,8.9C114.65,22.49,117.47,22.61,120.67,20Z"/><path class="cls-1" d="M128.38,10a4.64,4.64,0,0,1,4.85-2.85c2.19.23,3.55,1.45,3.63,3.64.15,3.93.15,7.86.05,11.79,0,.34-1.23.9-1.89.9a1.82,1.82,0,0,1-1.32-1.2c-.13-2.75-.07-5.51-.07-8.27C133.63,9.51,132.58,8.71,128.38,10Z"/><path class="cls-1" d="M87.69,20.87a4.57,4.57,0,0,1-4.89,3,3.67,3.67,0,0,1-3.66-3.78q-.15-5.74,0-11.48c0-.41,1.11-1.07,1.72-1.08s1.47.72,1.5,1.17c.14,2.9.07,5.82.07,8.73,0,4.24,1.39,5.16,5.25,3.46Z"/><path class="cls-1" d="M92.07,15.55c0,2.2-.06,4.39,0,6.59,0,1.31-.6,1.5-1.69,1.49s-1.75-.07-1.73-1.44q.09-6.66,0-13.32c0-1.38.75-1.42,1.77-1.42s1.69.1,1.65,1.37C92,11.06,92.07,13.31,92.07,15.55Z"/><path class="cls-1" d="M24.47,15.67c0,2.19,0,4.39,0,6.58,0,1.28-.65,1.38-1.64,1.37s-1.78,0-1.76-1.4c.06-4.49.05-9,0-13.47,0-1.34.79-1.29,1.7-1.3s1.72,0,1.69,1.34C24.43,11.08,24.47,13.38,24.47,15.67Z"/><path class="cls-1" d="M154.53,7.82c-1.53,1.63-3,3.31-4.62,4.85a1.7,1.7,0,0,0-.22,2.6c1.76,2.61,3.4,5.29,5.2,8.11-2.06.38-3.64.56-4.73-1.51s-2.44-3.65-3.51-5.55a2.18,2.18,0,0,1,.2-2c1.74-2.06,3.6-4,5.49-6a8.54,8.54,0,0,1,1.87-1.13Z"/><path class="cls-1" d="M34,22.34c-.88.53-1.82,1.55-2.63,1.46s-1.4-1.33-2.1-2.07c.77-.7,1.49-1.86,2.34-2s1.59,1,2.4,1.61Z"/><path class="cls-1" d="M30,8.93l-4.6,1.7c.11-2.06,1.51-3.61,3.29-3.22C29.2,7.52,29.57,8.44,30,8.93Z"/><path class="cls-1" d="M157.63,10.77l-.05.09,0-.11Z"/><polygon class="cls-1" points="87.71 20.9 87.75 20.85 87.69 20.87 87.71 20.9"/></g></g></g></svg>
