<svg xmlns="http://www.w3.org/2000/svg" viewBox="0 0 105.19 40.22"><defs><style>.cls-1{fill:#807c66;}</style></defs><title>Recurso 20</title><g id="Capa_2" data-name="Capa 2"><g id="Capa_1-2" data-name="Capa 1"><g id="OMfP7p"><path class="cls-1" d="M49,0l4.45.24C64.9.94,76.15,2.72,86.93,6.88A44.1,44.1,0,0,1,99.3,13.77a16.56,16.56,0,0,1,5.08,6.36,27.08,27.08,0,0,1,.81,2.69v2.23a28.44,28.44,0,0,1-1.38,3.72c-1.41,2.66-3.71,4.52-6.1,6.25a27.67,27.67,0,0,1-7.87,3.75,1.69,1.69,0,0,1-.27,0V36a20.25,20.25,0,0,0,11.83-6.84c3-3.35,3.13-6.82.58-10.5a19.52,19.52,0,0,0-5.73-5.23A55,55,0,0,0,81.78,7.21,116.28,116.28,0,0,0,62.73,3.51a160.32,160.32,0,0,0-20.58-1A137.15,137.15,0,0,0,20.44,4.15c-3,.52-5.92,1.3-8.88,2L11,6.26l-.23-1c2.09-.6,4.13-1.22,6.19-1.75A118.86,118.86,0,0,1,39,.15L41.33,0Z"/><path class="cls-1" d="M53.47,14.26A8.86,8.86,0,0,1,59,16a7.72,7.72,0,0,1,2.75,7.13c-.48,5.19-4.77,8-9.74,7.52a7.69,7.69,0,0,1-5.5-2.56,8.31,8.31,0,0,1-1.42-8.45c1-3,3.31-4.59,6.36-5.15C52.1,14.36,52.79,14.33,53.47,14.26Zm5.77,8c0-.45-.07-1-.14-1.54a5.87,5.87,0,0,0-5.65-5.36,5.93,5.93,0,0,0-5.92,4.26A10.29,10.29,0,0,0,47.36,25a5.57,5.57,0,0,0,4.29,4.44,5.77,5.77,0,0,0,6-1.93C58.95,26.06,59.13,24.2,59.23,22.23Z"/><path class="cls-1" d="M17.51,14.29a9.59,9.59,0,0,1,4.37,1A7.09,7.09,0,0,1,25.72,21a8.33,8.33,0,0,1-2.17,7.16,8.76,8.76,0,0,1-6.77,2.56,8.48,8.48,0,0,1-5.37-1.76A7.69,7.69,0,0,1,8.61,22c.28-4.33,3.09-7.28,7.9-7.68Zm5.83,8-.08,0c-.05-.58-.09-1.17-.16-1.75a5.84,5.84,0,0,0-5.65-5.22,5.94,5.94,0,0,0-5.91,4.29A10.73,10.73,0,0,0,11.36,25a5.89,5.89,0,0,0,11.42.47A31,31,0,0,0,23.34,22.32Z"/><path class="cls-1" d="M76.09,26.09V14.65h1.65l-.35,16a2.19,2.19,0,0,1-.68-.35q-4.2-4.56-8.37-9.14c-.67-.74-1.36-1.46-2-2.19-.13-.14-.28-.25-.45-.4v11.7H64.18l.4-16.06a2.88,2.88,0,0,1,.74.41q4.55,4.83,9.07,9.69C74.92,24.87,75.45,25.42,76.09,26.09Z"/><path class="cls-1" d="M42.52,15.74c-.19.57-.35,1.05-.5,1.54s-.36.56-.73.18a6.79,6.79,0,0,0-3.91-2A6.19,6.19,0,0,0,30.15,21a10.25,10.25,0,0,0,.26,4.19A5.9,5.9,0,0,0,36,29.51a9.56,9.56,0,0,0,3.7-.5.61.61,0,0,0,.48-.68c0-1.74,0-3.48,0-5.24h2.22c0,1.06,0,2.11,0,3.15s0,2,0,2.94c0,.3,0,.47-.34.56a16.53,16.53,0,0,1-9.09.49,7,7,0,0,1-5.4-6.6,8.62,8.62,0,0,1,2-6.67,7.38,7.38,0,0,1,4.34-2.28,13.11,13.11,0,0,1,8.05.76C42.15,15.53,42.33,15.64,42.52,15.74Z"/><path class="cls-1" d="M93.84,30.28H91.32C90.9,29.19,90.46,28,90,26.9c-.29-.73-.6-1.45-.87-2.18a.55.55,0,0,0-.61-.41c-1.55,0-3.09,0-4.64,0a.66.66,0,0,0-.72.51c-.67,1.82-1.36,3.62-2.06,5.46H79.32a5.46,5.46,0,0,1,.19-.6q3.32-7.35,6.65-14.7a1.13,1.13,0,0,1,.43-.57c.39-.17.58.12.72.47q1.63,3.9,3.29,7.78c1,2.3,2,4.6,3,6.89C93.67,29.77,93.74,30,93.84,30.28ZM86.21,17.9,84,23h4.46Z"/><path class="cls-1" d="M0,14.65H2.31V29a41.34,41.34,0,0,0,6.19-.3v1.63H0Z"/><path class="cls-1" d="M59,36h1l.91,2.89.73-2.15c.29-.85.29-.85,1.26-.7.07,1.25.16,2.51.19,3.78,0,.52-.41.22-.69.34l-.17-3h-.09c-.28.82-.55,1.66-.85,2.47-.07.18-.27.41-.42.41s-.37-.23-.43-.4c-.27-.79-.5-1.6-.85-2.4l-.17,2.83h-.71Z"/><path class="cls-1" d="M9.72,37.16q0,1.23,0,2.46c0,.55,0,.57-.66.44v-4a.84.84,0,0,1,1.16.48c.4.77.87,1.5,1.38,2.38V36l.7,0c0,.83,0,1.62,0,2.42,0,.39,0,.78,0,1.17,0,.19-.18.54-.24.53-.26,0-.61-.1-.73-.29C10.72,39,10.22,38,9.71,37.15h0Z"/><path class="cls-1" d="M48,40.22a1.93,1.93,0,0,1-1.94-2.11,2,2,0,0,1,2-2.16A1.88,1.88,0,0,1,50,38,2,2,0,0,1,48,40.22Zm1.21-2.09A5.21,5.21,0,0,0,48.86,37a1,1,0,0,0-1.7,0,2.08,2.08,0,0,0,0,2.06,1,1,0,0,0,1.7,0A5.46,5.46,0,0,0,49.22,38.13Z"/><path class="cls-1" d="M36.43,38.1,37.1,40c-.78.2-.82.17-1-.75-.18-.75-.31-.86-1.11-.8,0,.34,0,.69,0,1,.05.59-.19.75-.76.56V36c.62,0,1.24,0,1.85,0a1,1,0,0,1,.88.82A1.11,1.11,0,0,1,36.43,38.1ZM35,36.45V38a5.31,5.31,0,0,0,1.07-.49.65.65,0,0,0,0-.62A5.3,5.3,0,0,0,35,36.45Z"/><path class="cls-1" d="M43.24,36.06c-.39.49-.74,1-1.12,1.39a.46.46,0,0,0,0,.67c.42.63.82,1.28,1.26,2-1.47.25-1.28-1.26-2.09-1.71-.51.29-.28.83-.3,1.27s-.09.56-.46.47c-.12,0-.3-.2-.31-.31,0-1.25,0-2.5,0-3.79h.74v1.6l.13.05a13,13,0,0,0,.85-1.13A1,1,0,0,1,43.24,36.06Z"/><path class="cls-1" d="M84.94,40.11c-1.47.21-1.3-1.24-2-1.69-.34.22-.36.23-.35,1.1,0,.52-.15.74-.73.56V36h.7v1.59l.14,0a10.18,10.18,0,0,0,.86-1.15c.29-.53.7-.59,1.31-.48-.36.45-.66.88-1,1.26a.64.64,0,0,0-.07,1C84.16,38.82,84.51,39.43,84.94,40.11Z"/><path class="cls-1" d="M18.94,40.06c-.58.22-.91.08-1-.48S17.52,39,17,39a.62.62,0,0,0-.75.61c-.08.58-.4.7-.94.5.4-1.27.8-2.54,1.22-3.79A.54.54,0,0,1,17,36c.23,0,.61,0,.66.17C18.11,37.46,18.52,38.76,18.94,40.06Zm-1.33-1.72-.5-1.59-.48,1.59Z"/><path class="cls-1" d="M27.59,36h.73c0,.66,0,1.3,0,1.93a6.1,6.1,0,0,0,.06.93.75.75,0,0,0,.75.69.7.7,0,0,0,.79-.63C30,38.31,30,37.67,30,37c0-.31,0-.62,0-1l.82,0c-.07,1.12-.06,2.22-.23,3.28-.11.7-.86,1-1.69.94a1.36,1.36,0,0,1-1.33-1.33C27.54,38,27.59,37,27.59,36Z"/><path class="cls-1" d="M66.46,36h2.35v.59H67.24v1.1c.36,0,.71,0,1.05,0s.44,0,.38.58H67.25v1.2h1.59c.2.47.11.68-.38.66s-1.06,0-1.58,0c-.15,0-.4-.21-.41-.33C66.45,38.56,66.46,37.31,66.46,36Z"/><path class="cls-1" d="M52.95,39.93l.16-.51a6,6,0,0,0,1.19.11.75.75,0,0,0,.52-.44c0-.14-.15-.43-.31-.55a9.43,9.43,0,0,0-.89-.44A1,1,0,0,1,53,37a1.07,1.07,0,0,1,.91-1,11.32,11.32,0,0,1,1.58,0l-.2.68a4.11,4.11,0,0,0-1-.09.69.69,0,0,0-.5.38c0,.15.15.42.31.54a6.78,6.78,0,0,0,.84.41,1.1,1.1,0,0,1,.64,1.15,1.15,1.15,0,0,1-.9,1A2.29,2.29,0,0,1,52.95,39.93Z"/><path class="cls-1" d="M72.69,36.85c-.38-.42-1.28.25-1.14-.82h3l0,.59-1.18.08V40c-.69.19-.75.16-.76-.44C72.68,38.63,72.69,37.68,72.69,36.85Z"/><path class="cls-1" d="M22.61,40.08V36.71l-1.13-.07V36h3c.11.5.11.5-1.08.72,0,.92,0,1.85,0,2.78C23.38,40.18,23.37,40.18,22.61,40.08Z"/><path class="cls-1" d="M77.63,36h.76v4c-.67.21-.75.16-.76-.42C77.62,38.43,77.63,37.26,77.63,36Z"/></g></g></g></svg>
