<svg xmlns="http://www.w3.org/2000/svg" viewBox="0 0 122.87 19.74"><defs><style>.cls-1{fill:#807c66;}</style></defs><title>Recurso 18</title><g id="Capa_2" data-name="Capa 2"><g id="Capa_1-2" data-name="Capa 1"><g id="ZX8vPS"><path class="cls-1" d="M61.43,0q25.51,0,51,0a10.22,10.22,0,0,1,8.67,4.45,9.44,9.44,0,0,1-3.57,13.92,11.5,11.5,0,0,1-5.45,1.34q-50.67,0-101.33,0a10.63,10.63,0,0,1-8.58-3.91,9.38,9.38,0,0,1,2.33-14,10.84,10.84,0,0,1,6-1.79Zm0,19.21h50.25a11.62,11.62,0,0,0,5.7-1.34c4.85-2.65,6.43-8.5,3.41-12.92A9.81,9.81,0,0,0,112.32.54Q61.43.5,10.55.53A10.29,10.29,0,0,0,5.15,2c-5.21,3.14-6.18,9.71-2,14a10.59,10.59,0,0,0,8,3.16Z"/><path class="cls-1" d="M36.25,5.93c0,2.74,0,5.48,0,8.22,0,1,.32,1.29,1.36,1.53.14,0,.26.18.39.28-.15.07-.3.2-.45.2q-1.63,0-3.25,0c-.15,0-.29-.15-.44-.23.12-.08.23-.21.37-.23,1-.19,1.24-.47,1.25-1.5q0-4.24,0-8.48c0-.84-.22-1.07-1-1.27a1.84,1.84,0,0,1-.51-.33,1.76,1.76,0,0,1,.54-.2c1.1,0,2.21,0,3.31,0a.8.8,0,0,1,.88.62c1,2.38,2,4.75,3,7.12.09.2.19.4.35.75.17-.37.27-.59.37-.82,1-2.37,2-4.74,2.94-7.12a.72.72,0,0,1,.79-.54c1.15,0,2.29,0,3.44,0,.16,0,.33.15.49.24a1.53,1.53,0,0,1-.42.28c-.92.23-1.11.41-1.11,1.34q0,4.27,0,8.54c0,.93.21,1.13,1.17,1.37a1.36,1.36,0,0,1,.37.24c-.14.08-.28.24-.42.24q-2.49,0-5,0a1.39,1.39,0,0,1-.47-.2c.13-.1.24-.25.39-.29,1-.25,1.14-.45,1.14-1.46,0-2.84,0-5.69-.13-8.58-.09.2-.19.39-.27.59-1.26,3.08-2.52,6.17-3.8,9.25a3.25,3.25,0,0,1-.54.69,3.81,3.81,0,0,1-.53-.72c-1.27-3-2.53-6-3.79-9-.08-.19-.17-.38-.26-.56Z"/><path class="cls-1" d="M71.54,10.32c1.16,1.67,2.31,3.35,3.48,5,.11.16.34.23.5.36a1.52,1.52,0,0,1,.21.26c-.09.07-.18.19-.28.19-1.06,0-2.12,0-3.19,0-.17,0-.36-.26-.48-.44-1-1.58-2.06-3.17-3.11-4.74a3.39,3.39,0,0,0-.51-.5l-.15.11c0,1.41,0,2.83,0,4.24,0,.58.53.76,1,.86a1.6,1.6,0,0,1,.43.25c-.16.08-.32.24-.48.24q-2.52,0-5,0c-.15,0-.3-.13-.46-.21.13-.1.25-.24.39-.28.87-.23,1.1-.45,1.11-1.37q0-4.24,0-8.47c0-1-.21-1.14-1.14-1.4-.14,0-.24-.18-.37-.27.12-.09.24-.25.35-.25,2.46,0,4.93,0,7.38.2a4.12,4.12,0,0,1,2.2,1,2.88,2.88,0,0,1-.37,4.31A14,14,0,0,1,71.54,10.32ZM68,9.81c2.09.35,3.18-.52,3.21-2.49a5.57,5.57,0,0,0-.12-1.2,1.94,1.94,0,0,0-2.61-1.49.82.82,0,0,0-.45.59C68,6.74,68,8.26,68,9.81Z"/><path class="cls-1" d="M86.27,11.54c0-2.1,0-4,0-5.91,0-.7-.46-1-1.12-1.18-.16,0-.29-.22-.44-.33a1.5,1.5,0,0,1,.48-.19q1.43,0,2.87,0c.15,0,.29.15.44.23a1.57,1.57,0,0,1-.4.31c-.83.28-1,.44-1,1.34q0,4.94,0,9.88v.75l-.16.14a3,3,0,0,1-.69-.47q-3.5-4.3-7-8.62c-.15-.19-.32-.37-.57-.67,0,.33-.05.51-.05.69q0,3.15,0,6.31c0,1.32.14,1.48,1.4,1.89.11,0,.18.17.27.26-.11.07-.21.2-.32.2q-1.69,0-3.38,0c-.11,0-.21-.15-.31-.22.1-.08.18-.21.3-.24,1.06-.29,1.25-.48,1.26-1.57q0-4,0-8c0-.77-.69-1.12-1.15-1.59-.12-.12-.22-.26-.34-.39a1.43,1.43,0,0,1,.47-.2c1,0,1.91,0,2.87,0a1.13,1.13,0,0,1,.72.4c1.74,2.14,3.46,4.3,5.18,6.46Z"/><path class="cls-1" d="M17.46,7.49a21.81,21.81,0,0,1,2.22-2.27,6.42,6.42,0,0,1,9.47,1.53,2.61,2.61,0,0,1,.19.73c-.25-.14-.6-.22-.74-.43a5.3,5.3,0,0,0-4.95-2.58c-2.73.1-5.19,2.73-5.36,5.72a5.2,5.2,0,0,0,4.48,5.42,5.49,5.49,0,0,0,5.76-2.43c0-.05.06-.13.1-.16s.4-.2.6-.3c0,.25.1.56,0,.74a5.63,5.63,0,0,1-2.34,2.11c-2.69,1.27-7,1.1-9-2.82,0-.09-.1-.18-.21-.36a6.1,6.1,0,0,1-3.49,3.36,6.88,6.88,0,0,1-4.87,0,6.08,6.08,0,0,1-4.2-5.86A6.52,6.52,0,0,1,9.79,4C12.93,3.06,15,4,17.46,7.49ZM6.64,10.38a5.47,5.47,0,0,0,.89,2.72,4.84,4.84,0,0,0,4.75,2.49c3-.32,5.45-4.12,4.61-7.18a5.31,5.31,0,0,0-4.79-4.1C9.08,4.22,6.64,6.74,6.64,10.38Z"/><path class="cls-1" d="M110.29,3.52V7.47l-.15.12a2.64,2.64,0,0,1-.46-.45,21.31,21.31,0,0,0-1.16-2,2.64,2.64,0,0,0-2.5-1,1.74,1.74,0,0,0-1.53,1.25,1.63,1.63,0,0,0,.7,1.89c.94.57,1.93,1.06,2.9,1.6a9.88,9.88,0,0,1,1.31.78,3.37,3.37,0,0,1,1.34,3.6,3.56,3.56,0,0,1-2.6,2.86,6.24,6.24,0,0,1-4.06-.21c-.47-.18-.94-.38-1.22.3,0,.1-.3.12-.51.2V12c.46-.19.54.1.62.41a4.88,4.88,0,0,0,1.34,2.49,3.07,3.07,0,0,0,2.82.8,1.86,1.86,0,0,0,1.52-1.6,1.69,1.69,0,0,0-.84-1.85c-.71-.42-1.46-.78-2.18-1.18A16,16,0,0,1,103.88,10a3.4,3.4,0,0,1-1.28-3.95,3.32,3.32,0,0,1,3.34-2.46,14.63,14.63,0,0,1,2.68.44c.45.09.87.27,1.11-.34C109.78,3.62,110,3.61,110.29,3.52Z"/><path class="cls-1" d="M96.33,10c.8-1.42,1.64-2.82,2.38-4.27.4-.79.11-1.15-.77-1.3a1.85,1.85,0,0,1-.54-.3A2,2,0,0,1,98,3.92c1,0,1.91,0,2.87,0,.15,0,.29.15.43.23-.11.1-.21.22-.32.31a4.59,4.59,0,0,0-1,.84C98.92,7,97.92,8.68,96.91,10.37a1.14,1.14,0,0,0-.2.52c0,1.21,0,2.42,0,3.63,0,.76.32,1,1.19,1.15a1.69,1.69,0,0,1,.44.23c-.16.08-.32.24-.48.24q-2.61,0-5.23,0c-.16,0-.32-.17-.48-.25a1.9,1.9,0,0,1,.45-.23c.9-.18,1.15-.45,1.16-1.38s0-1.7,0-2.55a1.69,1.69,0,0,0-.19-.72c-1-1.86-2-3.72-3-5.54a5.44,5.44,0,0,0-1.12-1,3.06,3.06,0,0,1-.28-.35c.12-.06.24-.17.37-.17q2.58,0,5.16,0c.11,0,.22.13.34.2-.11.1-.21.26-.33.29-1.26.31-1.27.31-.67,1.5.69,1.36,1.38,2.71,2.08,4.07Z"/><path class="cls-1" d="M59.92,16.17c-.81,0-1.61,0-2.42,0-.15,0-.29-.14-.44-.22.14-.09.26-.23.41-.25,1-.15,1.16-.38.86-1.34-.54-1.72-.54-1.72-2.32-1.72-.64,0-1.28,0-1.91,0a.76.76,0,0,0-.54.36A10.31,10.31,0,0,0,53,14.5c-.21.74,0,1,.73,1.17a2.52,2.52,0,0,1,.58.29,2.57,2.57,0,0,1-.65.2c-.83,0-1.66,0-2.49,0a1.65,1.65,0,0,1-.49-.18c.12-.12.24-.23.34-.35a5.28,5.28,0,0,0,1-1.22c1.22-2.92,2.38-5.86,3.55-8.79.2-.49.37-1,.6-1.47.08-.18.3-.42.44-.41s.37.24.44.42c1.26,3,2.5,6,3.75,9a13.14,13.14,0,0,0,.81,1.73,4.39,4.39,0,0,0,.84.8l.27.27c-.13.07-.26.21-.39.21C61.57,16.18,60.74,16.17,59.92,16.17Zm-2.56-4.3L55.68,7.76l-.17,0-1.54,4c.2,0,.33,0,.45,0Z"/><path class="cls-1" d="M22.89,13.13H21.1c.89-.33.67-1.09.68-1.75s0-1.45,0-2.17a1.62,1.62,0,0,0-.8-1.8A2.07,2.07,0,0,1,23.57,8L26,10.94c0-1.08,0-2,0-2.87,0-.25-.4-.47-.64-.74h1.74c-.77.24-.65.87-.65,1.43,0,1.3,0,2.59,0,3.89,0,.22,0,.44,0,.66l-.18.08L22.35,8.83l-.17,0q0,.51,0,1c0,.66,0,1.32,0,2s0,1.06.82,1.1Z"/><path class="cls-1" d="M114.57,9.49a3.12,3.12,0,0,1-3.19-3.17,3.18,3.18,0,0,1,6.36,0A3.1,3.1,0,0,1,114.57,9.49Zm0-5.79a2.67,2.67,0,1,0,2.68,2.65A2.66,2.66,0,0,0,114.59,3.69Z"/><path class="cls-1" d="M8.15,7.23c.59,0,1.18,0,1.76,0,.16,0,.36.26.44.44.41.91.78,1.84,1.17,2.75.09.21.18.41.35.77.45-1.06.81-2,1.21-2.89.58-1.32.19-1.09,1.68-1.11a3.39,3.39,0,0,1,.89.08c-.77.22-.7.8-.7,1.35,0,1.06,0,2.12,0,3.19,0,.51.06,1,.69,1.11H13c.69-.19.68-.72.68-1.27a30.94,30.94,0,0,0-.15-3.49L11.5,13l-.23,0-2-4.65-.12,0c0,1.26,0,2.53,0,3.79,0,.25.41.49.63.73H8.14c.72-.24.63-.84.63-1.39,0-1,0-2,0-3.06,0-.52,0-1-.69-1.11Z"/><path class="cls-1" d="M114,6.55l.44,1.39h-1.51A3.32,3.32,0,0,0,113,4.74a5.32,5.32,0,0,1,2.78.17.67.67,0,0,1,0,1.16,3.26,3.26,0,0,1-.39.22l.64,1.21.35-.24c0,.1.06.16.05.21a.65.65,0,0,1-.69.6c-.47,0-.63-.31-.68-.69C115,6.84,114.85,6.44,114,6.55Zm.06-.43c.59,0,1.13.07,1.19-.56,0-.17-.44-.54-.67-.53C113.86,5,114.26,5.67,114.07,6.12Z"/></g></g></g></svg>
