<svg xmlns="http://www.w3.org/2000/svg" viewBox="0 0 73.83 17.59"><defs><style>.cls-1{fill:#807c66;}</style></defs><title>Recurso 8</title><g id="Capa_2" data-name="Capa 2"><g id="Capa_1-2" data-name="Capa 1"><g id="keq1Bi"><path class="cls-1" d="M3.62,10.56q0,3.14,0,6.28c0,.47-.06.52-.54.52-.89,0-1.78,0-2.67,0-.27,0-.37-.1-.39-.34,0-.07,0-.14,0-.2Q0,10.66,0,4.5a1.11,1.11,0,0,1,.24-.72c.68-.87,1.34-1.75,2-2.62a5.88,5.88,0,0,1,.56-.7A.83.83,0,0,1,3.33.24c1.21,0,2.42,0,3.63,0A1.81,1.81,0,0,1,8.15.69,5.59,5.59,0,0,1,9.58,2.64c.15.31.24.34.46.09A11.14,11.14,0,0,1,13,.37a1.2,1.2,0,0,1,.55-.13h4.33a.73.73,0,0,1,.79.8c0,3.75,0,7.5,0,11.25a2.09,2.09,0,0,0,.66,1.58c.32.32.67.62,1,.91s.13.34,0,.48L19,16.39l-1,.91c-.36.32-.42.34-.77,0s-1-.93-1.44-1.43a1.56,1.56,0,0,1-.4-1.09q0-5,0-10a.92.92,0,0,0-.87-1,13,13,0,0,0-1.3-.11c-.47,0-.95,0-1.42,0s-.54.1-.54.52c0,2.37,0,4.75,0,7.12a.92.92,0,0,1-.44.86c-.75.51-1.48,1.06-2.22,1.58-.09.07-.25.14-.33.1s-.12-.21-.12-.32q0-4.19,0-8.37a1.1,1.1,0,0,0-.7-1.06,4.35,4.35,0,0,0-2.3-.44c-.4,0-.79,0-1.19,0A.31.31,0,0,0,3.62,4a1.61,1.61,0,0,0,0,.23q0,3.15,0,6.31Z"/><path class="cls-1" d="M73.83,8.75q0,4,0,8.08c0,.43-.1.53-.53.53H71.15c-.48,0-.57-.1-.57-.58,0-1.57,0-3.14,0-4.71a.43.43,0,0,0-.21-.29.71.71,0,0,0-.34,0H64.61a.47.47,0,0,0-.51.35c-.22.55-.5,1.07-.75,1.6s-.48,1.07-.73,1.61-.59,1.21-.88,1.82a.42.42,0,0,1-.43.24H58.74c-.24,0-.32-.13-.21-.37.28-.6.57-1.2.86-1.8.38-.8.75-1.61,1.13-2.41s.71-1.46,1.06-2.19l1.36-2.88.73-1.51,1-2.12c.07-.15.16-.29.22-.44s.09-.24.06-.32a.37.37,0,0,0-.29-.12H60.3a.87.87,0,0,1-.34,0c-.11-.05-.27-.17-.27-.26,0-.68,0-1.35,0-2,0-.07,0-.13,0-.2,0-.42.1-.47.51-.47H73.39c.36,0,.44.09.44.44Q73.83,4.71,73.83,8.75ZM70.69,6h0q0-1.18,0-2.35c0-.42-.07-.5-.48-.5-.61,0-1.22,0-1.83,0a.49.49,0,0,0-.35.19,4.85,4.85,0,0,0-.35.73L66.46,6.9c-.21.49-.41,1-.63,1.46-.14.3-.09.41.25.41H70.3c.31,0,.39-.1.39-.41Q70.69,7.17,70.69,6Z"/><path class="cls-1" d="M36.14,8.76q0,4,0,8.05c0,.49-.06.55-.54.55-.7,0-1.4,0-2.09,0a.66.66,0,0,1-.42-.19,6.47,6.47,0,0,1-.53-.69c-.13-.18-.25-.23-.44-.05a4.07,4.07,0,0,1-2.92,1.14l-1.54-.05A8,8,0,0,1,25,16.84a5.32,5.32,0,0,1-2.9-2.55,4.35,4.35,0,0,1-.46-1.93c0-3.6,0-7.21,0-10.81a.79.79,0,0,1,0-.34.68.68,0,0,1,.31-.33C22.84.57,23.76.31,24.67,0c.26-.08.38,0,.38.32q0,2.4,0,4.8c0,2,0,3.93,0,5.9A3.22,3.22,0,0,0,26.8,13.9a4.12,4.12,0,0,0,2.09.5c1.07,0,2.15,0,3.22.06.43,0,.47-.06.46-.49s0-1.1,0-1.66q0-5.84,0-11.68c0-.27.1-.4.37-.4h2.91c.26,0,.31.17.31.39q0,4.07,0,8.14Z"/><path class="cls-1" d="M37.78,8.74q0-3.85,0-7.7c0-.09,0-.17,0-.26,0-.48,0-.55.53-.55h2.44c.41,0,.48.09.44.49s.14.58.53.4S42.5.67,42.9.46a1.68,1.68,0,0,1,.58-.17A7.82,7.82,0,0,1,45.9.34a3.3,3.3,0,0,1,1.4.73,4,4,0,0,1,1.25,1.35A5.34,5.34,0,0,1,49.09,4a4.67,4.67,0,0,1-.27,2.59,2.88,2.88,0,0,1-1.2,1.26c-.24.14-.49.28-.72.43s-.24.3-.07.54A7.22,7.22,0,0,1,47.55,10c.32.73.61,1.48.87,2.24a3.51,3.51,0,0,0,1.78,1.93l1.08.61c.21.12.22.34,0,.53L49.41,17c-.17.15-.32.31-.48.46a.41.41,0,0,1-.53.07,7.91,7.91,0,0,1-2.58-1.93,5.32,5.32,0,0,1-.65-1.21,18.89,18.89,0,0,0-.88-2.1,17.14,17.14,0,0,0-1.48-1.89l-.52-.62c-.18-.23-.17-.37.08-.52.47-.28,1-.55,1.44-.81L45,7.8a.79.79,0,0,0,.43-.62A20.47,20.47,0,0,0,45.6,5c0-.81-.51-1.24-1.35-1.44a6.08,6.08,0,0,0-2.65.06.5.5,0,0,0-.43.56q0,6.31,0,12.61c0,.41-.08.5-.49.51q-1.25,0-2.5,0c-.34,0-.43-.13-.43-.51q0-4.05,0-8.11Z"/><path class="cls-1" d="M56.61,8.74q0,4,0,8c0,.51-.06.57-.56.57h-2.3c-.46,0-.55-.09-.55-.56q0-1.12,0-2.24,0-5.23,0-10.46c0-.08,0-.16,0-.23,0-.49,0-.49-.42-.68a.87.87,0,0,1-.37-1.12c.27-.5.54-1,.79-1.51a.52.52,0,0,1,.52-.32h2.53c.27,0,.36.13.35.38q0,4.07,0,8.14Z"/></g></g></g></svg>
