<svg xmlns="http://www.w3.org/2000/svg" viewBox="0 0 128.41 20.14"><defs><style>.cls-1{fill:#807c66;}</style></defs><title>Recurso 24</title><g id="Capa_2" data-name="Capa 2"><g id="Capa_1-2" data-name="Capa 1"><g id="mbBt0J"><path class="cls-1" d="M0,6.28a3.7,3.7,0,0,1,2.54-.67c.56.79.1,1.77.32,2.62A5.75,5.75,0,0,1,7.95,5a7.47,7.47,0,0,1,4.12.8,4.4,4.4,0,0,1,2.4,3.88c.09,3.19,0,6.39,0,9.59a2.76,2.76,0,0,1-.06.38H12.23c0-.31,0-.59,0-.88,0-2.53,0-5.06,0-7.59a9,9,0,0,0-.51-3A3.79,3.79,0,0,0,7.35,5.84a5,5,0,0,0-4.18,4.5A16.33,16.33,0,0,0,3,12.84c0,2,0,4,0,5.93,0,.28,0,.57,0,.94l-1.09,0h-1c0-.39,0-.7,0-1,0-3.31,0-6.63,0-9.94a6.87,6.87,0,0,0-.16-1.2,1.34,1.34,0,0,0-.69-1Z"/><path class="cls-1" d="M128.41,3.49c-.38.42-.62,1-1.14,1.26a2.63,2.63,0,0,1-2.48.14,2.32,2.32,0,0,1-1.46-2.17A2.5,2.5,0,0,1,125,.16a3.09,3.09,0,0,0,.29-.16h1.4a4,4,0,0,1,1.74,1.74Zm-.87.35A1.86,1.86,0,0,0,128,2.06,2.05,2.05,0,0,0,125.57.52a2.12,2.12,0,0,0-1.74,2.53,2,2,0,0,0,1.57,1.58,1.91,1.91,0,0,0,2.14-.8Z"/><path class="cls-1" d="M28.39,10.81a5.86,5.86,0,0,0-.64-3.43A2.84,2.84,0,0,0,25.9,6a6,6,0,0,0-5.56,1.16,3.12,3.12,0,0,0-.94,1.34c-.08.2-.18.4-.27.61a2.08,2.08,0,0,1-1-2.29,1.31,1.31,0,0,1,.66-.64,15.37,15.37,0,0,1,2.45-.86,11.44,11.44,0,0,1,6.5.23,4.36,4.36,0,0,1,2.94,4c0,1.1,0,2.21,0,3.31,0,.55.07,1.09.11,1.64a1.43,1.43,0,0,1,0,.26,9.45,9.45,0,0,0,.88,4.93l-.45,0c-.43,0-.87,0-1.3,0s-.74,0-.87-.58-.29-1.35-.44-2a5.62,5.62,0,0,1-4.75,2.9,9,9,0,0,1-4-.54,4.14,4.14,0,0,1-2.74-2.82,3.5,3.5,0,0,1,.87-3.53,6.67,6.67,0,0,1,3-1.68,19.49,19.49,0,0,1,5.49-.71Zm0,.94c-1.38,0-2.71-.05-4,0a7.26,7.26,0,0,0-2,.48,3.57,3.57,0,0,0-2.52,2.92A3.44,3.44,0,0,0,22.05,19a6,6,0,0,0,2.9.2,3.68,3.68,0,0,0,2.79-2.09,7.39,7.39,0,0,0,.61-2.33A15.52,15.52,0,0,0,28.4,11.74Z"/><path class="cls-1" d="M63.3,10.81a6.7,6.7,0,0,0-.62-3.24,2.76,2.76,0,0,0-1.57-1.42,5.83,5.83,0,0,0-6.24,1.38,6.11,6.11,0,0,0-.59.95c-.11.19-.19.4-.29.61a2.1,2.1,0,0,1-1-2.06,1.37,1.37,0,0,1,.84-.94,11.9,11.9,0,0,1,3.75-1,13,13,0,0,1,4,.15,5,5,0,0,1,3.41,2.2,4.83,4.83,0,0,1,.69,2.48c0,1.86,0,3.72,0,5.58a8.94,8.94,0,0,0,.84,3.87c0,.1.07.2.15.4H64.07l-.51-2.54a3,3,0,0,0-.26.33,4.89,4.89,0,0,1-3.09,2.25,7.79,7.79,0,0,1-6.59-.89,3.79,3.79,0,0,1-1.77-3.13,3.5,3.5,0,0,1,1.47-3,9.47,9.47,0,0,1,4.08-1.61,26.72,26.72,0,0,1,5.19-.34Zm0,.9c-1.21,0-2.33,0-3.46,0a7.57,7.57,0,0,0-3.48.94,3.61,3.61,0,0,0-.83,5.47A4,4,0,0,0,58,19.29c2.18.28,4.31-.61,4.94-3.07a12.46,12.46,0,0,0,.35-2.13C63.35,13.32,63.3,12.54,63.3,11.71Z"/><path class="cls-1" d="M98.17,19.69H95.83l-.61-2.62c-.21.28-.37.46-.49.66a4.8,4.8,0,0,1-3.17,2.12,8.06,8.06,0,0,1-4.94-.31,4.6,4.6,0,0,1-2.88-2.8,3.77,3.77,0,0,1,1.37-4,9.28,9.28,0,0,1,3.25-1.39,15.41,15.41,0,0,1,3-.38c1.21,0,2.41-.14,3.66-.22a7.53,7.53,0,0,0-.19-2,3.66,3.66,0,0,0-.3-1,3.21,3.21,0,0,0-2.82-2,6,6,0,0,0-4.39.94A4.26,4.26,0,0,0,85.62,9a2.13,2.13,0,0,1-1-1.92c0-.51.44-.81.86-1a12.75,12.75,0,0,1,6.43-1,7.83,7.83,0,0,1,2.83.76,4.16,4.16,0,0,1,2.41,3.83c.05,1.68,0,3.37,0,5.05a16.28,16.28,0,0,0,.39,3.35A10.11,10.11,0,0,0,98.17,19.69ZM95.07,11.6a6.62,6.62,0,0,0-.8-.07c-1,0-2,.13-2.94.15a7.34,7.34,0,0,0-3.09.76,3.43,3.43,0,0,0-1.89,2.36,3.52,3.52,0,0,0,2,4.21,6,6,0,0,0,2.55.36,3.94,3.94,0,0,0,1.88-.57A4.14,4.14,0,0,0,94.71,16c.16-.64.14-1.32.27-2A13.62,13.62,0,0,0,95.07,11.6Z"/><path class="cls-1" d="M124,10.16a.76.76,0,0,1-.79.48c-.29,0-.58,0-.87,0H112c-.1.19-.26.37-.26.55,0,.87,0,1.74.07,2.6a7,7,0,0,0,.94,3,4.63,4.63,0,0,0,3.94,2.45c.26,0,.52,0,.78,0a5.91,5.91,0,0,0,5.27-2.8,18.77,18.77,0,0,0,1-1.91,6.24,6.24,0,0,1,.41-.58c.1.23.22.38.2.5a6.88,6.88,0,0,1-2.67,4A8.41,8.41,0,0,1,115.5,20a6.76,6.76,0,0,1-4.66-2.57,7.79,7.79,0,0,1-1.65-3.4,7.58,7.58,0,0,1,9-8.88,14.62,14.62,0,0,1,1.91.52A5.85,5.85,0,0,1,124,10.16Zm-12.09-.21h8.63c.31,0,.66.09.85-.31a1,1,0,0,0,0-.23c0-.11-.1-.22-.11-.33A3.71,3.71,0,0,0,118.59,6a5.79,5.79,0,0,0-2.67-.2,4.12,4.12,0,0,0-2.67,1.3A5,5,0,0,0,111.92,9.95Z"/><path class="cls-1" d="M81.28,9.12A2.67,2.67,0,0,1,81,8.69a4,4,0,0,0-2.8-2.52,6.72,6.72,0,0,0-3.84-.26,4.45,4.45,0,0,0-3.19,2.68A8.82,8.82,0,0,0,70.48,12,9.65,9.65,0,0,0,71,15.79a5.18,5.18,0,0,0,4.05,3.53,5.81,5.81,0,0,0,4.32-.93,7.89,7.89,0,0,0,2.17-2.11c.13-.19.28-.36.45-.59l.36.31a7.44,7.44,0,0,1-5.14,3.91,8,8,0,0,1-6-1.07A6.81,6.81,0,0,1,67.86,13a7.7,7.7,0,0,1,.72-3.79,7.28,7.28,0,0,1,5.38-4,12.43,12.43,0,0,1,5.82.38c.36.1.72.2,1.08.33a2.73,2.73,0,0,1,.7.34c.67.5.74.75.47,1.57A2.45,2.45,0,0,1,81.28,9.12Z"/><path class="cls-1" d="M50.2,7.62l-.12,0c-1.52-1.2-2.92-.18-3.55.93a6.17,6.17,0,0,0-.79,2.37c-.15,1.32-.27,2.64-.33,4-.05,1.16,0,2.32,0,3.48,0,.43.05.85.08,1.32a9.71,9.71,0,0,1-2.23.08v-1c0-3.57,0-7.14,0-10.71a2,2,0,0,0-.85-1.84,2.84,2.84,0,0,1,2.75-.9c.13,1.12,0,2.24.13,3.44.15-.25.27-.42.38-.61a6.26,6.26,0,0,1,4.79-3.2c.48-.06.7.16.67.65A4.56,4.56,0,0,1,50.2,7.62Z"/><path class="cls-1" d="M103.39,19.55c-.63.33-1.29.09-2,.18,0-.4,0-.71,0-1,0-3.4,0-6.79,0-10.19a3,3,0,0,0-.9-2.39A2.89,2.89,0,0,1,103,5.29c.19,1.18,0,2.36.14,3.69,1.33-2.35,2.92-4.05,5.83-3.91a3.73,3.73,0,0,1-.81,2.45c-.13,0-.27,0-.34-.1-1-.93-2.4-.27-3.06.53a5.65,5.65,0,0,0-1.17,2.75,25.22,25.22,0,0,0-.35,4.13c0,1.16,0,2.32,0,3.48C103.31,18.69,103.36,19.06,103.39,19.55Z"/><path class="cls-1" d="M37.35,19.8H35.23c0-4.28,0-8.48,0-12.71-.69-.23-1.41.08-2.12-.24.35-.53.91-.67,1.33-1A7.14,7.14,0,0,0,35.57,4.8c.35-.42.58-.93.92-1.36s.14-1,.73-1.37a6.44,6.44,0,0,1,.13,2.08c0,.66,0,1.33,0,2.1h2.72V7H37.36c0,2.19,0,4.3,0,6.41S37.35,17.61,37.35,19.8Z"/><path class="cls-1" d="M127.54,3.84a1.12,1.12,0,0,1-1.22-.43c-.17-.21-.35-.48-.75-.43l-.17.83h-.45V1.26c.71-.06,1.42-.26,2,.23.15.54.1,1-.4,1.23l1,1.12Zm-2-1.47c.46.09.76,0,.91-.39a.66.66,0,0,0-.91-.31Z"/></g></g></g></svg>
