<svg xmlns="http://www.w3.org/2000/svg" viewBox="0 0 67.94 28.12"><defs><style>.cls-1{fill:#807c66;}</style></defs><title>Recurso 1</title><g id="Capa_2" data-name="Capa 2"><g id="Capa_1-2" data-name="Capa 1"><g id="ePBOL4"><path class="cls-1" d="M0,18.47a7.41,7.41,0,0,1,.24-.87,3.14,3.14,0,0,1,3-2h12.3a1.89,1.89,0,0,0,.67-.16.52.52,0,0,0,.31-.49A17.44,17.44,0,0,1,17.58,9.8,12.89,12.89,0,0,1,20,6,18.07,18.07,0,0,1,29.91.41,18.25,18.25,0,0,1,35,0,18.35,18.35,0,0,1,45.36,3.86a15.11,15.11,0,0,1,4.55,5.5A13.54,13.54,0,0,1,51,13c.1.65.17,1.3.24,2a.54.54,0,0,0,.36.49,2.41,2.41,0,0,0,.76.16h12.3a3.19,3.19,0,0,1,1.6.37,3,3,0,0,1,1.68,2.75c0,2.08,0,4.15,0,6.23a3.12,3.12,0,0,1-3.08,3.14H3.37A3.26,3.26,0,0,1,.76,27,3,3,0,0,1,0,25.37a1,1,0,0,0,0-.14Q0,21.85,0,18.47ZM29.55,10.3c-.08,0-.13-.05-.14-.08-.09-.27-.51-.3-.5-.64,0,0,0-.06-.07-.08l-.58-.43a6.33,6.33,0,0,0-.71-.49,5.75,5.75,0,0,0-3.78-.4.54.54,0,0,0-.37.25,2.14,2.14,0,0,0-.18.84,13.39,13.39,0,0,0,.19,1.55,5.41,5.41,0,0,0,.21.81,5.25,5.25,0,0,0,.3.74c.16.32.35.63.53.94a3.08,3.08,0,0,0,.25.39,4,4,0,0,0,.6.68,6.35,6.35,0,0,0,1,.52c.38.2.79.32,1.18.5a.21.21,0,0,0,.1,0l.95-.08,2.2-.13c.37,0,.58-.18.6-.44a5.89,5.89,0,0,1,.08-.63c.07-.36,0-.43-.26-.65a1,1,0,0,1-.31-.31c-.15-.29-.28-.61-.41-.91a2.19,2.19,0,0,1-.08-.27l.06,0a1.07,1.07,0,0,1,.18.13,8.73,8.73,0,0,0,1.7,1.45,1.08,1.08,0,0,0,.27.16c.38.11.4.37.45.33a.71.71,0,0,0,.22,0c.24-.05.47-.13.71-.18a.29.29,0,0,1,.22.09,7.55,7.55,0,0,0,1.93,1.57,4.56,4.56,0,0,0,2.5.71c.26,0,.54,0,.8,0a9.51,9.51,0,0,0,2.34-.65A8.16,8.16,0,0,0,44.24,14a10.5,10.5,0,0,0,.81-.94c.1-.12.15-.32.27-.38a.42.42,0,0,0,.24-.33,4.26,4.26,0,0,1,.16-.6c.08-.2,0-.31-.17-.4s-.09-.17-.13-.26a.83.83,0,0,1,.2,0,.93.93,0,0,1,.29.06c.15.06.28.08.39-.1.17.12.34.24.48,0a.9.9,0,0,0,.66-.1l-.2-.12v-.07l.76,0,.11.09h.07a.86.86,0,0,0,0-.28,3.07,3.07,0,0,0-.28-.37H47.8L47.14,10l-.53-.12L46,9.71a1.47,1.47,0,0,1-.24-.08c-.31-.09-.62-.15-.93-.25A6.68,6.68,0,0,0,43.64,9c-.07,0-.13-.08-.2-.13l-.13.05a.8.8,0,0,0-.22-.1,3,3,0,0,0-.61,0c-.19,0-.36-.13-.55,0,0,0-.09,0-.14,0a3.17,3.17,0,0,0-.56-.08c-.32,0-.63.06-.95.08a7.13,7.13,0,0,0-1.53.31,13,13,0,0,0-1.25.57,3.92,3.92,0,0,0-1.13.81l-.19.14-.1-.34a.4.4,0,0,0,.09-.36c.07,0,.15-.14.13-.14,0-.32,0-.64,0-1s0-.47,0-.71c0,0,0,0,0,0s-.06-.18-.08-.27a1.91,1.91,0,0,0-.11-.47c-.21-.4-.44-.79-.69-1.17a7,7,0,0,0-1.92-1.95c-.37-.25-.76-.46-1.1-.75a6.65,6.65,0,0,0-1.64-1c-.15-.07-.22,0-.27.14a3.72,3.72,0,0,1-.19.51c-.18.37-.39.72-.57,1.09A7,7,0,0,0,29,6.32a7.22,7.22,0,0,0,.34,3.3Zm24.76,7.8c-.3,0-.61,0-.91.09A4,4,0,0,0,50.45,20a4.12,4.12,0,0,0-.51,2.86,3.46,3.46,0,0,0,2.23,2.89,5.15,5.15,0,0,0,3,.21,4,4,0,0,0,3.12-4.9,3.52,3.52,0,0,0-1.86-2.52A4.89,4.89,0,0,0,54.31,18.09Zm-18.12.23V26h1.65V22.39l.06,0c0,.06.1.12.13.19l1.86,3.26a.26.26,0,0,0,.28.16c.54,0,1.07,0,1.61,0H42l-2.4-3.77a9.13,9.13,0,0,0,.93-.45,1.87,1.87,0,0,0-.09-3.17,2,2,0,0,0-.79-.22c-1.12,0-2.24,0-3.36,0ZM4.5,20.52c.38.4.72.74,1,1.09l3.85,4.22c.05.06.12.13.18.13.29,0,.57,0,.87,0V18.34H9.56v5.2l-.1-.09-4.63-5c-.05-.05-.12-.13-.18-.13-.34,0-.68,0-1,0v7.63H4.5Zm28.41-2.18c0,.09,0,.17,0,.25,0,1,0,2,0,3,0,.54,0,1.09-.05,1.63a2.65,2.65,0,0,1-.15.77,1.89,1.89,0,0,1-2.21,1.34A1.7,1.7,0,0,1,28.92,24a4.22,4.22,0,0,1-.15-1c0-1.49,0-3,0-4.46,0-.09,0-.18,0-.26H27.08c0,.07,0,.14,0,.21,0,1.33,0,2.66,0,4a10,10,0,0,0,.08,1.25,2.36,2.36,0,0,0,1.56,2,4.56,4.56,0,0,0,3.06.11A2.51,2.51,0,0,0,33.63,24a6.72,6.72,0,0,0,.14-1.33c0-1.39,0-2.78,0-4.16,0-.06,0-.12,0-.18Zm-17.64-.1-3.18,7.71h1l.8-2.3h2.51a.25.25,0,0,1,.17.13c.11.25.2.51.29.77.16.47.31.94.46,1.39h1.89l-3.1-7.72Zm28.19,7.42.07.05a3.63,3.63,0,0,0,3.76-.21,2.24,2.24,0,0,0-.05-3.65c-.39-.28-.85-.47-1.27-.73a4.76,4.76,0,0,1-.94-.64,1,1,0,0,1,.41-1.62,1.4,1.4,0,0,1,1.83.75.64.64,0,0,0,.13.14.62.62,0,0,0,.12-.15c.08-.24.14-.49.24-.72s0-.29-.15-.38a3.41,3.41,0,0,0-2.27-.3,2.18,2.18,0,0,0-1.8,1.8,2.14,2.14,0,0,0,1,2.37c.3.19.63.32.94.49a8.17,8.17,0,0,1,1,.57,1.15,1.15,0,0,1-.4,2,1.58,1.58,0,0,1-2-1l0-.1h-.17ZM59,18.35l0,.08q1.11,2.06,2.22,4.13a.9.9,0,0,1,.1.4c0,.93,0,1.86,0,2.78V26H63v-.24c0-1,0-2,0-3a.93.93,0,0,1,.1-.42c.55-1,1.11-2,1.67-3l.57-1c-.31,0-.58,0-.86,0a.24.24,0,0,0-.28.17q-.63,1.34-1.29,2.67a5.85,5.85,0,0,1-.32.51c-.1-.18-.19-.32-.26-.47-.39-.79-.79-1.58-1.14-2.39-.17-.38-.34-.55-.79-.49A10.43,10.43,0,0,1,59,18.35Zm-37.34.72V26h1.66V19.07l2,.15v-.89H19.58v.89ZM67.11,25a1.22,1.22,0,1,0-1.21,1.28A1.25,1.25,0,0,0,67.11,25Z"/><path class="cls-1" d="M34.16,6.47a3.71,3.71,0,0,1,.73,1.46c0,.1.05.26-.12.26s-.15-.1-.25-.17a1.56,1.56,0,0,0-.16.26,4.27,4.27,0,0,1-.84,1.38c-.14.15-.31.29-.49.46a1.7,1.7,0,0,1-.14-.27c-.11-.35-.2-.7-.31-1a1.17,1.17,0,0,0-.2-.36c-.11-.13-.12-.23,0-.34.31-.23.63-.44.92-.7A8.63,8.63,0,0,0,34,6.7Z"/><path class="cls-1" d="M41.78,13.52c0,.08-.06.12-.09.14-.27.17-.54.34-.81.5a.36.36,0,0,1-.41-.18c-.05-.18-.15-.19-.32-.21a6.89,6.89,0,0,1-1-.25c-.5-.15-1-.31-1.48-.49A5.79,5.79,0,0,1,37,12.7l0-.05c.2-.05.41-.09.61-.16s.48-.19.73-.28a1.1,1.1,0,0,1,.88.05c.16.07.34.12.5.19a6.38,6.38,0,0,1,.64.3c.29.16.56.36.85.53S41.59,13.43,41.78,13.52Z"/><path class="cls-1" d="M38.63,14v.19l0,0a.63.63,0,0,1,.44.14,2.11,2.11,0,0,0,.45.15c0,.1,0,.2-.19.22a4.32,4.32,0,0,1-1.85,0,4,4,0,0,1-.79-.34c-.43-.23-.84-.48-1.26-.72l-.2-.11a.71.71,0,0,1,.39-.4,3,3,0,0,1,.55-.23.39.39,0,0,1,.28,0,8.69,8.69,0,0,0,.9.55,1.75,1.75,0,0,0,.67.26c.1,0,.19.14.3.22Z"/><path class="cls-1" d="M32.14,7.44a1,1,0,0,1-.1-.15,7.73,7.73,0,0,1-.29-1.38c-.07-.43-.15-.86-.2-1.29A.9.9,0,0,1,31.62,4l.3.26,1.49,1.35a.2.2,0,0,1,0,.18,5,5,0,0,1-.43.7C32.75,6.78,32.45,7.09,32.14,7.44Z"/><path class="cls-1" d="M30.36,8.33a1,1,0,0,1,.14.14,4,4,0,0,0,.29.46c.16.18.36.33.54.51s.3.33.46.48a.46.46,0,0,0,.24.16c.19,0,.22.16.26.28.14.46.27.92.42,1.37a5.07,5.07,0,0,0,.28.58,1.69,1.69,0,0,1-.22-.09,5.3,5.3,0,0,1-2.24-2.67,3.2,3.2,0,0,1-.23-1.19Z"/><path class="cls-1" d="M27.27,12.17h-.86l-.66,0-.12,0a3,3,0,0,0-.42-.1c-.33,0-.42-.1-.47-.43a.15.15,0,0,0,0-.06c-.3-.46-.34-1-.62-1.5,0,0,0-.11,0-.17a.49.49,0,0,1,.17,0l2.75,2c.11.08.2.17.3.25Z"/><path class="cls-1" d="M33.54,11.31a1,1,0,0,1-.42-.76L34,9.7a2.46,2.46,0,0,0,.22-.28c.18-.24.36-.47.52-.71,0-.06,0-.15,0-.22a.5.5,0,0,1,.08-.13s.09.07.1.11a1.87,1.87,0,0,1,0,1c-.18.58-.4,1.14-.62,1.71a2.47,2.47,0,0,1-.32.52c0,.07-.15.15-.21.14s-.14-.11-.17-.19A2,2,0,0,1,33.54,11.31Z"/><path class="cls-1" d="M43.07,11.59l.29,0a3.29,3.29,0,0,1,.35,0c.07,0,.18,0,.2.06a.24.24,0,0,1,0,.21c-.28.27-.58.53-.87.79a.53.53,0,0,1-.55.13c-.35-.11-.71-.2-1.06-.33s-.69-.3-1-.46c0,0,0,0-.09-.09l.28-.26a.55.55,0,0,0,.57.11,1.3,1.3,0,0,1,.74,0c.11,0,.24-.09.36-.1.28,0,.56,0,.84,0Z"/><path class="cls-1" d="M32.08,9.41a.59.59,0,0,1-.15-.05A7.13,7.13,0,0,1,30.46,7.9a.55.55,0,0,1-.08-.52c.08-.24.13-.49.2-.76a1,1,0,0,1,.19.14,1.38,1.38,0,0,0,.75.44c.13,0,.16.1.19.22.09.44.18.88.27,1.32C32,8.95,32,9.16,32.08,9.41Z"/><path class="cls-1" d="M39.72,9.8a2.48,2.48,0,0,1,1.75.23,1.44,1.44,0,0,1-.21.18l-.94.49a3.23,3.23,0,0,1-1.19.4,3.28,3.28,0,0,0-.7.24l-.19,0,0,0a.64.64,0,0,1,.11-.18c.39-.3.78-.62,1.2-.89S39.82,10.09,39.72,9.8Z"/><path class="cls-1" d="M28.07,12.95c0,.06.08.13.07.18a.28.28,0,0,1-.14.16,1.17,1.17,0,0,1-.3.05l-.92.11-.9.05a.19.19,0,0,1-.12,0,2.08,2.08,0,0,1-.6-.81s0-.05,0-.1.3,0,.44,0l1,.2a1.1,1.1,0,0,0,.73-.07c.16-.08.41,0,.6,0l.25-.08h.08l.25,0a2,2,0,0,1,0,.41c0,.11-.26.07-.33,0l-.09-.14Z"/><path class="cls-1" d="M26.65,11c-.28-.17-.57-.32-.85-.5l-1.2-.79a3.47,3.47,0,0,1-.52-.4C24,9.22,24,9.08,24,9a.41.41,0,0,1,.22,0c.33,0,.66.05,1,.11a.51.51,0,0,1,.31.17c.27.37.51.76.76,1.14l.38.57Z"/><path class="cls-1" d="M44.08,11.27v-.34l-.24.08a.78.78,0,0,0-.82.05.56.56,0,0,1-.66.08c0-.22-.13-.26-.34-.22a1.49,1.49,0,0,1-.37,0l-.07-.1.25-.15.18.08a.52.52,0,0,0,.07-.13c0-.17.13-.18.26-.14s.26.06.25-.22c.41.12.78.32,1.17.43s.79.18,1.2.28A.72.72,0,0,1,44.08,11.27Z"/><path class="cls-1" d="M28,11.9a.67.67,0,0,1-.15-.05l-.78-.57s-.08,0-.07-.06a2.47,2.47,0,0,1,.14-.49c0-.05.16-.05.27-.09-.28-.52-.79-.91-1.12-1.42l.08-.09c.33.21.67.4,1,.63a1.23,1.23,0,0,1,.37.89c0,.27.14.53.21.79S28,11.72,28,11.9Z"/><path class="cls-1" d="M37.9,10.31a1.59,1.59,0,0,1-.15.22,6.7,6.7,0,0,0-1.08,1.35.37.37,0,0,1-.14.12l-1.08.61-.1,0H35.3A5.31,5.31,0,0,1,37.9,10.31Z"/><path class="cls-1" d="M30.73,6c0-.08,0-.12,0-.16.1-.28.2-.57.31-.85,0-.06.08-.1.13-.15a1,1,0,0,1,.12.15.51.51,0,0,1,0,.16c.06.39.12.79.17,1.18a.83.83,0,0,1,0,.18.66.66,0,0,1-.17,0,5.65,5.65,0,0,1-.49-.3A.76.76,0,0,1,30.73,6Z"/><path class="cls-1" d="M39.34,11.4a.65.65,0,0,1,.77-.38c0,.13,0,.2-.14.24l-.36.11A2.1,2.1,0,0,1,39.34,11.4Z"/><path class="cls-1" d="M28.89,12.42c.09.09.25.12.19.3a.19.19,0,0,1-.17,0C28.83,12.66,28.75,12.55,28.89,12.42Z"/><path class="cls-1" d="M51.71,22.59a6.82,6.82,0,0,1,.43-2.48,2.24,2.24,0,0,1,3.35-1,2.7,2.7,0,0,1,1,1.58,5,5,0,0,1-.39,3.5,2.2,2.2,0,0,1-4.12-.46A11.81,11.81,0,0,1,51.71,22.59Z"/><path class="cls-1" d="M37.85,21.91v-3A2.76,2.76,0,0,1,39,19a.82.82,0,0,1,.5.57,2.55,2.55,0,0,1,0,1.46,1.18,1.18,0,0,1-1.05.86A5,5,0,0,1,37.85,21.91Z"/><path class="cls-1" d="M16.28,23H14.21l1.06-2.64Z"/><path class="cls-1" d="M65.88,26A1.08,1.08,0,1,1,66.93,25,1,1,0,0,1,65.88,26Zm.59-.38L66.08,25c.07,0,.15-.07.17-.12a.67.67,0,0,0,.1-.36.38.38,0,0,0-.25-.24,3.72,3.72,0,0,0-.64,0v1.41h.28V25a1.41,1.41,0,0,1,.29.43C66.12,25.68,66.25,25.73,66.47,25.66Z"/><path class="cls-1" d="M65.76,24.43c.19,0,.3,0,.3.22s-.07.29-.3.28Z"/></g></g></g></svg>
