<svg xmlns="http://www.w3.org/2000/svg" viewBox="0 0 90.61 22"><defs><style>.cls-1{fill:#807c66;}</style></defs><title>Recurso 10</title><g id="Capa_2" data-name="Capa 2"><g id="Capa_1-2" data-name="Capa 1"><g id="w05As1"><path class="cls-1" d="M.1,22c0-.05,0-.07,0-.08,0-.47,0-.95,0-1.42C0,18.91,0,17.31,0,15.72c0-.63,0-1.26.06-1.9,0-.24,0-.48,0-.72,0-.52.05-1,.09-1.57,0-.36.06-.73.12-1.08.08-.52.18-1,.27-1.55A3.38,3.38,0,0,1,1,7.82,2.89,2.89,0,0,1,1.63,7a2.79,2.79,0,0,1,.84-.53,4.17,4.17,0,0,1,1-.2,3.61,3.61,0,0,1,1.6.22,2.1,2.1,0,0,1,1,.76,6.57,6.57,0,0,1,.41.6A11.21,11.21,0,0,1,7,8.93c.3.72.57,1.44.86,2.16L8.65,13l.7,1.75a.42.42,0,0,0,.42.21.39.39,0,0,0,.25-.39c0-.47,0-.93,0-1.4s0-1.13.06-1.69c0-.41,0-.82.06-1.23s.06-1.06.09-1.59c0-.28,0-.57.06-.85,0-.48.08-1,.15-1.43a8.14,8.14,0,0,1,.24-1.27,8.35,8.35,0,0,1,.48-1,3.86,3.86,0,0,1,1-1.14,4.07,4.07,0,0,1,1.1-.69,3,3,0,0,1,1.26-.3l.69,0a2.86,2.86,0,0,1,1.07.19,1.62,1.62,0,0,1,.42.27.33.33,0,0,1,0,.41,1.73,1.73,0,0,1-.36.32,5.22,5.22,0,0,0-1.2,1,4.67,4.67,0,0,0-.54.67,3.46,3.46,0,0,0-.33.72c-.15.44-.3.89-.41,1.35s-.22,1.05-.31,1.58-.11.9-.15,1.35-.06.85-.09,1.28,0,.85-.06,1.27l-.06,1.31c0,.45,0,.91-.06,1.36s0,1.09-.06,1.63c0,.37,0,.73,0,1.1a5.33,5.33,0,0,1-.26,1.59,1.32,1.32,0,0,1-1,.89,2.65,2.65,0,0,1-1.07-.07,3.41,3.41,0,0,1-1-.35,2.78,2.78,0,0,1-.5-.35,9.79,9.79,0,0,1-.79-.69A4,4,0,0,1,8,18.12a6.22,6.22,0,0,1-.36-.55c-.19-.35-.36-.71-.54-1.07a31.78,31.78,0,0,1-1.39-3.21Q5.28,12,4.8,10.77a1.29,1.29,0,0,0-.31-.51A.68.68,0,0,0,4,10.18c-.2,0-.47.36-.48.6,0,.56-.08,1.12-.09,1.67,0,1,0,2.09,0,3.14,0,.45,0,.9.06,1.34s0,1.05.06,1.58,0,1,0,1.49a1.14,1.14,0,0,1-.51.95c-.3.19-.58.4-.88.58A3.57,3.57,0,0,1,1,21.92C.67,22,.39,22,.1,22Z"/><path class="cls-1" d="M19.21,15.25a.59.59,0,0,0,0,.13c0,.34,0,.68-.06,1s-.08.67-.13,1a5,5,0,0,1-.09.56,2,2,0,0,1-.75,1,2.6,2.6,0,0,1-1,.48,1.5,1.5,0,0,1-.71,0,.68.68,0,0,1-.59-.66c0-.17,0-.33-.05-.5s0-.63,0-.95,0-.88,0-1.32.06-1,.09-1.43c0-.31,0-.62.06-.92s.09-.83.14-1.24.07-.7.12-1.06.13-.89.22-1.33c.12-.64.25-1.29.4-1.93a11.28,11.28,0,0,1,.32-1.21c.23-.68.47-1.36.76-2a3.68,3.68,0,0,1,.87-1.29c.29-.25.55-.54.85-.78a5.23,5.23,0,0,1,1.32-.71,4.22,4.22,0,0,1,1-.28,3.3,3.3,0,0,1,1.35.08,2.67,2.67,0,0,1,1.48,1.13c.26.37.53.73.76,1.12a8.28,8.28,0,0,1,.54,1.06c.25.6.49,1.2.7,1.81s.31,1.11.46,1.66.25.91.36,1.36c.15.65.29,1.31.43,2,.1.46.2.92.28,1.38s.2,1.1.3,1.64.16.91.23,1.37.07.65.09,1,.06.56.05.83a4.7,4.7,0,0,1-.09.66c-.07.4-.32.47-.63.52l-.43.06a3.93,3.93,0,0,1-1.23-.22,3.11,3.11,0,0,1-1.16-.57,1.67,1.67,0,0,1-.47-.76,11.12,11.12,0,0,1-.46-1.85c-.05-.29-.08-.58-.12-.87,0-.07,0-.1-.11-.07-.68.24-1.36.46-2,.71a1.3,1.3,0,0,1-1,.05c-.21-.09-.43-.15-.65-.22Zm.36-2.56,1.69.43a1.13,1.13,0,0,0,.43,0c.38-.06.76-.15,1.15-.23l1.3-.26c.08,0,.11,0,.1-.14,0-.24-.06-.48-.08-.73s0-.45-.07-.67a19.14,19.14,0,0,0-.45-2,5.39,5.39,0,0,0-.57-1.35,2.19,2.19,0,0,0-.28-.36,1.29,1.29,0,0,0-.66-.34,1,1,0,0,0-.9.16,2.23,2.23,0,0,0-.48.63A6.83,6.83,0,0,0,20,9.62c-.11.43-.21.87-.29,1.31,0,.25-.07.5-.09.75S19.6,12.35,19.57,12.69Z"/><path class="cls-1" d="M56.24,2.82A4.46,4.46,0,0,1,58,3.13a1.74,1.74,0,0,1,.49.3,3.35,3.35,0,0,1,.78,1A6.68,6.68,0,0,1,59.89,6c.11.44.19.89.25,1.33s.07.72.09,1.08,0,.86.06,1.29,0,1.11,0,1.67a4.79,4.79,0,0,1-.09.83,1.6,1.6,0,0,1-.36.64,2.1,2.1,0,0,1-.67.53,1.34,1.34,0,0,1-.51.12c-.29,0-.58,0-.88.06l-1.23.06-1,.06a.38.38,0,0,0-.39.37.15.15,0,0,0,0,.08,6.21,6.21,0,0,0,.88,1.34,14.5,14.5,0,0,0,1.84,1.61,11.55,11.55,0,0,0,1.56,1,16.21,16.21,0,0,0,1.85.76c.47.18.94.33,1.41.52a.5.5,0,0,1,.15.83,2.07,2.07,0,0,1-1,.4,7.07,7.07,0,0,1-1.54.12h-.64a6.14,6.14,0,0,1-1.65-.25A11.12,11.12,0,0,1,56.8,20a4.5,4.5,0,0,1-.62-.44,7.73,7.73,0,0,1-1.13-1.05,6,6,0,0,1-.51-.65,9.83,9.83,0,0,1-1-1.67c-.3-.64-.58-1.29-.86-1.93l-.45-1c-.08-.18,0-.27.17-.32.35-.09.71-.16,1-.26a5.26,5.26,0,0,0,.82-.34,9.2,9.2,0,0,0,1.12-.64,2.83,2.83,0,0,0,.58-.61c.18-.23.32-.49.48-.74a1.85,1.85,0,0,0,.25-.89,6.19,6.19,0,0,0,.05-1,9.53,9.53,0,0,0-.19-1.09.27.27,0,0,0-.07-.12l-.32-.32a1.15,1.15,0,0,0-.71-.3,2.5,2.5,0,0,0-1.79.6,6.2,6.2,0,0,0-.75.59,6.1,6.1,0,0,0-1.21,1.66,6.5,6.5,0,0,0-.6,1.72A12.46,12.46,0,0,0,51,12.48c0,.43,0,.86,0,1.29s0,.78,0,1.17,0,1,.06,1.5,0,1.16.05,1.74a.64.64,0,0,1-.4.65.49.49,0,0,1-.15,0,2.86,2.86,0,0,1-1.8-.47,1,1,0,0,1-.26-.43,2.9,2.9,0,0,1-.2-1q0-.42-.06-.85c0-.29,0-.59,0-.88,0-.6,0-1.2-.06-1.79s0-1,0-1.48,0-1.26,0-1.89c0-.38,0-.75,0-1.13s.06-.5.09-.76.08-.56.11-.84a5.16,5.16,0,0,1,.26-1,2.92,2.92,0,0,1,.55-1.12,2.46,2.46,0,0,1,.73-.63,17.23,17.23,0,0,1,2.73-1.12c.71-.22,1.42-.41,2.14-.59a5.12,5.12,0,0,1,.8-.1Z"/><path class="cls-1" d="M68.74,15.78l-1.8,1a.78.78,0,0,1-.85,0l-1.33-.81-.08,0c-.08.57-.16,1.13-.25,1.69,0,.28-.11.55-.17.82s-.19.24-.34.31a1.32,1.32,0,0,1-.68,0,5,5,0,0,1-.61-.08,2.33,2.33,0,0,1-1-.42,1.31,1.31,0,0,1-.45-.84,4.43,4.43,0,0,1,.11-1.69c.09-.46.16-.93.24-1.39s.15-.85.23-1.28.16-.91.26-1.36c.25-1.09.49-2.18.76-3.26a15.27,15.27,0,0,1,.56-1.79,5,5,0,0,1,.57-.94,4.23,4.23,0,0,1,1.27-1.14,2.83,2.83,0,0,1,1.15-.41,3.67,3.67,0,0,1,1.41.09,3.29,3.29,0,0,1,1.4.78,7.18,7.18,0,0,1,.75.89,9.27,9.27,0,0,1,1,1.56,7.92,7.92,0,0,1,.66,1.84q.19.8.35,1.6a5.48,5.48,0,0,1,.06.7c0,.53.06,1.07.09,1.6,0,.15,0,.31,0,.46,0,.36,0,.72,0,1.09,0,.71,0,1.43.06,2.14s0,1.37,0,2.06a2.57,2.57,0,0,1-.26,1.12.12.12,0,0,1-.07.05,2.55,2.55,0,0,1-1,0c-.25,0-.49-.11-.73-.18a.77.77,0,0,1-.5-.47,6.45,6.45,0,0,1-.33-1c-.14-.61-.24-1.23-.36-1.85C68.83,16.33,68.78,16,68.74,15.78ZM64.86,13.7l.06,0,1.5.5a.25.25,0,0,0,.13,0l2-.48c.1,0,.13-.07.13-.16s0-.4,0-.61c0-.52-.09-1-.15-1.57,0-.31-.08-.61-.15-.92s-.13-.49-.2-.74a1.94,1.94,0,0,0-.69-1.05.89.89,0,0,0-.82-.14,1.51,1.51,0,0,0-.9.91,8.81,8.81,0,0,0-.48,1.34,7.88,7.88,0,0,0-.34,2.06C64.94,13.15,64.89,13.42,64.86,13.7Z"/><path class="cls-1" d="M86.71,17.43c-.23.15-.43.3-.64.43l-.92.54a.62.62,0,0,1-.65,0c-.46-.24-.91-.51-1.36-.76l-.41-.23-.12.49c-.15.6-.28,1.2-.47,1.79a2.93,2.93,0,0,1-.6,1.13,1.38,1.38,0,0,1-1,.49,2.65,2.65,0,0,1-1-.12.71.71,0,0,1-.48-.63A5.47,5.47,0,0,1,79.2,19c.05-.39.09-.79.15-1.18s.13-.88.2-1.32.17-1.07.27-1.61.21-1,.33-1.56a16.63,16.63,0,0,1,.94-2.79,12.29,12.29,0,0,1,.63-1.28q.42-.76.9-1.49a6,6,0,0,1,.72-.94,2.51,2.51,0,0,1,1.55-.81,2.79,2.79,0,0,1,1.66.27,3.82,3.82,0,0,1,.58.45A3.71,3.71,0,0,1,88.07,8c.25.52.47,1.06.68,1.6a15.31,15.31,0,0,1,.7,2.24c.1.45.17.9.25,1.35s.16.86.23,1.3.08.62.12.92.1.67.14,1,.06.55.09.83.08.65.11,1,0,.48.06.72.08.69.1,1a3.11,3.11,0,0,1-.1,1.49.57.57,0,0,1-.66.35c-.52-.13-1-.25-1.56-.41a1.2,1.2,0,0,1-.72-.51,3.12,3.12,0,0,1-.4-1c-.13-.79-.27-1.58-.41-2.37C86.71,17.51,86.71,17.49,86.71,17.43Zm0-3.35h0c0-.22,0-.44,0-.66-.05-.45-.12-.89-.17-1.33a4.45,4.45,0,0,0-.36-1.39,1,1,0,0,0-.54-.56,1.08,1.08,0,0,0-1.21.49,4.89,4.89,0,0,0-.28.65c-.17.49-.35,1-.49,1.47s-.28,1.1-.4,1.66c-.06.27-.08.55-.12.82,0,0,0,.08.08.09l1.18.32a.36.36,0,0,0,.16,0l2.08-.47c.15,0,.16-.13.16-.22C86.72,14.67,86.7,14.38,86.67,14.09Z"/><path class="cls-1" d="M46.22,9.06c0,.47,0,.93,0,1.4s0,.94-.06,1.42-.06.86-.12,1.29a9.5,9.5,0,0,1-.49,2.3,7.24,7.24,0,0,1-.86,1.68,1.84,1.84,0,0,1-.71.61c-.33.15-.65.34-1,.47a3.14,3.14,0,0,1-.8.18c-.43,0-.86,0-1.28.07a7,7,0,0,1-1.53-.09,2.71,2.71,0,0,1-1.31-.52,3,3,0,0,1-.59-.65,6.24,6.24,0,0,1-.91-1.85c-.17-.56-.33-1.11-.46-1.68a15.42,15.42,0,0,1-.24-1.57c-.06-.53-.09-1.07-.12-1.61,0-.32,0-.64,0-1,0-.48,0-1,0-1.45s0-.68,0-1A.51.51,0,0,1,36,6.65a3.71,3.71,0,0,1,1.21-.49A6.23,6.23,0,0,1,38.5,6c.49,0,.64.21.66.66s0,1.15-.05,1.72c0,.37,0,.74-.06,1.11s-.05.76-.06,1.14,0,.76,0,1.14a6.88,6.88,0,0,0,.26,1.82,3.08,3.08,0,0,0,.59,1.22,1.08,1.08,0,0,0,.71.35,1,1,0,0,0,.82-.39A3,3,0,0,0,42,13.43a7.62,7.62,0,0,0,.13-.88,24.21,24.21,0,0,0,.09-2.87c0-.17,0-.35,0-.52,0-.58-.05-1.15-.09-1.73,0-.39,0-.79-.09-1.18a9.43,9.43,0,0,0-.22-1.38,6.05,6.05,0,0,0-.48-1.08A.86.86,0,0,1,41.33,3a.63.63,0,0,1,.56-.3c.16,0,.32,0,.47,0a4.33,4.33,0,0,1,1.27.39,4.72,4.72,0,0,1,1,.55,3.73,3.73,0,0,1,1,1.07,5.05,5.05,0,0,1,.51,1.64,6.09,6.09,0,0,1,.09.89c0,.59,0,1.17,0,1.76Z"/><path class="cls-1" d="M30.64,15.6c0-.73,0-1.47,0-2.2s0-1.34,0-2c0-.41,0-.82,0-1.23s0-.79,0-1.19,0-.75-.06-1.12c0-.57-.1-1.14-.18-1.7S30.15,5,30,4.49a1,1,0,0,0-.56-.73,12.53,12.53,0,0,1-1.74-1.05,5.14,5.14,0,0,1-.6-.57c-.09-.09-.17-.21-.26-.31a.87.87,0,0,1-.13-.75s.06-.08.1-.09a4,4,0,0,1,.69-.2c.36,0,.73,0,1.1-.07L30,.64,31.52.5,33.11.3,34.48.15c.36,0,.71-.12,1.07-.14s1,0,1.52,0a2.48,2.48,0,0,1,.86.2.63.63,0,0,1,.36.88,2.94,2.94,0,0,1-1.12,1.25c-.29.18-.57.36-.87.52s-.73.35-1.1.52-.5.23-.73.37a.67.67,0,0,0-.24.29A3.47,3.47,0,0,0,34,5.12c0,.48-.1,1-.14,1.43,0,.32-.05.63-.06,1q0,1.72-.06,3.44c0,.39,0,.77,0,1.16s0,.52,0,.78c0,.51.08,1,.11,1.54,0,.17,0,.34,0,.5,0,.38,0,.76.06,1.14,0,.57,0,1.15.06,1.72a1.76,1.76,0,0,1-.2.83.79.79,0,0,1-.5.35,4.62,4.62,0,0,1-1.87.23.9.9,0,0,1-.67-.37.69.69,0,0,1-.08-.31,3.62,3.62,0,0,1,0-.46C30.64,17.23,30.64,16.42,30.64,15.6Z"/><path class="cls-1" d="M80.62,6.73a9.84,9.84,0,0,0-2,.2,1,1,0,0,0-.82,1c0,.35,0,.71,0,1.06s0,.79-.06,1.18l-.06,1.12c0,.36,0,.72-.06,1.08s0,.87-.06,1.3,0,.85-.06,1.27,0,.73-.06,1.1,0,.67-.06,1a15.79,15.79,0,0,1-.26,2.16c0,.18-.11.36-.16.54a.26.26,0,0,1-.26.19,9.51,9.51,0,0,1-1.07,0c-.32,0-.62-.14-.94-.19a.32.32,0,0,1-.27-.24,1.38,1.38,0,0,1-.06-.39,4,4,0,0,1,0-.49q0-.73.06-1.46c0-.41.06-.82.09-1.24,0-.58.08-1.15.12-1.73s0-1,.06-1.45c0-1,0-2,0-3,0-.52-.09-1-.14-1.55a2.79,2.79,0,0,0-.18-.89,1.1,1.1,0,0,0-.53-.62,14.52,14.52,0,0,1-2-1.08c-.11-.07-.19-.17-.29-.25a3.17,3.17,0,0,1-.88-1.09.81.81,0,0,1,0-.81.26.26,0,0,1,.14-.12,3.69,3.69,0,0,1,.93-.16c.4,0,.8,0,1.2,0s.67,0,1,.06l1.3.14,1,.09,1.24.14,1,.09L80,3.93c.38.06.76.11,1.13.18a4.38,4.38,0,0,1,1.41.43.18.18,0,0,1,.1.17,1.19,1.19,0,0,1-.33.86l-.74.83a1,1,0,0,1-.77.32Z"/><polygon class="cls-1" points="33.8 7.39 33.8 7.38 33.8 7.38 33.8 7.39"/><polygon class="cls-1" points="30.42 7.7 30.43 7.71 30.42 7.71 30.42 7.7"/></g></g></g></svg>
