<svg xmlns="http://www.w3.org/2000/svg" viewBox="0 0 65.07 26.47"><defs><style>.cls-1{fill:#807c66;}</style></defs><title>Recurso 5</title><g id="Capa_2" data-name="Capa 2"><g id="Capa_1-2" data-name="Capa 1"><g id="igqe6x"><path class="cls-1" d="M32.55,0H63.06A1.94,1.94,0,0,1,65,1.47a2.49,2.49,0,0,1,.08.63q0,11.14,0,22.29A2,2,0,0,1,63,26.47H2a2,2,0,0,1-2-1.62,2,2,0,0,1,0-.39Q0,13.22,0,2A2,2,0,0,1,2,0Zm0,25.12H62.39a1,1,0,0,0,1.18-1.17q0-10.67,0-21.35a1,1,0,0,0-1.15-1.15H2.58A1,1,0,0,0,1.45,2.58q0,8.25,0,16.5,0,2.51,0,5a.91.91,0,0,0,.5.88,1.64,1.64,0,0,0,.7.14Z"/><path class="cls-1" d="M12.81,17.83c0-.52-.08-1-.12-1.56q-.17-2.17-.35-4.34c-.21-2.57-.06-5.15-.1-7.72,0-.17.05-.22.22-.22h2c.15,0,.23,0,.21.21s0,.11,0,.16q0,8.84,0,17.68c0,.37,0,.37-.37.37-.55,0-1.11,0-1.66,0a.29.29,0,0,1-.33-.25q-1.76-5.85-3.54-11.7L8.21,8.54a.35.35,0,0,0-.11-.18c0,.27.08.55.1.82.08,1.17.13,2.33.23,3.5.26,3.13.16,6.27.18,9.4,0,.32,0,.32-.33.32H6.43l-.29,0V22.1q0-8.9,0-17.8c0-.31,0-.31.31-.31.6,0,1.2,0,1.8,0,.2,0,.27.07.33.25q2,6.67,4.1,13.34l.08.26Z"/><path class="cls-1" d="M41.39,22.39V10.08h2.3v1.43l.06,0,.13-.24a2.51,2.51,0,0,1,2.88-1.35,2.06,2.06,0,0,1,1.56,1.39l.07.19,0,0c.1-.16.19-.33.29-.48a2.46,2.46,0,0,1,2.16-1.17,4.8,4.8,0,0,1,1,.07A2.2,2.2,0,0,1,53.64,12a7.05,7.05,0,0,1,0,.82q0,4.59,0,9.18c0,.38.06.36-.37.36H51.68c-.3,0-.3,0-.3-.3q0-4.15,0-8.29a4.85,4.85,0,0,0-.09-1,1,1,0,0,0-.92-.87,1.35,1.35,0,0,0-1.42.6,2.55,2.55,0,0,0-.25,1.26q0,4.12,0,8.25c0,.35,0,.35-.36.35-.55,0-1.11,0-1.66,0-.22,0-.28-.06-.28-.28q0-4,0-7.91A9.28,9.28,0,0,0,46.3,13a1.09,1.09,0,0,0-1.06-1.06,1.12,1.12,0,0,0-1.35.88,9.17,9.17,0,0,0-.19,1.87c0,2.46,0,4.92,0,7.38,0,.33,0,.33-.34.33H41.66Z"/><path class="cls-1" d="M22.1,11.37V10.08h.24c.61,0,1.22,0,1.82,0,.21,0,.25.07.25.26,0,1.44,0,2.89,0,4.33q0,3.71,0,7.43c0,.33,0,.33-.34.33H22.39l-.29,0v-1.5h0l-.21.42a2.09,2.09,0,0,1-1.9,1.31,2.25,2.25,0,0,1-2.14-1.17,5.81,5.81,0,0,1-.75-2.32,21.71,21.71,0,0,1,0-6.08,5.31,5.31,0,0,1,.69-2,2.38,2.38,0,0,1,3-1,2.45,2.45,0,0,1,1.14,1.1l.12.21Zm0,4.66h.06c0-.68-.08-1.36-.15-2a3.47,3.47,0,0,0-.45-1.49,1,1,0,0,0-1.83,0,4.09,4.09,0,0,0-.4,1.15,20.78,20.78,0,0,0,0,5A2.79,2.79,0,0,0,19.82,20a1,1,0,0,0,1.8-.06,2.27,2.27,0,0,0,.17-.35,6.28,6.28,0,0,0,.36-2.1C22.16,17,22.15,16.52,22.15,16Z"/><path class="cls-1" d="M37,10.07h2.17s.11.08.13.13a.58.58,0,0,1,0,.2c0,2.63,0,5.26,0,7.88a9.75,9.75,0,0,1-.2,2,2.79,2.79,0,0,1-2.67,2.31,6.31,6.31,0,0,1-2.3-.16,2.62,2.62,0,0,1-2-2.11,10.29,10.29,0,0,1-.23-2c0-2.64,0-5.29,0-7.93,0-.29,0-.29.3-.29.58,0,1.17,0,1.75,0,.21,0,.27.06.27.27q0,4.08,0,8.16a4.49,4.49,0,0,0,.1,1A1.33,1.33,0,0,0,37,19.14c0-.4,0-.8,0-1.2q0-3.78,0-7.57C37,10.28,37,10.19,37,10.07Z"/><path class="cls-1" d="M27,11.89c-.35,0-.67,0-1,0s-.27-.07-.27-.27q0-.65,0-1.3c0-.19,0-.27.25-.26s.64,0,1,0c0-.11,0-.19,0-.28,0-1,0-2,0-3,0-.21.07-.26.26-.25.59,0,1.18,0,1.78,0,.22,0,.3.05.3.29,0,1,0,1.93,0,2.89,0,.09,0,.18,0,.31h1.19a1.42,1.42,0,0,1,0,.19c0,.48,0,1,0,1.44,0,.16-.05.22-.21.21s-.52,0-.77,0-.24.07-.24.25c0,1.44,0,2.89,0,4.33,0,1.88,0,3.77,0,5.65,0,.23-.05.31-.29.3-.59,0-1.18,0-1.78,0l-.26,0Z"/><path class="cls-1" d="M55.77,16.22q0-2.93,0-5.85c0-.3,0-.3.29-.3h1.71c.3,0,.3,0,.3.29q0,2.19,0,4.37,0,3.68,0,7.36c0,.32,0,.32-.31.32-.58,0-1.15,0-1.73,0-.21,0-.27-.06-.27-.27C55.77,20.17,55.77,18.19,55.77,16.22Z"/><path class="cls-1" d="M57,8.4a2.67,2.67,0,1,1,2.63-2.66A2.66,2.66,0,0,1,57,8.4Z"/></g></g></g></svg>
