<svg xmlns="http://www.w3.org/2000/svg" viewBox="0 0 77.92 30.73"><defs><style>.cls-1{fill:#807c66;}</style></defs><title>Recurso 23</title><g id="Capa_2" data-name="Capa 2"><g id="Capa_1-2" data-name="Capa 1"><g id="RNQJe8"><path class="cls-1" d="M46.78,11.28c.47-.43.77-.71,1.08-1a4.24,4.24,0,0,1,6.46.94,10.47,10.47,0,0,1,1.6,4.88,24.32,24.32,0,0,1-.38,8.07,10.91,10.91,0,0,1-1.85,4.08,5.6,5.6,0,0,1-5,2.38,5.86,5.86,0,0,1-2-.6,1.29,1.29,0,0,0-1.46,0,1.16,1.16,0,0,1-.41.18c-.47.11-.71,0-.75-.55-.09-1.12-.19-2.25-.19-3.37,0-8.12,0-16.25,0-24.37,0-2.4.34-1.86,2-1.9.64,0,.75.14.8.82,0,.26,0,.53,0,.79q0,4.29,0,8.57C46.72,10.51,46.75,10.81,46.78,11.28ZM53.51,20c-.22-1.52-.4-3-.69-4.55A4.69,4.69,0,0,0,51.63,13a2.29,2.29,0,0,0-2.84-.71c-1.06.55-2.09,1.2-2.07,2.66,0,3.23,0,6.47,0,9.7A5.5,5.5,0,0,0,47,26.24a2.33,2.33,0,0,0,3.57,1.43,4.72,4.72,0,0,0,2.06-2.59A16.15,16.15,0,0,0,53.51,20Z"/><path class="cls-1" d="M41.09,20.12a15.87,15.87,0,0,1-2,7.69,8.34,8.34,0,0,1-1.35,1.65,4.6,4.6,0,0,1-6.17.16,7.55,7.55,0,0,1-2-2.58,13.79,13.79,0,0,1-1.36-5.2,18.34,18.34,0,0,1,.9-7.89A8.33,8.33,0,0,1,31.84,10a4.64,4.64,0,0,1,5.82.34,9.47,9.47,0,0,1,2.73,5.09C40.73,17,40.86,18.56,41.09,20.12Zm-3,.11c-.12-1.27-.18-2.55-.39-3.8a7,7,0,0,0-1.76-4,2,2,0,0,0-3.27.22,4.92,4.92,0,0,0-.83,1.58,26,26,0,0,0-.74,3.62,15.93,15.93,0,0,0,.8,7.1,6.65,6.65,0,0,0,.94,1.78c1.2,1.62,2.71,1.56,3.81-.14a8.11,8.11,0,0,0,.83-1.84A15.75,15.75,0,0,0,38.07,20.23Z"/><path class="cls-1" d="M77.92,19.37c-.07,3.42-.53,6-1.89,8.32a6.19,6.19,0,0,1-2,2.23,4.59,4.59,0,0,1-5.71-.54A8.56,8.56,0,0,1,66,25.58a17.31,17.31,0,0,1,.48-12.43A8.73,8.73,0,0,1,67.83,11a4.7,4.7,0,0,1,7.58.3,11,11,0,0,1,1.95,4.4C77.64,17.13,77.81,18.62,77.92,19.37Zm-10.06.06c.1,1.08.17,2.17.32,3.24a9.4,9.4,0,0,0,1.25,3.71A2.66,2.66,0,0,0,71.73,28c1.11,0,1.67-.88,2.15-1.77a9.68,9.68,0,0,0,1-3.67,17.19,17.19,0,0,0-.79-8.1,6.84,6.84,0,0,0-1.39-2.14,1.83,1.83,0,0,0-2.72,0,4.65,4.65,0,0,0-1.36,2.17A16.67,16.67,0,0,0,67.87,19.43Z"/><path class="cls-1" d="M0,19.9q0-4.17,0-8.35c0-.23,0-.45,0-.68,0-1.45.24-1.61,1.56-1a1.08,1.08,0,0,0,1-.07A10.19,10.19,0,0,1,6.6,9.2c3,.1,4.45,2,4.69,4.62,0,.52.06,1.05.06,1.58q0,6.66,0,13.31c0,.26,0,.53,0,.79a.69.69,0,0,1-.79.74c-2,0-2,.1-2-1.74,0-4.29,0-8.57,0-12.86a8,8,0,0,0-.34-2.32,2.63,2.63,0,0,0-2.92-1.79,2.45,2.45,0,0,0-2.42,2.24,8.3,8.3,0,0,0-.12,1.46c0,4.47,0,8.95,0,13.42,0,1.59,0,1.62-1.66,1.59-1,0-1.1-.09-1.1-1.1C0,26.07,0,23,0,19.9Z"/><path class="cls-1" d="M14.12,19.93a20.93,20.93,0,0,1,.79-5.69,8.79,8.79,0,0,1,2.27-3.84,4.53,4.53,0,0,1,6.81.7,10.53,10.53,0,0,1,1.77,6c0,1-.17,1.22-1.19,1.45q-3.14.69-6.29,1.33c-1.73.35-1.8.38-1.52,2.1A27.14,27.14,0,0,0,17.5,25a4.5,4.5,0,0,0,.6,1.21,2.55,2.55,0,0,0,4,.61,7.75,7.75,0,0,0,2.24-3.07,3.23,3.23,0,0,1,.38-.81.86.86,0,0,1,.64-.32.79.79,0,0,1,.53.48,3.13,3.13,0,0,1,.05,1.23,10,10,0,0,1-1.84,4.44,4.6,4.6,0,0,1-7.18.44,9.65,9.65,0,0,1-2.44-5.48C14.27,22.48,14.23,21.2,14.12,19.93Zm2.73-2.1,5.46-1.18c.42-.09.53-.37.41-.76a17,17,0,0,0-.84-2.54c-1-2.07-2.67-2.14-3.9-.18a9.57,9.57,0,0,0-1.25,4.27A1.34,1.34,0,0,0,16.84,17.82Z"/><path class="cls-1" d="M59.23,19.86q0-4.34,0-8.68c0-.3,0-.6,0-.9a.54.54,0,0,1,.57-.56h1c1,0,1.13.12,1.21,1.16,0,.11,0,.23,0,.34Q62,20,62,28.78a3.72,3.72,0,0,1-.08.78.73.73,0,0,1-.77.66c-2.24,0-2,.09-2-1.8Q59.22,24.14,59.23,19.86Z"/><path class="cls-1" d="M58.9,5a7.24,7.24,0,0,1,.36-1.21,1.44,1.44,0,0,1,2.49-.23,2.47,2.47,0,0,1-.05,2.92,1.47,1.47,0,0,1-2.38-.22A6.81,6.81,0,0,1,58.9,5Z"/></g></g></g></svg>
