<svg xmlns="http://www.w3.org/2000/svg" viewBox="0 0 68.76 25.21"><defs><style>.cls-1{fill:#807c66;}</style></defs><title>Recurso 9</title><g id="Capa_2" data-name="Capa 2"><g id="Capa_1-2" data-name="Capa 1"><g id="oGwb7t"><path class="cls-1" d="M27.27,24.93l-.89-.15a7,7,0,0,1-.69-.15l-1.47-.45-1-.36-.1,0-.8-.4-.57-.3-.93-.54a.55.55,0,0,0-.27-.06l-2,.08-1.52,0c-2.29,0-4.58,0-6.87,0-1,0-1.93,0-2.89-.13a10.24,10.24,0,0,1-2.14-.4c-.41-.14-.84-.23-1.25-.38A7.89,7.89,0,0,1,3,21.29c-.2-.1-.4-.22-.6-.33A5.55,5.55,0,0,1,.68,19.44a3.1,3.1,0,0,1-.37-.64C.2,18.54.1,18.26,0,18,0,18,0,4.28.06,4.18a3.45,3.45,0,0,1,.44-1A4.78,4.78,0,0,1,1.71,1.8a4.63,4.63,0,0,1,1.12-.7c.31-.13.62-.29.92-.43A2,2,0,0,1,4,.6L4.39.48A11,11,0,0,1,6.57,0c.15,0,14.32,0,14.6,0,.56.12,1.14.19,1.7.33a6.57,6.57,0,0,1,1,.4,5.19,5.19,0,0,1,.85.42,7.75,7.75,0,0,1,1,.79,4.43,4.43,0,0,1,.91,1.27,5.26,5.26,0,0,1,.53,2.06c0,.41,0,.82,0,1.22,0,3.07,0,6.14,0,9.21,0,.73-.09,1.46-.12,2.19a1.35,1.35,0,0,0,.08.44c.05.17.13.34.19.51l.4,1.15,0,.1c.12.41.23.83.37,1.24a8.68,8.68,0,0,0,.44,1.09,6.44,6.44,0,0,0,.65,1.07,6.7,6.7,0,0,0,.9.92c.24.21.53.34.79.53.06,0,.07.15.1.23C30.1,25.21,27.61,25,27.27,24.93ZM4,11.19q0,1.28,0,2.56c0,.86,0,1.73,0,2.59a2,2,0,0,0,.64,1.5,3.82,3.82,0,0,0,1.45.79,6.5,6.5,0,0,0,1.36.31,20.77,20.77,0,0,0,2.1.15c1.4,0,2.79,0,4.19,0l3.14,0c.33,0,.39-.08.28-.39a1.18,1.18,0,0,0-.09-.17,1.29,1.29,0,0,1-.15-.28,5.33,5.33,0,0,1-.34-1.48,4.12,4.12,0,0,1,.21-1.67.26.26,0,0,1,.4-.16l.2.11.8.4.5.25.82.41.47.25.66.41.47.28c.36.22.72.42,1.07.65s.89.65,1.33,1c.28.22.55.44.82.67s.47.43.7.63c0,0,.08,0,.13,0s0-.11,0-.14a3.93,3.93,0,0,0-.29-.37l-.66-.75c-.35-.38-.68-.77-1.05-1.13s-.94-.85-1.43-1.24-1-.69-1.46-1a7,7,0,0,0-.61-.35c-.28-.15-.56-.31-.85-.43s-.63-.23-.94-.35l0,0c-.2-.12-.21-.26,0-.39l.5-.33a3,3,0,0,1,1.18-.45,6.76,6.76,0,0,1,2.23,0,2.18,2.18,0,0,1,.36.1l.47.16a.82.82,0,0,1,.18.07c.23.15.32.11.33-.17s0-.34,0-.51c0-.86,0-1.72,0-2.57C23,8.79,23,7.42,23,6a2.05,2.05,0,0,0-.34-1.13,2.17,2.17,0,0,0-.45-.49A4.07,4.07,0,0,0,21.1,3.8a6.28,6.28,0,0,0-1.63-.4,22.24,22.24,0,0,0-2.62-.15c-2.58,0-5.17,0-7.75,0a9.32,9.32,0,0,0-3.27.55,3.86,3.86,0,0,0-1,.55A2.1,2.1,0,0,0,4,6.12Q4,8.66,4,11.19Z"/><path class="cls-1" d="M29.11,7.11c0-1.63,0-3.25,0-4.88a2.93,2.93,0,0,1,.09-.66.57.57,0,0,1,.45-.44,3.32,3.32,0,0,1,1.53,0,.71.71,0,0,1,.49.59c0,.69,0,1.38,0,2.08,0,.05,0,.11,0,.16,0,.26.09.33.35.33,2.35,0,4.71,0,7.06,0,.86,0,1.71.09,2.57.15.18,0,.36.11.55.14a4.52,4.52,0,0,1,1.16.38,3.33,3.33,0,0,1,1.48,1.23,3.22,3.22,0,0,1,.46,1.73c0,1.4,0,2.8,0,4.21a4.5,4.5,0,0,1-.2,1.31,2.65,2.65,0,0,1-.91,1.26,5.2,5.2,0,0,1-1.84.87,13.44,13.44,0,0,1-3.39.34q-1.65,0-3.3,0a19,19,0,0,1-2.23-.16A9,9,0,0,1,32,15.3a5.72,5.72,0,0,1-.95-.38A3.7,3.7,0,0,1,29.77,14a4,4,0,0,1-.47-.76,2.37,2.37,0,0,1-.15-.67,5.23,5.23,0,0,1,0-.67q0-2.39,0-4.77Zm6.9-.6H32c-.25,0-.33.08-.33.33q0,2.65,0,5.31a.76.76,0,0,0,.2.53,2.44,2.44,0,0,0,1.22.66,8,8,0,0,0,2.26.31c1.81,0,3.62,0,5.43,0a2.26,2.26,0,0,0,1.1-.23,1.33,1.33,0,0,0,.81-1.26q0-2.09,0-4.19a1.1,1.1,0,0,0-.47-.86,2,2,0,0,0-.9-.38A6.29,6.29,0,0,0,40,6.52C38.64,6.49,37.32,6.51,36,6.51Z"/><path class="cls-1" d="M59.67,4.16c.94,0,1.88,0,2.82,0a12,12,0,0,1,1.91.26,7,7,0,0,1,1.13.43A3,3,0,0,1,66.91,6a2.26,2.26,0,0,1,.35.84,9.54,9.54,0,0,1,.12,1.5q0,1.9,0,3.8a4.16,4.16,0,0,1-.15,1.14,2.57,2.57,0,0,1-.6,1,4,4,0,0,1-.91.69,6.16,6.16,0,0,1-3,.81c-1.75,0-3.5,0-5.25,0a11.9,11.9,0,0,1-1.85-.15,9.91,9.91,0,0,1-1.47-.42,4.67,4.67,0,0,1-.85-.37,5,5,0,0,1-.72-.53,2.68,2.68,0,0,1-.88-1.48,4.44,4.44,0,0,1-.07-1q0-1.87,0-3.74a4.72,4.72,0,0,1,.08-1,2.89,2.89,0,0,1,.82-1.4A4.83,4.83,0,0,1,53.57,5c.27-.15.57-.22.84-.35a6.4,6.4,0,0,1,1.72-.4,10.39,10.39,0,0,1,1.41-.1c.71,0,1.42,0,2.13,0Zm0,2.23h0c-.89,0-1.77,0-2.66,0A9.3,9.3,0,0,0,56,6.55a2.94,2.94,0,0,0-1.33.53,1.14,1.14,0,0,0-.49,1q0,2,0,4.1a1.1,1.1,0,0,0,.45.86,2.47,2.47,0,0,0,1.06.45,7.84,7.84,0,0,0,1.54.18c1.54,0,3.09,0,4.63,0a4.36,4.36,0,0,0,2.4-.61,1,1,0,0,0,.51-.84c0-1.48,0-3,0-4.45a.87.87,0,0,0-.07-.31,1.37,1.37,0,0,0-1-.82,10.56,10.56,0,0,0-1.77-.22C61.16,6.36,60.44,6.39,59.72,6.39Z"/><path class="cls-1" d="M49.72,10c0,1.6,0,3.2,0,4.81a1,1,0,0,1-.24.76.7.7,0,0,1-.29.21,3,3,0,0,1-1.64,0,.5.5,0,0,1-.25-.21,1.36,1.36,0,0,1-.22-.76q0-4.81,0-9.61a.91.91,0,0,1,.52-.94,2.5,2.5,0,0,1,.74-.12,2.86,2.86,0,0,1,.49,0,.92.92,0,0,1,.86.93c0,1.64,0,3.29,0,4.93Z"/><path class="cls-1" d="M48.42,3.89l-.49,0a1.34,1.34,0,0,1-1.1-.7,1.3,1.3,0,0,1-.1-.65,1.23,1.23,0,0,1,.93-1.13,3.47,3.47,0,0,1,.78-.12,1.8,1.8,0,0,1,1.18.4A1.29,1.29,0,0,1,50,3.11a1.36,1.36,0,0,1-1,.74C48.77,3.88,48.58,3.88,48.42,3.89Z"/><path class="cls-1" d="M15.8,14.58c-.43-.06-.86-.1-1.28-.18-.59-.1-1.18-.19-1.75-.34a12.51,12.51,0,0,1-1.26-.44c-.31-.11-.62-.23-.92-.36a2.24,2.24,0,0,1-.44-.29.25.25,0,0,1-.07-.17,5.78,5.78,0,0,1,0-.62.25.25,0,0,1,.11-.18s.13,0,.19,0l.89.48c.29.15.59.29.89.42s.33.12.5.18c.37.14.73.29,1.11.41s.91.23,1.37.33c.3.07.6.1.91.16s.22.13.21.33-.11.21-.25.2h-.2Z"/><path class="cls-1" d="M68.49,4.61a.92.92,0,0,1-1.57-.66.88.88,0,0,1,.29-.67A.9.9,0,0,1,67.84,3a.92.92,0,0,1,.92.92A.89.89,0,0,1,68.49,4.61ZM67.3,3.41a.77.77,0,0,0,0,1.08.76.76,0,0,0,1.07,0,.75.75,0,0,0,.22-.54.74.74,0,0,0-.22-.53.75.75,0,0,0-1.08,0Zm.14,1v-1h.5a.49.49,0,0,1,.2.05.26.26,0,0,1,.14.24.22.22,0,0,1-.07.19A.33.33,0,0,1,68,4a.35.35,0,0,1,.15.06.28.28,0,0,1,.09.23v.18H68a.75.75,0,0,1,0-.14.47.47,0,0,0,0-.13.12.12,0,0,0-.08-.08l-.09,0h-.12v.36Zm.49-.82-.16,0h-.07v.3h.1a.25.25,0,0,0,.15,0A.14.14,0,0,0,68,3.75.12.12,0,0,0,67.93,3.64Z"/></g></g></g></svg>
