<svg xmlns="http://www.w3.org/2000/svg" viewBox="0 0 106.47 22.81"><defs><style>.cls-1{fill:#807c66;}</style></defs><title>Recurso 21</title><g id="Capa_2" data-name="Capa 2"><g id="Capa_1-2" data-name="Capa 1"><g id="oDb5lA"><path class="cls-1" d="M0,19.3A28.87,28.87,0,0,0,12.89,20.6c1.51-.22,3.63-.17,3.77-2.09.16-2.11-2.05-2-3.5-2.29-2.52-.5-5.1-.73-7.62-1.26-4.38-.93-6-3.78-4.27-8A14.41,14.41,0,0,1,4.16,2.55c3.46-3.64,7.3-3,11.45-.35,1.14.74,2.4,6,1.83,7.26-.18.39-.74.61-1.45,1.16-.24-1.13-.33-1.81-.53-2.46a18.92,18.92,0,0,0-1.38-4A4.12,4.12,0,0,0,7.66,2.83a17.73,17.73,0,0,0-4.16,5C2.16,10.32,3,12,5.7,12.79c2,.61,4.2.85,6.28,1.4a29.91,29.91,0,0,1,5.87,1.92,3.72,3.72,0,0,1,1.85,2.78,3.65,3.65,0,0,1-2.23,2.42C11.59,23.24,5.7,23.62,0,20.59Z"/><path class="cls-1" d="M47.54,2.07c1.84-1.08,2.92-.6,3.9,1q4.37,7,8.94,13.89A25.71,25.71,0,0,0,63,19.87l.58-.18A16.08,16.08,0,0,0,64,17.14c-.09-4.51-.23-9-.37-13.51-.05-1.62.46-2.5,2.51-1.92a19.48,19.48,0,0,1,.3,2.6q-.08,7.62-.26,15.24c-.05,2.08-.71,2.7-2.66,2a10.17,10.17,0,0,1-4.18-2.76C57,16,55,12.9,52.85,9.94,52,8.79,51.24,7.61,50.43,6.45l-.68.09V22.1l-.93.34c-.43-.54-1.22-1.07-1.23-1.62C47.51,14.53,47.54,8.25,47.54,2.07Z"/><path class="cls-1" d="M44.25,21.61c-1.12,1.1-2.34,1-2.74-.35-1.21-4-4.13-4-7.42-3.63-2.12.27-4.26.42-6.39.63a4.09,4.09,0,0,0-3.6,2.29c-.57,1.17-1.47,1.42-2.89.62L32,1.09a2.92,2.92,0,0,1,3.2,1.69c3,6.08,6,12.13,9,18.19A2.59,2.59,0,0,1,44.25,21.61Zm-17.45-6,.42.59,11.25-.8L33.28,5.24l-.7.07Z"/><path class="cls-1" d="M106,2.44a9.91,9.91,0,0,1-2,.6c-2.49.2-5,.36-7.49.43-1.65,0-2.62.82-2.71,2.4-.11,2,0,4.08,0,6.41h8.1a10.75,10.75,0,0,1,2.13,0c.44.09.79.61,1.19.93-.38.35-.73,1-1.13,1-2.27.23-4.56.31-6.84.47-1.12.08-2.24.23-3.45.36V19.1c2.46,0,4.72,0,7,0,1.5,0,3-.12,4.5,0,.42,0,.8.6,1.2.92-.38.35-.75,1-1.15,1-3.85.21-7.7.37-11.55.44a2.12,2.12,0,0,1-2.26-2.33C91.37,13.76,91.22,8.4,91.17,3c0-.49.72-1.39,1.14-1.41,4.21-.23,8.42-.32,12.63-.41.35,0,.7.36,1,.55Z"/><path class="cls-1" d="M88.5,1.21c.21,1.48-.56,1.8-1.6,1.86-1.57.1-3.14.22-4.71.3-2.6.13-2.74.18-2.72,2.68,0,4.65.16,9.29.24,13.94,0,.68,0,1.36,0,2.12-2,0-2.7-.76-2.7-2.46,0-4.22,0-8.44-.1-12.66,0-.92-.12-1.83-.21-3.1H68.58c0-2.12,1.39-2,2.4-2,4.78-.27,9.57-.45,14.36-.65C86.38,1.17,87.42,1.21,88.5,1.21Z"/></g></g></g></svg>
