<svg xmlns="http://www.w3.org/2000/svg" viewBox="0 0 91.77 55.36"><defs><style>.cls-1{fill:#807c66;}</style></defs><title>Recurso 16</title><g id="Capa_2" data-name="Capa 2"><g id="Capa_1-2" data-name="Capa 1"><g id="lIT2LS"><path class="cls-1" d="M2,53.1c-.23-.86-.45-1.63-.64-2.42A49.9,49.9,0,0,1,.08,41.87,36.38,36.38,0,0,1,1.19,29.93,23.3,23.3,0,0,1,7.75,18.86a25.47,25.47,0,0,1,8.35-5.1,38.9,38.9,0,0,1,8.53-2.14,65.07,65.07,0,0,1,11.95-.47q2.3.1,4.6.11c1.8,0,3.6,0,5.4,0q4.71-.13,9.39-.71A70.2,70.2,0,0,0,68.18,8,39.14,39.14,0,0,0,79.25,2.77,16.72,16.72,0,0,0,82.18.24,1.93,1.93,0,0,0,82.32,0a53.54,53.54,0,0,1,2.17,6.59,41.44,41.44,0,0,0,6.62-3.46c.08.51.16,1,.22,1.44A58,58,0,0,1,91.77,11a51.43,51.43,0,0,1-.57,8.68A33.25,33.25,0,0,1,86.65,32.5a24.35,24.35,0,0,1-9.83,8.78,38.89,38.89,0,0,1-10.93,3.47,75.63,75.63,0,0,1-10.93,1c-4.51.13-9,0-13.53-.16q-6.1-.21-12.2-.36a66.84,66.84,0,0,0-8.81.34,35.46,35.46,0,0,0-14,4.26,22.48,22.48,0,0,0-4,2.89ZM25.59,24.32s0-.11,0-.17a3.21,3.21,0,0,0-1.93-2.55,4.46,4.46,0,0,0-3.61.19,3.75,3.75,0,0,0-2.34,2.62,6.83,6.83,0,0,0,0,2.34c0,.19.17.23.34.22l2.23-.23a.31.31,0,0,0,.32-.41,4.16,4.16,0,0,1-.06-.6,1.16,1.16,0,0,1,1-1.2c.62-.08,1,.22,1.16.93a3.53,3.53,0,0,1-.37,2.36,15.08,15.08,0,0,1-1.76,2.52c-.49.63-1,1.28-1.38,2a4.65,4.65,0,0,0,.72,5.5,6.64,6.64,0,0,0,1.79,1.14,6.2,6.2,0,0,0,3.4.27,5.3,5.3,0,0,0,3-1.41,4.86,4.86,0,0,0,1.73-4.08c-.18-2-.42-4-.64-6-.09-.86-.2-1.71-.25-2.57a1.24,1.24,0,0,1,1.24-1.31,1.28,1.28,0,0,1,1.31,1.29c.09.89.18,1.79.28,2.68l.64,6.12c.13,1.26.27,2.52.39,3.78,0,.28.14.4.44.37.83-.1,1.66-.18,2.49-.26.25,0,.34-.14.31-.4-.13-1.15-.24-2.29-.36-3.44-.32-3.1-.69-6.19-1-9.3a4.11,4.11,0,0,0-3.36-4A4.6,4.6,0,0,0,26.1,23,14,14,0,0,0,25.59,24.32Zm28.14,7.74h0c0,.16,0,.32.07.49a3.13,3.13,0,0,0,1.69,2.55,5,5,0,0,0,3,.56A6,6,0,0,0,62,34.26a2.67,2.67,0,0,0,.95-2.3c-.07-.82-.18-1.64-.26-2.45,0-.26-.14-.35-.39-.32l-2.57.28c-.24,0-.33.12-.31.37,0,.41,0,.84.13,1.25a1.26,1.26,0,0,1-1.07,1.42,1.3,1.3,0,0,1-1.57-.92,2.8,2.8,0,0,1,.2-2.07,6.94,6.94,0,0,1,.62-1c.74-.94,1.5-1.85,2.25-2.78a5.91,5.91,0,0,0,1.57-5,3.51,3.51,0,0,0-2-2.74A5.91,5.91,0,0,0,55,17.9a4.56,4.56,0,0,0-3.36,4c-.13,1-.21,2.09-.28,3.14-.1,1.58-.17,3.16-.26,4.74a2.14,2.14,0,0,1,0,.26c-.32-1.09-.57-2.17-.83-3.26L48.44,19.2c-.1-.41-.11-.42-.54-.38l-2.46.25c-.5.06-.52.1-.38.61l1.62,5.78q1.46,5.23,2.91,10.46c.06.22.14.37.41.34l3.06-.32c.24,0,.34-.14.36-.39C53.51,34.38,53.63,33.22,53.73,32.06ZM46,32.82q-.23-2.27-.46-4.53-.28-2.72-.57-5.44c-.12-1.1-.24-2.19-.35-3.29,0-.26-.13-.38-.41-.35l-2.38.26c-.47.06-.48.1-.43.55.07.6.13,1.21.2,1.81q.33,3.15.66,6.31c.16,1.52.34,3,.49,4.57a1.28,1.28,0,0,1-1.17,1.46A1.22,1.22,0,0,1,40.22,33c-.08-.58-.12-1.16-.18-1.74l-.5-4.72c-.11-1-.22-2.09-.33-3.14,0-.25,0-.37.31-.39s.81-.09,1.21-.12c.22,0,.33-.11.3-.34q-.14-1.32-.27-2.65c0-.24-.15-.32-.39-.29l-1.13.13c-.29,0-.4-.06-.43-.36-.1-1.14-.24-2.27-.35-3.4,0-.3-.15-.39-.44-.36l-2.3.24c-.51.05-.55.08-.49.61q.38,3.67.77,7.33c.3,2.86.59,5.72.91,8.58a13.33,13.33,0,0,0,.38,2.16A3.61,3.61,0,0,0,40,37.3a5.34,5.34,0,0,0,4.43-.91,3.21,3.21,0,0,0,1-1.24A5.64,5.64,0,0,0,46,32.82Zm-37,5c.1.92.19,1.79.28,2.66,0,.25.17.32.4.28.5-.07,1-.11,1.5-.22a8.07,8.07,0,0,0,4.32-2.32,7.33,7.33,0,0,0,2-5.85c-.18-2.28-.4-4.57-.59-6.85a4.72,4.72,0,0,1,0-1.29,4,4,0,0,1,2.61-3.07,12.68,12.68,0,0,1,2-.47c.2,0,.35-.08.33-.32q-.14-1.34-.29-2.68a.26.26,0,0,0-.34-.25,19.32,19.32,0,0,0-2.05.35,7.24,7.24,0,0,0-5.54,7.57c.09,2.12.36,4.24.53,6.36a8.7,8.7,0,0,1,.06,2,4.24,4.24,0,0,1-2.51,3.14,6,6,0,0,1-2.33.63C9.17,37.49,9,37.53,9,37.79Zm64.68-4,3-.31c.24,0,.32-.16.29-.39-.1-.86-.19-1.71-.28-2.57,0-.23-.13-.31-.35-.28s-.43.05-.64.06a12.5,12.5,0,0,1-1.52,0A1.24,1.24,0,0,1,73,29.07q-.12-1-.22-2-.54-5.18-1.08-10.35c0-.37-.08-.42-.45-.38l-2.53.25c-.24,0-.32.15-.29.39Q68.71,20,69,22.9q.41,3.87.81,7.74A3,3,0,0,0,70.26,32,3.94,3.94,0,0,0,73.68,33.75Zm-9.47,1,2.49-.26c.37,0,.39-.09.36-.47-.06-.54-.12-1.08-.17-1.62l-.65-6.24c-.16-1.49-.32-3-.47-4.46a1.26,1.26,0,0,1,.94-1.46,5.58,5.58,0,0,1,1-.23c.26,0,.35-.14.32-.4-.1-.84-.18-1.69-.26-2.53,0-.24-.14-.34-.37-.31l-.83.08a6.73,6.73,0,0,0-2.11.46,3.42,3.42,0,0,0-2.1,3.56c.12,1.23.26,2.47.39,3.7l1,9.78C63.85,34.75,63.87,34.76,64.21,34.75Zm3.52-20.9a2,2,0,1,0,2-2A2,2,0,0,0,67.73,13.84Zm-23,2.87a2,2,0,0,0-2-2,2,2,0,1,0,2,2ZM87.25,8A1.58,1.58,0,1,0,90.4,8a1.57,1.57,0,0,0-3.15,0Z"/><path class="cls-1" d="M65.87,50.53V48.9a4.74,4.74,0,0,1,.73,0,.62.62,0,0,1,.54.64c0,1.07,0,2.15-.05,3.22a1.46,1.46,0,0,1-1.36,1.37A2.49,2.49,0,0,1,64.28,54,2,2,0,0,1,63,52a1.88,1.88,0,0,1,1.43-1.88A1.42,1.42,0,0,1,65.87,50.53Zm0,1.69c0-.13,0-.27,0-.4a1,1,0,0,0-.06-.22.66.66,0,0,0-.66-.46.61.61,0,0,0-.61.43,1.4,1.4,0,0,0,0,1.21.73.73,0,0,0,.79.38c.33-.06.45-.3.5-.59A3.47,3.47,0,0,0,65.84,52.22Z"/><path class="cls-1" d="M41.68,54.19a1.93,1.93,0,0,1-2-2,2,2,0,0,1,2.1-2.11,2,2,0,0,1,2,2A1.92,1.92,0,0,1,41.68,54.19Zm.78-2a5.68,5.68,0,0,0-.15-.6.64.64,0,0,0-.64-.45.65.65,0,0,0-.6.44,1.32,1.32,0,0,0,.06,1.2.65.65,0,0,0,1.17,0A3.08,3.08,0,0,0,42.46,52.21Z"/><path class="cls-1" d="M50.37,50.25a7.06,7.06,0,0,1,.91,0,.65.65,0,0,1,.53.53c.14.49.3,1,.46,1.45,0,.09.08.18.15.34a9.13,9.13,0,0,0,.68-2.35h.52c.61,0,.77.2.64.81a11,11,0,0,1-1.8,3.82,1.19,1.19,0,0,1-1.08.51c-.64,0-.88-.29-.8-1l.39,0a1.89,1.89,0,0,0,.44-.09.41.41,0,0,0,.21-.66,11.75,11.75,0,0,1-1.21-3.1C50.4,50.42,50.39,50.35,50.37,50.25Z"/><path class="cls-1" d="M20.48,50.27l.06,0c1.23-.1,1.31.19,1.28,1.15,0,.37,0,.73,0,1.1s.23.64.59.65.57-.21.58-.65c0-.61,0-1.22,0-1.82,0-.14,0-.27,0-.41l.19,0c.88,0,1.21.07,1.16,1.1,0,.39,0,.79,0,1.18A1.54,1.54,0,0,1,23,54.13a3.69,3.69,0,0,1-1.2,0,1.44,1.44,0,0,1-1.29-1.42C20.44,51.9,20.48,51.09,20.48,50.27Z"/><path class="cls-1" d="M48.3,54l-.1,0C47.15,54.18,47,54,47,53c0-.37,0-.73,0-1.1s-.2-.67-.59-.68-.61.22-.63.66c0,.63,0,1.27,0,1.9,0,.1,0,.2,0,.37a7.23,7.23,0,0,1-.88-.09.54.54,0,0,1-.43-.56c0-.62,0-1.24,0-1.86a1.17,1.17,0,0,1,.08-.33,1.93,1.93,0,0,1,2.23-1.16,1.55,1.55,0,0,1,1.55,1.56C48.33,52.46,48.3,53.25,48.3,54Z"/><path class="cls-1" d="M17.14,54.11a7.45,7.45,0,0,1-.86-.08.56.56,0,0,1-.46-.58,17.83,17.83,0,0,1,0-1.86,1.52,1.52,0,0,1,1.08-1.35,2.61,2.61,0,0,1,1.72,0,1.44,1.44,0,0,1,1,1.39c0,.81,0,1.62,0,2.49-.31,0-.6,0-.9-.06a.43.43,0,0,1-.38-.41c0-.28,0-.55,0-.83s0-.71,0-1.06a.53.53,0,0,0-.56-.55.55.55,0,0,0-.62.48,2.23,2.23,0,0,0,0,.45C17.14,52.77,17.14,53.41,17.14,54.11Z"/><path class="cls-1" d="M70,51.67c.05-.33-.07-.49-.34-.53a2,2,0,0,0-1.65.35.86.86,0,0,1,.47-1.17,2.41,2.41,0,0,1,2,0,1.31,1.31,0,0,1,.8,1.2,9.65,9.65,0,0,1,0,1.63,1.07,1.07,0,0,1-1,1A2.84,2.84,0,0,1,68.54,54a1.09,1.09,0,0,1-.71-1.1,1,1,0,0,1,.78-1,6.66,6.66,0,0,1,1-.18A2.68,2.68,0,0,1,70,51.67Zm0,.82a3.26,3.26,0,0,0-.68.08.43.43,0,0,0-.24.32.45.45,0,0,0,.25.32C69.83,53.4,70.1,53.13,70,52.49Z"/><path class="cls-1" d="M56.07,50.23c.31,0,.58,0,.84,0a.75.75,0,0,1,.65.64,15.93,15.93,0,0,0,.58,1.69,8.28,8.28,0,0,0,.77-2.33,7.57,7.57,0,0,1,.81,0,.39.39,0,0,1,.36.42,1.78,1.78,0,0,1-.1.67c-.36.82-.73,1.63-1.15,2.43a.79.79,0,0,1-1.27.14,1.54,1.54,0,0,1-.23-.3A9.58,9.58,0,0,1,56.07,50.23Z"/><path class="cls-1" d="M36.56,51.37a6.83,6.83,0,0,0-1.07-.13.8.8,0,0,0-.82.89.82.82,0,0,0,.84.92,7.58,7.58,0,0,0,1-.12,1,1,0,0,1-.89,1.21,1.92,1.92,0,0,1-2.3-1.52,2,2,0,0,1,1.5-2.44,2.85,2.85,0,0,1,.49-.07C36.23,50.07,36.67,50.56,36.56,51.37Z"/><path class="cls-1" d="M26.45,49.3v.9h1.07c.2.77,0,1-1.05,1.1,0,.48,0,1,0,1.46a.33.33,0,0,0,.36.32c.21,0,.43,0,.64,0,.17.7-.07,1-.78,1.09a1.29,1.29,0,0,1-1.55-1.41c0-.76,0-1.52,0-2.28A1.16,1.16,0,0,1,26.45,49.3Z"/><path class="cls-1" d="M29.37,54.11a6.76,6.76,0,0,1-.69-.06.69.69,0,0,1-.59-.73c0-.67,0-1.34,0-2a1.4,1.4,0,0,1,2-1.11c.43.21.36.58.34,1l-.3,0c-.56-.05-.77.13-.78.7s0,1.21,0,1.82C29.37,53.79,29.37,53.92,29.37,54.11Z"/><path class="cls-1" d="M37.25,50.36l.16,0c1,0,1.17.17,1.17,1.12,0,.33,0,.66,0,1,0,.59.06.65.63.7q.27,1-.74,1A1.08,1.08,0,0,1,37.26,53C37.22,52.15,37.25,51.26,37.25,50.36Z"/><path class="cls-1" d="M60.64,50.33h.42c.68,0,.91.24.92.92,0,.39,0,.78,0,1.18,0,.62,0,.66.65.73.16.7-.1,1-.81,1a1.08,1.08,0,0,1-1.17-1.09C60.62,52.17,60.64,51.28,60.64,50.33Z"/><path class="cls-1" d="M32.94,53.15c.07.61,0,.85-.4,1a1.26,1.26,0,0,1-1.47-.58,1.59,1.59,0,0,1-.12-.59c0-.81,0-1.62,0-2.43a1,1,0,0,1,0-.17l.38,0c.69,0,.91.22.92.91,0,.39,0,.78,0,1.18C32.27,53,32.32,53.09,32.94,53.15Z"/><path class="cls-1" d="M62,49.33a.7.7,0,1,1-.69-.67A.7.7,0,0,1,62,49.33Z"/><path class="cls-1" d="M38.57,49.34a.68.68,0,0,1-.69.66.67.67,0,1,1,0-1.33A.68.68,0,0,1,38.57,49.34Z"/><path class="cls-1" d="M32.26,49.33a.68.68,0,0,1-.69.66.67.67,0,1,1,0-1.33A.67.67,0,0,1,32.26,49.33Z"/><path class="cls-1" d="M41,49.63a1.93,1.93,0,0,1,1.12-1.14c.32-.09.56,0,.66.2a.56.56,0,0,1-.23.7,2.29,2.29,0,0,1-.74.24A5.45,5.45,0,0,1,41,49.63Z"/><path class="cls-1" d="M25.8,27.58c.08.75.17,1.51.24,2.26.13,1.31.25,2.62.36,3.93a2.24,2.24,0,0,1-.48,1.52,2.37,2.37,0,0,1-3.19.6,1.9,1.9,0,0,1-.67-2.16,5.58,5.58,0,0,1,1.08-1.9c.59-.76,1.2-1.5,1.77-2.28A5.34,5.34,0,0,0,25.8,27.58Z"/><path class="cls-1" d="M54,28.37c.06-.52.1-1,.18-1.56.19-1.34.38-2.68.61-4a3.93,3.93,0,0,1,.38-1.11,1.9,1.9,0,0,1,2-1,1.14,1.14,0,0,1,.92,1.45,4.42,4.42,0,0,1-.55,1.2,17.86,17.86,0,0,1-1.14,1.52A15.45,15.45,0,0,0,54,28.37Z"/><path class="cls-1" d="M88.82,9.33a1.3,1.3,0,0,1,0-2.59A1.24,1.24,0,0,1,90.06,8,1.24,1.24,0,0,1,88.82,9.33Zm-.6-2.23c0,.59,0,1.13,0,1.67,0,.06.11.12.17.18s.14-.13.15-.21a4.61,4.61,0,0,0,0-.55l.09,0a1.45,1.45,0,0,1,.25.21c.11.14.17.31.29.44a1.23,1.23,0,0,0,.35.18l0-.09-.41-.7c.37-.23.47-.43.38-.72s-.38-.37-.67-.37Z"/><path class="cls-1" d="M88.57,7.94V7.33a5.78,5.78,0,0,1,.61.17s0,.22,0,.23C89,7.81,88.82,7.86,88.57,7.94Z"/></g></g></g></svg>
