<svg xmlns="http://www.w3.org/2000/svg" viewBox="0 0 113.72 24.14"><defs><style>.cls-1{fill:#807c66;}</style></defs><title>Recurso 17</title><g id="Capa_2" data-name="Capa 2"><g id="Capa_1-2" data-name="Capa 1"><g id="itP0jv"><path class="cls-1" d="M4.43,11.79l-.2-.18v0l0,0A7.53,7.53,0,0,1,1.7,8.49a6.19,6.19,0,0,1-.44-3.4A5.87,5.87,0,0,1,4.52.57,5.84,5.84,0,0,1,5.58.25,5.75,5.75,0,0,0,6.15,0H8.92a5.87,5.87,0,0,0,.62.25c.62.18,1.25.32,1.86.5a.41.41,0,0,1,.24.25,9.25,9.25,0,0,1,.26,1.22c.09.71.14,1.43.21,2.15,0,.28.09.65-.3.64a.83.83,0,0,1-.57-.52A5,5,0,0,0,9.77,1.9,4,4,0,0,0,6.4,1,3.37,3.37,0,0,0,3.51,3.22a4.21,4.21,0,0,0,.35,3.84A18,18,0,0,0,5.42,8.89h0c1.25.89,2.52,1.76,3.76,2.67a2.57,2.57,0,0,1,1.2,1.33c.08.26.54.39.72.66a6.92,6.92,0,0,1,1.27,5.18c-.64,3.65-3,5.4-6.59,5.43a10.06,10.06,0,0,1-4-.79A1.62,1.62,0,0,1,.56,21.88,30.51,30.51,0,0,0,0,18.8V18c.57-.29.72-.19.91.44.6,1.94,1.55,3.61,3.6,4.36a4.46,4.46,0,0,0,3.78-.23A3.12,3.12,0,0,0,10,20.08a11.76,11.76,0,0,0,0-2.71,5.78,5.78,0,0,0-.76-1.71c-.54-1-1.6-1.47-2.44-2.16s-1.53-1.15-2.3-1.72Z"/><path class="cls-1" d="M84.27,23.61c-1.22,0-2.44,0-3.66,0-.55,0-1.09.19-1.65.22a4.62,4.62,0,0,1-4.33-2.42c-.89-1.4-1.78-2.81-2.55-4.28a2.33,2.33,0,0,0-2.71-1.36c-.17,0-.43.24-.43.36,0,1.86,0,3.73.08,5.59.05.91.3,1,1.29,1.18.38.06.68.15.48.66H65c-.15-.34-.08-.55.3-.6l.06,0C66.85,22.6,67,22.41,67,20.9Q67,15,67,9a3.88,3.88,0,0,0-.08-.71c-.19-1-.3-1.11-1.32-1.21-.28,0-.59,0-.49-.39,0-.14.34-.29.53-.29,2.1-.06,4.21-.14,6.31-.12a4.32,4.32,0,0,1,4.3,3.25,4.68,4.68,0,0,1-2.44,5.26c-.38.21-.55.41-.31.84a34.51,34.51,0,0,0,4.27,6.51,8.05,8.05,0,0,0,.74.7c.31.26.63.47,1.06.18a1,1,0,0,1,.53-.1,1.55,1.55,0,0,0,1.48-1.19c.67-1.83,1.33-3.67,2-5.52.94-2.71,1.85-5.44,2.77-8.16,0-.08.09-.15.08-.22-.11-1,.73-1.29,1.23-1.81.31-.33.44.09.5.3.35,1.14.66,2.29,1,3.44,1.19,3.86,2.4,7.73,3.59,11.59.28.91.75,1.58,1.82,1.61.3,0,.62.11.42.64H89.84c-.37,0-.6-.06-.46-.54.28,0,.57-.12.86-.15.53-.05.78-.34.64-.85-.45-1.61-.91-3.22-1.41-4.81a.75.75,0,0,0-.57-.39c-1.37,0-2.73,0-4.1,0a.87.87,0,0,0-.62.5c-.49,1.56-.93,3.13-1.37,4.7-.15.56,0,.75.61.84A2.06,2.06,0,0,1,84,23a1.86,1.86,0,0,1,.41.38ZM68.93,11c0,.82,0,1.64,0,2.46,0,1.83-.22,1.42,1.5,1.5,2.08.1,3.22-.69,3.65-2.44a6,6,0,0,0,.17-1.72C74.09,7.95,72.1,6.67,69.51,7c-.44.06-.6.3-.6.73C68.94,8.86,68.92,9.94,68.93,11Zm15.76,4.78H88.5c.39,0,.52-.18.39-.59-.45-1.46-.87-2.94-1.31-4.4-.17-.56-.35-1.11-.53-1.67h-.2Z"/><path class="cls-1" d="M32.46,14.31c0,3.93-1.2,6.69-4.09,8.55a8.1,8.1,0,0,1-9.72-1.06A9.07,9.07,0,0,1,16,15.3,9.85,9.85,0,0,1,18,9,7.78,7.78,0,0,1,25.49,6a7.26,7.26,0,0,1,5.75,3.85A8.37,8.37,0,0,1,32.46,14.31Zm-8.07,8.86a4.94,4.94,0,0,0,4.25-2,7.66,7.66,0,0,0,1.51-4.72,23.45,23.45,0,0,0-.39-4.27,7.09,7.09,0,0,0-1.44-3.32,5.31,5.31,0,0,0-3.83-2.16,5.24,5.24,0,0,0-5.09,2.57,9.26,9.26,0,0,0-1.18,4.35,16.51,16.51,0,0,0,.2,2.6A9.65,9.65,0,0,0,20,20.66,5.17,5.17,0,0,0,24.39,23.17Z"/><path class="cls-1" d="M63.56,23.58H57.93c-.12-.35-.07-.51.35-.59,1.35-.25,1.35-.28,1-1.65s-.77-2.56-1.11-3.85a.73.73,0,0,0-.83-.65c-1.28,0-2.57,0-3.85,0a.68.68,0,0,0-.75.54c-.45,1.55-.91,3.1-1.34,4.65-.17.63,0,.77.68.9.33.06.92-.09.83.67-1.57,0-3.11,0-4.65,0-.11,0-.25-.16-.3-.28s.13-.2.21-.29a.26.26,0,0,1,.17,0c1.27,0,1.74-.82,2.09-1.86q2.23-6.54,4.49-13.07C54.9,8,55,8,55,7.91c-.11-1,.69-1.35,1.25-1.86s.43.15.5.35c.44,1.4.84,2.82,1.27,4.23Q59.63,16,61.3,21.36A1.93,1.93,0,0,0,63.13,23C63.43,23,63.77,23.07,63.56,23.58ZM53.22,15.81c1.37,0,2.51,0,3.65,0,.52,0,.69-.16.52-.68-.44-1.44-.86-2.9-1.29-4.34-.17-.55-.35-1.1-.53-1.65h-.2Z"/><path class="cls-1" d="M94,6.26c1.69,0,3.37,0,5.05,0a.41.41,0,0,1,.32.24c0,.1-.14.23-.23.34H99c-1.18.42-1.21.43-.71,1.6,1,2.23,2,4.45,3,6.85.46-.89.84-1.6,1.19-2.31.78-1.62,1.57-3.24,2.32-4.86.43-.92.32-1.1-.74-1.26-.38-.06-.57-.14-.41-.58h4.57c.09.31.12.53-.31.58a2.59,2.59,0,0,0-2,1.48c-1.25,2.36-2.5,4.73-3.7,7.12A3.81,3.81,0,0,0,102,17c0,1.46,0,2.93,0,4.39,0,.92.35,1.5,1.39,1.49A1.82,1.82,0,0,1,104,23c.11,0,.18.2.27.3-.11.09-.21.24-.32.25-.34,0-.68,0-1,0-1.55,0-3.09,0-4.64,0-.17,0-.35-.16-.52-.24.15-.11.27-.29.44-.33,1.57-.39,1.6-.38,1.74-2.12a11.28,11.28,0,0,0-.22-4.65c-.52-1.52-1.29-3-2-4.43Q96.93,10,96,8.14a1.94,1.94,0,0,0-1.6-1.2C94.14,6.91,93.74,6.86,94,6.26Z"/><path class="cls-1" d="M46.53,23.59H39.06c-1.12,0-2.25,0-3.37,0-.16,0-.31-.15-.46-.23.13-.13.25-.35.4-.39,1.7-.42,1.74-.41,1.76-2.16,0-3.37,0-6.74.05-10.11,0-.78,0-1.56-.06-2.34-.05-1-.22-1.22-1.22-1.44l-.8-.14c-.09-.32,0-.51.39-.51,1.77,0,3.53,0,5.3,0,.12,0,.23.14.35.22-.1.11-.19.3-.29.3-1.45,0-1.8.87-1.77,2.17.05,2.39,0,4.77,0,7.16,0,1.58,0,3.17.08,4.75a1.61,1.61,0,0,0,1.68,1.79c1.08.06,2.16,0,3.24,0a1.8,1.8,0,0,0,1.62-1c.3-.49.51-1,.79-1.54.09-.16.29-.26.43-.38.06.18.22.38.18.54C47.09,21.42,46.8,22.5,46.53,23.59Z"/><path class="cls-1" d="M111.16,12.4a2.39,2.39,0,1,1,.1-4.78,2.33,2.33,0,0,1,2.46,2.47A2.41,2.41,0,0,1,111.16,12.4ZM113.34,10a2,2,0,0,0-2-2.15,2.16,2.16,0,0,0-2.24,2.23,2.18,2.18,0,0,0,2.29,2.12A2.07,2.07,0,0,0,113.34,10Z"/><path class="cls-1" d="M111.59,10.08l.89,1.32c-.83-.07-.85-1-1.5-1.32.58-.07.87-.33.75-.86s-.42-.54-.83-.44v2.64h-.49V8.59c.55,0,1.22-.25,1.64.4C112.34,9.45,112,9.76,111.59,10.08Z"/></g></g></g></svg>
