<svg xmlns="http://www.w3.org/2000/svg" viewBox="0 0 91.58 27.61"><defs><style>.cls-1{fill:#807c66;}</style></defs><title>Recurso 7</title><g id="Capa_2" data-name="Capa 2"><g id="Capa_1-2" data-name="Capa 1"><g id="h5RJ7Q"><path class="cls-1" d="M30.67,0c.49,0,1,.07,1.47.13a15,15,0,0,1,4,1.19,22.9,22.9,0,0,1,3.93,2.25l.18.14c-.63-.08-1.22-.18-1.8-.24a12.05,12.05,0,0,0-5.27.5,7.54,7.54,0,0,0-4.72,4.34c-.31.74-.59,1.49-1,2.19A13.2,13.2,0,0,1,23.72,15a9.61,9.61,0,0,1-3.89,1.78,13.94,13.94,0,0,1-4.92.06,12.75,12.75,0,0,1-6.56-3.12c-.44-.39-.82-.83-1.23-1.25l0-.07.95.22a13.11,13.11,0,0,0,5.1.12A7.93,7.93,0,0,0,18,10a39.23,39.23,0,0,0,2.52-3.56A16.71,16.71,0,0,1,23.22,3.2,13.47,13.47,0,0,1,26.6.87,9.24,9.24,0,0,1,30,0l.31,0Z"/><path class="cls-1" d="M0,23.68H2.58a1.14,1.14,0,0,1,0,.18,1.46,1.46,0,0,0,.92,1.37,4.64,4.64,0,0,0,3.63.08,1.07,1.07,0,0,0,.7-1.07.8.8,0,0,0-.57-.79,11.27,11.27,0,0,0-1.44-.3c-1-.14-2-.24-3-.4A3.55,3.55,0,0,1,1.16,22a2.57,2.57,0,0,1-.78-2.86,3.32,3.32,0,0,1,2.29-2.29,7.88,7.88,0,0,1,5.17,0,3.16,3.16,0,0,1,2.33,2.88c0,.17,0,.24-.2.23H7.83a.26.26,0,0,1-.2-.14,1.66,1.66,0,0,0-1.43-1.33,4.57,4.57,0,0,0-2.26.05,1.31,1.31,0,0,0-.91.66.81.81,0,0,0,.52,1.21c.59.14,1.21.22,1.81.3a17.77,17.77,0,0,1,3.06.49,3,3,0,0,1,1.82,1.28,3.27,3.27,0,0,1-1.06,4.26,6.12,6.12,0,0,1-2.57.81l-.26,0H4.22l-.24,0a14.68,14.68,0,0,1-1.77-.46,3.18,3.18,0,0,1-2.09-2.3c0-.21-.08-.43-.12-.64Z"/><path class="cls-1" d="M33.1,27.61a10.57,10.57,0,0,1-1.1-.34,2.45,2.45,0,0,1-1.36-3A2,2,0,0,1,32,23,12.9,12.9,0,0,1,35,22.52a12.62,12.62,0,0,0,1.46-.19.69.69,0,0,0,.65-.68.75.75,0,0,0-.58-.77,3.35,3.35,0,0,0-2.17,0,1.05,1.05,0,0,0-.68.9c0,.07,0,.14,0,.24H31.2a2.37,2.37,0,0,1,.69-1.82,3.53,3.53,0,0,1,1.9-.9,7.47,7.47,0,0,1,3.85.18,2.09,2.09,0,0,1,1.43,1.1,4.06,4.06,0,0,1,.26,1.34c0,1.41,0,2.81,0,4.22a1.41,1.41,0,0,0,.3,1c.07.08.09.2-.07.21H37.14L37,26.53a.44.44,0,0,0-.11.05,3.92,3.92,0,0,1-2.14,1l-.11,0Zm4-4-1.8.3a14.2,14.2,0,0,0-1.5.26.82.82,0,0,0-.32,1.44,1.11,1.11,0,0,0,.53.27,2.81,2.81,0,0,0,2.53-.71A1.81,1.81,0,0,0,37.07,23.62Z"/><path class="cls-1" d="M15.34,27.61c-.38-.09-.76-.14-1.13-.26a3.89,3.89,0,0,1-2.83-3.68,4.11,4.11,0,0,1,1.15-3.28,4.29,4.29,0,0,1,2.34-1.14,6.37,6.37,0,0,1,3.58.3,3.71,3.71,0,0,1,2.42,3.18,4.44,4.44,0,0,1-.49,2.82,4.08,4.08,0,0,1-2.89,2l-.5.1Zm3-4.4a2,2,0,0,0-1.23-1.93A2.26,2.26,0,0,0,14,24a2.2,2.2,0,0,0,3,1.6A2.22,2.22,0,0,0,18.37,23.22Z"/><path class="cls-1" d="M61.63,27.61l-.38-.13a1.41,1.41,0,0,1-1-1.39c0-1.19,0-2.38,0-3.56,0-.53,0-1.05,0-1.58,0-.18-.06-.26-.25-.25s-.55,0-.82,0-.3-.08-.29-.3a4.2,4.2,0,0,0,0-.63c0-.24.09-.31.31-.3s.55,0,.82,0,.23-.07.23-.23c0-.51,0-1,0-1.53,0-.18,0-.26.25-.25s.6,0,.9,0,.24.05.24.24c0,.51,0,1,0,1.53,0,.18,0,.26.25.25.48,0,1,0,1.43,0,.18,0,.27,0,.26.24a6.24,6.24,0,0,0,0,.75c0,.19-.07.23-.24.23H61.82c-.18,0-.24.05-.24.23,0,1.45,0,2.89,0,4.34a3.77,3.77,0,0,0,0,.41.63.63,0,0,0,.58.62,6.47,6.47,0,0,0,.94,0,3,3,0,0,0,.36-.06v1.25l-.6.13Z"/><path class="cls-1" d="M91.58,18.68a4.3,4.3,0,0,1-.48.82,1.59,1.59,0,0,1-1.82.4,1.56,1.56,0,0,1-1.07-1.48A1.58,1.58,0,0,1,89,16.91a1.69,1.69,0,0,1,2.48.94c0,.07.05.13.08.2Zm-1.7,1.17a1.49,1.49,0,0,0,1.51-1.48,1.51,1.51,0,0,0-1.5-1.55,1.53,1.53,0,0,0-1.51,1.5A1.51,1.51,0,0,0,89.88,19.86Z"/><path class="cls-1" d="M41.88,18.36v.31q0,4.17,0,8.35c0,.33,0,.33-.33.34H40.43V27q0-5,0-9.92c0-.36,0-.36.35-.36s.92,0,1.38,0a.47.47,0,0,1,.44.22l3.06,4.19,3.25,4.44.17.19c0-.13,0-.2,0-.28q0-4.18,0-8.37c0-.39,0-.39.4-.4h.58c.51,0,.43,0,.43.44,0,1,0,2.05,0,3.08q0,3.38,0,6.77c0,.32,0,.32-.32.32-.47,0-.94,0-1.41,0a.45.45,0,0,1-.42-.22l-2.91-4-3.4-4.66-.12-.14Z"/><path class="cls-1" d="M77.4,22a2.59,2.59,0,0,1,1.07-2.1,3.81,3.81,0,0,1,2.11-.63,11.22,11.22,0,0,1,2.15.11,2.12,2.12,0,0,1,2,2.44c0,1.12,0,2.23,0,3.35a2.57,2.57,0,0,0,.06.55.53.53,0,0,0,.58.48h.47c0,.34,0,.67,0,1a.15.15,0,0,1-.1.11,3.67,3.67,0,0,1-1.54,0,1.15,1.15,0,0,1-.75-.86c0-.08,0-.15-.07-.25a.63.63,0,0,0-.13.09,3.74,3.74,0,0,1-2.59,1.27,4.42,4.42,0,0,1-2.22-.25,2.16,2.16,0,0,1-1.36-2.35A2.19,2.19,0,0,1,78.85,23c.85-.16,1.71-.24,2.57-.35.36,0,.72-.09,1.08-.16s.74-.34.79-.7a1,1,0,0,0-.6-1.15,3.17,3.17,0,0,0-.89-.2,4.11,4.11,0,0,0-2.14.25,1.25,1.25,0,0,0-.76,1c0,.22-.12.29-.34.28S77.82,22,77.4,22Zm5.89,1.36h0a8.64,8.64,0,0,1-2.29.5c-.56.08-1.11.19-1.66.31a.87.87,0,0,0-.64.54,1.1,1.1,0,0,0,.65,1.46A3.71,3.71,0,0,0,82.15,26,2,2,0,0,0,83.29,23.34Z"/><path class="cls-1" d="M59.79,26.17c0,.34,0,.65,0,1a.23.23,0,0,1-.16.15,9.23,9.23,0,0,1-1.3,0,1,1,0,0,1-.86-.76c0-.12-.08-.24-.14-.42-.13.15-.23.27-.35.38a3.85,3.85,0,0,1-2.33,1,4.49,4.49,0,0,1-2.22-.25A2.11,2.11,0,0,1,51.05,25a2.09,2.09,0,0,1,1.6-2c.73-.18,1.5-.24,2.25-.35.51-.07,1-.11,1.54-.2s.8-.35.84-.77a1,1,0,0,0-.68-1.13,4.1,4.1,0,0,0-1.91-.17,4.2,4.2,0,0,0-.94.21,1.27,1.27,0,0,0-.88,1.09c0,.18-.1.23-.27.22-.32,0-.65,0-1,0s-.24-.06-.22-.24a2.47,2.47,0,0,1,1.25-2,4.3,4.3,0,0,1,1.88-.51,8,8,0,0,1,2.48.17,2,2,0,0,1,1.66,2c0,1.07,0,2.15,0,3.23,0,.28,0,.57,0,.85.05.52.27.69.79.67Zm-2.52-2.82c-.42.11-.82.23-1.23.32s-.83.11-1.24.19-1.07.17-1.59.32a.86.86,0,0,0-.66.86,1,1,0,0,0,.56,1,4.05,4.05,0,0,0,3.11-.16C57.42,25.27,57.36,24.67,57.27,23.35Z"/><path class="cls-1" d="M70.07,26.06c-.16.17-.32.36-.5.52a3.87,3.87,0,0,1-4,.74,2.21,2.21,0,0,1-1.51-2c-.05-.51-.06-1-.06-1.55,0-1.33,0-2.67,0-4,0-.24.07-.31.31-.3a6.25,6.25,0,0,0,.78,0c.24,0,.32.06.32.31q0,2,0,4.1A7.49,7.49,0,0,0,65.42,25a1.42,1.42,0,0,0,1.36,1.37,3,3,0,0,0,2.14-.43,2.66,2.66,0,0,0,1.21-2.33c0-1.26,0-2.52,0-3.78,0-.23.06-.32.3-.3s.57,0,.85,0,.27.06.25.25,0,.39,0,.58c0,2.25,0,4.5,0,6.74,0,.23-.06.32-.3.3s-.58,0-.87,0-.23-.06-.22-.23c0-.34,0-.68,0-1Z"/><path class="cls-1" d="M21.63,19.43H24v1c.24-.23.44-.43.65-.61a2.41,2.41,0,0,1,2.08-.62c.07,0,.19.09.19.14,0,.64,0,1.29,0,1.95-.3,0-.58,0-.86,0a1.91,1.91,0,0,0-1.73,1A2.73,2.73,0,0,0,24,23.56c0,1.16,0,2.33,0,3.49,0,.24-.05.33-.31.32-.61,0-1.21,0-1.82,0-.16,0-.23,0-.23-.21q0-3.77,0-7.54C21.61,19.56,21.62,19.5,21.63,19.43Z"/><path class="cls-1" d="M29.87,27.35H27.59V19.43h2.28Z"/><path class="cls-1" d="M77.3,20.8c-.28,0-.52-.11-.77-.12a2.46,2.46,0,0,0-2.62,2,4.92,4.92,0,0,0-.1,1q0,1.69,0,3.37c0,.24-.08.31-.3.29a8.07,8.07,0,0,0-.85,0c-.19,0-.25-.06-.25-.25,0-1.24,0-2.47,0-3.71s0-2.43,0-3.64c0-.21.06-.29.27-.28s.61,0,.92,0c.15,0,.2.06.2.2a6,6,0,0,0,.05,1.06l.16-.19a3.33,3.33,0,0,1,2.78-1.32l.24,0a.29.29,0,0,1,.27.35C77.29,20,77.3,20.39,77.3,20.8Z"/><path class="cls-1" d="M87.49,27.35c-.44,0-.85,0-1.25,0-.05,0-.13-.12-.14-.19,0-.36,0-.71,0-1.07q0-4.51,0-9c0-.32,0-.32.32-.32s.52,0,.78,0,.31.08.31.32c0,1.67,0,3.35,0,5v5.28Z"/><path class="cls-1" d="M29.88,16.73v1.86H27.57c0-.58,0-1.15,0-1.72,0,0,.08-.13.12-.14Z"/><path class="cls-1" d="M90.51,18.29l.2,1c-.21.07-.3,0-.29-.21,0,0,0-.1,0-.15,0-.37-.1-.45-.47-.45-.54,0-.54,0-.54.55,0,0,0,.05,0,.07l-.12.21c0-.07-.1-.14-.11-.21,0-.27,0-.55,0-.82s0-.45,0-.68.05-.2.2-.2l.78,0a.48.48,0,0,1,.49.29A.52.52,0,0,1,90.51,18.29Zm-.7,0,.34,0a.31.31,0,0,0,.27-.36.27.27,0,0,0-.29-.29c-.19,0-.39,0-.58,0a.19.19,0,0,0-.14.1C89.27,18.07,89.42,18.29,89.81,18.3Z"/></g></g></g></svg>
