<svg xmlns="http://www.w3.org/2000/svg" viewBox="0 0 60.26 50.37"><defs><style>.cls-1{fill:#807c66;}</style></defs><title>Recurso 6</title><g id="Capa_2" data-name="Capa 2"><g id="Capa_1-2" data-name="Capa 1"><g id="dQkW4T"><path class="cls-1" d="M42.77,7.6l.55-1.78a2.06,2.06,0,0,1-2.06-.27,3.16,3.16,0,0,1-.85-1.77,3.17,3.17,0,0,1,2.24-.22A3.24,3.24,0,0,1,44.09,0a11.41,11.41,0,0,1,.73,1.55,11.34,11.34,0,0,1,.26,1.68L46.43,3l.16,0c.55-.06.55-.06.52.49A10.32,10.32,0,0,1,47,4.68,2.23,2.23,0,0,1,44.81,6.3,4.28,4.28,0,0,1,44.09,6c-.07.13-.16.28-.24.45-.22.47-.44.95-.65,1.43a.37.37,0,0,0,0,.28c.44.8.9,1.6,1.36,2.42a3.53,3.53,0,0,0,.92-1.25.7.7,0,0,1-.27-1.07,6.8,6.8,0,0,1,.64-.74l.32.49a3.49,3.49,0,0,1,2-1.27,1.91,1.91,0,0,1-1,1.91,2.42,2.42,0,0,1-.34.15A2.29,2.29,0,0,0,45.5,10a4,4,0,0,1-.68.85.41.41,0,0,0-.11.49,11.85,11.85,0,0,1-2,11.22,11.63,11.63,0,0,1-8.24,4.55A12.09,12.09,0,0,1,30.9,3.18,11.83,11.83,0,0,1,42.51,7.33ZM33.17,4.05a6.94,6.94,0,1,0,7,7A6.94,6.94,0,0,0,33.17,4.05ZM44,.62a2.81,2.81,0,0,0-1,1.6,4.13,4.13,0,0,0,.1,1.29.63.63,0,0,0,.69.52.7.7,0,0,0,.71-.56A3.61,3.61,0,0,0,44,.62Zm2.78,2.72a12.43,12.43,0,0,0-1.22.29A1.81,1.81,0,0,0,44.36,5a.72.72,0,0,0,.79.89,1.74,1.74,0,0,0,1.47-1.31C46.69,4.17,46.71,3.79,46.76,3.35ZM42,3.79a6.39,6.39,0,0,0-.74.13.34.34,0,0,0-.21.24,1.62,1.62,0,0,0,1.46,1.37.72.72,0,0,0,.68-.37.67.67,0,0,0-.08-.74A1.26,1.26,0,0,0,42,3.79Zm5.82,3.41-.07-.09c-.35.24-.71.48-1.05.74a.49.49,0,0,0-.17.29.46.46,0,0,0,.06.34c.05.06.21.05.31,0A1.33,1.33,0,0,0,47.82,7.21ZM45.92,8l-.17,0a3.75,3.75,0,0,0-.35.65.4.4,0,0,0,.19.35A.27.27,0,0,0,46,8.71,4.72,4.72,0,0,0,45.92,8Z"/><path class="cls-1" d="M50.41,34.14c-.94,1.73-1.89,3.46-2.82,5.19-.16.29-.36.64-.07.93s.62.13.92,0a3.53,3.53,0,0,0,.73-.43,4.53,4.53,0,0,0,.54-.48,4,4,0,0,0,1.07-1.72,8.75,8.75,0,0,1,3.09-4.26A3.39,3.39,0,0,1,55,32.81a1.69,1.69,0,0,1,2.2.7c.69-.74.93-.77,1.47-.16l-1.73,3.16c-.53,1-1.06,1.95-1.6,2.92a.66.66,0,0,0,0,.74c.15.23.38.22.62.19a3.26,3.26,0,0,0,2.15-1.3,16.5,16.5,0,0,0,1-1.45,1.18,1.18,0,0,1,.71-.62c.34-.08.53.13.44.46l0,.06c-.95,1.8-2.18,3.3-4.3,3.74a2.9,2.9,0,0,1-1.2,0c-.26-.06-.47-.31-.73-.5a2.19,2.19,0,0,1-2,.58,2,2,0,0,1-1.43-1.51L50,40.3a3.77,3.77,0,0,1-2.37,1,1.34,1.34,0,0,1-1.57-1c-.25.17-.49.35-.75.51a3.09,3.09,0,0,1-2.18.53,1.12,1.12,0,0,1-1-.94l-.25.17a3.88,3.88,0,0,1-2.14.73,1.25,1.25,0,0,1-1.29-.7,2.17,2.17,0,0,1-1.84.7,2,2,0,0,1-1.53-1.22l-.41.29a4.76,4.76,0,0,1-2.94.95,2.89,2.89,0,0,1-.83-.16,1,1,0,0,1-.62-.85l-.46.22a7.86,7.86,0,0,1-2.8.79,2.18,2.18,0,0,1-2.23-.83c-.65.38-1.24.8-1.89,1.11s-1.2.42-1.8.64a.81.81,0,0,0-.39.31c-1.08,1.8-2.13,3.63-3.24,5.42a8.09,8.09,0,0,1-1.38,1.7,2.4,2.4,0,0,1-3.32,0A2.44,2.44,0,0,1,12,47.48a4.66,4.66,0,0,1,2-3.46,12.15,12.15,0,0,1,4.5-2c.48-.12,1-.26,1.43-.35a.63.63,0,0,0,.53-.51,2.37,2.37,0,0,1-1.78.11A1.81,1.81,0,0,1,17.58,40c-.38.2-.73.4-1.1.58a7.55,7.55,0,0,1-3.26.82,2,2,0,0,1-2.16-1.68l-.06-.2-.28.22A6.42,6.42,0,0,1,7.88,41a4.86,4.86,0,0,1-1.5,0,4.72,4.72,0,0,0-2.26.22c-.06,0-.12.07-.18.06a3.57,3.57,0,0,1-.39-.12c.06-.12.09-.27.18-.34.42-.34.88-.65,1.29-1a2.78,2.78,0,0,0,1-2.67c-.12-.92-.22-1.85-.27-2.78a7,7,0,0,1,2.83-6.07l1.18-1c-.77-.18-1.45-.39-2.15-.5a8,8,0,0,0-4.12.35A3.8,3.8,0,0,0,1,29.67a2.91,2.91,0,0,0-.11,1A1.27,1.27,0,0,0,2.13,31.9a.67.67,0,0,0,.8-.58c.06-.28.13-.54.46-.6a.78.78,0,0,1,.79.34.71.71,0,0,1,0,.85A1.46,1.46,0,0,1,3,32.57,2.53,2.53,0,0,1,0,30a3.39,3.39,0,0,1,1.45-2.67,7.94,7.94,0,0,1,4.86-1.53,11.15,11.15,0,0,1,3.89.79.59.59,0,0,0,.65-.1A3.06,3.06,0,0,1,13,25.76l.25,0a1.08,1.08,0,0,1,.9.77,1,1,0,0,1-.6,1,3.36,3.36,0,0,1-2.38.27,1,1,0,0,0-1,.26,10.64,10.64,0,0,0-2.68,3.22A5.94,5.94,0,0,0,7.32,36a1.65,1.65,0,0,0,.12.22c.29-.37.55-.72.82-1.06a34.12,34.12,0,0,1,8.94-8.07,8.19,8.19,0,0,1,3.49-1.26,6.32,6.32,0,0,1,1.59,0,1.63,1.63,0,0,1,1.24,2.32A4.54,4.54,0,0,1,22.2,29.8a6.8,6.8,0,0,1-3.44,1.65,3.67,3.67,0,0,1-.44,0,.4.4,0,0,1-.44-.36.38.38,0,0,1,.25-.51c.25-.08.5-.15.75-.21a6.69,6.69,0,0,0,3.46-1.81,2.7,2.7,0,0,0,.73-1.23c.1-.42,0-.66-.45-.74a4.88,4.88,0,0,0-2.72.23,16.34,16.34,0,0,0-4,2.42,36,36,0,0,0-7.85,8.27c-.36.54-.67,1.11-1,1.68a1.55,1.55,0,0,0-.16.44c-.06.31.06.47.36.42a4.89,4.89,0,0,0,1.14-.33A11.26,11.26,0,0,0,11,37.89a.63.63,0,0,0,.15-.27,8.69,8.69,0,0,1,3-4.14A3.39,3.39,0,0,1,16,32.73a1.62,1.62,0,0,1,1.75,1,1.7,1.7,0,0,1-.48,2A4.47,4.47,0,0,1,15,36.82c-.72.12-1.45.21-2.17.33a.38.38,0,0,0-.27.2,11.57,11.57,0,0,0-.38,1.83,1.16,1.16,0,0,0,1.21,1.31A3.09,3.09,0,0,0,15,40.22c.79-.38,1.55-.82,2.31-1.25a.41.41,0,0,0,.18-.27,7.26,7.26,0,0,1,2-4A6.35,6.35,0,0,1,21.67,33a1.79,1.79,0,0,1,1.74-.07,6.36,6.36,0,0,1,.77.66c.08-.1.19-.24.31-.37a.7.7,0,0,1,1.08.23.42.42,0,0,1-.06.29l-3.38,6.21-.82,1.48.54-.2a9.16,9.16,0,0,0,2.37-1.46.51.51,0,0,0,.17-.36A5.06,5.06,0,0,1,25,36.59a8.58,8.58,0,0,1,2.84-3.26,3.19,3.19,0,0,1,1.66-.61,1.52,1.52,0,0,1,1.51.87,1.63,1.63,0,0,1-.11,1.86,3.68,3.68,0,0,1-2.3,1.3c-.8.17-1.61.25-2.42.39-.11,0-.28.1-.31.19a9.71,9.71,0,0,0-.4,1.7,1.22,1.22,0,0,0,1.31,1.45,4.75,4.75,0,0,0,2.41-.62l.06,0A3.48,3.48,0,0,0,31,38.16c.82-1.69,1.79-3.32,2.7-5L33.8,33c-.34-.16-.66-.34-.64-.83a7,7,0,0,1,.72,0,.5.5,0,0,0,.56-.32c.52-1,1.06-2,1.61-3a2.89,2.89,0,0,1,.33-.5c.39-.45.89-.2,1.13.16,0,.06,0,.22-.06.31-.52,1-1,2-1.57,3l-.17.34c.43.11.78.28.78.82-.34,0-.66,0-1,0a.36.36,0,0,0-.37.21q-1.7,3.13-3.42,6.26a.5.5,0,0,0-.07.14c0,.2-.15.49-.07.57a.83.83,0,0,0,.62.16A4.94,4.94,0,0,0,34.79,39a.35.35,0,0,0,.1-.22,7,7,0,0,1,1.84-3.95,6.84,6.84,0,0,1,1.89-1.64,2.86,2.86,0,0,1,1.74-.43,1.41,1.41,0,0,1,1.18.84c.15-.18.26-.34.4-.48a.7.7,0,0,1,1,.23c0,.08,0,.21-.1.31L39.71,39.4c-.14.26-.25.51,0,.78a.68.68,0,0,0,.8.17,2.59,2.59,0,0,0,1.34-.89,13.55,13.55,0,0,0,1.28-1.78c1.1-1.93,2.15-3.89,3.22-5.83l.17-.32c-.52-.17-1-.32-1.53-.5a4,4,0,0,1-1.54-1,2.62,2.62,0,0,1-.69-2.23,1.79,1.79,0,0,1,1.18-1.5,2.89,2.89,0,0,1,1.57-.16.5.5,0,0,1,.48.5.52.52,0,0,1-.51.51,6.93,6.93,0,0,1-.78,0l-.16,0a1.13,1.13,0,0,0-1.29.55,1.3,1.3,0,0,0,.4,1.42,4.29,4.29,0,0,0,.84.54,8.15,8.15,0,0,0,2.41.69.34.34,0,0,0,.42-.22c.14-.28.3-.55.44-.83a6.26,6.26,0,0,1,4.79-3.42,4.74,4.74,0,0,1,2,0A1.55,1.55,0,0,1,55.68,28a4.63,4.63,0,0,1-.91,1.3,7.29,7.29,0,0,1-4.93,2.2c-.59,0-1.17,0-1.76.07a.47.47,0,0,0-.33.2q-2.1,3.78-4.18,7.57a2.55,2.55,0,0,0-.19.43c-.14.43.05.7.49.6A3.5,3.5,0,0,0,45,39.93,6.33,6.33,0,0,0,47,37.88c.71-1.2,1.36-2.43,2-3.65l.18-.3c.36.37.79.26,1.21.21ZM19.88,42.45l-.34,0a13.11,13.11,0,0,0-3,1.07,7.24,7.24,0,0,0-2.7,2.25,3.86,3.86,0,0,0-.8,2.28,1.09,1.09,0,0,0,1.63,1,3.26,3.26,0,0,0,1.08-.88c1-1.25,1.9-2.53,2.82-3.82C19,43.82,19.4,43.17,19.88,42.45ZM36,39.12a4,4,0,0,0,.05.4.86.86,0,0,0,1.32.66,1.57,1.57,0,0,0,.49-.32,5.65,5.65,0,0,0,.78-1c.75-1.32,1.48-2.65,2.19-4a1.54,1.54,0,0,0,.15-.66.55.55,0,0,0-.6-.62,2.46,2.46,0,0,0-.9.2,6.36,6.36,0,0,0-2.69,2.69A5.56,5.56,0,0,0,36,39.12Zm15.66-.26c0,.62,0,1.12.54,1.36a1.13,1.13,0,0,0,1.31-.35,3.62,3.62,0,0,0,.68-.82c.78-1.37,1.53-2.74,2.28-4.12a1.57,1.57,0,0,0,.15-.51.64.64,0,0,0-.7-.81,2.33,2.33,0,0,0-1.3.49,7,7,0,0,0-2.73,3.73A8.27,8.27,0,0,0,51.62,38.87Zm-33,.28c0,.11,0,.28.05.45a.83.83,0,0,0,1.28.66,1.39,1.39,0,0,0,.47-.31,6.6,6.6,0,0,0,.83-1.05c.71-1.23,1.4-2.48,2.06-3.74a2.26,2.26,0,0,0,.23-.86c0-.42-.19-.65-.61-.6a3,3,0,0,0-1.06.33,6.6,6.6,0,0,0-2.28,2.26A5.56,5.56,0,0,0,18.6,39.15ZM48.47,30.5l.43,0a7.65,7.65,0,0,0,4.88-1.31,3.34,3.34,0,0,0,1.38-1.63c.23-.65,0-1-.65-1A5.64,5.64,0,0,0,48.47,30.5Zm-22,5.86c.45-.08.9-.15,1.35-.24a5.17,5.17,0,0,0,1.91-.67,1.43,1.43,0,0,0,.71-1.16.59.59,0,0,0-.66-.68,3.29,3.29,0,0,0-1.06.34A6,6,0,0,0,26.48,36.37ZM13.1,36.29l0,.1c.75-.16,1.52-.29,2.26-.5a4.41,4.41,0,0,0,1.14-.57,1.21,1.21,0,0,0,.53-1c0-.45-.22-.73-.66-.67a3.16,3.16,0,0,0-1,.32A6.62,6.62,0,0,0,13.1,36.29Zm-1.73-9.34a3.62,3.62,0,0,0,2-.15c.09,0,.16-.14.24-.22-.1-.06-.2-.17-.3-.18A2.75,2.75,0,0,0,11.37,26.94Z"/><path class="cls-1" d="M50,33.41l-.24,0c-.24-.05-.33-.16-.17-.39a4.94,4.94,0,0,1,.3-.44.7.7,0,0,1,1.05-.1.27.27,0,0,1,.07.23A1,1,0,0,1,50,33.41Z"/><polygon class="cls-1" points="50.4 34.14 50.4 34.12 50.41 34.14 50.4 34.14"/></g></g></g></svg>
