<svg xmlns="http://www.w3.org/2000/svg" viewBox="0 0 102.52 20.96"><defs><style>.cls-1{fill:#807c66;}</style></defs><title>Recurso 22</title><g id="Capa_2" data-name="Capa 2"><g id="Capa_1-2" data-name="Capa 1"><path class="cls-1" d="M20.66,20.92c-.77,0-1.53,0-2.29,0s-1-.29-1.12-1c-.53-5.18-1.11-10.36-1.66-15.54-.1-.93-.37-1.19-1.06-.86a1.18,1.18,0,0,0-.47.79c-.82,4.63-1.61,9.26-2.41,13.89-.11.64-.25,1.28-.35,1.92a.86.86,0,0,1-1,.83c-1.27,0-2.55,0-3.82,0a1.18,1.18,0,0,1-1.37-1C4.21,16.45,3.27,13,2.33,9.56,1.61,6.88.87,4.21.15,1.53-.12.55-.11.54.93.4,1.81.28,2.68.21,3.54,0c.68-.14.88.13,1,.76C5.47,6.06,6.44,11.32,7.4,16.58c0,.17,0,.38.11.49s.45.52.68.52A.84.84,0,0,0,8.78,17c.37-3.18.7-6.36,1-9.54.22-2,.42-4.06.7-6.07a1.17,1.17,0,0,1,.77-.79C13.37.37,15.46.21,17.55,0c.57,0,.81.27.88.8Q19.19,6.47,20,12.11c.22,1.63.44,3.26.65,4.88.05.41.15.69.66.69s.6-.28.66-.68c.54-3.58,1.06-7.17,1.64-10.75a7.65,7.65,0,0,1,.69-2c.29-.61.78-1.13,1-1.76A3.65,3.65,0,0,1,28.8.11c.74-.06.74.11.58.71q-2.13,7.7-4.22,15.4c-.34,1.23-.71,2.45-1,3.69a1.15,1.15,0,0,1-1.38,1C22.08,20.89,21.37,20.92,20.66,20.92Z"/><path class="cls-1" d="M101.21,20.93c-1.32,0-1.31,0-1.57-1.33-.22-1.11-.49-2.21-.69-3.32-.09-.5-.28-.77-.83-.7l-7.41.82a1,1,0,0,0-.95,1c-.1.93-.3,1.84-.42,2.77-.07.53-.24.78-.84.79-2,0-2,.05-1.85-1.93A96,96,0,0,1,89.2,2.68a1.21,1.21,0,0,1,1.45-1.11c2.49.08,5,.08,7.47.07a1,1,0,0,1,1.12.85c.89,4.26,1.84,8.51,2.68,12.78.3,1.52.33,3.09.57,4.63.13.84-.09,1.16-.93,1A2.22,2.22,0,0,0,101.21,20.93ZM94.4,12.78v0c1,0,2,0,3,0,.52,0,.74-.11.55-.68Q96.75,8.53,95.64,5c-.18-.58-.49-.77-1.07-.56a3.82,3.82,0,0,1-.82.19,1.11,1.11,0,0,0-1,.93c-.57,2.13-1.17,4.24-1.78,6.36-.18.62-.09.94.68.89C92.53,12.73,93.47,12.78,94.4,12.78Z"/><path class="cls-1" d="M76.74,20.92c-1.33,0-2.66,0-4,0-.61,0-.84-.2-.88-.83-.3-5.85-.63-11.7-1-17.55-.06-1.05,0-1.05,1-1.06a44.55,44.55,0,0,1,9.39.57,2.27,2.27,0,0,1,1.27.7c1,1.28,1.89,2.61,2.74,4a2.19,2.19,0,0,1,.22,1.38,53.79,53.79,0,0,1-3.91,12.36,1,1,0,0,1-.78.43C79.52,20.95,78.13,20.92,76.74,20.92ZM74.92,11.1h-.31c0,2,0,4,0,6,0,.68.15,1,.9.89,1.3-.27,2.6-.51,3.88-.84a1.33,1.33,0,0,0,.78-.76,31.74,31.74,0,0,0,1.62-8,2.31,2.31,0,0,0-.7-1.82c-1.45-1.56-3.36-2-5.36-2.23-.61-.07-.82.07-.81.69C74.94,7,74.92,9.07,74.92,11.1Z"/><path class="cls-1" d="M68.94,1.35a22.49,22.49,0,0,1-.73,2.19c-.08.19-.49.3-.76.34q-2.89.44-5.79.83a1.14,1.14,0,0,0-1.1,1.07c-.16.95-.37,1.89-.62,2.82s.13,1,.9,1c2,0,4,0,6,0,1,0,.93,0,.72.92a1.81,1.81,0,0,1-2,1.65,48,48,0,0,0-5.26.89.76.76,0,0,0-.7,1c0,.17,0,.34,0,.51.22,2.36.24,2.53,2.59,3.06a44.48,44.48,0,0,0,5.54.73c.63.06.87.14.63.83-.71,2-.31,1.67-2.17,1.66-2.37,0-4.74-.22-7.11-.35a1.49,1.49,0,0,1-1.43-1.09A29.09,29.09,0,0,1,56.15,7.3c.07-1.47.33-2.92.49-4.39a1.12,1.12,0,0,1,1-1.09,26.23,26.23,0,0,1,7.75-.72C66.51,1.15,67.66,1.26,68.94,1.35Z"/><path class="cls-1" d="M43.32,1.36a18.86,18.86,0,0,1-.68,2.08,1.11,1.11,0,0,1-.76.47c-1.93.3-3.86.56-5.79.82a1.21,1.21,0,0,0-1.17,1.12c-.16.95-.36,1.89-.59,2.82-.18.73,0,1,.8,1,2.21-.06,4.42,0,6.63,0a4.05,4.05,0,0,1,.49.07,19.31,19.31,0,0,1-.68,1.95,1.05,1.05,0,0,1-.71.4c-2,.35-4,.66-5.94,1-.63.1-.9.38-.84,1.08.23,2.94,0,2.84,3,3.64a30.19,30.19,0,0,0,5.21.64c.62.05.79.17.6.8-.49,1.66-.47,1.74-2.21,1.69-2.37-.06-4.74-.24-7.11-.36a1.42,1.42,0,0,1-1.37-1,23.3,23.3,0,0,1-1.62-8.8c0-2.62.35-5.24.53-7.86a.94.94,0,0,1,.82-.93,24.87,24.87,0,0,1,7.4-.78C40.58,1.14,41.87,1.26,43.32,1.36Z"/><path class="cls-1" d="M45.34,11.15c-.09-2.94-.17-5.89-.29-8.83,0-.65.18-.82.8-.82,2.27,0,2.15,0,2.93,2.13s.58,4.45.36,6.7c-.21,2-.37,4.06-.6,6.08-.09.75.12,1,.91,1.11,1.66.13,3.32.41,5,.57a1.15,1.15,0,0,1,1.17,1c.53,1.88.57,1.87-1.43,1.87-2.52,0-5,0-7.56,0-.65,0-1-.12-1-.87-.06-3-.2-5.94-.31-8.91Z"/></g></g></svg>
