<?xml version="1.0" encoding="utf-8"?>
<!-- Generator: Adobe Illustrator 19.1.0, SVG Export Plug-In . SVG Version: 6.00 Build 0)  -->
<svg version="1.1" id="Capa_1" xmlns="http://www.w3.org/2000/svg" xmlns:xlink="http://www.w3.org/1999/xlink" x="0px" y="0px"
	 viewBox="0 0 394.5 410.5" style="enable-background:new 0 0 394.5 410.5;" xml:space="preserve">
<style type="text/css">
	.st0{fill:#1E3C26;}
	.st1{fill:#FFFFFF;}
</style>
<g>
	<g>
		<g>
			<path class="st1" d="M41.5,185c-0.7,6.4-2.7,11.3-5.9,14.7c-3.2,3.4-7.2,5.1-11.9,5.1c-4.6,0-8.4-1.8-11.4-5.3
				c-3-3.5-4.5-7.9-4.5-13.2c0-10.5,4.3-19.7,13-27.5c8.7-7.9,19.6-11.8,32.8-11.8c14.1,0,25.6,4.6,34.4,13.7
				c8.8,9.1,13.2,21,13.2,35.6c0,14.4-4.1,26.5-12.4,36.5s-17.5,15-27.8,15c-3.5,0-7.5-1.4-12-4.2c-4.5-2.9-8.4-4.3-11.6-4.3
				c-4.3,0-8.3,2.8-12.2,8.5l-1.8-1.1c1.9-4.9,6-9.5,12.1-13.8c6.2-4.4,10.3-8.3,12.3-11.8c2.1-3.5,3.1-8.2,3.1-14
				c0-2.9-0.3-6.9-0.8-11.9c-0.5-5-0.8-8.6-0.8-10.9c0-6.2,1.2-11.2,3.5-15.1c2.4-3.9,6.1-6.9,11.3-9.2l1,1.7c-5.4,3.8-8,9.1-8,15.8
				c0,2.2,0.4,6.1,1.3,11.8c0.9,5.6,1.4,10,1.4,13.1c0,6.3-1.6,11.8-4.8,16.6c-3.2,4.8-8.8,9.7-16.8,14.8l3.7-0.1
				c5.7,0,10.7,1.3,14.9,4c4.3,2.6,8.4,3.9,12.2,3.9c6.4,0,12.1-3.7,17.2-11.2c5.1-7.5,7.7-16.7,7.7-27.6c0-14.4-4.5-26.4-13.5-36.2
				c-9-9.8-20-14.6-32.9-14.6c-10,0-18.2,2.9-24.8,8.7c-6.6,5.8-9.8,12.9-9.8,21.2c0,4.6,1.2,8.3,3.8,11.1c2.5,2.9,5.7,4.3,9.5,4.3
				c6.5,0,10.9-4.2,13.3-12.8L41.5,185z"/>
			<path class="st1" d="M164,234.3c-6.1,8.9-12,13.4-17.7,13.4c-1.7,0-3-0.6-3.9-1.9c-0.9-1.2-1.3-3.9-1.3-8v-16.4
				c0-2.9-1.1-4.3-3.4-4.3c-1.8,0-3.6,0.9-5.6,2.6s-3.8,4.1-5.4,7.1c-1.6,3-2.4,4.9-2.4,5.9v11.5l-7.6,4.8v-26.4
				c-2.6,5.1-5.4,9.5-8.3,13.2l-2.3-1.9c1.2-1.9,2.4-3.6,3.5-5.3c1.1-1.7,2.5-4.4,4.4-8c1.9-3.7,2.8-5.9,2.8-6.6v-32.4
				c0-7.1,1.8-12.9,5.3-17.5c3.5-4.5,7.6-6.8,12.3-6.8c5.6,0,8.4,3.4,8.4,10.3c0,9-6.1,23.2-18.4,42.8v14.1c3.6-4.7,6.7-8.1,9.2-9.9
				s5.3-2.8,8.1-2.8c4.6,0,6.9,3.3,6.9,9.8v15.1c0,3.8,0.7,5.7,2.2,5.7c2.6,0,6.2-3.3,10.9-9.8L164,234.3z M124.4,203.8
				c5-8.9,8.4-16,10.3-21.2c1.9-5.2,2.8-10,2.8-14.3c0-2.5-0.5-4.6-1.5-6.2c-1-1.6-2.3-2.4-3.9-2.4c-2.4,0-4.3,1.6-5.7,4.7
				c-1.4,3.1-2.1,7.4-2.1,12.9V203.8z"/>
			<path class="st1" d="M216.8,234.3c-5.7,8.9-11.3,13.4-16.7,13.4c-2.1,0-3.5-0.6-4.4-1.7c-0.9-1.1-1.4-3.4-1.4-6.9
				c-3,3.7-5.5,6.1-7.6,7.2c-2.1,1.1-4.4,1.7-7.1,1.7c-3.9,0-6.9-1.3-9.2-4c-2.3-2.7-3.4-6.2-3.4-10.7v-3.2
				c-0.6,0.7-1.8,2.5-3.8,5.4l-2.5-1.7c4.4-6.8,9-12.1,13.9-16c4.9-3.9,9.1-5.8,12.8-5.8c2.6,0,5.2,0.8,7.7,2.3l6.6-3.4v25.5
				c0,2.7,0.1,4.3,0.4,4.9c0.2,0.6,0.9,0.8,2,0.8c0.9,0,2.4-0.9,4.3-2.6c1.9-1.7,4-4.1,6.2-7.3L216.8,234.3z M194.1,233.4v-15.1
				c-2-2.1-4.4-3.1-7.2-3.1c-3,0-5.7,1.4-8.1,4.2c-2.4,2.8-3.6,6.3-3.6,10.4c0,3.6,0.9,6.4,2.6,8.4c1.7,2,4,3,7,3
				c2.3,0,4.5-1.1,6.4-3.4C193.1,235.6,194.1,234.1,194.1,233.4z"/>
			<path class="st1" d="M253.6,234.3c-5.7,8.9-11.3,13.4-17,13.4c-5.9,0-8.8-3.3-8.8-10c0-5.4,2.6-11.3,7.7-17.6
				c-0.9,0.2-2.5,0.3-4.8,0.3c-1.5,0-3.1-0.3-4.7-0.9c-2.6,5.6-5.9,11-10.1,16.3l-2.3-1.9c4.7-6.8,8.8-14.5,12.3-23.2
				c4.8,2.3,8.6,3.4,11.3,3.4c2.6,0,4.9-1,6.8-3.1l1.3,0.9c-3.1,3.8-5.5,7.6-7.4,11.5c-1.9,3.9-2.8,8.1-2.8,12.8
				c0,1.5,0.5,2.8,1.4,4.1c1,1.3,2,1.9,3.2,1.9c1.9,0,3.7-0.8,5.5-2.3c1.8-1.5,3.8-4,6.3-7.4L253.6,234.3z"/>
			<path class="st1" d="M306.7,234.3c-5.7,8.9-11.3,13.4-16.7,13.4c-2.1,0-3.5-0.6-4.4-1.7c-0.9-1.1-1.4-3.4-1.4-6.9
				c-3,3.7-5.5,6.1-7.6,7.2c-2.1,1.1-4.4,1.7-7.1,1.7c-3.9,0-6.9-1.3-9.2-4c-2.3-2.7-3.4-6.2-3.4-10.7v-3.2
				c-0.5,0.7-1.8,2.5-3.8,5.4l-2.5-1.7c4.4-6.8,9-12.1,13.9-16c4.9-3.9,9.1-5.8,12.8-5.8c2.6,0,5.2,0.8,7.7,2.3l6.6-3.4v25.5
				c0,2.7,0.1,4.3,0.4,4.9c0.2,0.6,0.9,0.8,2,0.8c0.9,0,2.4-0.9,4.3-2.6s4-4.1,6.2-7.3L306.7,234.3z M283.9,233.4v-15.1
				c-2-2.1-4.4-3.1-7.2-3.1c-3,0-5.7,1.4-8.1,4.2c-2.4,2.8-3.6,6.3-3.6,10.4c0,3.6,0.9,6.4,2.6,8.4c1.7,2,4,3,7,3
				c2.3,0,4.5-1.1,6.4-3.4C282.9,235.6,283.9,234.1,283.9,233.4z"/>
			<path class="st1" d="M357.9,234.3c-6.1,8.9-11.8,13.4-17.3,13.4c-1.8,0-3.2-0.6-4.1-1.8c-1-1.2-1.4-3.9-1.4-8.1v-17.2
				c0-2.7-0.8-4-2.5-4c-0.8,0-1.6,0.3-2.5,0.9c-0.9,0.6-1.8,1.5-2.8,2.7s-2.4,3.1-4.2,5.9c-1.8,2.7-2.7,4.2-2.7,4.5v13.5l-7.5,4.8
				v-25.2c-1.6,4-3.9,8-7.1,12l-2.3-1.9c5.1-7.1,8.2-13.5,9.5-19.2l7.4-3.5v14c3.7-5.3,6.6-8.9,8.9-10.7c2.3-1.8,4.5-2.7,6.8-2.7
				c2.1,0,3.7,0.7,4.9,2.3c1.2,1.5,1.7,5.2,1.7,11.1v10.1c0,2.7,0.1,4.6,0.3,5.6c0.2,1,0.8,1.5,1.8,1.5c2.4,0,6.1-3.3,10.9-9.8
				L357.9,234.3z"/>
			<path class="st1" d="M386.7,234.3c-2.9,4.3-5.8,7.6-8.8,9.9c-3,2.3-5.7,3.5-8.1,3.5c-2.7,0-4.4-0.7-5.1-2.2
				c-0.7-1.4-1.1-4-1.1-7.7v-13.7c-1.6,4-3.8,7.8-6.8,11.6l-2.3-1.9c4.7-6.5,7.7-12.7,9.1-18.8l7.5-4v23.8c0,2.9,0.1,4.9,0.4,5.9
				c0.3,0.9,1,1.4,2.1,1.4c2.3,0,5.9-3.3,10.9-9.8L386.7,234.3z M373.8,196.5l-5.3,6.7l-5.3-6.7l5.3-6.5L373.8,196.5z"/>
		</g>
		<g>
			<g>
				<path class="st1" d="M184.5,160.3c0,0-0.1,0-0.1,0c-0.1-0.2-0.3-0.5-0.4-0.7c-4.1-7-8.3-13.9-12.5-20.9c-0.2-0.4-0.2-0.7,0-1.1
					c5.3-9.3,10.6-18.6,15.9-27.9c3.9-6.8,7.8-13.7,11.7-20.5c0.1-0.1,0.2-0.3,0.2-0.5c0,0-0.1-0.1-0.1-0.1
					c-14.3,8.5-28.6,16.9-43,25.4c4.5,7.6,9.1,15.1,13.6,22.6c-11.5-3.7-22.6-8-33.6-13c0-0.2,0-0.4,0-0.5c0.2-2.7,0.4-5.3,0.7-8
					c0.3-3.2,0.7-6.3,1.2-9.4c0.7-5.2,1.7-10.4,2.7-15.5c0-0.2,0.1-0.4,0.2-0.6c4.3,7.2,8.5,14.3,12.7,21.5c0.1,0,0.2,0,0.2-0.1
					c14.2-8.4,28.5-16.9,42.7-25.3c0,0,0,0,0-0.1c0,0,0,0,0-0.1c-0.2,0-0.4,0-0.6,0c-0.7,0-1.4,0.1-2.1,0.1c-2.4,0-4.7,0.1-7.1,0.1
					c-2.5,0-4.9,0.1-7.4,0.1c-2.3,0-4.7,0.1-7,0.1c-2.5,0-5,0.1-7.5,0.1c-2.3,0-4.7,0.1-7,0.1c-2.6,0-5.2,0.1-7.8,0.1
					c-2.2,0-4.4,0.1-6.6,0.1c-1.1,0-2.2,0-3.3,0c-0.1-0.2-0.3-0.4-0.4-0.7c-4-6.8-8.1-13.6-12.1-20.3c-0.1-0.2-0.3-0.4-0.4-0.6
					c0,0,0-0.1,0-0.1c0.2-0.1,0.4-0.2,0.6-0.3c7-4.2,14-8.3,21-12.5c0.4-0.2,0.7-0.3,1.1,0c9.9,5.6,19.7,11.2,29.6,16.8
					c6.2,3.5,12.4,7,18.6,10.5c0.2,0.1,0.3,0.2,0.6,0.3c-0.8-1.7-25.3-42.6-25.6-42.9c-7.2,4.3-14.4,8.6-21.6,12.9
					c0,0-0.1-0.1-0.1-0.1c3.7-11.3,7.9-22.3,12.7-33.2c2.3-0.2,32.8,4.6,34.3,5.4c-7.2,4.2-14.3,8.4-21.5,12.6
					c8.5,14.3,17,28.5,25.5,42.8c0,0,0.1,0,0.1,0c0-0.2,0-0.3,0-0.5c0-0.8,0-1.5,0-2.3c-0.1-4.8-0.2-9.6-0.2-14.4
					c-0.1-4.8-0.2-9.5-0.2-14.3c-0.1-4.8-0.2-9.5-0.2-14.3c-0.1-3.3-0.1-6.6-0.2-9.9c0-0.5,0.1-0.8,0.6-1.1
					c6.8-4,13.6-8.1,20.3-12.1c0.2-0.1,0.3-0.3,0.5-0.4c0.1,0,0.2,0,0.2,0c0.1,0.2,0.1,0.4,0.2,0.5c3.5,6,7.1,12,10.6,17.9
					c0.6,1,1.2,2.1,1.9,3.2c-9.3,16.3-18.6,32.6-27.9,49c0,0,0.1,0.1,0.1,0.1c14.3-8.5,28.6-16.9,43-25.4
					c-4.3-7.2-8.6-14.3-12.9-21.5c0.3,0.1,0.5,0.1,0.6,0.2c4.6,1.5,9.2,3.1,13.7,4.9c6,2.4,11.9,5.1,17.6,8.4
					c0.4,0.2,0.5,0.5,0.5,0.9c-0.3,2.8-0.5,5.6-0.8,8.4c-0.4,3.2-0.8,6.5-1.3,9.7c-0.7,4.5-1.5,9-2.2,13.4c0,0.1-0.1,0.2-0.2,0.4
					c-4-6.8-8-13.6-12-20.3c-14.2,8.4-28.4,16.8-42.5,25.2c-0.1,0.1-0.2,0.2-0.3,0.2c0,0,0,0,0,0c0,0,0,0,0,0.1c0.2,0,0.4,0,0.6,0
					c1.9,0,3.8-0.1,5.8-0.1c2.4,0,4.8-0.1,7.2-0.1c2.4,0,4.8-0.1,7.3-0.1c2.4,0,4.8-0.1,7.1-0.1c2.4,0,4.8-0.1,7.3-0.1
					c2.4,0,4.8-0.1,7.1-0.1c3,0,6.1-0.1,9.1-0.1c1.3,0,2.6,0,3.9-0.1c0.4,0,0.6,0.1,0.9,0.5c2.2,3.7,4.4,7.4,6.6,11.1
					c1.9,3.3,3.9,6.5,5.8,9.8c0,0,0,0.1,0,0.1c-0.2,0.1-0.4,0.2-0.6,0.4c-6.8,4.1-13.7,8.1-20.5,12.2c-0.2,0.1-0.3,0.2-0.5,0.3
					c-16.3-9.2-32.6-18.4-48.9-27.6c0,0,0,0-0.1,0c0,0,0,0-0.1,0.1c8.5,14.2,17,28.5,25.5,42.8c7.1-4.2,14.2-8.5,21.2-12.7
					c0,0,0.1,0.1,0.1,0.1c-3.5,11.1-7.6,22-12.6,32.7c-1.9-0.1-3.8-0.2-5.7-0.4c-1.5-0.1-3-0.3-4.5-0.4c-1.2-0.1-2.4-0.3-3.7-0.4
					c-1.7-0.2-3.4-0.4-5-0.7c-2-0.3-4-0.6-5.9-0.9c-2.6-0.4-5.2-0.9-7.9-1.4c-0.6-0.1-1.2-0.2-1.7-0.3c0,0,0-0.1,0-0.1
					c7.2-4.2,14.5-8.5,21.7-12.7c0-0.1-0.1-0.2-0.1-0.3c-8.5-14.2-16.9-28.3-25.4-42.5c0,0,0,0,0,0c0,0,0,0-0.1,0c0,0.8,0,1.6,0,2.4
					c0.1,3.3,0.1,6.7,0.2,10c0.1,5.3,0.2,10.5,0.3,15.8c0.1,3.1,0.1,6.1,0.1,9.2c0.1,4.7,0.2,9.5,0.2,14.2c0,1.3,0,2.5,0.1,3.8
					c0,0.3-0.1,0.5-0.4,0.7c-0.1,0-0.2,0.1-0.3,0.2c-6.9,4.1-13.7,8.2-20.6,12.2C184.8,160,184.6,160.2,184.5,160.3z M201.6,141.5
					c0-2.9,0-5.7,0-8.5c0-2.8,0-5.5,0.1-8.3c0-2.8,0-5.6,0.1-8.4c0-2.8,0-5.6,0-8.4c0-2.8,0-5.5,0.1-8.3c0.1-3.3,0-7.9-0.1-8.3
					c-0.8,1.3-23.8,44.1-23.9,44.6C185.7,137.8,193.5,139.6,201.6,141.5z M194.9,82c0,0,0-0.1,0-0.1c-14.5-8-28.9-15.9-43.4-23.9
					c-0.7,2.7-1.4,5.3-2,7.9c-0.7,2.6-1.3,5.2-2,7.9c-0.7,2.6-1.4,5.2-2,7.9c0.3,0,0.6,0,0.8,0c3.4,0,6.7,0.1,10.1,0.1
					c4.6,0,9.2,0.1,13.8,0.1c4.1,0,8.2,0.1,12.4,0.1c4,0,8,0,11.9,0.1C194.6,82,194.7,82,194.9,82z M212.3,86.1c0,0,0,0.1,0,0.1
					c14.3,8,28.5,15.9,42.9,23.9c2-7.9,4-15.8,6-23.7C244.9,86.4,228.6,86.3,212.3,86.1z M206.3,26.4c-0.1,11.7-0.2,23.4-0.3,35
					c0,4.5-0.1,9-0.1,13.6c0,0,0,0,0,0c0,0,0,0,0.1,0c8-14.2,16-28.4,24-42.7C222.1,30.4,214.2,28.4,206.3,26.4z"/>
				<path class="st1" d="M200.8,70.9c-7.2-12.1-14.4-24.1-21.6-36.2c7-4.1,13.9-8.1,20.9-12.3c0.3,16.2,0.5,32.3,0.8,48.4
					C200.9,70.9,200.9,70.9,200.8,70.9z"/>
				<path class="st1" d="M172.8,38.7c7.2,12.1,14.4,24.2,21.6,36.2c0,0-0.1,0.1-0.1,0.1c-14.1-7.9-28.1-15.9-42.3-23.9
					C158.9,47,165.8,42.9,172.8,38.7z"/>
				<path class="st1" d="M236.6,31.7c4.2,7,8.3,13.8,12.5,20.7c-12.1,7.2-24.3,14.3-36.4,21.5c0,0-0.1-0.1-0.1-0.1
					C220.6,59.8,228.6,45.8,236.6,31.7z"/>
				<path class="st1" d="M253.7,59.5c4.1,7,8.2,13.8,12.3,20.8c-0.2,0-0.4,0-0.5,0c-1.8,0-3.7,0-5.5,0.1c-2.5,0-5,0.1-7.5,0.1
					c-2.3,0-4.6,0.1-7,0.1c-2.5,0-5,0.1-7.5,0.1c-2.3,0-4.6,0.1-6.9,0.1c-2.5,0-5,0.1-7.5,0.1c-2,0-3.9,0.1-5.9,0.1
					c-0.1,0-0.2,0-0.4,0c0,0,0-0.1,0-0.1c0,0,0,0,0,0C229.4,73.9,241.5,66.7,253.7,59.5z"/>
				<path class="st1" d="M154.3,108.8c-4.1-6.9-8.1-13.8-12.3-20.8c0.9,0,1.6,0,2.4,0c2.6,0,5.1-0.1,7.7-0.1c2.4,0,4.8-0.1,7.1-0.1
					c2.4,0,4.8-0.1,7.3-0.1c2.4,0,4.8-0.1,7.2-0.1c2.4,0,4.8-0.1,7.2-0.1c2.4,0,4.8-0.1,7.3-0.1c0.7,0,1.4,0,2.1-0.1
					c0.1,0,0.3,0,0.4,0C190.4,87.6,155.1,108.5,154.3,108.8z"/>
				<path class="st1" d="M171,135.3c-4.2-6.9-8.3-13.8-12.4-20.7c12.1-7.2,24.3-14.3,36.4-21.5c0,0,0.1,0.1,0.1,0.1c0,0,0,0,0,0.1
					c-7.9,13.9-15.8,27.8-23.8,41.7C171.1,135,171.1,135.1,171,135.3z"/>
				<path class="st1" d="M228.8,133.7c-7,4.1-13.9,8.1-20.9,12.3c-0.3-16.2-0.5-32.3-0.8-48.4c0,0,0.1,0,0.1,0
					C214.4,109.5,221.5,121.6,228.8,133.7z"/>
				<path class="st1" d="M256.1,117c-6.9,4.1-13.8,8.2-20.6,12.3c-0.1,0-0.1,0-0.1,0c0,0,0,0-0.1,0c-0.1-0.1-0.1-0.2-0.2-0.3
					c-7.1-11.9-14.2-23.9-21.3-35.8c0,0,0-0.1,0.1-0.1c0,0,0,0,0.1,0c14,7.9,28,15.8,42,23.7C256,116.8,256,116.9,256.1,117z"/>
			</g>
		</g>
	</g>
	<g>
		<path class="st1" d="M139.1,402.8c0-0.2,0.1-0.3,0.1-0.5c0.4-1.6,0.9-3.2,1.3-4.7c0.2-0.6,0-0.9-0.7-1.1c-0.7-0.2-1.5-0.3-2.2-0.4
			c-0.2,0-0.4-0.1-0.5-0.1c-0.2-0.1-0.4-0.2-0.4-0.3c0-0.1,0.1-0.3,0.3-0.4c0.3-0.2,0.6-0.5,1-0.7c1.1-0.8,2.2-1.5,3.3-2.3
			c0.8-0.5,1.3-1.2,1.6-2.2c0.4-1.6,0.9-3.1,1.4-4.7c0.1-0.3,0.2-0.5,0.2-0.8c0.1-0.2,0.2-0.4,0.4-0.4c0.2,0,0.3,0.2,0.3,0.4
			c0.4,1.2,0.9,2.4,1.3,3.5c0.3,0.7,0.7,0.7,1.1,0.5c0.4-0.2,0.9-0.5,1.2-0.8c1.3-1.1,2.7-2.1,4-3.2c2.8-2.2,5.7-4.3,8.6-6.3
			c3.6-2.4,7.3-4.7,11-6.9c2.4-1.4,4.7-2.8,7.2-4c2.1-1,4.1-2,6.3-2.9c3.5-1.6,7.2-2.9,10.8-4.2c4.1-1.4,8.2-2.6,12.4-3.5
			c0.4-0.1,0.8-0.2,1.2-0.2c0.3,0,0.6-0.1,0.8,0.1c-0.1,0.3-0.3,0.3-0.5,0.4c-0.7,0.2-1.5,0.4-2.2,0.6c-3.6,1-7.1,2.1-10.6,3.4
			c-4.2,1.5-8.4,3.2-12.4,5.1c-4.3,2-8.4,4.3-12.3,6.9c-2.7,1.8-5.4,3.6-8,5.4c-2.7,1.9-5.4,3.9-7.9,6.1c-1.3,1.1-2.6,2.3-3.9,3.5
			c-1.4,1.3-2.8,2.6-4.2,3.9c-0.7,0.7-0.9,1.5-0.6,2.4c0.4,1,0.7,2,1.1,3c0.1,0.2,0.1,0.3,0.2,0.5c0,0.3-0.1,0.5-0.4,0.5
			c-0.2,0-0.5,0-0.7-0.1c-1.1-0.2-2.2-0.4-3.3-0.6c-0.6-0.1-1,0-1.4,0.4c-0.7,0.8-1.5,1.5-2.2,2.3c-0.7,0.7-1.4,1.5-2.1,2.2
			C139.6,402.7,139.5,402.9,139.1,402.8z"/>
		<path class="st1" d="M174,383.5c0.3,0.1,0.4,0.3,0.4,0.5c0.3,1.1,0.5,2.1,0.8,3.2c0.1,0.3,0.2,0.7,0.5,0.9
			c0.3,0.2,0.6,0.3,0.9,0.3c0.9,0,1.8,0,2.7,0c0.4,0,0.8,0.1,1.2,0.1c0.2,0,0.3,0.1,0.5,0.2c-0.1,0.3-0.3,0.4-0.5,0.5
			c-1,0.7-2.1,1.3-3.1,2c-0.8,0.5-1,1.1-0.8,2c0.3,1.2,0.5,2.5,0.8,3.7c0,0.1,0.1,0.2,0,0.3c0,0.1-0.1,0.3-0.1,0.3
			c-0.1,0-0.3,0-0.4-0.1c-0.4-0.3-0.8-0.7-1.2-1c-0.6-0.5-1.1-1-1.7-1.4c-0.6-0.5-1.2-0.5-1.8,0c-1.1,0.9-2.3,1.8-3.4,2.7
			c-0.2,0.2-0.4,0.4-0.7,0.4c-0.1-0.2,0-0.4,0.1-0.6c0.5-1.3,1-2.6,1.5-3.8c0.1-0.2,0.1-0.3,0.2-0.5c0.2-0.6,0-1.2-0.5-1.5
			c-1-0.6-1.9-1.2-2.9-1.8c-0.2-0.1-0.3-0.2-0.5-0.4c0.1-0.3,0.4-0.3,0.6-0.4c1.3-0.1,2.6-0.3,4-0.4c0.8-0.1,1.4-0.5,1.7-1.2
			c0.5-1.2,1-2.4,1.5-3.6C173.8,383.8,173.9,383.6,174,383.5z"/>
		<path class="st1" d="M148.2,373.8c0.1-0.1,0.2-0.3,0.3-0.4c0.8-1.1,1.6-2.1,2.5-3.2c0,0,0.1-0.1,0.1-0.1c0.4-0.6,0.3-1-0.3-1.4
			c-0.8-0.5-1.6-0.9-2.5-1.3c-0.3-0.2-0.7-0.3-1-0.5c0.1-0.3,0.4-0.3,0.6-0.3c1.5-0.1,3-0.2,4.5-0.3c0.5,0,1,0,1.4-0.3
			c0.3-0.2,0.6-0.4,0.8-0.7c0.7-1,1.4-2,2.2-3c0-0.1,0.1-0.1,0.1-0.2c0.3-0.3,0.5-0.2,0.6,0.2c0.1,0.7,0.2,1.3,0.3,2
			c0.1,0.4,0.1,0.8,0.2,1.2c0.1,0.6,0.4,0.9,0.9,1c0.5,0.1,0.9,0.1,1.4,0.2c1,0.1,1.9,0.3,2.9,0.4c0.2,0,0.4,0.1,0.5,0.2
			c0,0.3-0.2,0.3-0.4,0.4c-0.6,0.2-1.2,0.4-1.8,0.7c-0.7,0.3-1.4,0.5-2.1,0.8c-0.8,0.3-1.1,0.8-1,1.6c0,0.9,0.1,1.9,0.1,2.8
			c0,0.3,0.1,0.6-0.2,0.7c-0.3,0.1-0.4-0.2-0.6-0.3c-0.8-0.7-1.5-1.3-2.2-2c-0.6-0.5-1.3-0.5-2-0.3c-0.6,0.2-1.2,0.5-1.8,0.8
			c-0.9,0.4-1.8,0.9-2.7,1.3c-0.2,0.1-0.4,0.1-0.6,0.2C148.2,373.9,148.2,373.8,148.2,373.8z"/>
		<path class="st1" d="M171.9,355.2c-0.3,0.1-0.5,0-0.7-0.1c-1.2-0.6-2.4-1.2-3.6-1.8c-0.7-0.4-1.5-0.3-2.2,0.1
			c-1.2,0.8-2.5,1.5-3.7,2.3c-0.2,0.1-0.4,0.3-0.7,0.2c0-0.2,0-0.3,0.1-0.5c0.4-0.9,0.8-1.9,1.2-2.8c0.4-0.9,0.2-1.3-0.7-1.6
			c-1.3-0.4-2.6-0.7-3.9-1c-0.2,0-0.4-0.1-0.6-0.2c0.1-0.3,0.4-0.3,0.6-0.4c1.6-0.3,3.3-0.6,4.9-0.9c0.3,0,0.5-0.1,0.8-0.2
			c0.5-0.2,0.7-0.5,0.9-1c0.3-0.9,0.6-1.8,0.9-2.7c0.1-0.2,0.1-0.5,0.4-0.5c0.3,0,0.4,0.2,0.5,0.5c0.5,0.9,1,1.7,1.5,2.6
			c0.4,0.7,1,1,1.8,0.9c1-0.1,2-0.2,2.9-0.2c0.6,0,1.3-0.1,1.9-0.1c0.2,0.3-0.1,0.4-0.2,0.5c-0.6,0.4-1.2,0.8-1.9,1.3
			c-0.5,0.3-1,0.6-1.5,0.9c-0.5,0.4-0.7,0.8-0.4,1.4c0.5,0.9,0.9,1.8,1.4,2.6C171.7,354.7,171.7,354.9,171.9,355.2z"/>
		<path class="st1" d="M175.4,335.8c0.3,0,0.4,0,0.6,0c1.2,0.1,2.4,0.2,3.6,0.3c0.3,0,0.7,0.1,1,0.1c0.2,0,0.5,0,0.7-0.1
			c0.3-0.1,0.4-0.3,0.5-0.6c0.2-0.9,0.4-1.7,0.6-2.6c0-0.1,0-0.2,0.1-0.2c0.1-0.2,0.1-0.4,0.3-0.4c0.1,0,0.3,0.2,0.4,0.3
			c0.5,0.8,1,1.7,1.4,2.5c0.1,0.3,0.3,0.5,0.4,0.8c0.4,0.7,0.9,1.1,1.7,1.3c1.4,0.3,2.8,0.7,4.2,1c0.2,0,0.3,0.1,0.5,0.2
			c0.1,0,0.2,0.1,0.2,0.2c0,0.1-0.1,0.2-0.2,0.2c-0.3,0.1-0.6,0.2-0.8,0.3c-0.8,0.3-1.5,0.5-2.3,0.8c-0.6,0.2-0.7,0.7-0.5,1.3
			c0.6,1.2,1.1,2.4,1.6,3.6c0.1,0.1,0.1,0.3,0.1,0.4c-0.3,0.1-0.4-0.1-0.6-0.2c-0.7-0.5-1.3-1.1-2-1.6c-0.5-0.4-1.1-0.8-1.6-1.2
			c-0.7-0.4-1.4-0.5-2.1-0.2c-0.9,0.4-1.8,0.9-2.7,1.3c-0.2,0.1-0.5,0.3-0.7,0.1c-0.3-0.2-0.1-0.5,0-0.7c0.2-0.8,0.4-1.6,0.7-2.4
			c0.2-0.8,0.1-1.2-0.6-1.6c-0.7-0.5-1.4-0.9-2.2-1.3c-0.6-0.4-1.3-0.7-2-1.1C175.7,336.2,175.5,336.1,175.4,335.8z"/>
		<path class="st1" d="M215,378.8c0.4,0.1,0.4,0.4,0.5,0.6c0.4,1.1,0.9,2.2,1.3,3.3c0.3,0.8,0.9,1.4,1.7,1.6c1,0.3,2,0.5,2.9,0.7
			c0.3,0.1,0.7,0.1,1,0.2c0.2,0,0.3,0.1,0.5,0.2c-0.1,0.3-0.3,0.3-0.5,0.4c-1,0.4-1.9,0.8-2.9,1.1c-0.6,0.2-0.7,0.6-0.5,1.2
			c0.5,1.1,1.1,2.2,1.6,3.3c0.1,0.2,0.1,0.3,0.2,0.5c-0.3,0.1-0.5,0-0.6-0.1c-1-0.8-2.1-1.6-3.1-2.4c-0.2-0.2-0.5-0.4-0.7-0.6
			c-0.5-0.4-1.1-0.6-1.7-0.3c-0.8,0.3-1.6,0.5-2.4,0.8c-0.1,0-0.1,0-0.2,0.1c-0.2,0.1-0.5,0.2-0.7,0c-0.2-0.2-0.1-0.4,0-0.6
			c0.1-0.4,0.2-0.8,0.4-1.2c0.1-0.4,0.3-0.9,0.4-1.3c0.1-0.4,0.1-0.8-0.1-1.1c-0.2-0.3-0.4-0.6-0.6-0.8c-1-1-2.1-2.1-3.1-3.1
			c-0.1-0.1-0.2-0.3-0.3-0.4c0,0,0.1-0.1,0.1-0.1c0.2,0.1,0.4,0.1,0.6,0.2c1.2,0.5,2.3,0.9,3.5,1.4c0.2,0.1,0.3,0.1,0.5,0.1
			c0.5,0.1,0.8-0.1,0.9-0.5c0.3-0.8,0.6-1.7,0.8-2.5C214.9,379.1,215,378.9,215,378.8z"/>
		<path class="st1" d="M196.3,384.7c0.1,0.2,0.2,0.4,0.3,0.5c0.4,1.1,0.7,2.1,1.1,3.2c0.2,0.8,0.7,1.3,1.5,1.5
			c1.1,0.4,2.2,0.7,3.4,1.1c0.2,0.1,0.5,0.1,0.7,0.4c-0.2,0.1-0.3,0.2-0.5,0.3c-0.8,0.3-1.6,0.5-2.4,0.8c-0.7,0.3-0.9,0.6-0.7,1.4
			c0.3,0.9,0.6,1.7,0.9,2.6c0.1,0.3,0.2,0.5,0.3,0.8c0.1,0.2,0.1,0.4,0.1,0.6c0,0-0.1,0-0.1,0.1c-0.2-0.1-0.3-0.2-0.5-0.4
			c-1-0.9-2-1.8-3-2.7c-0.2-0.2-0.4-0.3-0.6-0.4c-0.4-0.2-0.8-0.2-1.1,0c-0.9,0.4-1.8,0.8-2.6,1.2c-0.1,0-0.1,0.1-0.2,0.1
			c-0.2,0-0.3,0-0.5,0c0-0.2,0-0.3,0-0.5c0.3-0.9,0.6-1.8,1-2.7c0.4-0.8,0.2-1.5-0.4-2.1c-0.9-0.9-1.8-1.9-2.8-2.8
			c-0.1-0.1-0.3-0.3-0.4-0.5c0.1-0.2,0.3-0.2,0.4-0.1c1,0.3,2.1,0.6,3.1,1c0.2,0.1,0.5,0.2,0.7,0.2c0.5,0.1,1-0.1,1.2-0.6
			c0.3-0.8,0.6-1.7,0.9-2.5c0.1-0.1,0.1-0.3,0.2-0.4C196.2,384.7,196.3,384.7,196.3,384.7z"/>
		<path class="st1" d="M236,372.3c-0.1,0.1-0.3,0.3-0.4,0.4c-0.9,0.6-1.9,1.2-2.8,1.9c-0.6,0.4-0.7,0.8-0.4,1.4
			c0.4,0.8,0.8,1.5,1.2,2.3c0.1,0.1,0.1,0.3,0.2,0.4c-0.3,0.2-0.5,0-0.6,0c-0.9-0.5-1.9-1.1-2.8-1.7c-0.3-0.2-0.6-0.4-1-0.4
			c-0.3,0-0.6,0-0.9,0.1c-0.8,0.3-1.6,0.7-2.3,1c-0.1,0-0.2,0.1-0.3,0.1c-0.2,0-0.3,0-0.5,0c-0.1,0,0-0.3,0-0.4
			c0.2-0.7,0.5-1.4,0.7-2.1c0.3-0.8,0.1-1.2-0.5-1.7c-1-0.8-1.9-1.6-2.9-2.5c-0.1-0.1-0.1-0.2-0.3-0.4c0.3,0,0.5,0,0.6,0.1
			c1,0.2,1.9,0.4,2.9,0.6c0.2,0,0.3,0.1,0.5,0.1c0.6,0.1,1-0.1,1.2-0.8c0.3-0.9,0.6-1.8,0.9-2.7c0.1-0.2,0.2-0.3,0.2-0.5
			c0.3,0.1,0.4,0.4,0.4,0.6c0.4,1,0.7,1.9,1.1,2.9c0.2,0.7,0.7,1,1.4,1c1.2,0,2.4,0,3.6,0c0.2,0,0.4,0,0.6,0
			C236,372.2,236,372.2,236,372.3z"/>
		<path class="st1" d="M199.9,334.9c0.2,0,0.4,0,0.6,0.1c1.1,0.3,2.2,0.6,3.3,0.9c0.1,0,0.2,0.1,0.3,0.1c0.5,0.1,0.9-0.1,1-0.6
			c0.3-0.9,0.6-1.7,0.9-2.6c0.1-0.2,0.2-0.3,0.2-0.5c0.3,0.1,0.4,0.3,0.4,0.4c0.4,1.1,0.8,2.2,1.1,3.2c0.3,0.8,0.8,1.3,1.6,1.5
			c1,0.3,2,0.6,3.1,0.9c0.2,0.1,0.5,0.1,0.6,0.4c-0.2,0.1-0.3,0.2-0.5,0.3c-0.8,0.3-1.6,0.6-2.4,0.9c-0.7,0.3-0.9,0.6-0.7,1.3
			c0.3,1,0.6,2,0.9,3c0.1,0.2,0.1,0.4,0.1,0.6c-0.3,0-0.4-0.2-0.6-0.3c-0.9-0.9-1.7-1.7-2.6-2.6c-0.5-0.6-1.1-0.7-1.8-0.4
			c-0.7,0.2-1.4,0.4-2,0.7c-0.1,0-0.2,0.1-0.2,0.1c-0.4,0.1-0.6-0.1-0.4-0.5c0.3-0.7,0.5-1.5,0.8-2.2c0.3-0.7,0.1-1.2-0.5-1.7
			c-0.9-0.8-1.7-1.6-2.6-2.4C200.4,335.4,200.1,335.3,199.9,334.9z"/>
		<path class="st1" d="M246.6,352.1c-0.1,0.2-0.2,0.3-0.3,0.4c-1,1-1.9,2-2.9,3c-0.2,0.2-0.3,0.4-0.5,0.6c-0.2,0.3-0.2,0.6,0,1
			c0.3,0.7,0.6,1.5,0.9,2.2c0.1,0.2,0.3,0.4,0.1,0.6c-0.1,0.1-0.4,0.1-0.6,0c-0.8-0.2-1.5-0.4-2.3-0.7c-0.7-0.3-1.3-0.1-1.9,0.4
			c-0.9,0.8-1.8,1.6-2.7,2.4c-0.1,0.1-0.3,0.2-0.4,0.3c0,0-0.1,0-0.1-0.1c0-0.2,0-0.4,0.1-0.6c0.3-0.9,0.7-1.9,1-2.8
			c0-0.1,0.1-0.3,0.1-0.4c0.1-0.4-0.1-0.7-0.5-0.9c-0.7-0.4-1.5-0.8-2.2-1.2c-0.1,0-0.2-0.1-0.2-0.1c-0.1-0.1-0.2-0.2-0.3-0.3
			c0.1-0.1,0.3-0.2,0.4-0.2c0.3-0.1,0.7-0.1,1-0.2c0.7-0.1,1.4-0.3,2.1-0.4c0.7-0.2,1.2-0.6,1.4-1.3c0.4-1.1,0.8-2.2,1.1-3.3
			c0.1-0.2,0.2-0.3,0.3-0.6c0.1,0.2,0.2,0.4,0.3,0.5c0.2,0.8,0.5,1.6,0.7,2.3c0.3,0.9,0.6,1.1,1.5,0.7c1-0.4,2-0.8,3.1-1.2
			C246.1,352.2,246.3,352.1,246.6,352.1z"/>
		<path class="st1" d="M223.1,339.4c0.1,0,0.3,0,0.4,0c0.9,0,1.9,0,2.8,0c0.6,0,1.1-0.2,1.3-1c0.2-0.9,0.5-1.9,0.7-2.8
			c0.1-0.3,0.2-0.7,0.3-1c0.3,0,0.3,0.3,0.4,0.4c0.3,0.8,0.5,1.7,0.8,2.5c0.1,0.2,0.1,0.4,0.2,0.6c0.2,0.5,0.5,0.8,1.1,0.8
			c1,0,2-0.1,2.9-0.1c0.2,0,0.5,0,0.7,0c0,0.3-0.1,0.4-0.3,0.5c-0.5,0.4-1,0.7-1.4,1.1c-0.3,0.3-0.7,0.5-1,0.8
			c-0.5,0.4-0.6,0.8-0.4,1.4c0.3,0.9,0.6,1.7,1,2.6c0.1,0.2,0.2,0.4,0.1,0.7c-0.1,0-0.3-0.1-0.4-0.1c-0.7-0.4-1.5-0.8-2.2-1.2
			c-0.8-0.5-1.1-0.5-1.8,0.1c-0.6,0.5-1.3,1-1.9,1.6c-0.2,0.1-0.3,0.3-0.7,0.3c0-0.2,0-0.4,0.1-0.6c0.2-0.8,0.5-1.7,0.7-2.5
			c0.2-0.8,0.1-1.1-0.6-1.5c-0.8-0.6-1.6-1.2-2.3-1.9c-0.1-0.1-0.2-0.3-0.4-0.4C223.1,339.5,223.1,339.5,223.1,339.4z"/>
		<path class="st1" d="M247.4,343.2c0-0.1,0.1-0.3,0.1-0.4c0.4-0.9,0.7-1.8,1.1-2.7c0-0.1,0.1-0.2,0.1-0.3c0.2-0.6,0-0.9-0.5-1.1
			c-0.7-0.3-1.5-0.5-2.2-0.8c-0.1,0-0.3-0.1-0.4-0.2c0-0.3,0.2-0.3,0.3-0.4c0.8-0.2,1.6-0.5,2.4-0.7c0.3-0.1,0.7-0.2,1-0.3
			c0.6-0.2,1.1-0.6,1.3-1.2c0.3-0.9,0.7-1.8,1-2.6c0.1-0.3,0.1-0.6,0.6-0.8c0.1,0.2,0.1,0.3,0.2,0.5c0.2,0.7,0.4,1.4,0.7,2.1
			c0.2,0.5,0.4,0.6,0.9,0.5c0.2,0,0.4-0.1,0.5-0.1c0.9-0.3,1.9-0.6,2.8-0.9c0.2,0,0.3-0.1,0.5-0.1c0,0.2-0.1,0.3-0.2,0.4
			c-0.9,0.8-1.8,1.6-2.7,2.4c-0.2,0.2-0.3,0.4-0.4,0.6c-0.2,0.2-0.2,0.5,0,0.8c0.3,0.6,0.6,1.2,0.9,1.8c0.2,0.4,0.1,0.6-0.4,0.6
			c-0.8-0.1-1.6-0.2-2.4-0.3c-0.7-0.2-1.3,0-1.9,0.5c-0.9,0.8-1.8,1.7-2.7,2.5c-0.2,0.2-0.4,0.3-0.5,0.4
			C247.5,343.2,247.5,343.2,247.4,343.2z"/>
	</g>
	<g>
		<path class="st1" d="M31.3,294.6l-0.2-17.4c0-1.9,0-3.9,0.1-5.8l1.2-0.7c0.9,0.1,1.9,2.4,3,7.1c0.9,3.8,1.7,7.3,2.2,10.4
			s0.9,4.7,0.9,5c0.2-1,0.6-2.7,1.1-5.2c0.6-2.5,1-4.4,1.2-5.8c0.8-4,1.3-7.6,1.5-10.7v-0.3c0.1-0.4,0.2-0.7,0.5-0.9
			c0.3-0.2,0.6-0.4,1-0.4c0.3,0,0.6,0.1,0.8,0.4s0.3,0.5,0.3,0.8c0,3.6,0.1,8.9,0.4,16.1c0.3,7.1,0.4,12.5,0.4,16.1
			c0,0.7-0.2,1.3-0.6,1.9c-0.4,0.5-0.7,0.8-1.1,0.8c-0.7,0-1.1-0.6-1.1-1.8l-0.2-18.9V283c-0.2,1.2-0.7,3.2-1.4,6.1
			c-0.7,2.9-1.2,5.1-1.4,6.6v0.3c0,0.1-0.1,0.4-0.1,0.8c-0.1,0.4-0.1,0.8-0.2,1.1c-0.1,0.3-0.2,0.6-0.3,1c-0.3,0.7-0.7,1.1-1.4,1.1
			c-1.1,0-1.6-1.4-1.6-4.2c0-2.8-0.7-6.6-2-11.6c-0.7-2.5-1.1-4.2-1.3-5c-0.1,2.4-0.1,4.2-0.1,5.4l0.4,18.4c0,0.6-0.2,1.2-0.7,1.7
			c-0.8,0-1.3-0.2-1.6-0.7c-0.3-0.5-0.4-1.2-0.4-2L31.3,294.6z"/>
		<path class="st1" d="M50.3,282.1l-0.2-3.8c0-2.1,0.6-3.2,1.9-3.2c0.8,0,1.9,0.2,3.3,0.6s2.1,0.9,2.1,1.4c0,0.6-0.4,1.1-1.3,1.4
			c-1.4-0.5-2.5-0.8-3.4-0.9c0,0.6,0.1,1.3,0.1,1.9l-0.2,6.4c0,0,0,0.3,0.1,0.7l1.6-0.1c1.4,0,2.2,0.4,2.2,1.2
			c0,0.3-0.1,0.6-0.4,0.8s-0.6,0.4-1,0.4s-0.8,0-1.3-0.1h-1.1c0.1,1.1,0.1,2.3,0.1,3.4l-0.2,8.1c0,1.7,0,2.5,0.1,2.5l3.3-0.1
			c1.1,0,1.7,0.4,1.7,1.1c0,0.5-0.2,0.8-0.6,1c-0.4,0.2-0.8,0.3-1.3,0.3h-3.8c-0.4,0-0.8-0.1-1.1-0.4c-0.3-0.3-0.5-0.6-0.5-1v-1.2
			l-0.3-7.6L50.3,282.1z"/>
		<path class="st1" d="M62.9,289.8l0,4.9c0,4,0.3,7.1,0.9,9.4l-0.5,1.2H62l-0.6-0.7c0-1.3,0-2.9,0-4.5c0-1.7-0.1-5.2-0.4-10.7
			c-0.3-5.5-0.4-9.6-0.4-12.3c0-1.4,0.5-2.1,1.5-2.1c1.6,0,2.9,0.4,3.9,1.2c1.1,0.8,1.6,2,1.6,3.5v3.2c0,0.9-0.2,1.6-0.5,2.4
			c-0.3,0.7-0.7,1.5-1.1,2.2c-0.4,0.8-0.7,1.2-0.7,1.3c0.2,0.7,0.4,2.2,0.9,4.3c0.9,4.7,1.8,8,2.9,10.1c0.3,0.6,0.5,1,0.5,1.4
			s-0.1,0.6-0.3,0.8c-0.2,0.2-0.4,0.3-0.7,0.3c-0.6,0-1.2-0.7-1.8-2.2c-0.6-1.4-1-3-1.4-4.8c-1.1-5.4-1.7-8.3-1.9-8.8H62.9z
			 M63.1,276.6l-0.2,0.6c0,1.2,0,3,0.1,5.3c0.1,2.3,0.1,4,0.1,5c0.7-0.4,1.3-1.3,1.7-2.9c0.4-1.5,0.6-2.7,0.6-3.5s0-1.4-0.1-1.8
			c0-0.4-0.1-0.8-0.3-1.3C64.8,277.1,64.2,276.6,63.1,276.6z"/>
		<path class="st1" d="M72.3,294l0-2.6v-1.1c0-4.4,0.2-7.5,0.7-9.2c0.5-2.1,1.3-3.6,2.2-4.4c1.3-1.1,2.9-1.7,4.8-1.7
			c0.5,0,0.8,0.1,1,0.3c0.2,0.2,0.3,0.5,0.3,0.8c0,0.3-0.1,0.6-0.3,0.8s-0.4,0.4-0.7,0.4h-2.1c-0.6,0-1.1,0.4-1.6,1.2
			c-0.4,0.8-0.8,1.8-1,2.9c-0.4,2.2-0.6,4-0.5,5.4v0.2l-0.2,8.7c0,1.8,0.1,3.1,0.3,3.8c0.2,0.7,0.4,1.3,0.6,1.7
			c0.2,0.4,0.5,0.8,0.8,1.1c0.7,0.6,1.5,1,2.6,1c0.4,0,0.7-0.1,1-0.4c0.4,0,0.7,0.1,0.9,0.2c0.3,0.2,0.4,0.4,0.4,0.7
			c0,1.2-0.8,1.8-2.5,1.8c-0.7,0-1.4-0.1-2.1-0.3c-0.7-0.2-1.3-0.4-1.7-0.6C73.3,303.2,72.3,299.7,72.3,294z"/>
		<path class="st1" d="M94.5,295.7l0.5,2.8c0,0.4,0.1,1.3,0.4,2.7s0.4,2.3,0.4,2.8v0c0,0.7-0.2,1.1-0.7,1.3c-0.6,0-1.1-0.1-1.5-0.3
			c-0.4-0.2-0.5-0.6-0.5-1.2c0-1.3-0.2-3.1-0.7-5.5l-4.4-0.7c-0.3,1-0.5,2.1-0.6,3.3s-0.3,2-0.4,2.6c-0.3,1.1-0.8,1.7-1.5,1.7
			c-0.4,0-0.7-0.1-1-0.3c-0.3-0.2-0.4-0.5-0.4-0.9l0.1-0.4c2-7.8,3.5-15.4,4.5-22.7c0-0.2,0.1-0.8,0.1-1.8c0.1-2.2,0.4-3.6,0.8-4.2
			h1.5c0.4,0,0.8,0.1,1.1,0.3c0.3,0.2,0.5,0.5,0.5,0.9c0,2.3,0.3,5.7,0.9,10.1S94.5,293.7,94.5,295.7z M92.2,296.6
			c-0.1-0.4-0.1-1.2-0.1-2.3s-0.1-2.4-0.2-4.1c-0.1-1.6-0.3-3.5-0.5-5.6c-0.2-2.1-0.4-3.7-0.5-4.7c-1.4,7.5-2.2,12.8-2.6,15.9
			C88.7,296.2,90.1,296.4,92.2,296.6z"/>
		<path class="st1" d="M102.2,304.1l-0.1-3.4c0,0,0-0.5,0.1-1.5c-0.1-0.4-0.4-3.8-0.7-10.1c-0.4-6.4-0.6-10.3-0.6-11.7
			c-0.1,0-0.1,0-0.2,0c-2.4,0-3.6-0.5-3.6-1.3c0-0.3,0.2-0.5,0.5-0.7c0.3-0.2,0.6-0.3,0.9-0.3l6.1,0.4l0.7,0c0.9,0,1.4,0.4,1.4,1.1
			c0,0.4-0.2,0.7-0.5,0.9c-0.3,0.2-0.6,0.3-1,0.3l-2.1-0.3l-0.1,0.5c0,2.8,0.2,7.1,0.7,12.7c0.5,5.7,0.7,9.9,0.7,12.7
			c0,0.4-0.2,0.7-0.5,0.9c-0.3,0.3-0.7,0.4-1.1,0.4L102.2,304.1z"/>
		<path class="st1" d="M115.9,299.2l0.1-14.1c0-1-0.1-2.4-0.3-4.4c-0.2-2-0.3-3.2-0.3-3.8s0.2-1,0.5-1.3c0.3-0.3,0.7-0.4,1.1-0.4
			c3.1,0,5.6,1.8,7.5,5.4c1.1,2.1,1.7,4.2,1.7,6.5l-0.1,2.3v2.5c0,3-0.1,5-0.4,6s-0.6,1.8-0.8,2.5c-0.3,0.7-0.6,1.3-1.1,1.8
			c-0.9,1.2-2.1,2.2-3.6,2.9H117C116.3,305.1,115.9,303.1,115.9,299.2z M119,301.7v1.1c2.6,0,4.2-2.6,4.7-7.9
			c0.1-1.2,0.2-2.4,0.2-3.5c0-9-1.7-13.7-5.2-14.2c-0.2,1.2-0.3,2.8-0.3,4.9c0,2.1,0.1,5.3,0.3,9.7C118.9,296.2,119,299.5,119,301.7
			z"/>
		<path class="st1" d="M130.4,282.1l-0.2-3.8c0-2.1,0.6-3.2,1.9-3.2c0.8,0,1.9,0.2,3.3,0.6s2.1,0.9,2.1,1.4c0,0.6-0.4,1.1-1.3,1.4
			c-1.4-0.5-2.5-0.8-3.4-0.9c0,0.6,0.1,1.3,0.1,1.9l-0.2,6.4c0,0,0,0.3,0.1,0.7l1.6-0.1c1.4,0,2.2,0.4,2.2,1.2
			c0,0.3-0.1,0.6-0.4,0.8c-0.3,0.2-0.6,0.4-1,0.4c-0.4,0-0.8,0-1.3-0.1h-1.1c0.1,1.1,0.1,2.3,0.1,3.4l-0.2,8.1c0,1.7,0,2.5,0.1,2.5
			l3.3-0.1c1.1,0,1.7,0.4,1.7,1.1c0,0.5-0.2,0.8-0.6,1c-0.4,0.2-0.8,0.3-1.3,0.3H132c-0.4,0-0.8-0.1-1.1-0.4s-0.5-0.6-0.5-1v-1.2
			l-0.3-7.6L130.4,282.1z"/>
		<path class="st1" d="M146.3,304.3c0-0.8,0.3-1.2,1-1.2c0.3,0,0.8,0.1,1.3,0.3c0.5,0.2,1,0.3,1.4,0.3c0.4,0,0.8-0.3,1.3-0.8
			c0.5-0.5,0.8-1.1,1.1-1.9c0.5-1.5,0.8-2.9,0.8-4.2c0-1.2-0.2-2.6-0.7-4c-0.4-1.4-1-2.8-1.6-4c-0.6-1.3-1.3-2.5-1.9-3.8
			c-1.5-3-2.3-5.7-2.3-8.2c0-2.3,0.7-4.2,2.2-5.5c0.8-0.7,1.7-1.1,2.8-1.1c0.5,0,1.1,0.1,1.6,0.4s0.9,0.7,1.1,1.2l-0.8,1
			c-0.7,0-1.3-0.1-1.8-0.4c-0.6,0.1-1,0.3-1.4,0.8c-0.7,0.9-1.1,1.9-1.1,3.2s0.2,2.5,0.5,3.7s0.7,2.3,1.2,3.2c0.5,0.9,1,2,1.6,3.1
			c0.6,1.1,1.1,2.2,1.6,3.2c1.1,2.4,1.7,4.9,1.7,7.7c0,1.9-0.5,3.8-1.5,5.6c-0.5,0.8-1.1,1.5-1.9,2.1c-0.8,0.5-1.7,0.8-2.7,0.8
			c-1.1,0-1.9-0.2-2.6-0.5S146.3,304.6,146.3,304.3z"/>
		<path class="st1" d="M164,289.9l0.2,9.5v1.3l0,1.2h0.6l1.3,0c1.2,0,1.8,0.4,1.8,1.1c0,0.4-0.1,0.7-0.4,1c-0.3,0.3-0.6,0.4-1,0.4
			h-2c-1.4,0-2.2,0-2.6-0.1c-0.2,0-0.4,0-0.5,0c-1.1,0-1.6-0.3-1.6-1c0-0.3,0.1-0.5,0.3-0.8s0.4-0.4,0.5-0.4h1.3l0.1-0.6l-0.3-9.5
			l0.2-10c0-1.7-0.1-3.3-0.2-4.8h-0.9l-1,0c-0.4,0-0.8-0.1-1-0.3c-0.2-0.2-0.4-0.5-0.4-1c0-0.7,0.7-1,2.2-1h5.3
			c1.2,0,1.8,0.3,1.8,0.9c0,0.3-0.1,0.5-0.4,0.8c-0.3,0.2-0.6,0.4-0.9,0.4h-2.3c0.1,1.2,0.2,2.6,0.2,4.2L164,289.9z"/>
		<path class="st1" d="M175.2,304.1l-0.1-3.4c0,0,0-0.5,0.1-1.5c-0.1-0.4-0.4-3.8-0.7-10.1c-0.4-6.4-0.6-10.3-0.6-11.7
			c-0.1,0-0.1,0-0.2,0c-2.4,0-3.6-0.5-3.6-1.3c0-0.3,0.2-0.5,0.5-0.7c0.3-0.2,0.6-0.3,0.9-0.3l6.1,0.4l0.7,0c0.9,0,1.4,0.4,1.4,1.1
			c0,0.4-0.2,0.7-0.5,0.9c-0.3,0.2-0.6,0.3-1,0.3l-2.1-0.3l-0.1,0.5c0,2.8,0.2,7.1,0.7,12.7s0.7,9.9,0.7,12.7c0,0.4-0.2,0.7-0.5,0.9
			c-0.3,0.3-0.7,0.4-1.1,0.4L175.2,304.1z"/>
		<path class="st1" d="M193.6,295.8l0.2,4.8c0,1.5-0.5,2.6-1.5,3.4c-1,0.8-2.2,1.2-3.6,1.2c-2.1,0-3.6-0.8-4.5-2.3
			c-0.7-1.1-1.1-2.1-1.3-3.1s-0.3-1.7-0.4-2.2c-0.1-0.5-0.1-1.2-0.2-2.1c-0.1-1.2-0.1-2.2-0.1-3v-1.9c0-4.2,0.1-6.9,0.4-8
			c0.2-1.1,0.5-2.2,0.9-3.1s0.7-1.7,1.2-2.2c1.1-1.3,2.4-1.9,3.9-1.9c1.5,0,2.2,0.4,2.2,1.1c0,0.4-0.1,0.6-0.4,0.9
			c-0.3,0.2-0.6,0.3-1,0.3l-0.9-0.1c-1,0-1.8,1-2.3,3.1c-0.8,2.9-1.1,6.4-1.1,10.6c0,2.8,0.1,4.8,0.3,5.8c0.2,1.1,0.4,1.9,0.6,2.7
			c0.2,0.7,0.5,1.3,0.7,1.8c0.7,1,1.6,1.6,2.7,1.6c1.4,0,2.2-2.4,2.2-7.1v-2.1c-0.2-0.1-0.6-0.2-1.1-0.2l-0.9,0c-1,0-1.6-0.3-1.6-1
			c0-0.4,0.1-0.7,0.4-1s0.7-0.3,1.1-0.3v0h0.6c2.7,0,4,0.5,4,1.4L193.6,295.8z"/>
		<path class="st1" d="M198.1,282.1l-0.2-3.8c0-2.1,0.6-3.2,1.9-3.2c0.8,0,1.9,0.2,3.3,0.6s2.1,0.9,2.1,1.4c0,0.6-0.4,1.1-1.3,1.4
			c-1.4-0.5-2.5-0.8-3.4-0.9c0,0.6,0.1,1.3,0.1,1.9l-0.2,6.4c0,0,0,0.3,0.1,0.7l1.6-0.1c1.4,0,2.2,0.4,2.2,1.2
			c0,0.3-0.1,0.6-0.4,0.8c-0.3,0.2-0.6,0.4-1,0.4c-0.4,0-0.8,0-1.3-0.1h-1.1c0.1,1.1,0.1,2.3,0.1,3.4l-0.2,8.1c0,1.7,0,2.5,0.1,2.5
			l3.3-0.1c1.1,0,1.7,0.4,1.7,1.1c0,0.5-0.2,0.8-0.6,1c-0.4,0.2-0.8,0.3-1.3,0.3h-3.8c-0.4,0-0.8-0.1-1.1-0.4s-0.5-0.6-0.5-1v-1.2
			l-0.3-7.6L198.1,282.1z"/>
		<path class="st1" d="M208.6,302.9l1.9,0.3c0.6,0,1.1-0.2,1.5-0.7c0.4-0.5,0.7-1.1,0.9-1.9c0.4-1.4,0.6-2.7,0.6-3.8
			s-0.2-2.2-0.5-3.3s-0.8-2.1-1.3-3c-0.5-0.9-1.1-1.9-1.6-2.8c-1.3-2.3-1.9-4.5-1.9-6.7c0-1.3,0.2-2.5,0.7-3.6
			c0.8-1.9,2-2.9,3.4-2.9c0.5,0,1,0.2,1.5,0.5c0.5,0.3,0.7,0.7,0.7,1.1c0,0.7-0.4,1-1.1,1c-0.3,0-0.6-0.1-0.9-0.3
			c-0.9,0-1.6,1.1-1.9,3.2c-0.1,0.5-0.1,1-0.1,1.6c0,0.6,0.1,1.4,0.4,2.2c0.3,0.9,0.6,1.7,1,2.4c0.4,0.7,0.8,1.5,1.3,2.3
			s0.9,1.7,1.3,2.4c0.9,1.8,1.4,3.9,1.4,6.3c0,1.8-0.4,3.5-1.2,5.2c-0.4,0.8-1,1.5-1.7,2c-0.8,0.5-1.6,0.8-2.6,0.8v0.1
			c-1.2-0.2-1.9-0.8-2-1.7L208.6,302.9z"/>
		<path class="st1" d="M224.6,305.6c-0.4,0.9-1,1.8-1.8,2.5c-0.7,0.7-1.4,1.1-2,1.1s-0.9-0.2-0.9-0.6s0.2-0.7,0.5-1
			c0.7-0.8,1.1-2.2,1.4-4.2c0.3-1.8,0.8-2.7,1.8-2.7c1,0,1.6,0.8,1.6,2.4C225.2,303.8,225,304.6,224.6,305.6z"/>
		<path class="st1" d="M236.3,303.5l0.2-16c0-7-0.4-12.4-1.2-16c0.5-0.7,1-1,1.7-1c1.1,0,2.1,0.2,3,0.7c0.9,0.5,1.7,1.2,2.2,2
			c1.2,1.7,1.8,3.7,1.8,5.8s-0.5,4.2-1.4,6s-2.3,3.2-4.2,4.2l0.4,14c0,1.2-0.5,1.9-1.5,1.9c-0.4,0-0.6-0.2-0.8-0.5
			C236.4,304.3,236.3,303.9,236.3,303.5z M238.5,287c2.3-2.1,3.4-4.7,3.4-7.6v0c0-1.7-0.2-2.9-0.6-3.5c-0.2-0.3-0.4-0.6-0.5-0.8
			s-0.4-0.4-0.8-0.7c-0.5-0.4-1.1-0.9-2.1-1.6c0,1.6,0.1,3.9,0.3,7.1C238.4,283.1,238.5,285.5,238.5,287z"/>
		<path class="st1" d="M255.7,295.7l0.5,2.8c0,0.4,0.1,1.3,0.4,2.7c0.3,1.4,0.4,2.3,0.4,2.8v0c0,0.7-0.2,1.1-0.7,1.3
			c-0.6,0-1.1-0.1-1.5-0.3c-0.4-0.2-0.5-0.6-0.5-1.2c0-1.3-0.2-3.1-0.7-5.5l-4.4-0.7c-0.3,1-0.5,2.1-0.6,3.3c-0.1,1.2-0.3,2-0.4,2.6
			c-0.3,1.1-0.8,1.7-1.5,1.7c-0.4,0-0.7-0.1-1-0.3s-0.4-0.5-0.4-0.9l0.1-0.4c2-7.8,3.5-15.4,4.5-22.7c0-0.2,0.1-0.8,0.1-1.8
			c0.1-2.2,0.4-3.6,0.8-4.2h1.5c0.4,0,0.8,0.1,1.1,0.3s0.5,0.5,0.5,0.9c0,2.3,0.3,5.7,0.9,10.1C255.4,290.5,255.7,293.7,255.7,295.7
			z M253.3,296.6c-0.1-0.4-0.1-1.2-0.1-2.3s-0.1-2.4-0.2-4.1s-0.3-3.5-0.5-5.6c-0.2-2.1-0.4-3.7-0.5-4.7c-1.4,7.5-2.2,12.8-2.6,15.9
			C249.9,296.2,251.2,296.4,253.3,296.6z"/>
		<path class="st1" d="M262.5,289.8l0,4.9c0,4,0.3,7.1,0.9,9.4l-0.5,1.2h-1.2l-0.6-0.7c0-1.3,0-2.9,0-4.5c0-1.7-0.1-5.2-0.4-10.7
			c-0.3-5.5-0.4-9.6-0.4-12.3c0-1.4,0.5-2.1,1.5-2.1c1.6,0,2.9,0.4,3.9,1.2c1.1,0.8,1.6,2,1.6,3.5v3.2c0,0.9-0.2,1.6-0.5,2.4
			s-0.7,1.5-1.1,2.2c-0.4,0.8-0.7,1.2-0.7,1.3c0.2,0.7,0.4,2.2,0.9,4.3c0.9,4.7,1.8,8,2.9,10.1c0.3,0.6,0.5,1,0.5,1.4
			s-0.1,0.6-0.3,0.8c-0.2,0.2-0.4,0.3-0.7,0.3c-0.6,0-1.2-0.7-1.8-2.2c-0.6-1.4-1-3-1.4-4.8c-1.1-5.4-1.7-8.3-1.9-8.8H262.5z
			 M262.7,276.6l-0.2,0.6c0,1.2,0,3,0.1,5.3c0.1,2.3,0.1,4,0.1,5c0.7-0.4,1.3-1.3,1.7-2.9s0.6-2.7,0.6-3.5s0-1.4-0.1-1.8
			c0-0.4-0.1-0.8-0.3-1.3C264.4,277.1,263.7,276.6,262.7,276.6z"/>
		<path class="st1" d="M281.5,295.7l0.5,2.8c0,0.4,0.1,1.3,0.4,2.7c0.3,1.4,0.4,2.3,0.4,2.8v0c0,0.7-0.2,1.1-0.7,1.3
			c-0.6,0-1.1-0.1-1.5-0.3c-0.4-0.2-0.5-0.6-0.5-1.2c0-1.3-0.2-3.1-0.7-5.5l-4.4-0.7c-0.3,1-0.5,2.1-0.6,3.3c-0.1,1.2-0.3,2-0.4,2.6
			c-0.3,1.1-0.8,1.7-1.5,1.7c-0.4,0-0.7-0.1-1-0.3s-0.4-0.5-0.4-0.9l0.1-0.4c2-7.8,3.5-15.4,4.5-22.7c0-0.2,0.1-0.8,0.1-1.8
			c0.1-2.2,0.4-3.6,0.8-4.2h1.5c0.4,0,0.8,0.1,1.1,0.3c0.3,0.2,0.5,0.5,0.5,0.9c0,2.3,0.3,5.7,0.9,10.1
			C281.2,290.5,281.5,293.7,281.5,295.7z M279.1,296.6c-0.1-0.4-0.1-1.2-0.1-2.3s-0.1-2.4-0.2-4.1c-0.1-1.6-0.3-3.5-0.5-5.6
			c-0.2-2.1-0.4-3.7-0.5-4.7c-1.4,7.5-2.2,12.8-2.6,15.9C275.7,296.2,277,296.4,279.1,296.6z"/>
		<path class="st1" d="M286.2,299.2l0.1-14.1c0-1-0.1-2.4-0.3-4.4c-0.2-2-0.3-3.2-0.3-3.8s0.2-1,0.5-1.3s0.7-0.4,1.1-0.4
			c3.1,0,5.6,1.8,7.5,5.4c1.1,2.1,1.7,4.2,1.7,6.5l-0.1,2.3v2.5c0,3-0.1,5-0.4,6s-0.6,1.8-0.8,2.5c-0.3,0.7-0.6,1.3-1.1,1.8
			c-0.9,1.2-2.1,2.2-3.6,2.9h-3.2C286.6,305.1,286.2,303.1,286.2,299.2z M289.4,301.7v1.1c2.6,0,4.2-2.6,4.7-7.9
			c0.1-1.2,0.2-2.4,0.2-3.5c0-9-1.7-13.7-5.2-14.2c-0.2,1.2-0.3,2.8-0.3,4.9c0,2.1,0.1,5.3,0.3,9.7
			C289.2,296.2,289.4,299.5,289.4,301.7z"/>
		<path class="st1" d="M310.2,295.7l0.5,2.8c0,0.4,0.1,1.3,0.4,2.7s0.4,2.3,0.4,2.8v0c0,0.7-0.2,1.1-0.7,1.3c-0.6,0-1.1-0.1-1.5-0.3
			c-0.4-0.2-0.5-0.6-0.5-1.2c0-1.3-0.2-3.1-0.7-5.5l-4.4-0.7c-0.3,1-0.5,2.1-0.6,3.3c-0.1,1.2-0.3,2-0.4,2.6
			c-0.3,1.1-0.8,1.7-1.5,1.7c-0.4,0-0.7-0.1-1-0.3s-0.4-0.5-0.4-0.9l0.1-0.4c2-7.8,3.5-15.4,4.5-22.7c0-0.2,0.1-0.8,0.1-1.8
			c0.1-2.2,0.4-3.6,0.8-4.2h1.5c0.4,0,0.8,0.1,1.1,0.3c0.3,0.2,0.5,0.5,0.5,0.9c0,2.3,0.3,5.7,0.9,10.1
			C309.9,290.5,310.2,293.7,310.2,295.7z M307.9,296.6c-0.1-0.4-0.1-1.2-0.1-2.3s-0.1-2.4-0.2-4.1c-0.1-1.6-0.3-3.5-0.5-5.6
			c-0.2-2.1-0.4-3.7-0.5-4.7c-1.4,7.5-2.2,12.8-2.6,15.9C304.4,296.2,305.8,296.4,307.9,296.6z"/>
		<path class="st1" d="M320.8,286.6l0.3-8.4c0-1.4,0.5-2.5,1.6-3.3v0.3c0.1-0.1,0.2-0.1,0.3-0.1c0.7,0,1.6,1.2,2.6,3.6
			c1.1,2.4,2,5.1,2.8,8c0.8,2.9,1.7,5.8,2.5,8.8c0.8,2.9,1.4,4.7,1.6,5.2c0.6-6.3,0.9-13.9,0.9-22.8l-0.1-1.2c0-0.9,0.4-1.3,1.1-1.3
			c0.4,0,0.7,0.2,1,0.5s0.3,0.8,0.3,1.2v3.4c0,3.5-0.2,8.2-0.5,14.1c-0.3,5.9-0.7,9.2-1.2,10c-0.8,0.2-1.4,0.4-1.7,0.4
			c-0.3,0-0.6-0.1-0.7-0.3s-0.3-0.5-0.4-1c-0.1-0.4-0.2-0.7-0.3-0.9l0-0.2c0-1.1-1.1-4.6-3.2-10.6c-2.1-5.9-3.7-10-4.7-12.3v22.6
			c0,0.1,0.1,0.2,0.2,0.3c0.2,0.3,0.3,0.6,0.3,0.9c0,0.3-0.1,0.6-0.4,0.8s-0.6,0.4-1,0.4c-1,0-1.5-0.9-1.5-2.7L320.8,286.6z"/>
		<path class="st1" d="M350.8,303.1l-10.3,0.3c-0.5,0-0.9-0.1-1.2-0.3c-0.3-0.2-0.5-0.4-0.5-0.7s0.1-0.5,0.3-0.7s0.5-0.3,0.8-0.3
			h11.1c0.7,0,1.1,0.3,1.1,0.8c0,0.2-0.1,0.5-0.4,0.7S351.1,303.1,350.8,303.1z M339.5,288.7l0-3.2c0-7.3,1.1-10.9,3.4-10.9
			c3.5,0,5.9,1.4,7.2,4.2c0.8,1.6,1.1,3.7,1.1,6v0.3l0.1,5.1c0,5.7-2,8.6-6,8.6c-1.7,0-2.9-0.6-3.8-1.9c-0.8-1.2-1.3-2.5-1.5-3.6
			C339.7,291.6,339.5,290,339.5,288.7z M348.9,290l0-2.9c0-3.2-0.2-5.4-0.7-6.8c-0.5-1.5-1.2-2.5-2-2.9c-0.5-0.3-1-0.4-1.6-0.4
			s-1,0.1-1.3,0.4c-0.4,0.2-0.6,0.6-0.8,1.1c-0.3,0.8-0.4,1.9-0.4,3.1l0,0.9l-0.2,4.1c0,4.2,0.6,7.2,1.7,8.8
			c0.4,0.6,0.9,0.9,1.4,0.9s1-0.1,1.4-0.3c0.4-0.2,0.7-0.4,1-0.7c0.3-0.3,0.5-0.7,0.7-1.1s0.3-0.8,0.4-1.2c0.1-0.4,0.2-0.8,0.3-1.2
			C348.8,291.3,348.9,290.6,348.9,290z"/>
		<path class="st1" d="M362.2,304.7l-6.8,0.4c-0.4,0-0.8-0.1-1.1-0.4c-0.3-0.2-0.5-0.6-0.5-1v-0.2c0.6-0.7,1.2-1.7,1.6-2.9
			c0.4-1.2,0.7-2,0.9-2.4c1.7-3.8,3-7.3,3.8-10.4c0.8-3.2,1.2-6.6,1.2-10.2c0-3.7-0.7-5.6-2.1-5.7c-0.5,0.3-0.8,1-1,2.1
			c-0.2,1.1-0.6,1.6-1.3,1.6c-0.7,0-1.1-0.5-1.1-1.4c0-1.5,0.4-2.6,1.3-3.5c0.5-0.5,1-0.7,1.6-0.7v0c1.5,0,2.7,0.5,3.4,1.4
			c0.5,0.7,0.8,1.4,1,1.9c0.1,0.6,0.2,1,0.3,1.4c0.1,0.3,0.1,0.8,0.1,1.3c0,0.8,0.1,1.9,0.1,3.4c0,1.5-0.3,3.5-0.8,5.9
			c-0.5,2.4-1.1,4.5-1.7,6.1s-1.4,3.7-2.3,6c-0.9,2.4-1.6,4.1-2,5.4c1.8-0.3,3.6-0.5,5.3-0.5c0.6,0.5,0.9,0.9,0.9,1.2
			S362.6,304.4,362.2,304.7z"/>
	</g>
</g>
</svg>
