<?xml version="1.0" encoding="utf-8"?>
<!-- Generator: Adobe Illustrator 19.1.0, SVG Export Plug-In . SVG Version: 6.00 Build 0)  -->
<svg version="1.1" id="Capa_1" xmlns="http://www.w3.org/2000/svg" xmlns:xlink="http://www.w3.org/1999/xlink" x="0px" y="0px"
	 viewBox="0 0 640 410.5" style="enable-background:new 0 0 640 410.5;" xml:space="preserve">
<style type="text/css">
	.st0{fill:#1E3C26;}
	.st1{fill:#FFFFFF;}
</style>
<g>
	<path class="st0" d="M84,235.5c-21.7,0-39.7,6.5-53.9,19.4c-14.3,12.9-21.4,28.1-21.4,45.4c0,8.7,2.5,15.9,7.4,21.7
		c4.9,5.8,11.1,8.7,18.7,8.7c7.7,0,14.3-2.8,19.6-8.4c5.3-5.6,8.5-13.7,9.7-24.2l-3.2-0.7c-3.9,14-11.2,21-21.9,21
		c-6.3,0-11.5-2.3-15.6-7c-4.1-4.7-6.2-10.8-6.2-18.3c0-13.7,5.4-25.3,16.2-34.9c10.8-9.6,24.4-14.4,40.8-14.4
		c21.3,0,39.3,8,54.2,24.1c14.9,16.1,22.3,35.9,22.3,59.6c0,18-4.2,33.2-12.7,45.5c-8.4,12.3-17.9,18.4-28.4,18.4
		c-6.3,0-12.9-2.1-20-6.4c-7-4.4-15.2-6.6-24.6-6.6l-6.1,0.2c13.2-8.4,22.5-16.5,27.7-24.3c5.2-7.8,7.9-16.9,7.9-27.3
		c0-5.1-0.8-12.3-2.3-21.5c-1.4-9.3-2.2-15.8-2.2-19.4c0-11.1,4.4-19.8,13.2-26.1l-1.6-2.8c-8.6,3.8-14.8,8.9-18.7,15.2
		c-3.9,6.3-5.8,14.6-5.8,24.8c0,3.7,0.4,9.7,1.2,17.9c0.8,8.2,1.2,14.7,1.2,19.5c0,9.6-1.7,17.3-5.1,23.1
		c-3.4,5.8-10.1,12.2-20.3,19.4c-10.1,7.2-16.7,14.8-19.9,22.7l3,1.9c6.3-9.3,13-14,20-14c5.4,0,11.7,2.3,19.2,7
		c7.5,4.6,14.1,6.9,19.8,6.9c16.9,0,32.1-8.2,45.7-24.7c13.6-16.5,20.4-36.5,20.4-60.2c0-24.1-7.3-43.7-21.8-58.7
		C126.1,243,107.2,235.5,84,235.5z"/>
	<polygon class="st0" points="611.2,316.9 602.6,306.3 593.8,316.9 602.6,327.9 	"/>
	<path class="st0" d="M628.9,376c-8.2,10.8-14.2,16.2-17.9,16.2c-1.8,0-2.9-0.8-3.4-2.3s-0.7-4.8-0.7-9.6V341l-12.4,6.6
		c-2.1,9.2-6.5,18.7-13.2,28.4l0,0c-7.9,10.8-13.9,16.2-17.9,16.2c-1.6,0-2.7-0.8-3-2.5c-0.4-1.6-0.6-4.7-0.6-9.1V364
		c0-9.7-0.9-15.8-2.8-18.3c-1.9-2.5-4.6-3.7-8-3.7c-3.8,0-7.5,1.5-11.2,4.4c-3.7,3-8.6,8.8-14.6,17.6v-23l-12.1,5.8
		c-2,8.8-6.7,18.5-14.1,29.3c-3.7,5.1-7.1,9.1-10.2,11.9c-3.1,2.8-5.5,4.2-7,4.2c-1.8,0-2.9-0.4-3.3-1.4c-0.4-0.9-0.6-3.6-0.6-8v-42
		l-10.9,5.6c-4.2-2.6-8.4-3.8-12.7-3.8c-6,0-13,3.2-21.1,9.6c-7.5,6-14.6,14-21.4,24.2l0,0c-4,5.5-7.4,9.6-10.3,12.1
		c-2.9,2.6-5.9,3.8-9.1,3.8c-1.9,0-3.6-1-5.2-3.2c-1.6-2.1-2.4-4.3-2.4-6.7c0-7.7,1.5-14.7,4.6-21.1c3.1-6.4,7.1-12.7,12.2-19
		l-2.1-1.5c-3.1,3.4-6.8,5.1-11.1,5.1c-4.5,0-10.8-1.9-18.7-5.6c-5.6,13.8-12.1,26.1-19.5,37c-3.4,4.6-6.5,8.2-9.3,10.7
		c-3.1,2.8-5.5,4.2-7,4.2c-1.8,0-2.9-0.4-3.3-1.4c-0.4-0.9-0.6-3.6-0.6-8v-42l-10.9,5.6c-4.2-2.6-8.4-3.8-12.7-3.8
		c-6,0-13,3.2-21.1,9.6c-7.8,6.2-15.2,14.6-22.2,25.3c-7.2,9.8-12.8,14.8-16.9,14.8c-2.4,0-3.6-3.1-3.6-9.4V358
		c0-10.8-3.8-16.2-11.4-16.2c-4.7,0-9.1,1.5-13.3,4.6c-4.2,3.1-9.3,8.6-15.2,16.4v-23.2c20.2-32.2,30.3-55.7,30.3-70.4
		c0-11.3-4.6-16.9-13.8-16.9c-7.7,0-14.5,3.8-20.3,11.2c-5.8,7.5-8.7,17.1-8.7,28.8v53.4c0,1.2-1.5,4.9-4.6,10.9
		c-3,6-5.4,10.4-7.2,13.2c-1.7,2.8-3.6,5.7-5.7,8.8l3.8,3.1c4.8-6.1,9.3-13.3,13.6-21.8v43.5l12.5-7.9v-18.9c0-1.6,1.3-4.8,3.9-9.7
		c2.6-4.9,5.5-8.8,8.8-11.6c3.3-2.8,6.4-4.3,9.3-4.3c3.7,0,5.6,2.3,5.6,7V385c0,6.7,0.7,11,2.2,13.1c1.4,2.1,3.6,3.1,6.4,3.1
		c9.4,0,19.1-7.3,29.2-22l0,0c2.5-3.5,4.1-5.8,4.8-6.8v5.3c0,7.3,1.9,13.2,5.6,17.6c3.7,4.4,8.8,6.6,15.1,6.6
		c4.4,0,8.3-0.9,11.7-2.8c3.4-1.9,7.6-5.8,12.5-11.9c0.1,5.8,0.9,9.6,2.3,11.4c1.5,1.8,3.9,2.7,7.3,2.7c8.6,0,17.4-6.7,26.4-20.2
		c6.7-8.6,12.2-17.3,16.3-26.3c2.7,1,5.3,1.5,7.8,1.5c3.8,0,6.4-0.2,7.9-0.5c-8.5,10.5-12.7,20.1-12.7,29c0,11,4.8,16.4,14.5,16.4
		c9,0,17.9-6.7,26.8-20l0.2,0.1c3.3-4.8,5.4-7.7,6.3-8.9v5.3c0,7.3,1.9,13.2,5.6,17.6c3.7,4.4,8.8,6.6,15.1,6.6
		c4.4,0,8.3-0.9,11.7-2.8c3.4-1.9,7.6-5.8,12.5-11.9c0.1,5.8,0.9,9.6,2.3,11.4c1.5,1.8,3.9,2.7,7.3,2.7c8.6,0,17.4-6.8,26.4-20.3
		c5-6.5,8.7-12.8,11.1-19.2v41.5l12.4-7.9v-22.2c0-0.5,1.5-3,4.5-7.5c3-4.5,5.3-7.7,7-9.6c1.6-1.9,3.2-3.4,4.6-4.4
		c1.4-1,2.8-1.5,4.1-1.5c2.7,0,4.1,2.2,4.1,6.6V385c0,6.9,0.8,11.3,2.3,13.3c1.6,1.9,3.8,2.9,6.8,2.9c8.9,0,18.2-7,27.9-21.1
		c4.3-5.7,7.7-11.6,10-17.6V385c0,6,0.6,10.2,1.7,12.6c1.2,2.4,4,3.6,8.4,3.6c4,0,8.4-1.9,13.3-5.7c4.9-3.8,9.8-9.2,14.5-16.3
		L628.9,376z M200.5,285c0-9,1.1-16.1,3.4-21.2c2.3-5.1,5.4-7.7,9.3-7.7c2.6,0,4.8,1.3,6.4,4c1.6,2.7,2.5,6.1,2.5,10.2
		c0,7.1-1.6,15-4.7,23.6c-3.1,8.6-8.8,20.3-17,35V285z M315.4,377.7c0,1.1-1.6,3.5-4.9,7.2c-3.3,3.8-6.8,5.6-10.6,5.6
		c-4.9,0-8.7-1.6-11.5-4.9c-2.8-3.3-4.2-7.8-4.2-13.8c0-6.8,2-12.6,6-17.2c4-4.6,8.4-6.9,13.4-6.9c4.6,0,8.6,1.7,11.9,5.1V377.7z
		 M463.3,377.7c0,1.1-1.6,3.5-4.9,7.2c-3.3,3.8-6.8,5.6-10.6,5.6c-4.9,0-8.7-1.6-11.5-4.9c-2.8-3.3-4.2-7.8-4.2-13.8
		c0-6.8,2-12.6,6-17.2s8.4-6.9,13.4-6.9c4.6,0,8.6,1.7,11.9,5.1V377.7z"/>
	<path class="st0" d="M226.2,134.6c0.2,0.4,0.4,0.7,0.7,1.1c1.9,0,3.7,0,5.4,0c3.6,0,7.3-0.1,10.9-0.2c4.3-0.1,8.6-0.1,12.9-0.2
		c3.9-0.1,7.7-0.1,11.6-0.2c4.1-0.1,8.2-0.1,12.3-0.2c3.9-0.1,7.7-0.1,11.6-0.2c4.1-0.1,8.1-0.1,12.2-0.2c3.9-0.1,7.8-0.1,11.7-0.2
		c1.1,0,2.3-0.1,3.4-0.1c0.3,0,0.6,0,0.9,0c0,0.1,0,0.1,0,0.2c0,0,0,0.1,0,0.1c-23.5,13.9-46.9,27.8-70.4,41.6c-0.1,0-0.2,0-0.4,0.1
		c-6.9-11.7-13.9-23.4-20.9-35.3c-0.1,0.5-0.3,0.8-0.3,1.1c-1.7,8.5-3.2,17-4.4,25.5c-0.7,5.2-1.4,10.3-2,15.5
		c-0.5,4.4-0.8,8.7-1.1,13.1c0,0.3,0,0.5,0,0.9c18,8.1,36.4,15.3,55.3,21.3c-7.4-12.4-14.9-24.7-22.4-37.2
		c23.7-14,47.2-27.9,70.8-41.8c0,0,0.1,0.1,0.1,0.1c-0.1,0.3-0.2,0.5-0.4,0.8c-6.4,11.3-12.9,22.5-19.3,33.8
		c-8.7,15.3-17.5,30.7-26.2,46c-0.4,0.7-0.4,1.1,0,1.8c6.9,11.4,13.7,22.9,20.5,34.3c0.2,0.4,0.4,0.8,0.7,1.2c0.1,0,0.1,0,0.2,0
		c0.3-0.2,0.5-0.5,0.8-0.7c11.3-6.7,22.6-13.5,33.9-20.2c0.2-0.1,0.3-0.2,0.5-0.3c0.5-0.2,0.6-0.6,0.6-1.1c-0.1-2.1-0.1-4.2-0.2-6.3
		c-0.1-7.8-0.3-15.6-0.4-23.4c-0.1-5.1-0.1-10.1-0.2-15.2c-0.1-8.6-0.3-17.3-0.4-25.9c-0.1-5.5-0.2-11-0.3-16.5c0-1.3,0-2.6,0-3.9
		c0,0,0.1,0,0.1,0c0,0,0.1,0,0.1,0c13.9,23.3,27.9,46.7,41.8,70c0.1,0.1,0.1,0.2,0.2,0.4c-11.9,7-23.9,14-35.8,21c0,0.1,0,0.1,0,0.2
		c1,0.2,1.9,0.4,2.9,0.6c4.3,0.8,8.6,1.6,12.9,2.3c3.2,0.5,6.5,1,9.7,1.5c2.8,0.4,5.5,0.8,8.3,1.1c2,0.3,4,0.5,6,0.7
		c2.4,0.3,4.9,0.5,7.3,0.7c3.1,0.2,6.2,0.4,9.4,0.6c8.2-17.5,15-35.5,20.7-53.8c-0.1-0.1-0.1-0.1-0.2-0.2
		c-11.6,6.9-23.3,13.9-35,20.9c-14-23.5-28-47-42-70.5c0.1-0.1,0.1-0.1,0.1-0.1c0,0,0.1,0,0.1,0c26.8,15.1,53.7,30.3,80.5,45.5
		c0.3-0.2,0.6-0.3,0.9-0.5c11.3-6.7,22.5-13.4,33.8-20.1c0.3-0.2,0.7-0.4,1-0.6c0-0.1,0-0.1,0-0.2c-3.2-5.4-6.4-10.7-9.6-16.1
		c-3.6-6.1-7.2-12.2-10.8-18.3c-0.3-0.6-0.7-0.8-1.4-0.8c-2.1,0.1-4.3,0.1-6.4,0.1c-5,0.1-10,0.1-15,0.2c-3.9,0.1-7.8,0.1-11.8,0.2
		c-4,0.1-8,0.1-12,0.2c-3.9,0.1-7.8,0.1-11.8,0.2c-4,0.1-8,0.1-12,0.2c-4,0.1-7.9,0.1-11.9,0.2c-3.2,0.1-6.3,0.1-9.5,0.2
		c-0.4,0-0.7,0-1.1,0c0-0.1,0-0.1,0-0.1c0,0,0-0.1,0-0.1c0.2-0.1,0.4-0.3,0.6-0.4c23.3-13.8,46.6-27.6,70.1-41.4
		c6.6,11.2,13.2,22.3,19.8,33.5c0.1-0.3,0.2-0.4,0.3-0.6c1.2-7.4,2.5-14.7,3.6-22.1c0.8-5.3,1.5-10.6,2.1-15.9
		c0.5-4.6,0.9-9.2,1.3-13.8c0.1-0.7-0.2-1.1-0.8-1.5c-9.3-5.3-19-9.8-28.9-13.8c-7.4-3-14.9-5.6-22.5-8.1c-0.3-0.1-0.6-0.2-1-0.3
		c7.1,11.9,14.2,23.6,21.3,35.4c-23.6,14-47.2,27.9-70.8,41.8c-0.1-0.1-0.1-0.1-0.2-0.2c15.3-26.9,30.6-53.7,46-80.6
		c-1-1.8-2.1-3.5-3.1-5.2c-5.8-9.8-11.7-19.7-17.5-29.5c-0.2-0.3-0.3-0.6-0.4-0.9c-0.1,0-0.3,0-0.4,0c-0.3,0.2-0.6,0.4-0.9,0.6
		c-11.2,6.7-22.3,13.3-33.5,20c-0.8,0.5-1,0.9-1,1.8c0.1,5.5,0.2,10.9,0.3,16.4c0.1,7.9,0.3,15.7,0.4,23.6s0.3,15.7,0.4,23.6
		c0.1,7.9,0.3,15.8,0.4,23.7c0,1.3,0,2.5,0.1,3.8c0,0.2,0,0.5,0,0.7c-0.1,0-0.2,0-0.2,0.1c-14-23.5-28-46.9-42-70.5
		c11.9-6.9,23.6-13.8,35.5-20.8c-2.4-1.3-52.7-9.1-56.5-8.8c-7.9,17.9-14.8,36.1-20.9,54.7c0.1,0,0.1,0.1,0.2,0.1
		c11.9-7.1,23.7-14.2,35.6-21.2c0.6,0.5,40.8,67.9,42.2,70.7c-0.4-0.2-0.7-0.3-1-0.5c-10.2-5.8-20.4-11.5-30.6-17.3
		c-16.3-9.2-32.5-18.4-48.8-27.6c-0.7-0.4-1.2-0.3-1.9,0.1c-11.5,6.9-23.1,13.8-34.6,20.6c-0.3,0.2-0.7,0.3-1,0.4c0,0.1,0,0.1,0,0.2
		c0.2,0.3,0.5,0.6,0.7,0.9C212.9,112.3,219.5,123.4,226.2,134.6z M345.4,135.2c26.8,0.2,53.6,0.5,80.5,0.7
		c-3.3,13-6.6,25.9-9.9,38.9c-23.6-13.2-47.1-26.3-70.6-39.4C345.3,135.3,345.4,135.3,345.4,135.2z M334.9,94.5
		c0.2-19.2,0.4-38.4,0.6-57.7c13.1,3.3,26,6.6,39.1,9.9c-13.2,23.5-26.4,46.9-39.6,70.3c-0.1,0-0.1,0-0.2,0c0,0-0.1,0-0.1-0.1
		C334.8,109.4,334.8,102,334.9,94.5z M328,157.4c-0.1,4.6-0.1,9.1-0.1,13.7c0,4.6,0,9.2-0.1,13.8c0,4.6-0.1,9.2-0.1,13.8
		c0,4.6-0.1,9.1-0.1,13.7c0,4.6,0,9.2,0,14c-13.2-3.1-26.2-6.1-39.2-9.1c0.1-0.8,38-71.3,39.4-73.4C328.1,144.4,328.2,152,328,157.4
		z M238.6,114.7c1.1-4.3,2.2-8.6,3.3-12.9c1.1-4.3,2.2-8.6,3.3-13c23.9,13.2,47.7,26.3,71.5,39.4c0,0.1,0,0.1-0.1,0.2
		c-0.2,0-0.5,0-0.7,0c-6.6,0-13.1-0.1-19.7-0.1c-6.8-0.1-13.6-0.1-20.4-0.2c-7.5-0.1-15.1-0.1-22.6-0.2c-5.6-0.1-11.1-0.1-16.7-0.2
		c-0.4,0-0.8,0-1.4,0C236.3,123.3,237.5,119,238.6,114.7z"/>
	<path class="st0" d="M326.4,110.2c0.1,0,0.2,0,0.2,0c-0.5-26.5-0.9-53-1.4-79.8c-11.6,6.8-23,13.5-34.5,20.2
		C302.7,70.5,314.6,90.3,326.4,110.2z"/>
	<path class="st0" d="M315.8,116.7c-11.8-19.8-23.6-39.7-35.5-59.6c-11.5,6.8-22.8,13.6-34.3,20.4c23.3,13.2,46.5,26.3,69.6,39.4
		C315.7,116.9,315.7,116.8,315.8,116.7z"/>
	<path class="st0" d="M346,115c20-11.8,39.9-23.6,59.9-35.4c-6.8-11.4-13.6-22.6-20.5-34.1c-13.3,23.2-26.4,46.3-39.5,69.3
		C345.9,114.8,346,114.9,346,115z"/>
	<path class="st0" d="M353.7,126.7C353.7,126.8,353.6,126.8,353.7,126.7c0,0.1,0,0.1,0,0.2c0.2,0,0.4,0,0.6,0
		c3.2-0.1,6.5-0.1,9.7-0.2c4.1-0.1,8.2-0.1,12.4-0.2c3.8-0.1,7.6-0.1,11.4-0.2c4.1-0.1,8.2-0.1,12.4-0.2c3.8-0.1,7.6-0.1,11.5-0.2
		c4.1-0.1,8.2-0.1,12.3-0.2c3,0,6.1-0.1,9.1-0.1c0.2,0,0.4,0,0.8-0.1c-6.8-11.5-13.5-22.8-20.2-34.3
		C393.4,103.2,373.6,115,353.7,126.7z"/>
	<path class="st0" d="M309.7,136.9c-0.3,0-0.5,0-0.7,0c-1.1,0-2.3,0.1-3.4,0.1c-4,0.1-8,0.1-12,0.2c-4,0.1-7.9,0.1-11.9,0.2
		c-4,0.1-7.9,0.1-11.9,0.2c-4,0.1-8,0.1-12,0.2c-3.9,0.1-7.8,0.1-11.8,0.2c-4.2,0.1-8.4,0.1-12.7,0.2c-1.2,0-2.5,0-3.9,0.1
		c6.8,11.5,13.5,22.8,20.2,34.2C251.1,172,309.2,137.5,309.7,136.9z"/>
	<path class="st0" d="M316.8,146.7c0,0,0,0-0.1-0.1c-19.9,11.8-39.9,23.6-59.9,35.4c6.9,11.4,13.6,22.7,20.5,34.1
		c0.2-0.3,0.3-0.4,0.4-0.6C290.7,192.6,303.7,169.7,316.8,146.7C316.8,146.8,316.8,146.7,316.8,146.7z"/>
	<path class="st0" d="M336.6,153.9c0.4,26.5,0.9,53,1.4,79.7c11.6-6.8,23-13.4,34.5-20.2c-11.9-19.9-23.7-39.8-35.6-59.6
		C336.8,153.8,336.7,153.8,336.6,153.9z"/>
	<path class="st0" d="M347.9,146.6c0,0,0,0-0.1,0.1c11.7,19.6,23.4,39.3,35.1,58.9c0.1,0.2,0.2,0.3,0.3,0.5c0,0,0.1,0,0.1,0
		c0,0,0.1,0,0.1,0c11.3-6.7,22.6-13.5,34-20.3c-0.2-0.2-0.3-0.2-0.4-0.3C394.1,172.6,371.1,159.6,347.9,146.6
		C348,146.6,348,146.6,347.9,146.6z"/>
</g>
<g>
	<g>
		<g>
			<path class="st1" d="M1088,185c-0.7,6.4-2.7,11.3-5.9,14.7c-3.2,3.4-7.2,5.1-11.9,5.1c-4.6,0-8.4-1.8-11.4-5.3
				c-3-3.5-4.5-7.9-4.5-13.2c0-10.5,4.3-19.7,13-27.5c8.7-7.9,19.6-11.8,32.8-11.8c14.1,0,25.6,4.6,34.4,13.7
				c8.8,9.1,13.2,21,13.2,35.6c0,14.4-4.1,26.5-12.4,36.5s-17.5,15-27.8,15c-3.5,0-7.5-1.4-12-4.2c-4.5-2.9-8.4-4.3-11.6-4.3
				c-4.3,0-8.3,2.8-12.2,8.5l-1.8-1.1c1.9-4.9,6-9.5,12.1-13.8c6.2-4.4,10.3-8.3,12.3-11.8c2.1-3.5,3.1-8.2,3.1-14
				c0-2.9-0.3-6.9-0.8-11.9c-0.5-5-0.8-8.6-0.8-10.9c0-6.2,1.2-11.2,3.5-15.1c2.4-3.9,6.1-6.9,11.3-9.2l1,1.7c-5.4,3.8-8,9.1-8,15.8
				c0,2.2,0.4,6.1,1.3,11.8c0.9,5.6,1.4,10,1.4,13.1c0,6.3-1.6,11.8-4.8,16.6c-3.2,4.8-8.8,9.7-16.8,14.8l3.7-0.1
				c5.7,0,10.7,1.3,14.9,4c4.3,2.6,8.4,3.9,12.2,3.9c6.4,0,12.1-3.7,17.2-11.2c5.1-7.5,7.7-16.7,7.7-27.6c0-14.4-4.5-26.4-13.5-36.2
				c-9-9.8-20-14.6-32.9-14.6c-10,0-18.2,2.9-24.8,8.7c-6.6,5.8-9.8,12.9-9.8,21.2c0,4.6,1.2,8.3,3.8,11.1c2.5,2.9,5.7,4.3,9.5,4.3
				c6.5,0,10.9-4.2,13.3-12.8L1088,185z"/>
			<path class="st1" d="M1210.5,234.3c-6.1,8.9-12,13.4-17.7,13.4c-1.7,0-3-0.6-3.9-1.9c-0.9-1.2-1.3-3.9-1.3-8v-16.4
				c0-2.9-1.1-4.3-3.4-4.3c-1.8,0-3.6,0.9-5.6,2.6s-3.8,4.1-5.4,7.1c-1.6,3-2.4,4.9-2.4,5.9v11.5l-7.6,4.8v-26.4
				c-2.6,5.1-5.4,9.5-8.3,13.2l-2.3-1.9c1.2-1.9,2.4-3.6,3.5-5.3c1.1-1.7,2.5-4.4,4.4-8c1.9-3.7,2.8-5.9,2.8-6.6v-32.4
				c0-7.1,1.8-12.9,5.3-17.5c3.5-4.5,7.6-6.8,12.3-6.8c5.6,0,8.4,3.4,8.4,10.3c0,9-6.1,23.2-18.4,42.8v14.1c3.6-4.7,6.7-8.1,9.2-9.9
				c2.6-1.9,5.3-2.8,8.1-2.8c4.6,0,6.9,3.3,6.9,9.8v15.1c0,3.8,0.7,5.7,2.2,5.7c2.6,0,6.2-3.3,10.9-9.8L1210.5,234.3z M1170.9,203.8
				c5-8.9,8.4-16,10.3-21.2c1.9-5.2,2.8-10,2.8-14.3c0-2.5-0.5-4.6-1.5-6.2c-1-1.6-2.3-2.4-3.9-2.4c-2.4,0-4.3,1.6-5.7,4.7
				c-1.4,3.1-2.1,7.4-2.1,12.9V203.8z"/>
			<path class="st1" d="M1263.3,234.3c-5.7,8.9-11.3,13.4-16.7,13.4c-2.1,0-3.5-0.6-4.4-1.7c-0.9-1.1-1.4-3.4-1.4-6.9
				c-3,3.7-5.5,6.1-7.6,7.2c-2.1,1.1-4.4,1.7-7.1,1.7c-3.9,0-6.9-1.3-9.2-4c-2.3-2.7-3.4-6.2-3.4-10.7v-3.2
				c-0.6,0.7-1.8,2.5-3.8,5.4l-2.5-1.7c4.4-6.8,9-12.1,13.9-16c4.9-3.9,9.1-5.8,12.8-5.8c2.6,0,5.2,0.8,7.7,2.3l6.6-3.4v25.5
				c0,2.7,0.1,4.3,0.4,4.9c0.2,0.6,0.9,0.8,2,0.8c0.9,0,2.4-0.9,4.3-2.6c1.9-1.7,4-4.1,6.2-7.3L1263.3,234.3z M1240.6,233.4v-15.1
				c-2-2.1-4.4-3.1-7.2-3.1c-3,0-5.7,1.4-8.1,4.2c-2.4,2.8-3.6,6.3-3.6,10.4c0,3.6,0.9,6.4,2.6,8.4c1.7,2,4,3,7,3
				c2.3,0,4.5-1.1,6.4-3.4C1239.6,235.6,1240.6,234.1,1240.6,233.4z"/>
			<path class="st1" d="M1300.1,234.3c-5.7,8.9-11.3,13.4-17,13.4c-5.9,0-8.8-3.3-8.8-10c0-5.4,2.6-11.3,7.7-17.6
				c-0.9,0.2-2.5,0.3-4.8,0.3c-1.5,0-3.1-0.3-4.7-0.9c-2.6,5.6-5.9,11-10.1,16.3l-2.3-1.9c4.7-6.8,8.8-14.5,12.3-23.2
				c4.8,2.3,8.6,3.4,11.3,3.4c2.6,0,4.9-1,6.8-3.1l1.3,0.9c-3.1,3.8-5.5,7.6-7.4,11.5c-1.9,3.9-2.8,8.1-2.8,12.8
				c0,1.5,0.5,2.8,1.4,4.1c1,1.3,2,1.9,3.2,1.9c1.9,0,3.7-0.8,5.5-2.3c1.8-1.5,3.8-4,6.3-7.4L1300.1,234.3z"/>
			<path class="st1" d="M1353.2,234.3c-5.7,8.9-11.3,13.4-16.7,13.4c-2.1,0-3.5-0.6-4.4-1.7c-0.9-1.1-1.4-3.4-1.4-6.9
				c-3,3.7-5.5,6.1-7.6,7.2c-2.1,1.1-4.4,1.7-7.1,1.7c-3.9,0-6.9-1.3-9.2-4c-2.3-2.7-3.4-6.2-3.4-10.7v-3.2
				c-0.5,0.7-1.8,2.5-3.8,5.4l-2.5-1.7c4.4-6.8,9-12.1,13.9-16c4.9-3.9,9.1-5.8,12.8-5.8c2.6,0,5.2,0.8,7.7,2.3l6.6-3.4v25.5
				c0,2.7,0.1,4.3,0.4,4.9c0.2,0.6,0.9,0.8,2,0.8c0.9,0,2.4-0.9,4.3-2.6c1.9-1.7,4-4.1,6.2-7.3L1353.2,234.3z M1330.4,233.4v-15.1
				c-2-2.1-4.4-3.1-7.2-3.1c-3,0-5.7,1.4-8.1,4.2c-2.4,2.8-3.6,6.3-3.6,10.4c0,3.6,0.9,6.4,2.6,8.4c1.7,2,4,3,7,3
				c2.3,0,4.5-1.1,6.4-3.4C1329.4,235.6,1330.4,234.1,1330.4,233.4z"/>
			<path class="st1" d="M1404.4,234.3c-6.1,8.9-11.8,13.4-17.3,13.4c-1.8,0-3.2-0.6-4.1-1.8c-1-1.2-1.4-3.9-1.4-8.1v-17.2
				c0-2.7-0.8-4-2.5-4c-0.8,0-1.6,0.3-2.5,0.9c-0.9,0.6-1.8,1.5-2.8,2.7s-2.4,3.1-4.2,5.9c-1.8,2.7-2.7,4.2-2.7,4.5v13.5l-7.5,4.8
				v-25.2c-1.6,4-3.9,8-7.1,12l-2.3-1.9c5.1-7.1,8.2-13.5,9.5-19.2l7.4-3.5v14c3.7-5.3,6.6-8.9,8.9-10.7c2.3-1.8,4.5-2.7,6.8-2.7
				c2.1,0,3.7,0.7,4.9,2.3c1.2,1.5,1.7,5.2,1.7,11.1v10.1c0,2.7,0.1,4.6,0.3,5.6c0.2,1,0.8,1.5,1.8,1.5c2.4,0,6.1-3.3,10.9-9.8
				L1404.4,234.3z"/>
			<path class="st1" d="M1433.2,234.3c-2.9,4.3-5.8,7.6-8.8,9.9c-3,2.3-5.7,3.5-8.1,3.5c-2.7,0-4.4-0.7-5.1-2.2
				c-0.7-1.4-1.1-4-1.1-7.7v-13.7c-1.6,4-3.8,7.8-6.8,11.6l-2.3-1.9c4.7-6.5,7.7-12.7,9.1-18.8l7.5-4v23.8c0,2.9,0.1,4.9,0.4,5.9
				c0.3,0.9,1,1.4,2.1,1.4c2.3,0,5.9-3.3,10.9-9.8L1433.2,234.3z M1420.3,196.5l-5.3,6.7l-5.3-6.7l5.3-6.5L1420.3,196.5z"/>
		</g>
		<g>
			<g>
				<path class="st1" d="M1231,160.3c0,0-0.1,0-0.1,0c-0.1-0.2-0.3-0.5-0.4-0.7c-4.1-7-8.3-13.9-12.5-20.9c-0.2-0.4-0.2-0.7,0-1.1
					c5.3-9.3,10.6-18.6,15.9-27.9c3.9-6.8,7.8-13.7,11.7-20.5c0.1-0.1,0.2-0.3,0.2-0.5c0,0-0.1-0.1-0.1-0.1
					c-14.3,8.5-28.6,16.9-43,25.4c4.5,7.6,9.1,15.1,13.6,22.6c-11.5-3.7-22.6-8-33.6-13c0-0.2,0-0.4,0-0.5c0.2-2.7,0.4-5.3,0.7-8
					c0.3-3.2,0.7-6.3,1.2-9.4c0.7-5.2,1.7-10.4,2.7-15.5c0-0.2,0.1-0.4,0.2-0.6c4.3,7.2,8.5,14.3,12.7,21.5c0.1,0,0.2,0,0.2-0.1
					c14.2-8.4,28.5-16.9,42.7-25.3c0,0,0,0,0-0.1c0,0,0,0,0-0.1c-0.2,0-0.4,0-0.6,0c-0.7,0-1.4,0.1-2.1,0.1c-2.4,0-4.7,0.1-7.1,0.1
					c-2.5,0-4.9,0.1-7.4,0.1c-2.3,0-4.7,0.1-7,0.1c-2.5,0-5,0.1-7.5,0.1c-2.3,0-4.7,0.1-7,0.1c-2.6,0-5.2,0.1-7.8,0.1
					c-2.2,0-4.4,0.1-6.6,0.1c-1.1,0-2.2,0-3.3,0c-0.1-0.2-0.3-0.4-0.4-0.7c-4-6.8-8.1-13.6-12.1-20.3c-0.1-0.2-0.3-0.4-0.4-0.6
					c0,0,0-0.1,0-0.1c0.2-0.1,0.4-0.2,0.6-0.3c7-4.2,14-8.3,21-12.5c0.4-0.2,0.7-0.3,1.1,0c9.9,5.6,19.7,11.2,29.6,16.8
					c6.2,3.5,12.4,7,18.6,10.5c0.2,0.1,0.3,0.2,0.6,0.3c-0.8-1.7-25.3-42.6-25.6-42.9c-7.2,4.3-14.4,8.6-21.6,12.9
					c0,0-0.1-0.1-0.1-0.1c3.7-11.3,7.9-22.3,12.7-33.2c2.3-0.2,32.8,4.6,34.3,5.4c-7.2,4.2-14.3,8.4-21.5,12.6
					c8.5,14.3,17,28.5,25.5,42.8c0,0,0.1,0,0.1,0c0-0.2,0-0.3,0-0.5c0-0.8,0-1.5,0-2.3c-0.1-4.8-0.2-9.6-0.2-14.4
					c-0.1-4.8-0.2-9.5-0.2-14.3c-0.1-4.8-0.2-9.5-0.2-14.3c-0.1-3.3-0.1-6.6-0.2-9.9c0-0.5,0.1-0.8,0.6-1.1
					c6.8-4,13.6-8.1,20.3-12.1c0.2-0.1,0.3-0.3,0.5-0.4c0.1,0,0.2,0,0.2,0c0.1,0.2,0.1,0.4,0.2,0.5c3.5,6,7.1,12,10.6,17.9
					c0.6,1,1.2,2.1,1.9,3.2c-9.3,16.3-18.6,32.6-27.9,49c0,0,0.1,0.1,0.1,0.1c14.3-8.5,28.6-16.9,43-25.4
					c-4.3-7.2-8.6-14.3-12.9-21.5c0.3,0.1,0.5,0.1,0.6,0.2c4.6,1.5,9.2,3.1,13.7,4.9c6,2.4,11.9,5.1,17.6,8.4
					c0.4,0.2,0.5,0.5,0.5,0.9c-0.3,2.8-0.5,5.6-0.8,8.4c-0.4,3.2-0.8,6.5-1.3,9.7c-0.7,4.5-1.5,9-2.2,13.4c0,0.1-0.1,0.2-0.2,0.4
					c-4-6.8-8-13.6-12-20.3c-14.2,8.4-28.4,16.8-42.5,25.2c-0.1,0.1-0.2,0.2-0.3,0.2c0,0,0,0,0,0c0,0,0,0,0,0.1c0.2,0,0.4,0,0.6,0
					c1.9,0,3.8-0.1,5.8-0.1c2.4,0,4.8-0.1,7.2-0.1c2.4,0,4.8-0.1,7.3-0.1c2.4,0,4.8-0.1,7.1-0.1c2.4,0,4.8-0.1,7.3-0.1
					c2.4,0,4.8-0.1,7.1-0.1c3,0,6.1-0.1,9.1-0.1c1.3,0,2.6,0,3.9-0.1c0.4,0,0.6,0.1,0.9,0.5c2.2,3.7,4.4,7.4,6.6,11.1
					c1.9,3.3,3.9,6.5,5.8,9.8c0,0,0,0.1,0,0.1c-0.2,0.1-0.4,0.2-0.6,0.4c-6.8,4.1-13.7,8.1-20.5,12.2c-0.2,0.1-0.3,0.2-0.5,0.3
					c-16.3-9.2-32.6-18.4-48.9-27.6c0,0,0,0-0.1,0c0,0,0,0-0.1,0.1c8.5,14.2,17,28.5,25.5,42.8c7.1-4.2,14.2-8.5,21.2-12.7
					c0,0,0.1,0.1,0.1,0.1c-3.5,11.1-7.6,22-12.6,32.7c-1.9-0.1-3.8-0.2-5.7-0.4c-1.5-0.1-3-0.3-4.5-0.4c-1.2-0.1-2.4-0.3-3.7-0.4
					c-1.7-0.2-3.4-0.4-5-0.7c-2-0.3-4-0.6-5.9-0.9c-2.6-0.4-5.2-0.9-7.9-1.4c-0.6-0.1-1.2-0.2-1.7-0.3c0,0,0-0.1,0-0.1
					c7.2-4.2,14.5-8.5,21.7-12.7c0-0.1-0.1-0.2-0.1-0.3c-8.5-14.2-16.9-28.3-25.4-42.5c0,0,0,0,0,0c0,0,0,0-0.1,0c0,0.8,0,1.6,0,2.4
					c0.1,3.3,0.1,6.7,0.2,10c0.1,5.3,0.2,10.5,0.3,15.8c0.1,3.1,0.1,6.1,0.1,9.2c0.1,4.7,0.2,9.5,0.2,14.2c0,1.3,0,2.5,0.1,3.8
					c0,0.3-0.1,0.5-0.4,0.7c-0.1,0-0.2,0.1-0.3,0.2c-6.9,4.1-13.7,8.2-20.6,12.2C1231.3,160,1231.1,160.2,1231,160.3z M1248.1,141.5
					c0-2.9,0-5.7,0-8.5c0-2.8,0-5.5,0.1-8.3c0-2.8,0-5.6,0.1-8.4c0-2.8,0-5.6,0-8.4c0-2.8,0-5.5,0.1-8.3c0.1-3.3,0-7.9-0.1-8.3
					c-0.8,1.3-23.8,44.1-23.9,44.6C1232.2,137.8,1240,139.6,1248.1,141.5z M1241.4,82c0,0,0-0.1,0-0.1c-14.5-8-28.9-15.9-43.4-23.9
					c-0.7,2.7-1.4,5.3-2,7.9c-0.7,2.6-1.3,5.2-2,7.9c-0.7,2.6-1.4,5.2-2,7.9c0.3,0,0.6,0,0.8,0c3.4,0,6.7,0.1,10.1,0.1
					c4.6,0,9.2,0.1,13.8,0.1c4.1,0,8.2,0.1,12.4,0.1c4,0,8,0,11.9,0.1C1241.1,82,1241.2,82,1241.4,82z M1258.8,86.1c0,0,0,0.1,0,0.1
					c14.3,8,28.5,15.9,42.9,23.9c2-7.9,4-15.8,6-23.7C1291.4,86.4,1275.1,86.3,1258.8,86.1z M1252.8,26.4c-0.1,11.7-0.2,23.4-0.3,35
					c0,4.5-0.1,9-0.1,13.6c0,0,0,0,0,0c0,0,0,0,0.1,0c8-14.2,16-28.4,24-42.7C1268.6,30.4,1260.7,28.4,1252.8,26.4z"/>
				<path class="st1" d="M1247.3,70.9c-7.2-12.1-14.4-24.1-21.6-36.2c7-4.1,13.9-8.1,20.9-12.3c0.3,16.2,0.5,32.3,0.8,48.4
					C1247.4,70.9,1247.4,70.9,1247.3,70.9z"/>
				<path class="st1" d="M1219.3,38.7c7.2,12.1,14.4,24.2,21.6,36.2c0,0-0.1,0.1-0.1,0.1c-14.1-7.9-28.1-15.9-42.3-23.9
					C1205.4,47,1212.3,42.9,1219.3,38.7z"/>
				<path class="st1" d="M1283.1,31.7c4.2,7,8.3,13.8,12.5,20.7c-12.1,7.2-24.3,14.3-36.4,21.5c0,0-0.1-0.1-0.1-0.1
					C1267.1,59.8,1275.1,45.8,1283.1,31.7z"/>
				<path class="st1" d="M1300.2,59.5c4.1,7,8.2,13.8,12.3,20.8c-0.2,0-0.4,0-0.5,0c-1.8,0-3.7,0-5.5,0.1c-2.5,0-5,0.1-7.5,0.1
					c-2.3,0-4.6,0.1-7,0.1c-2.5,0-5,0.1-7.5,0.1c-2.3,0-4.6,0.1-6.9,0.1c-2.5,0-5,0.1-7.5,0.1c-2,0-3.9,0.1-5.9,0.1
					c-0.1,0-0.2,0-0.4,0c0,0,0-0.1,0-0.1c0,0,0,0,0,0C1275.9,73.9,1288,66.7,1300.2,59.5z"/>
				<path class="st1" d="M1200.8,108.8c-4.1-6.9-8.1-13.8-12.3-20.8c0.9,0,1.6,0,2.4,0c2.6,0,5.1-0.1,7.7-0.1c2.4,0,4.8-0.1,7.1-0.1
					c2.4,0,4.8-0.1,7.3-0.1c2.4,0,4.8-0.1,7.2-0.1s4.8-0.1,7.2-0.1c2.4,0,4.8-0.1,7.3-0.1c0.7,0,1.4,0,2.1-0.1c0.1,0,0.3,0,0.4,0
					C1236.9,87.6,1201.6,108.5,1200.8,108.8z"/>
				<path class="st1" d="M1217.5,135.3c-4.2-6.9-8.3-13.8-12.4-20.7c12.1-7.2,24.3-14.3,36.4-21.5c0,0,0.1,0.1,0.1,0.1
					c0,0,0,0,0,0.1c-7.9,13.9-15.8,27.8-23.8,41.7C1217.6,135,1217.6,135.1,1217.5,135.3z"/>
				<path class="st1" d="M1275.3,133.7c-7,4.1-13.9,8.1-20.9,12.3c-0.3-16.2-0.5-32.3-0.8-48.4c0,0,0.1,0,0.1,0
					C1260.9,109.5,1268,121.6,1275.3,133.7z"/>
				<path class="st1" d="M1302.6,117c-6.9,4.1-13.8,8.2-20.6,12.3c-0.1,0-0.1,0-0.1,0c0,0,0,0-0.1,0c-0.1-0.1-0.1-0.2-0.2-0.3
					c-7.1-11.9-14.2-23.9-21.3-35.8c0,0,0-0.1,0.1-0.1c0,0,0,0,0.1,0c14,7.9,28,15.8,42,23.7C1302.5,116.8,1302.5,116.9,1302.6,117z
					"/>
			</g>
		</g>
	</g>
	<g>
		<path class="st1" d="M1185.6,402.8c0-0.2,0.1-0.3,0.1-0.5c0.4-1.6,0.9-3.2,1.3-4.7c0.2-0.6,0-0.9-0.7-1.1
			c-0.7-0.2-1.5-0.3-2.2-0.4c-0.2,0-0.4-0.1-0.5-0.1c-0.2-0.1-0.4-0.2-0.4-0.3c0-0.1,0.1-0.3,0.3-0.4c0.3-0.2,0.6-0.5,1-0.7
			c1.1-0.8,2.2-1.5,3.3-2.3c0.8-0.5,1.3-1.2,1.6-2.2c0.4-1.6,0.9-3.1,1.4-4.7c0.1-0.3,0.2-0.5,0.2-0.8c0.1-0.2,0.2-0.4,0.4-0.4
			c0.2,0,0.3,0.2,0.3,0.4c0.4,1.2,0.9,2.4,1.3,3.5c0.3,0.7,0.7,0.7,1.1,0.5c0.4-0.2,0.9-0.5,1.2-0.8c1.3-1.1,2.7-2.1,4-3.2
			c2.8-2.2,5.7-4.3,8.6-6.3c3.6-2.4,7.3-4.7,11-6.9c2.4-1.4,4.7-2.8,7.2-4c2.1-1,4.1-2,6.3-2.9c3.5-1.6,7.2-2.9,10.8-4.2
			c4.1-1.4,8.2-2.6,12.4-3.5c0.4-0.1,0.8-0.2,1.2-0.2c0.3,0,0.6-0.1,0.8,0.1c-0.1,0.3-0.3,0.3-0.5,0.4c-0.7,0.2-1.5,0.4-2.2,0.6
			c-3.6,1-7.1,2.1-10.6,3.4c-4.2,1.5-8.4,3.2-12.4,5.1c-4.3,2-8.4,4.3-12.3,6.9c-2.7,1.8-5.4,3.6-8,5.4c-2.7,1.9-5.4,3.9-7.9,6.1
			c-1.3,1.1-2.6,2.3-3.9,3.5c-1.4,1.3-2.8,2.6-4.2,3.9c-0.7,0.7-0.9,1.5-0.6,2.4c0.4,1,0.7,2,1.1,3c0.1,0.2,0.1,0.3,0.2,0.5
			c0,0.3-0.1,0.5-0.4,0.5c-0.2,0-0.5,0-0.7-0.1c-1.1-0.2-2.2-0.4-3.3-0.6c-0.6-0.1-1,0-1.4,0.4c-0.7,0.8-1.5,1.5-2.2,2.3
			c-0.7,0.7-1.4,1.5-2.1,2.2C1186.1,402.7,1186,402.9,1185.6,402.8z"/>
		<path class="st1" d="M1220.5,383.5c0.3,0.1,0.4,0.3,0.4,0.5c0.3,1.1,0.5,2.1,0.8,3.2c0.1,0.3,0.2,0.7,0.5,0.9
			c0.3,0.2,0.6,0.3,0.9,0.3c0.9,0,1.8,0,2.7,0c0.4,0,0.8,0.1,1.2,0.1c0.2,0,0.3,0.1,0.5,0.2c-0.1,0.3-0.3,0.4-0.5,0.5
			c-1,0.7-2.1,1.3-3.1,2c-0.8,0.5-1,1.1-0.8,2c0.3,1.2,0.5,2.5,0.8,3.7c0,0.1,0.1,0.2,0,0.3c0,0.1-0.1,0.3-0.1,0.3
			c-0.1,0-0.3,0-0.4-0.1c-0.4-0.3-0.8-0.7-1.2-1c-0.6-0.5-1.1-1-1.7-1.4c-0.6-0.5-1.2-0.5-1.8,0c-1.1,0.9-2.3,1.8-3.4,2.7
			c-0.2,0.2-0.4,0.4-0.7,0.4c-0.1-0.2,0-0.4,0.1-0.6c0.5-1.3,1-2.6,1.5-3.8c0.1-0.2,0.1-0.3,0.2-0.5c0.2-0.6,0-1.2-0.5-1.5
			c-1-0.6-1.9-1.2-2.9-1.8c-0.2-0.1-0.3-0.2-0.5-0.4c0.1-0.3,0.4-0.3,0.6-0.4c1.3-0.1,2.6-0.3,4-0.4c0.8-0.1,1.4-0.5,1.7-1.2
			c0.5-1.2,1-2.4,1.5-3.6C1220.3,383.8,1220.4,383.6,1220.5,383.5z"/>
		<path class="st1" d="M1194.7,373.8c0.1-0.1,0.2-0.3,0.3-0.4c0.8-1.1,1.6-2.1,2.5-3.2c0,0,0.1-0.1,0.1-0.1c0.4-0.6,0.3-1-0.3-1.4
			c-0.8-0.5-1.6-0.9-2.5-1.3c-0.3-0.2-0.7-0.3-1-0.5c0.1-0.3,0.4-0.3,0.6-0.3c1.5-0.1,3-0.2,4.5-0.3c0.5,0,1,0,1.4-0.3
			c0.3-0.2,0.6-0.4,0.8-0.7c0.7-1,1.4-2,2.2-3c0-0.1,0.1-0.1,0.1-0.2c0.3-0.3,0.5-0.2,0.6,0.2c0.1,0.7,0.2,1.3,0.3,2
			c0.1,0.4,0.1,0.8,0.2,1.2c0.1,0.6,0.4,0.9,0.9,1c0.5,0.1,0.9,0.1,1.4,0.2c1,0.1,1.9,0.3,2.9,0.4c0.2,0,0.4,0.1,0.5,0.2
			c0,0.3-0.2,0.3-0.4,0.4c-0.6,0.2-1.2,0.4-1.8,0.7c-0.7,0.3-1.4,0.5-2.1,0.8c-0.8,0.3-1.1,0.8-1,1.6c0,0.9,0.1,1.9,0.1,2.8
			c0,0.3,0.1,0.6-0.2,0.7c-0.3,0.1-0.4-0.2-0.6-0.3c-0.8-0.7-1.5-1.3-2.2-2c-0.6-0.5-1.3-0.5-2-0.3c-0.6,0.2-1.2,0.5-1.8,0.8
			c-0.9,0.4-1.8,0.9-2.7,1.3c-0.2,0.1-0.4,0.1-0.6,0.2C1194.7,373.9,1194.7,373.8,1194.7,373.8z"/>
		<path class="st1" d="M1218.4,355.2c-0.3,0.1-0.5,0-0.7-0.1c-1.2-0.6-2.4-1.2-3.6-1.8c-0.7-0.4-1.5-0.3-2.2,0.1
			c-1.2,0.8-2.5,1.5-3.7,2.3c-0.2,0.1-0.4,0.3-0.7,0.2c0-0.2,0-0.3,0.1-0.5c0.4-0.9,0.8-1.9,1.2-2.8c0.4-0.9,0.2-1.3-0.7-1.6
			c-1.3-0.4-2.6-0.7-3.9-1c-0.2,0-0.4-0.1-0.6-0.2c0.1-0.3,0.4-0.3,0.6-0.4c1.6-0.3,3.3-0.6,4.9-0.9c0.3,0,0.5-0.1,0.8-0.2
			c0.5-0.2,0.7-0.5,0.9-1c0.3-0.9,0.6-1.8,0.9-2.7c0.1-0.2,0.1-0.5,0.4-0.5c0.3,0,0.4,0.2,0.5,0.5c0.5,0.9,1,1.7,1.5,2.6
			c0.4,0.7,1,1,1.8,0.9c1-0.1,2-0.2,2.9-0.2c0.6,0,1.3-0.1,1.9-0.1c0.2,0.3-0.1,0.4-0.2,0.5c-0.6,0.4-1.2,0.8-1.9,1.3
			c-0.5,0.3-1,0.6-1.5,0.9c-0.5,0.4-0.7,0.8-0.4,1.4c0.5,0.9,0.9,1.8,1.4,2.6C1218.2,354.7,1218.2,354.9,1218.4,355.2z"/>
		<path class="st1" d="M1221.9,335.8c0.3,0,0.4,0,0.6,0c1.2,0.1,2.4,0.2,3.6,0.3c0.3,0,0.7,0.1,1,0.1c0.2,0,0.5,0,0.7-0.1
			c0.3-0.1,0.4-0.3,0.5-0.6c0.2-0.9,0.4-1.7,0.6-2.6c0-0.1,0-0.2,0.1-0.2c0.1-0.2,0.1-0.4,0.3-0.4c0.1,0,0.3,0.2,0.4,0.3
			c0.5,0.8,1,1.7,1.4,2.5c0.1,0.3,0.3,0.5,0.4,0.8c0.4,0.7,0.9,1.1,1.7,1.3c1.4,0.3,2.8,0.7,4.2,1c0.2,0,0.3,0.1,0.5,0.2
			c0.1,0,0.2,0.1,0.2,0.2c0,0.1-0.1,0.2-0.2,0.2c-0.3,0.1-0.6,0.2-0.8,0.3c-0.8,0.3-1.5,0.5-2.3,0.8c-0.6,0.2-0.7,0.7-0.5,1.3
			c0.6,1.2,1.1,2.4,1.6,3.6c0.1,0.1,0.1,0.3,0.1,0.4c-0.3,0.1-0.4-0.1-0.6-0.2c-0.7-0.5-1.3-1.1-2-1.6c-0.5-0.4-1.1-0.8-1.6-1.2
			c-0.7-0.4-1.4-0.5-2.1-0.2c-0.9,0.4-1.8,0.9-2.7,1.3c-0.2,0.1-0.5,0.3-0.7,0.1c-0.3-0.2-0.1-0.5,0-0.7c0.2-0.8,0.4-1.6,0.7-2.4
			c0.2-0.8,0.1-1.2-0.6-1.6c-0.7-0.5-1.4-0.9-2.2-1.3c-0.6-0.4-1.3-0.7-2-1.1C1222.2,336.2,1222,336.1,1221.9,335.8z"/>
		<path class="st1" d="M1261.5,378.8c0.4,0.1,0.4,0.4,0.5,0.6c0.4,1.1,0.9,2.2,1.3,3.3c0.3,0.8,0.9,1.4,1.7,1.6c1,0.3,2,0.5,2.9,0.7
			c0.3,0.1,0.7,0.1,1,0.2c0.2,0,0.3,0.1,0.5,0.2c-0.1,0.3-0.3,0.3-0.5,0.4c-1,0.4-1.9,0.8-2.9,1.1c-0.6,0.2-0.7,0.6-0.5,1.2
			c0.5,1.1,1.1,2.2,1.6,3.3c0.1,0.2,0.1,0.3,0.2,0.5c-0.3,0.1-0.5,0-0.6-0.1c-1-0.8-2.1-1.6-3.1-2.4c-0.2-0.2-0.5-0.4-0.7-0.6
			c-0.5-0.4-1.1-0.6-1.7-0.3c-0.8,0.3-1.6,0.5-2.4,0.8c-0.1,0-0.1,0-0.2,0.1c-0.2,0.1-0.5,0.2-0.7,0c-0.2-0.2-0.1-0.4,0-0.6
			c0.1-0.4,0.2-0.8,0.4-1.2c0.1-0.4,0.3-0.9,0.4-1.3c0.1-0.4,0.1-0.8-0.1-1.1c-0.2-0.3-0.4-0.6-0.6-0.8c-1-1-2.1-2.1-3.1-3.1
			c-0.1-0.1-0.2-0.3-0.3-0.4c0,0,0.1-0.1,0.1-0.1c0.2,0.1,0.4,0.1,0.6,0.2c1.2,0.5,2.3,0.9,3.5,1.4c0.2,0.1,0.3,0.1,0.5,0.1
			c0.5,0.1,0.8-0.1,0.9-0.5c0.3-0.8,0.6-1.7,0.8-2.5C1261.4,379.1,1261.5,378.9,1261.5,378.8z"/>
		<path class="st1" d="M1242.8,384.7c0.1,0.2,0.2,0.4,0.3,0.5c0.4,1.1,0.7,2.1,1.1,3.2c0.2,0.8,0.7,1.3,1.5,1.5
			c1.1,0.4,2.2,0.7,3.4,1.1c0.2,0.1,0.5,0.1,0.7,0.4c-0.2,0.1-0.3,0.2-0.5,0.3c-0.8,0.3-1.6,0.5-2.4,0.8c-0.7,0.3-0.9,0.6-0.7,1.4
			c0.3,0.9,0.6,1.7,0.9,2.6c0.1,0.3,0.2,0.5,0.3,0.8c0.1,0.2,0.1,0.4,0.1,0.6c0,0-0.1,0-0.1,0.1c-0.2-0.1-0.3-0.2-0.5-0.4
			c-1-0.9-2-1.8-3-2.7c-0.2-0.2-0.4-0.3-0.6-0.4c-0.4-0.2-0.8-0.2-1.1,0c-0.9,0.4-1.8,0.8-2.6,1.2c-0.1,0-0.1,0.1-0.2,0.1
			c-0.2,0-0.3,0-0.5,0c0-0.2,0-0.3,0-0.5c0.3-0.9,0.6-1.8,1-2.7c0.4-0.8,0.2-1.5-0.4-2.1c-0.9-0.9-1.8-1.9-2.8-2.8
			c-0.1-0.1-0.3-0.3-0.4-0.5c0.1-0.2,0.3-0.2,0.4-0.1c1,0.3,2.1,0.6,3.1,1c0.2,0.1,0.5,0.2,0.7,0.2c0.5,0.1,1-0.1,1.2-0.6
			c0.3-0.8,0.6-1.7,0.9-2.5c0.1-0.1,0.1-0.3,0.2-0.4C1242.7,384.7,1242.8,384.7,1242.8,384.7z"/>
		<path class="st1" d="M1282.5,372.3c-0.1,0.1-0.3,0.3-0.4,0.4c-0.9,0.6-1.9,1.2-2.8,1.9c-0.6,0.4-0.7,0.8-0.4,1.4
			c0.4,0.8,0.8,1.5,1.2,2.3c0.1,0.1,0.1,0.3,0.2,0.4c-0.3,0.2-0.5,0-0.6,0c-0.9-0.5-1.9-1.1-2.8-1.7c-0.3-0.2-0.6-0.4-1-0.4
			c-0.3,0-0.6,0-0.9,0.1c-0.8,0.3-1.6,0.7-2.3,1c-0.1,0-0.2,0.1-0.3,0.1c-0.2,0-0.3,0-0.5,0c-0.1,0,0-0.3,0-0.4
			c0.2-0.7,0.5-1.4,0.7-2.1c0.3-0.8,0.1-1.2-0.5-1.7c-1-0.8-1.9-1.6-2.9-2.5c-0.1-0.1-0.1-0.2-0.3-0.4c0.3,0,0.5,0,0.6,0.1
			c1,0.2,1.9,0.4,2.9,0.6c0.2,0,0.3,0.1,0.5,0.1c0.6,0.1,1-0.1,1.2-0.8c0.3-0.9,0.6-1.8,0.9-2.7c0.1-0.2,0.2-0.3,0.2-0.5
			c0.3,0.1,0.4,0.4,0.4,0.6c0.4,1,0.7,1.9,1.1,2.9c0.2,0.7,0.7,1,1.4,1c1.2,0,2.4,0,3.6,0c0.2,0,0.4,0,0.6,0
			C1282.5,372.2,1282.5,372.2,1282.5,372.3z"/>
		<path class="st1" d="M1246.4,334.9c0.2,0,0.4,0,0.6,0.1c1.1,0.3,2.2,0.6,3.3,0.9c0.1,0,0.2,0.1,0.3,0.1c0.5,0.1,0.9-0.1,1-0.6
			c0.3-0.9,0.6-1.7,0.9-2.6c0.1-0.2,0.2-0.3,0.2-0.5c0.3,0.1,0.3,0.3,0.4,0.4c0.4,1.1,0.8,2.2,1.1,3.2c0.3,0.8,0.8,1.3,1.6,1.5
			c1,0.3,2,0.6,3.1,0.9c0.2,0.1,0.5,0.1,0.6,0.4c-0.2,0.1-0.3,0.2-0.5,0.3c-0.8,0.3-1.6,0.6-2.4,0.9c-0.7,0.3-0.9,0.6-0.7,1.3
			c0.3,1,0.6,2,0.9,3c0.1,0.2,0.1,0.4,0.1,0.6c-0.3,0-0.4-0.2-0.6-0.3c-0.9-0.9-1.7-1.7-2.6-2.6c-0.5-0.6-1.1-0.7-1.8-0.4
			c-0.7,0.2-1.4,0.4-2,0.7c-0.1,0-0.2,0.1-0.2,0.1c-0.4,0.1-0.6-0.1-0.4-0.5c0.3-0.7,0.5-1.5,0.8-2.2c0.3-0.7,0.1-1.2-0.5-1.7
			c-0.9-0.8-1.7-1.6-2.6-2.4C1246.9,335.4,1246.6,335.3,1246.4,334.9z"/>
		<path class="st1" d="M1293.1,352.1c-0.1,0.2-0.2,0.3-0.3,0.4c-1,1-1.9,2-2.9,3c-0.2,0.2-0.3,0.4-0.5,0.6c-0.2,0.3-0.2,0.6,0,1
			c0.3,0.7,0.6,1.5,0.9,2.2c0.1,0.2,0.3,0.4,0.1,0.6c-0.1,0.1-0.4,0.1-0.6,0c-0.8-0.2-1.5-0.4-2.3-0.7c-0.7-0.3-1.3-0.1-1.9,0.4
			c-0.9,0.8-1.8,1.6-2.7,2.4c-0.1,0.1-0.3,0.2-0.4,0.3c0,0-0.1,0-0.1-0.1c0-0.2,0-0.4,0.1-0.6c0.3-0.9,0.7-1.9,1-2.8
			c0-0.1,0.1-0.3,0.1-0.4c0.1-0.4-0.1-0.7-0.5-0.9c-0.7-0.4-1.5-0.8-2.2-1.2c-0.1,0-0.2-0.1-0.2-0.1c-0.1-0.1-0.2-0.2-0.3-0.3
			c0.1-0.1,0.3-0.2,0.4-0.2c0.3-0.1,0.7-0.1,1-0.2c0.7-0.1,1.4-0.3,2.1-0.4c0.7-0.2,1.2-0.6,1.4-1.3c0.4-1.1,0.8-2.2,1.1-3.3
			c0.1-0.2,0.2-0.3,0.3-0.6c0.1,0.2,0.2,0.4,0.3,0.5c0.2,0.8,0.5,1.6,0.7,2.3c0.3,0.9,0.6,1.1,1.5,0.7c1-0.4,2-0.8,3.1-1.2
			C1292.6,352.2,1292.8,352.1,1293.1,352.1z"/>
		<path class="st1" d="M1269.6,339.4c0.1,0,0.3,0,0.4,0c0.9,0,1.9,0,2.8,0c0.6,0,1.1-0.2,1.3-1c0.2-0.9,0.5-1.9,0.7-2.8
			c0.1-0.3,0.2-0.7,0.3-1c0.3,0,0.3,0.3,0.4,0.4c0.3,0.8,0.5,1.7,0.8,2.5c0.1,0.2,0.1,0.4,0.2,0.6c0.2,0.5,0.5,0.8,1.1,0.8
			c1,0,2-0.1,2.9-0.1c0.2,0,0.5,0,0.7,0c0,0.3-0.1,0.4-0.3,0.5c-0.5,0.4-1,0.7-1.4,1.1c-0.3,0.3-0.7,0.5-1,0.8
			c-0.5,0.4-0.6,0.8-0.4,1.4c0.3,0.9,0.6,1.7,1,2.6c0.1,0.2,0.2,0.4,0.1,0.7c-0.1,0-0.3-0.1-0.4-0.1c-0.7-0.4-1.5-0.8-2.2-1.2
			c-0.8-0.5-1.1-0.5-1.8,0.1c-0.6,0.5-1.3,1-1.9,1.6c-0.2,0.1-0.3,0.3-0.7,0.3c0-0.2,0-0.4,0.1-0.6c0.2-0.8,0.5-1.7,0.7-2.5
			c0.2-0.8,0.1-1.1-0.6-1.5c-0.8-0.6-1.6-1.2-2.3-1.9c-0.1-0.1-0.2-0.3-0.4-0.4C1269.6,339.5,1269.6,339.5,1269.6,339.4z"/>
		<path class="st1" d="M1293.9,343.2c0-0.1,0.1-0.3,0.1-0.4c0.4-0.9,0.7-1.8,1.1-2.7c0-0.1,0.1-0.2,0.1-0.3c0.2-0.6,0-0.9-0.5-1.1
			c-0.7-0.3-1.5-0.5-2.2-0.8c-0.1,0-0.3-0.1-0.4-0.2c0-0.3,0.2-0.3,0.3-0.4c0.8-0.2,1.6-0.5,2.4-0.7c0.3-0.1,0.7-0.2,1-0.3
			c0.6-0.2,1.1-0.6,1.3-1.2c0.3-0.9,0.7-1.8,1-2.6c0.1-0.3,0.1-0.6,0.6-0.8c0.1,0.2,0.1,0.3,0.2,0.5c0.2,0.7,0.4,1.4,0.7,2.1
			c0.2,0.5,0.4,0.6,0.9,0.5c0.2,0,0.4-0.1,0.5-0.1c0.9-0.3,1.9-0.6,2.8-0.9c0.2,0,0.3-0.1,0.5-0.1c0,0.2-0.1,0.3-0.2,0.4
			c-0.9,0.8-1.8,1.6-2.7,2.4c-0.2,0.2-0.3,0.4-0.4,0.6c-0.2,0.2-0.2,0.5,0,0.8c0.3,0.6,0.6,1.2,0.9,1.8c0.2,0.4,0.1,0.6-0.4,0.6
			c-0.8-0.1-1.6-0.2-2.4-0.3c-0.7-0.2-1.3,0-1.9,0.5c-0.9,0.8-1.8,1.7-2.7,2.5c-0.2,0.2-0.4,0.3-0.5,0.4
			C1294,343.2,1294,343.2,1293.9,343.2z"/>
	</g>
	<g>
		<path class="st1" d="M1077.8,294.6l-0.2-17.4c0-1.9,0-3.9,0.1-5.8l1.2-0.7c0.9,0.1,1.9,2.4,3,7.1c0.9,3.8,1.7,7.3,2.2,10.4
			c0.6,3.1,0.9,4.7,0.9,5c0.2-1,0.6-2.7,1.1-5.2c0.6-2.5,1-4.4,1.2-5.8c0.8-4,1.3-7.6,1.5-10.7v-0.3c0.1-0.4,0.2-0.7,0.5-0.9
			s0.6-0.4,1-0.4c0.3,0,0.6,0.1,0.8,0.4c0.2,0.2,0.3,0.5,0.3,0.8c0,3.6,0.1,8.9,0.4,16.1c0.3,7.1,0.4,12.5,0.4,16.1
			c0,0.7-0.2,1.3-0.6,1.9c-0.4,0.5-0.7,0.8-1.1,0.8c-0.7,0-1.1-0.6-1.1-1.8l-0.2-18.9V283c-0.2,1.2-0.7,3.2-1.4,6.1
			c-0.7,2.9-1.2,5.1-1.4,6.6v0.3c0,0.1-0.1,0.4-0.1,0.8c-0.1,0.4-0.1,0.8-0.2,1.1c-0.1,0.3-0.2,0.6-0.3,1c-0.3,0.7-0.7,1.1-1.4,1.1
			c-1.1,0-1.6-1.4-1.6-4.2c0-2.8-0.7-6.6-2-11.6c-0.7-2.5-1.1-4.2-1.3-5c-0.1,2.4-0.1,4.2-0.1,5.4l0.4,18.4c0,0.6-0.2,1.2-0.7,1.7
			c-0.8,0-1.3-0.2-1.6-0.7c-0.3-0.5-0.4-1.2-0.4-2L1077.8,294.6z"/>
		<path class="st1" d="M1096.8,282.1l-0.2-3.8c0-2.1,0.6-3.2,1.9-3.2c0.8,0,1.9,0.2,3.3,0.6c1.4,0.4,2.1,0.9,2.1,1.4
			c0,0.6-0.4,1.1-1.3,1.4c-1.4-0.5-2.5-0.8-3.4-0.9c0,0.6,0.1,1.3,0.1,1.9l-0.2,6.4c0,0,0,0.3,0.1,0.7l1.6-0.1
			c1.4,0,2.2,0.4,2.2,1.2c0,0.3-0.1,0.6-0.4,0.8c-0.3,0.2-0.6,0.4-1,0.4c-0.4,0-0.8,0-1.3-0.1h-1.1c0.1,1.1,0.1,2.3,0.1,3.4
			l-0.2,8.1c0,1.7,0,2.5,0.1,2.5l3.3-0.1c1.1,0,1.7,0.4,1.7,1.1c0,0.5-0.2,0.8-0.6,1c-0.4,0.2-0.8,0.3-1.3,0.3h-3.8
			c-0.4,0-0.8-0.1-1.1-0.4s-0.5-0.6-0.5-1v-1.2l-0.3-7.6L1096.8,282.1z"/>
		<path class="st1" d="M1109.4,289.8l0,4.9c0,4,0.3,7.1,0.9,9.4l-0.5,1.2h-1.2l-0.6-0.7c0-1.3,0-2.9,0-4.5c0-1.7-0.1-5.2-0.4-10.7
			s-0.4-9.6-0.4-12.3c0-1.4,0.5-2.1,1.5-2.1c1.6,0,2.9,0.4,3.9,1.2c1.1,0.8,1.6,2,1.6,3.5v3.2c0,0.9-0.2,1.6-0.5,2.4
			s-0.7,1.5-1.1,2.2c-0.4,0.8-0.7,1.2-0.7,1.3c0.2,0.7,0.4,2.2,0.9,4.3c0.9,4.7,1.8,8,2.9,10.1c0.3,0.6,0.5,1,0.5,1.4
			s-0.1,0.6-0.3,0.8c-0.2,0.2-0.4,0.3-0.7,0.3c-0.6,0-1.2-0.7-1.8-2.2c-0.6-1.4-1-3-1.4-4.8c-1.1-5.4-1.7-8.3-1.9-8.8H1109.4z
			 M1109.6,276.6l-0.2,0.6c0,1.2,0,3,0.1,5.3c0.1,2.3,0.1,4,0.1,5c0.7-0.4,1.3-1.3,1.7-2.9s0.6-2.7,0.6-3.5s0-1.4-0.1-1.8
			c0-0.4-0.1-0.8-0.3-1.3C1111.3,277.1,1110.7,276.6,1109.6,276.6z"/>
		<path class="st1" d="M1118.8,294l0-2.6v-1.1c0-4.4,0.2-7.5,0.7-9.2c0.5-2.1,1.3-3.6,2.2-4.4c1.3-1.1,2.9-1.7,4.8-1.7
			c0.5,0,0.8,0.1,1,0.3s0.3,0.5,0.3,0.8c0,0.3-0.1,0.6-0.3,0.8c-0.2,0.2-0.4,0.4-0.7,0.4h-2.1c-0.6,0-1.1,0.4-1.6,1.2
			c-0.4,0.8-0.8,1.8-1,2.9c-0.4,2.2-0.6,4-0.5,5.4v0.2l-0.2,8.7c0,1.8,0.1,3.1,0.3,3.8c0.2,0.7,0.4,1.3,0.6,1.7s0.5,0.8,0.8,1.1
			c0.7,0.6,1.5,1,2.6,1c0.4,0,0.7-0.1,1-0.4c0.4,0,0.7,0.1,0.9,0.2c0.3,0.2,0.4,0.4,0.4,0.7c0,1.2-0.8,1.8-2.5,1.8
			c-0.7,0-1.4-0.1-2.1-0.3c-0.7-0.2-1.3-0.4-1.7-0.6C1119.8,303.2,1118.8,299.7,1118.8,294z"/>
		<path class="st1" d="M1141,295.7l0.5,2.8c0,0.4,0.1,1.3,0.4,2.7s0.4,2.3,0.4,2.8v0c0,0.7-0.2,1.1-0.7,1.3c-0.6,0-1.1-0.1-1.5-0.3
			c-0.4-0.2-0.5-0.6-0.5-1.2c0-1.3-0.2-3.1-0.7-5.5l-4.4-0.7c-0.3,1-0.5,2.1-0.6,3.3c-0.1,1.2-0.3,2-0.4,2.6
			c-0.3,1.1-0.8,1.7-1.5,1.7c-0.4,0-0.7-0.1-1-0.3c-0.3-0.2-0.4-0.5-0.4-0.9l0.1-0.4c2-7.8,3.5-15.4,4.5-22.7c0-0.2,0.1-0.8,0.1-1.8
			c0.1-2.2,0.4-3.6,0.8-4.2h1.5c0.4,0,0.8,0.1,1.1,0.3c0.3,0.2,0.5,0.5,0.5,0.9c0,2.3,0.3,5.7,0.9,10.1S1141,293.7,1141,295.7z
			 M1138.7,296.6c-0.1-0.4-0.1-1.2-0.1-2.3s-0.1-2.4-0.2-4.1s-0.3-3.5-0.5-5.6c-0.2-2.1-0.4-3.7-0.5-4.7c-1.4,7.5-2.2,12.8-2.6,15.9
			C1135.2,296.2,1136.6,296.4,1138.7,296.6z"/>
		<path class="st1" d="M1148.7,304.1l-0.1-3.4c0,0,0-0.5,0.1-1.5c-0.1-0.4-0.4-3.8-0.7-10.1c-0.4-6.4-0.6-10.3-0.6-11.7
			c-0.1,0-0.1,0-0.2,0c-2.4,0-3.6-0.5-3.6-1.3c0-0.3,0.2-0.5,0.5-0.7s0.6-0.3,0.9-0.3l6.1,0.4l0.7,0c0.9,0,1.4,0.4,1.4,1.1
			c0,0.4-0.2,0.7-0.5,0.9c-0.3,0.2-0.6,0.3-1,0.3l-2.1-0.3l-0.1,0.5c0,2.8,0.2,7.1,0.7,12.7s0.7,9.9,0.7,12.7c0,0.4-0.2,0.7-0.5,0.9
			s-0.7,0.4-1.1,0.4L1148.7,304.1z"/>
		<path class="st1" d="M1162.4,299.2l0.1-14.1c0-1-0.1-2.4-0.3-4.4c-0.2-2-0.3-3.2-0.3-3.8s0.2-1,0.5-1.3c0.3-0.3,0.7-0.4,1.1-0.4
			c3.1,0,5.6,1.8,7.5,5.4c1.1,2.1,1.7,4.2,1.7,6.5l-0.1,2.3v2.5c0,3-0.1,5-0.4,6c-0.3,1-0.6,1.8-0.8,2.5c-0.3,0.7-0.6,1.3-1.1,1.8
			c-0.9,1.2-2.1,2.2-3.6,2.9h-3.2C1162.8,305.1,1162.4,303.1,1162.4,299.2z M1165.5,301.7v1.1c2.6,0,4.2-2.6,4.7-7.9
			c0.1-1.2,0.2-2.4,0.2-3.5c0-9-1.7-13.7-5.2-14.2c-0.2,1.2-0.3,2.8-0.3,4.9c0,2.1,0.1,5.3,0.3,9.7
			C1165.4,296.2,1165.5,299.5,1165.5,301.7z"/>
		<path class="st1" d="M1176.9,282.1l-0.2-3.8c0-2.1,0.6-3.2,1.9-3.2c0.8,0,1.9,0.2,3.3,0.6c1.4,0.4,2.1,0.9,2.1,1.4
			c0,0.6-0.4,1.1-1.3,1.4c-1.4-0.5-2.5-0.8-3.4-0.9c0,0.6,0.1,1.3,0.1,1.9l-0.2,6.4c0,0,0,0.3,0.1,0.7l1.6-0.1
			c1.4,0,2.2,0.4,2.2,1.2c0,0.3-0.1,0.6-0.4,0.8s-0.6,0.4-1,0.4s-0.8,0-1.3-0.1h-1.1c0.1,1.1,0.1,2.3,0.1,3.4l-0.2,8.1
			c0,1.7,0,2.5,0.1,2.5l3.3-0.1c1.1,0,1.7,0.4,1.7,1.1c0,0.5-0.2,0.8-0.6,1c-0.4,0.2-0.8,0.3-1.3,0.3h-3.8c-0.4,0-0.8-0.1-1.1-0.4
			s-0.5-0.6-0.5-1v-1.2l-0.3-7.6L1176.9,282.1z"/>
		<path class="st1" d="M1192.8,304.3c0-0.8,0.3-1.2,1-1.2c0.3,0,0.8,0.1,1.3,0.3c0.5,0.2,1,0.3,1.4,0.3s0.8-0.3,1.3-0.8
			c0.5-0.5,0.8-1.1,1.1-1.9c0.5-1.5,0.8-2.9,0.8-4.2c0-1.2-0.2-2.6-0.7-4s-1-2.8-1.6-4c-0.6-1.3-1.3-2.5-1.9-3.8
			c-1.5-3-2.3-5.7-2.3-8.2c0-2.3,0.7-4.2,2.2-5.5c0.8-0.7,1.7-1.1,2.8-1.1c0.5,0,1.1,0.1,1.6,0.4s0.9,0.7,1.1,1.2l-0.8,1
			c-0.7,0-1.3-0.1-1.8-0.4c-0.6,0.1-1,0.3-1.4,0.8c-0.7,0.9-1.1,1.9-1.1,3.2s0.2,2.5,0.5,3.7s0.7,2.3,1.2,3.2s1,2,1.6,3.1
			c0.6,1.1,1.1,2.2,1.6,3.2c1.1,2.4,1.7,4.9,1.7,7.7c0,1.9-0.5,3.8-1.5,5.6c-0.5,0.8-1.1,1.5-1.9,2.1c-0.8,0.5-1.7,0.8-2.7,0.8
			c-1.1,0-1.9-0.2-2.6-0.5C1193.1,305,1192.8,304.6,1192.8,304.3z"/>
		<path class="st1" d="M1210.5,289.9l0.2,9.5v1.3l0,1.2h0.6l1.3,0c1.2,0,1.8,0.4,1.8,1.1c0,0.4-0.1,0.7-0.4,1
			c-0.3,0.3-0.6,0.4-1,0.4h-2c-1.4,0-2.2,0-2.6-0.1c-0.2,0-0.4,0-0.5,0c-1.1,0-1.6-0.3-1.6-1c0-0.3,0.1-0.5,0.3-0.8s0.4-0.4,0.5-0.4
			h1.3l0.1-0.6l-0.3-9.5l0.2-10c0-1.7-0.1-3.3-0.2-4.8h-0.9l-1,0c-0.4,0-0.8-0.1-1-0.3c-0.2-0.2-0.4-0.5-0.4-1c0-0.7,0.7-1,2.2-1
			h5.3c1.2,0,1.8,0.3,1.8,0.9c0,0.3-0.1,0.5-0.4,0.8c-0.3,0.2-0.6,0.4-0.9,0.4h-2.3c0.1,1.2,0.2,2.6,0.2,4.2L1210.5,289.9z"/>
		<path class="st1" d="M1221.7,304.1l-0.1-3.4c0,0,0-0.5,0.1-1.5c-0.1-0.4-0.4-3.8-0.7-10.1c-0.4-6.4-0.6-10.3-0.6-11.7
			c-0.1,0-0.1,0-0.2,0c-2.4,0-3.6-0.5-3.6-1.3c0-0.3,0.2-0.5,0.5-0.7s0.6-0.3,0.9-0.3l6.1,0.4l0.7,0c0.9,0,1.4,0.4,1.4,1.1
			c0,0.4-0.2,0.7-0.5,0.9c-0.3,0.2-0.6,0.3-1,0.3l-2.1-0.3l-0.1,0.5c0,2.8,0.2,7.1,0.7,12.7c0.5,5.7,0.7,9.9,0.7,12.7
			c0,0.4-0.2,0.7-0.5,0.9s-0.7,0.4-1.1,0.4L1221.7,304.1z"/>
		<path class="st1" d="M1240.1,295.8l0.2,4.8c0,1.5-0.5,2.6-1.5,3.4c-1,0.8-2.2,1.2-3.6,1.2c-2.1,0-3.6-0.8-4.5-2.3
			c-0.7-1.1-1.1-2.1-1.3-3.1c-0.2-1-0.3-1.7-0.4-2.2c-0.1-0.5-0.1-1.2-0.2-2.1c-0.1-1.2-0.1-2.2-0.1-3v-1.9c0-4.2,0.1-6.9,0.4-8
			c0.2-1.1,0.5-2.2,0.9-3.1s0.7-1.7,1.2-2.2c1.1-1.3,2.4-1.9,3.9-1.9c1.5,0,2.2,0.4,2.2,1.1c0,0.4-0.1,0.6-0.4,0.9
			c-0.3,0.2-0.6,0.3-1,0.3l-0.9-0.1c-1,0-1.8,1-2.3,3.1c-0.8,2.9-1.1,6.4-1.1,10.6c0,2.8,0.1,4.8,0.3,5.8c0.2,1.1,0.4,1.9,0.6,2.7
			c0.2,0.7,0.5,1.3,0.7,1.8c0.7,1,1.6,1.6,2.7,1.6c1.4,0,2.2-2.4,2.2-7.1v-2.1c-0.2-0.1-0.6-0.2-1.1-0.2l-0.9,0c-1,0-1.6-0.3-1.6-1
			c0-0.4,0.1-0.7,0.4-1c0.3-0.2,0.7-0.3,1.1-0.3v0h0.6c2.7,0,4,0.5,4,1.4L1240.1,295.8z"/>
		<path class="st1" d="M1244.6,282.1l-0.2-3.8c0-2.1,0.6-3.2,1.9-3.2c0.8,0,1.9,0.2,3.3,0.6c1.4,0.4,2.1,0.9,2.1,1.4
			c0,0.6-0.4,1.1-1.3,1.4c-1.4-0.5-2.5-0.8-3.4-0.9c0,0.6,0.1,1.3,0.1,1.9l-0.2,6.4c0,0,0,0.3,0.1,0.7l1.6-0.1
			c1.4,0,2.2,0.4,2.2,1.2c0,0.3-0.1,0.6-0.4,0.8c-0.3,0.2-0.6,0.4-1,0.4s-0.8,0-1.3-0.1h-1.1c0.1,1.1,0.1,2.3,0.1,3.4l-0.2,8.1
			c0,1.7,0,2.5,0.1,2.5l3.3-0.1c1.1,0,1.7,0.4,1.7,1.1c0,0.5-0.2,0.8-0.6,1c-0.4,0.2-0.8,0.3-1.3,0.3h-3.8c-0.4,0-0.8-0.1-1.1-0.4
			s-0.5-0.6-0.5-1v-1.2l-0.3-7.6L1244.6,282.1z"/>
		<path class="st1" d="M1255.1,302.9l1.9,0.3c0.6,0,1.1-0.2,1.5-0.7c0.4-0.5,0.7-1.1,0.9-1.9c0.4-1.4,0.6-2.7,0.6-3.8
			s-0.2-2.2-0.5-3.3c-0.4-1.1-0.8-2.1-1.3-3c-0.5-0.9-1.1-1.9-1.6-2.8c-1.3-2.3-1.9-4.5-1.9-6.7c0-1.3,0.2-2.5,0.7-3.6
			c0.8-1.9,2-2.9,3.4-2.9c0.5,0,1,0.2,1.5,0.5c0.5,0.3,0.7,0.7,0.7,1.1c0,0.7-0.4,1-1.1,1c-0.3,0-0.6-0.1-0.9-0.3
			c-0.9,0-1.6,1.1-1.9,3.2c-0.1,0.5-0.1,1-0.1,1.6c0,0.6,0.1,1.4,0.4,2.2c0.3,0.9,0.6,1.7,1,2.4c0.4,0.7,0.8,1.5,1.3,2.3
			c0.5,0.8,0.9,1.7,1.3,2.4c0.9,1.8,1.4,3.9,1.4,6.3c0,1.8-0.4,3.5-1.2,5.2c-0.4,0.8-1,1.5-1.7,2s-1.6,0.8-2.6,0.8v0.1
			c-1.2-0.2-1.9-0.8-2-1.7L1255.1,302.9z"/>
		<path class="st1" d="M1271.1,305.6c-0.4,0.9-1,1.8-1.8,2.5c-0.7,0.7-1.4,1.1-2,1.1c-0.6,0-0.9-0.2-0.9-0.6s0.2-0.7,0.5-1
			c0.7-0.8,1.1-2.2,1.4-4.2c0.3-1.8,0.8-2.7,1.8-2.7c1,0,1.6,0.8,1.6,2.4C1271.7,303.8,1271.5,304.6,1271.1,305.6z"/>
		<path class="st1" d="M1282.8,303.5l0.2-16c0-7-0.4-12.4-1.2-16c0.5-0.7,1-1,1.7-1c1.1,0,2.1,0.2,3,0.7c0.9,0.5,1.7,1.2,2.2,2
			c1.2,1.7,1.8,3.7,1.8,5.8s-0.5,4.2-1.4,6c-0.9,1.8-2.3,3.2-4.2,4.2l0.4,14c0,1.2-0.5,1.9-1.5,1.9c-0.4,0-0.6-0.2-0.8-0.5
			C1282.9,304.3,1282.8,303.9,1282.8,303.5z M1285,287c2.3-2.1,3.4-4.7,3.4-7.6v0c0-1.7-0.2-2.9-0.6-3.5c-0.2-0.3-0.4-0.6-0.5-0.8
			s-0.4-0.4-0.8-0.7c-0.5-0.4-1.1-0.9-2.1-1.6c0,1.6,0.1,3.9,0.3,7.1C1284.9,283.1,1285,285.5,1285,287z"/>
		<path class="st1" d="M1302.2,295.7l0.5,2.8c0,0.4,0.1,1.3,0.4,2.7s0.4,2.3,0.4,2.8v0c0,0.7-0.2,1.1-0.7,1.3
			c-0.6,0-1.1-0.1-1.5-0.3c-0.4-0.2-0.5-0.6-0.5-1.2c0-1.3-0.2-3.1-0.7-5.5l-4.4-0.7c-0.3,1-0.5,2.1-0.6,3.3c-0.1,1.2-0.3,2-0.4,2.6
			c-0.3,1.1-0.8,1.7-1.5,1.7c-0.4,0-0.7-0.1-1-0.3c-0.3-0.2-0.4-0.5-0.4-0.9l0.1-0.4c2-7.8,3.5-15.4,4.5-22.7c0-0.2,0.1-0.8,0.1-1.8
			c0.1-2.2,0.4-3.6,0.8-4.2h1.5c0.4,0,0.8,0.1,1.1,0.3s0.5,0.5,0.5,0.9c0,2.3,0.3,5.7,0.9,10.1S1302.2,293.7,1302.2,295.7z
			 M1299.8,296.6c-0.1-0.4-0.1-1.2-0.1-2.3s-0.1-2.4-0.2-4.1c-0.1-1.6-0.3-3.5-0.5-5.6c-0.2-2.1-0.4-3.7-0.5-4.7
			c-1.4,7.5-2.2,12.8-2.6,15.9C1296.4,296.2,1297.7,296.4,1299.8,296.6z"/>
		<path class="st1" d="M1309,289.8l0,4.9c0,4,0.3,7.1,0.9,9.4l-0.5,1.2h-1.2l-0.6-0.7c0-1.3,0-2.9,0-4.5c0-1.7-0.1-5.2-0.4-10.7
			c-0.3-5.5-0.4-9.6-0.4-12.3c0-1.4,0.5-2.1,1.5-2.1c1.6,0,2.9,0.4,3.9,1.2c1.1,0.8,1.6,2,1.6,3.5v3.2c0,0.9-0.2,1.6-0.5,2.4
			s-0.7,1.5-1.1,2.2c-0.4,0.8-0.7,1.2-0.7,1.3c0.2,0.7,0.4,2.2,0.9,4.3c0.9,4.7,1.8,8,2.9,10.1c0.3,0.6,0.5,1,0.5,1.4
			s-0.1,0.6-0.3,0.8c-0.2,0.2-0.4,0.3-0.7,0.3c-0.6,0-1.2-0.7-1.8-2.2c-0.6-1.4-1-3-1.4-4.8c-1.1-5.4-1.7-8.3-1.9-8.8H1309z
			 M1309.2,276.6l-0.2,0.6c0,1.2,0,3,0.1,5.3c0.1,2.3,0.1,4,0.1,5c0.7-0.4,1.3-1.3,1.7-2.9s0.6-2.7,0.6-3.5s0-1.4-0.1-1.8
			c0-0.4-0.1-0.8-0.3-1.3C1310.9,277.1,1310.2,276.6,1309.2,276.6z"/>
		<path class="st1" d="M1328,295.7l0.5,2.8c0,0.4,0.1,1.3,0.4,2.7s0.4,2.3,0.4,2.8v0c0,0.7-0.2,1.1-0.7,1.3c-0.6,0-1.1-0.1-1.5-0.3
			c-0.4-0.2-0.5-0.6-0.5-1.2c0-1.3-0.2-3.1-0.7-5.5l-4.4-0.7c-0.3,1-0.5,2.1-0.6,3.3c-0.1,1.2-0.3,2-0.4,2.6
			c-0.3,1.1-0.8,1.7-1.5,1.7c-0.4,0-0.7-0.1-1-0.3c-0.3-0.2-0.4-0.5-0.4-0.9l0.1-0.4c2-7.8,3.5-15.4,4.5-22.7c0-0.2,0.1-0.8,0.1-1.8
			c0.1-2.2,0.4-3.6,0.8-4.2h1.5c0.4,0,0.8,0.1,1.1,0.3s0.5,0.5,0.5,0.9c0,2.3,0.3,5.7,0.9,10.1S1328,293.7,1328,295.7z
			 M1325.6,296.6c-0.1-0.4-0.1-1.2-0.1-2.3s-0.1-2.4-0.2-4.1c-0.1-1.6-0.3-3.5-0.5-5.6c-0.2-2.1-0.4-3.7-0.5-4.7
			c-1.4,7.5-2.2,12.8-2.6,15.9C1322.2,296.2,1323.5,296.4,1325.6,296.6z"/>
		<path class="st1" d="M1332.7,299.2l0.1-14.1c0-1-0.1-2.4-0.3-4.4c-0.2-2-0.3-3.2-0.3-3.8s0.2-1,0.5-1.3c0.3-0.3,0.7-0.4,1.1-0.4
			c3.1,0,5.6,1.8,7.5,5.4c1.1,2.1,1.7,4.2,1.7,6.5l-0.1,2.3v2.5c0,3-0.1,5-0.4,6c-0.3,1-0.6,1.8-0.8,2.5c-0.3,0.7-0.6,1.3-1.1,1.8
			c-0.9,1.2-2.1,2.2-3.6,2.9h-3.2C1333.1,305.1,1332.7,303.1,1332.7,299.2z M1335.9,301.7v1.1c2.6,0,4.2-2.6,4.7-7.9
			c0.1-1.2,0.2-2.4,0.2-3.5c0-9-1.7-13.7-5.2-14.2c-0.2,1.2-0.3,2.8-0.3,4.9c0,2.1,0.1,5.3,0.3,9.7
			C1335.7,296.2,1335.9,299.5,1335.9,301.7z"/>
		<path class="st1" d="M1356.7,295.7l0.5,2.8c0,0.4,0.1,1.3,0.4,2.7s0.4,2.3,0.4,2.8v0c0,0.7-0.2,1.1-0.7,1.3
			c-0.6,0-1.1-0.1-1.5-0.3c-0.4-0.2-0.5-0.6-0.5-1.2c0-1.3-0.2-3.1-0.7-5.5l-4.4-0.7c-0.3,1-0.5,2.1-0.6,3.3c-0.1,1.2-0.3,2-0.4,2.6
			c-0.3,1.1-0.8,1.7-1.5,1.7c-0.4,0-0.7-0.1-1-0.3c-0.3-0.2-0.4-0.5-0.4-0.9l0.1-0.4c2-7.8,3.5-15.4,4.5-22.7c0-0.2,0.1-0.8,0.1-1.8
			c0.1-2.2,0.4-3.6,0.8-4.2h1.5c0.4,0,0.8,0.1,1.1,0.3c0.3,0.2,0.5,0.5,0.5,0.9c0,2.3,0.3,5.7,0.9,10.1S1356.7,293.7,1356.7,295.7z
			 M1354.4,296.6c-0.1-0.4-0.1-1.2-0.1-2.3s-0.1-2.4-0.2-4.1s-0.3-3.5-0.5-5.6c-0.2-2.1-0.4-3.7-0.5-4.7c-1.4,7.5-2.2,12.8-2.6,15.9
			C1350.9,296.2,1352.3,296.4,1354.4,296.6z"/>
		<path class="st1" d="M1367.3,286.6l0.3-8.4c0-1.4,0.5-2.5,1.6-3.3v0.3c0.1-0.1,0.2-0.1,0.3-0.1c0.7,0,1.6,1.2,2.6,3.6
			c1.1,2.4,2,5.1,2.8,8s1.7,5.8,2.5,8.8s1.4,4.7,1.6,5.2c0.6-6.3,0.9-13.9,0.9-22.8l-0.1-1.2c0-0.9,0.4-1.3,1.1-1.3
			c0.4,0,0.7,0.2,1,0.5c0.2,0.4,0.3,0.8,0.3,1.2v3.4c0,3.5-0.2,8.2-0.5,14.1c-0.3,5.9-0.7,9.2-1.2,10c-0.8,0.2-1.4,0.4-1.7,0.4
			s-0.6-0.1-0.7-0.3s-0.3-0.5-0.4-1c-0.1-0.4-0.2-0.7-0.3-0.9l0-0.2c0-1.1-1.1-4.6-3.2-10.6c-2.1-5.9-3.7-10-4.7-12.3v22.6
			c0,0.1,0.1,0.2,0.2,0.3c0.2,0.3,0.3,0.6,0.3,0.9c0,0.3-0.1,0.6-0.4,0.8s-0.6,0.4-1,0.4c-1,0-1.5-0.9-1.5-2.7L1367.3,286.6z"/>
		<path class="st1" d="M1397.3,303.1l-10.3,0.3c-0.5,0-0.9-0.1-1.2-0.3c-0.3-0.2-0.5-0.4-0.5-0.7s0.1-0.5,0.3-0.7
			c0.2-0.2,0.5-0.3,0.8-0.3h11.1c0.7,0,1.1,0.3,1.1,0.8c0,0.2-0.1,0.5-0.4,0.7S1397.6,303.1,1397.3,303.1z M1386,288.7l0-3.2
			c0-7.3,1.1-10.9,3.4-10.9c3.5,0,5.9,1.4,7.2,4.2c0.8,1.6,1.1,3.7,1.1,6v0.3l0.1,5.1c0,5.7-2,8.6-6,8.6c-1.7,0-2.9-0.6-3.8-1.9
			c-0.8-1.2-1.3-2.5-1.5-3.6C1386.2,291.6,1386,290,1386,288.7z M1395.4,290l0-2.9c0-3.2-0.2-5.4-0.7-6.8c-0.5-1.5-1.2-2.5-2-2.9
			c-0.5-0.3-1-0.4-1.6-0.4s-1,0.1-1.3,0.4c-0.4,0.2-0.6,0.6-0.8,1.1c-0.3,0.8-0.4,1.9-0.4,3.1l0,0.9l-0.2,4.1c0,4.2,0.6,7.2,1.7,8.8
			c0.4,0.6,0.9,0.9,1.4,0.9s1-0.1,1.4-0.3c0.4-0.2,0.7-0.4,1-0.7c0.3-0.3,0.5-0.7,0.7-1.1s0.3-0.8,0.4-1.2c0.1-0.4,0.2-0.8,0.3-1.2
			C1395.3,291.3,1395.4,290.6,1395.4,290z"/>
		<path class="st1" d="M1408.7,304.7l-6.8,0.4c-0.4,0-0.8-0.1-1.1-0.4c-0.3-0.2-0.5-0.6-0.5-1v-0.2c0.6-0.7,1.2-1.7,1.6-2.9
			c0.4-1.2,0.7-2,0.9-2.4c1.7-3.8,3-7.3,3.8-10.4c0.8-3.2,1.2-6.6,1.2-10.2c0-3.7-0.7-5.6-2.1-5.7c-0.5,0.3-0.8,1-1,2.1
			c-0.2,1.1-0.6,1.6-1.3,1.6s-1.1-0.5-1.1-1.4c0-1.5,0.4-2.6,1.3-3.5c0.5-0.5,1-0.7,1.6-0.7v0c1.5,0,2.7,0.5,3.4,1.4
			c0.5,0.7,0.8,1.4,1,1.9c0.1,0.6,0.2,1,0.3,1.4c0.1,0.3,0.1,0.8,0.1,1.3c0,0.8,0.1,1.9,0.1,3.4c0,1.5-0.3,3.5-0.8,5.9
			c-0.5,2.4-1.1,4.5-1.7,6.1c-0.6,1.7-1.4,3.7-2.3,6c-0.9,2.4-1.6,4.1-2,5.4c1.8-0.3,3.6-0.5,5.3-0.5c0.6,0.5,0.9,0.9,0.9,1.2
			S1409.1,304.4,1408.7,304.7z"/>
	</g>
</g>
</svg>
